<svg width="143" height="143" viewBox="0 0 143 143" fill="none" xmlns="http://www.w3.org/2000/svg">
<path opacity="0.5" d="M58.8328 18.7433C64.9022 9.78743 78.0978 9.78742 84.1672 18.7433V18.7433C87.6031 23.8133 93.7983 26.333 99.8106 25.1659V25.1659C110.368 23.1164 119.787 32.3862 117.709 42.9384V42.9384C116.528 48.9383 119.07 55.0607 124.155 58.4583V58.4583C133.129 64.4556 133.129 77.6479 124.155 83.6452V83.6452C119.07 87.0428 116.528 93.1652 117.709 99.1651V99.1651C119.787 109.717 110.368 118.987 99.8106 116.938V116.938C93.7983 115.771 87.6031 118.29 84.1672 123.36V123.36C78.0978 132.316 64.9022 132.316 58.8328 123.36V123.36C55.3969 118.29 49.2017 115.771 43.1894 116.938V116.938C32.6317 118.987 23.2135 109.717 25.2908 99.1651V99.1651C26.472 93.1652 23.9296 87.0428 18.8453 83.6452V83.6452C9.87075 77.6479 9.87075 64.4556 18.8453 58.4583V58.4583C23.9296 55.0607 26.472 48.9383 25.2908 42.9384V42.9384C23.2135 32.3862 32.6317 23.1164 43.1894 25.1659V25.1659C49.2017 26.333 55.3969 23.8133 58.8328 18.7433V18.7433Z" fill="#40C057"/>
<g clip-path="url(#clip0_1162_1266)">
<path d="M51.5835 71.0521L66.1668 85.6354L95.3335 56.4688" stroke="white" stroke-width="5" stroke-linecap="round" stroke-linejoin="round"/>
</g>
<defs>
<clipPath id="clip0_1162_1266">
<rect width="70" height="70" fill="white" transform="translate(37 36.0518)"/>
</clipPath>
</defs>
</svg>
