<svg width="204" height="274" viewBox="0 0 204 274" fill="none" xmlns="http://www.w3.org/2000/svg">
<g filter="url(#filter0_dd_6177_290)">
<circle cx="102.165" cy="92.3087" r="62.629" fill="#FEB82F"/>
<path d="M115.851 175.47C120.164 171.673 126.002 170.108 131.632 171.243L133.823 171.684C142.908 173.514 151.937 168.295 154.886 159.502L155.592 157.398C157.427 151.935 161.713 147.649 167.17 145.814L169.273 145.107C178.058 142.153 183.277 133.123 181.448 124.032L181.007 121.84C179.873 116.204 181.437 110.362 185.232 106.05L186.728 104.351C192.842 97.3997 192.842 86.9826 186.728 80.0314L185.232 78.3327C181.437 74.0173 179.873 68.1759 181.007 62.5426L181.448 60.3507C183.277 51.2597 178.061 42.2263 169.273 39.2754L167.17 38.5685C161.71 36.7328 157.427 32.4448 155.592 26.9842L154.886 24.8799C151.934 16.0903 142.908 10.8681 133.823 12.6983L131.632 13.1395C125.999 14.2738 120.161 12.7093 115.851 8.91179L114.153 7.4158C107.206 1.2976 96.7945 1.2976 89.8473 7.4158L88.1495 8.91179C83.8366 12.7093 77.9984 14.2738 72.3683 13.1395L70.1776 12.6983C61.0918 10.8681 52.0634 16.0876 49.1142 24.8799L48.4077 26.9842C46.573 32.4475 42.2875 36.7328 36.8299 38.5685L34.7269 39.2754C25.9422 42.229 20.7229 51.2597 22.5521 60.3507L22.993 62.5454C24.1267 68.1814 22.5631 74.0228 18.7677 78.3354L17.2726 80.0342C11.1578 86.9853 11.1578 97.4024 17.2726 104.354L18.7677 106.052C22.5631 110.368 24.1267 116.209 22.993 121.842L22.5521 124.034C20.7229 133.125 25.9395 142.159 34.7269 145.11L36.8299 145.816C42.2902 147.652 46.573 151.94 48.4077 157.401L49.1142 159.505C52.0662 168.295 61.0918 173.517 70.1776 171.687L72.3683 171.246C78.0011 170.111 83.8393 171.676 88.1495 175.473L89.8473 176.969C96.7945 183.087 107.206 183.087 114.153 176.969L115.851 175.473V175.47ZM31.4217 92.1939C31.4217 53.1914 63.0223 21.5729 102.003 21.5729C140.983 21.5729 172.584 53.1914 172.584 92.1939C172.584 131.196 140.983 162.815 102.003 162.815C63.0223 162.815 31.4217 131.194 31.4217 92.1939Z" fill="#ED786C"/>
<path d="M78.6924 87.8154H98.5771V57.6455L78.6924 87.8154Z" fill="#EA5E4F"/>
<rect x="98.5781" y="57.6455" width="15.5421" height="69.4823" fill="#072C3F"/>
<path d="M101.655 187.077V213.248L41.0016 251.542L38.0439 156.607C41.3548 158.66 43.8853 161.671 45.1861 165.221L45.8899 167.153C48.842 175.222 60.8286 179.699 69.9151 178.019L72.1059 177.614C77.7391 176.572 83.5776 178.008 87.8909 181.493L89.586 182.866C93.0393 185.655 97.3443 187.058 101.655 187.077Z" fill="#5D9A83"/>
<path d="M164.88 156.468L162.47 251.539L101.732 213.19L101.647 213.245V187.077C106.015 187.093 110.389 185.691 113.886 182.863L115.584 181.491C119.897 178.005 125.736 176.57 131.366 177.611L133.56 178.016C142.646 179.696 154.082 175.082 157.034 167.016L157.741 165.084C159.042 161.531 161.572 158.52 164.88 156.468Z" fill="#3D866B"/>
</g>
<defs>
<filter id="filter0_dd_6177_290" x="0.686523" y="0.827148" width="202.627" height="272.715" filterUnits="userSpaceOnUse" color-interpolation-filters="sRGB">
<feFlood flood-opacity="0" result="BackgroundImageFix"/>
<feColorMatrix in="SourceAlpha" type="matrix" values="0 0 0 0 0 0 0 0 0 0 0 0 0 0 0 0 0 0 127 0" result="hardAlpha"/>
<feMorphology radius="3" operator="erode" in="SourceAlpha" result="effect1_dropShadow_6177_290"/>
<feOffset dy="10"/>
<feGaussianBlur stdDeviation="7.5"/>
<feComposite in2="hardAlpha" operator="out"/>
<feColorMatrix type="matrix" values="0 0 0 0 0.0627451 0 0 0 0 0.0941176 0 0 0 0 0.156863 0 0 0 0.1 0"/>
<feBlend mode="normal" in2="BackgroundImageFix" result="effect1_dropShadow_6177_290"/>
<feColorMatrix in="SourceAlpha" type="matrix" values="0 0 0 0 0 0 0 0 0 0 0 0 0 0 0 0 0 0 127 0" result="hardAlpha"/>
<feMorphology radius="4" operator="erode" in="SourceAlpha" result="effect2_dropShadow_6177_290"/>
<feOffset dy="4"/>
<feGaussianBlur stdDeviation="3"/>
<feComposite in2="hardAlpha" operator="out"/>
<feColorMatrix type="matrix" values="0 0 0 0 0.0627451 0 0 0 0 0.0941176 0 0 0 0 0.156863 0 0 0 0.1 0"/>
<feBlend mode="normal" in2="effect1_dropShadow_6177_290" result="effect2_dropShadow_6177_290"/>
<feBlend mode="normal" in="SourceGraphic" in2="effect2_dropShadow_6177_290" result="shape"/>
</filter>
</defs>
</svg>
