<svg width="204" height="274" viewBox="0 0 204 274" fill="none" xmlns="http://www.w3.org/2000/svg">
<g filter="url(#filter0_dd_6177_299)">
<ellipse cx="102.165" cy="92.3087" rx="62.629" ry="62.629" fill="#CCCBCB"/>
<path d="M115.851 175.47C120.164 171.673 126.002 170.108 131.632 171.243L133.822 171.684C142.908 173.514 151.937 168.295 154.886 159.502L155.592 157.398C157.427 151.935 161.713 147.649 167.17 145.814L169.273 145.107C178.058 142.153 183.277 133.123 181.448 124.032L181.007 121.84C179.873 116.204 181.437 110.362 185.232 106.05L186.727 104.351C192.842 97.3997 192.842 86.9826 186.727 80.0314L185.232 78.3327C181.437 74.0173 179.873 68.1759 181.007 62.5426L181.448 60.3507C183.277 51.2597 178.061 42.2263 169.273 39.2754L167.17 38.5685C161.71 36.7328 157.427 32.4448 155.592 26.9842L154.886 24.8799C151.934 16.0903 142.908 10.8681 133.822 12.6983L131.632 13.1395C125.999 14.2738 120.161 12.7093 115.851 8.91179L114.153 7.4158C107.206 1.2976 96.7944 1.2976 89.8472 7.4158L88.1494 8.91179C83.8365 12.7093 77.9983 14.2738 72.3683 13.1395L70.1776 12.6983C61.0917 10.8681 52.0634 16.0876 49.1142 24.8799L48.4077 26.9842C46.573 32.4475 42.2875 36.7328 36.8299 38.5685L34.7269 39.2754C25.9422 42.229 20.7229 51.2597 22.5521 60.3507L22.993 62.5454C24.1267 68.1814 22.5631 74.0228 18.7677 78.3354L17.2726 80.0342C11.1578 86.9853 11.1578 97.4024 17.2726 104.354L18.7677 106.052C22.5631 110.368 24.1267 116.209 22.993 121.842L22.5521 124.034C20.7229 133.125 25.9395 142.159 34.7269 145.11L36.8299 145.816C42.2902 147.652 46.573 151.94 48.4077 157.401L49.1142 159.505C52.0661 168.295 61.0917 173.517 70.1776 171.687L72.3683 171.246C78.0011 170.111 83.8393 171.676 88.1494 175.473L89.8472 176.969C96.7944 183.087 107.206 183.087 114.153 176.969L115.851 175.473V175.47ZM31.4217 92.1939C31.4217 53.1914 63.0223 21.5729 102.003 21.5729C140.983 21.5729 172.584 53.1914 172.584 92.1939C172.584 131.196 140.983 162.815 102.003 162.815C63.0223 162.815 31.4217 131.194 31.4217 92.1939Z" fill="#ED786C"/>
<path d="M101.656 187.077V213.248L41.0025 251.542L38.0449 156.607C41.3558 158.66 43.8862 161.671 45.187 165.221L45.8908 167.153C48.843 175.222 60.8296 179.699 69.916 178.019L72.1069 177.614C77.74 176.572 83.5786 178.008 87.8918 181.493L89.5869 182.866C93.0402 185.655 97.3452 187.058 101.656 187.077Z" fill="#5D9A83"/>
<path d="M164.881 156.468L162.471 251.539L101.733 213.19L101.648 213.245V187.077C106.016 187.093 110.39 185.691 113.887 182.863L115.585 181.491C119.898 178.005 125.737 176.57 131.367 177.611L133.561 178.016C142.647 179.696 154.083 175.082 157.035 167.016L157.742 165.084C159.043 161.531 161.573 158.52 164.881 156.468Z" fill="#3D866B"/>
<path d="M99.3043 111.07C114.061 111.07 126.021 99.1093 126.021 84.3561C126.021 69.6029 114.061 57.6455 99.3043 57.6455" fill="#072C3F"/>
<rect x="76.0811" y="111.07" width="51.9093" height="15.9371" fill="#EA5E4F"/>
<ellipse cx="87.6923" cy="69.2568" rx="11.6113" ry="11.6113" fill="#326F59"/>
</g>
<defs>
<filter id="filter0_dd_6177_299" x="0.686523" y="0.827148" width="202.627" height="272.715" filterUnits="userSpaceOnUse" color-interpolation-filters="sRGB">
<feFlood flood-opacity="0" result="BackgroundImageFix"/>
<feColorMatrix in="SourceAlpha" type="matrix" values="0 0 0 0 0 0 0 0 0 0 0 0 0 0 0 0 0 0 127 0" result="hardAlpha"/>
<feMorphology radius="3" operator="erode" in="SourceAlpha" result="effect1_dropShadow_6177_299"/>
<feOffset dy="10"/>
<feGaussianBlur stdDeviation="7.5"/>
<feComposite in2="hardAlpha" operator="out"/>
<feColorMatrix type="matrix" values="0 0 0 0 0.0627451 0 0 0 0 0.0941176 0 0 0 0 0.156863 0 0 0 0.1 0"/>
<feBlend mode="normal" in2="BackgroundImageFix" result="effect1_dropShadow_6177_299"/>
<feColorMatrix in="SourceAlpha" type="matrix" values="0 0 0 0 0 0 0 0 0 0 0 0 0 0 0 0 0 0 127 0" result="hardAlpha"/>
<feMorphology radius="4" operator="erode" in="SourceAlpha" result="effect2_dropShadow_6177_299"/>
<feOffset dy="4"/>
<feGaussianBlur stdDeviation="3"/>
<feComposite in2="hardAlpha" operator="out"/>
<feColorMatrix type="matrix" values="0 0 0 0 0.0627451 0 0 0 0 0.0941176 0 0 0 0 0.156863 0 0 0 0.1 0"/>
<feBlend mode="normal" in2="effect1_dropShadow_6177_299" result="effect2_dropShadow_6177_299"/>
<feBlend mode="normal" in="SourceGraphic" in2="effect2_dropShadow_6177_299" result="shape"/>
</filter>
</defs>
</svg>
