<svg width="180" height="250" viewBox="0 0 180 250" fill="none" xmlns="http://www.w3.org/2000/svg">
<circle cx="90.1652" cy="90.3087" r="62.629" fill="#945821"/>
<path d="M103.851 173.47C108.164 169.673 114.002 168.108 119.632 169.243L121.823 169.684C130.908 171.514 139.937 166.295 142.886 157.502L143.592 155.398C145.427 149.935 149.713 145.649 155.17 143.814L157.273 143.107C166.058 140.153 171.277 131.123 169.448 122.032L169.007 119.84C167.873 114.204 169.437 108.362 173.232 104.05L174.728 102.351C180.842 95.3997 180.842 84.9826 174.728 78.0314L173.232 76.3327C169.437 72.0173 167.873 66.1759 169.007 60.5426L169.448 58.3507C171.277 49.2597 166.061 40.2263 157.273 37.2754L155.17 36.5685C149.71 34.7328 145.427 30.4448 143.592 24.9842L142.886 22.8799C139.934 14.0903 130.908 8.86808 121.823 10.6983L119.632 11.1395C113.999 12.2738 108.161 10.7093 103.851 6.91179L102.153 5.4158C95.2057 -0.702402 84.7945 -0.702402 77.8473 5.4158L76.1495 6.91179C71.8366 10.7093 65.9984 12.2738 60.3683 11.1395L58.1776 10.6983C49.0918 8.86808 40.0634 14.0876 37.1142 22.8799L36.4077 24.9842C34.573 30.4475 30.2875 34.7328 24.8299 36.5685L22.7269 37.2754C13.9422 40.229 8.72292 49.2597 10.5521 58.3507L10.993 60.5454C12.1267 66.1814 10.5631 72.0228 6.76773 76.3354L5.27259 78.0342C-0.842164 84.9853 -0.842164 95.4024 5.27259 102.354L6.76773 104.052C10.5631 108.368 12.1267 114.209 10.993 119.842L10.5521 122.034C8.72292 131.125 13.9395 140.159 22.7269 143.11L24.8299 143.816C30.2902 145.652 34.573 149.94 36.4077 155.401L37.1142 157.505C40.0662 166.295 49.0918 171.517 58.1776 169.687L60.3683 169.246C66.0011 168.111 71.8393 169.676 76.1495 173.473L77.8473 174.969C84.7945 181.087 95.2057 181.087 102.153 174.969L103.851 173.473V173.47ZM19.4217 90.1939C19.4217 51.1914 51.0223 19.5729 90.0028 19.5729C128.983 19.5729 160.584 51.1914 160.584 90.1939C160.584 129.196 128.983 160.815 90.0028 160.815C51.0223 160.815 19.4217 129.194 19.4217 90.1939Z" fill="#ED786C"/>
<path d="M89.6557 185.077V211.248L29.0025 249.542L26.0449 154.607C29.3558 156.66 31.8862 159.671 33.187 163.221L33.8908 165.153C36.843 173.222 48.8296 177.699 57.916 176.019L60.1069 175.614C65.7401 174.572 71.5786 176.008 75.8918 179.493L77.587 180.866C81.0403 183.655 85.3453 185.058 89.6557 185.077Z" fill="#5D9A83"/>
<path d="M152.881 154.468L150.471 249.539L89.7333 211.19L89.6484 211.245V185.077C94.0164 185.093 98.3899 183.691 101.887 180.863L103.585 179.491C107.898 176.005 113.737 174.57 119.367 175.611L121.561 176.016C130.647 177.696 142.083 173.082 145.035 165.016L145.742 163.084C147.043 159.531 149.573 156.52 152.881 154.468Z" fill="#3D866B"/>
<path d="M93.501 93.7743C104.031 93.7743 112.565 85.2378 112.565 74.7086C112.565 64.1794 104.031 55.6455 93.501 55.6455" fill="#072C3F"/>
<path d="M93.501 125.008C104.031 125.008 112.565 116.471 112.565 105.942C112.565 95.4128 104.031 86.8789 93.501 86.8789" fill="#EA5E4F"/>
<path d="M74.4375 90.3262L93.5019 101.346V79.3067L74.4375 90.3262Z" fill="#FCF9E6"/>
<rect x="67.8115" y="55.6455" width="25.6896" height="11.8984" fill="#FCF9E6"/>
<rect x="67.8115" y="113.108" width="25.6896" height="11.8984" fill="#FCF9E6"/>
</svg>
