<svg width="208" height="61" viewBox="0 0 208 61" fill="none" xmlns="http://www.w3.org/2000/svg">
<g clip-path="url(#clip0_5875_1913)">
<path fill-rule="evenodd" clip-rule="evenodd" d="M0.0683594 5.15056C0.0683594 9.72156 0.524158 10.5186 9.63514 21.9006C14.8977 28.4736 20.024 34.8946 21.0281 36.1706L22.8543 38.4886L25.8379 36.2716L28.8215 34.0556L25.82 29.6716C20.0518 21.2476 17.5449 14.4356 17.5131 7.10256L17.4842 0.354563L8.77629 0.352563L0.0683594 0.351562V5.15056ZM25.196 6.16456C25.6826 11.5496 29.5957 21.4116 31.7861 22.7716C32.2837 23.0816 32.9863 21.7536 33.3476 19.8216C34.7996 12.0416 44.6371 5.42156 52.7986 6.73356L56.7943 7.37556V3.86356V0.351562H40.7329H24.6715L25.196 6.16456ZM74.3047 2.45456C76.0304 4.36756 76.2274 6.58156 76.5031 27.0566C76.7828 47.8526 76.6554 49.8606 74.8262 53.5756L72.8468 57.5956L87.4612 57.1386C98.2421 56.8006 103.117 56.2316 106.042 54.9686C113.64 51.6896 117.501 46.3246 117.501 39.0496C117.501 33.4116 114.395 28.6916 108.844 25.8906C104.899 23.8996 104.787 23.7276 106.853 22.8166C110.022 21.4196 112.87 15.0166 112.118 10.9836C111.393 7.09856 107.386 3.07056 102.674 1.48756C100.813 0.862563 93.2422 0.351562 85.85 0.351562H72.4089L74.3047 2.45456ZM126.385 2.98656C128.34 5.48256 128.448 6.86056 128.448 29.1716C128.448 51.9756 128.379 52.7966 126.285 55.0376L124.12 57.3516H131.283H138.446L136.907 54.9926C135.631 53.0346 135.416 49.4286 135.64 33.7746L135.912 14.9166L148.123 31.5376C154.84 40.6796 163.349 50.9936 167.032 54.4576L173.729 60.7556L174.227 32.6566C174.685 6.83056 174.878 4.38756 176.62 2.45456L178.516 0.351562H171.366H164.215L166.258 3.12856C168.172 5.72956 168.285 7.07956 168.03 24.3546L167.758 42.8026L153.735 23.8266C146.023 13.3906 139.086 3.83956 138.319 2.60156C137.112 0.652562 136.083 0.351562 130.625 0.351562H124.323L126.385 2.98656ZM190.742 2.45556C192.497 4.40356 192.638 6.36756 192.638 28.8496C192.638 51.3326 192.497 53.2966 190.742 55.2456L188.846 57.3516H197.46H206.073L204.083 55.3516C202.201 53.4606 202.092 52.0186 202.092 28.8516C202.092 5.68456 202.201 4.24256 204.083 2.35156C206.073 0.351562 206.073 0.351562 197.46 0.351562H188.846L190.742 2.45556ZM85.6549 14.2116V23.3516H90.1651C96.2885 23.3516 101.353 21.1006 102.117 18.0386C103.945 10.7266 100.34 6.59456 91.3185 5.65956L85.6549 5.07156V14.2116ZM42.364 13.2506C39.5825 14.4596 37.2736 17.3616 36.5043 20.6146C35.5569 24.6186 39.3486 32.7426 44.0539 36.7896C48.0466 40.2236 50.6211 41.1456 54.5551 40.5506C56.7257 40.2226 56.7943 39.8666 56.7943 28.8506V17.4876L53.8187 15.3586C50.4191 12.9266 45.2839 11.9816 42.364 13.2506ZM0.0683594 39.1846C0.0683594 48.6266 0.327109 56.3516 0.644576 56.3516C1.32827 56.3516 15.7008 44.6326 16.3885 43.5146C16.7398 42.9446 3.71872 25.6856 0.488331 22.4396C0.257446 22.2076 0.0683594 29.7436 0.0683594 39.1846ZM85.6549 39.7176V51.3516H90.9802C103.952 51.3516 110.819 44.7576 107.117 35.8556C105.271 31.4146 100.725 29.1666 92.3804 28.5666L85.6549 28.0826V39.7176ZM28.1825 39.0256C26.9505 39.8896 25.9434 41.1456 25.9434 41.8176C25.9434 42.4896 28.1577 45.3596 30.8636 48.1956C34.4174 51.9206 36.5322 53.3516 38.4818 53.3516C41.1171 53.3516 41.138 53.3986 39.3785 55.3516C37.5891 57.3386 37.6399 57.3516 47.1857 57.3516H56.7943V50.8516C56.7943 47.2766 56.5107 44.3516 56.1634 44.3516C55.816 44.3516 53.8953 44.8446 51.895 45.4466C46.9797 46.9266 41.3858 45.3336 35.7848 40.8606C30.7909 36.8706 31.1373 36.9546 28.1825 39.0256ZM12.9471 51.6376L6.53711 56.8516L16.3686 57.1396C21.7755 57.2976 26.433 57.1936 26.7166 56.9076C27.267 56.3546 22.5279 49.0686 20.5405 47.4106C19.7075 46.7166 17.4574 47.9696 12.9471 51.6376Z" fill="#A8A699"/>
</g>
<defs>
<clipPath id="clip0_5875_1913">
<rect width="207" height="60" fill="white" transform="translate(0.0683594 0.351562)"/>
</clipPath>
</defs>
</svg>
