<svg width="1280" height="280" viewBox="0 0 1280 280" fill="none" xmlns="http://www.w3.org/2000/svg">
<rect x="-116.989" y="169.863" width="1435.88" height="74.6485" transform="rotate(-5.1585 -116.989 169.863)" fill="#072C3F"/>
<path d="M624.376 130.986L624.826 137.141L609.008 138.297L608.558 132.142L624.376 130.986ZM613.301 155.556L611.525 131.244C611.382 129.295 611.613 127.654 612.217 126.321C612.82 124.988 613.735 123.957 614.961 123.228C616.186 122.499 617.661 122.071 619.384 121.945C620.461 121.867 621.513 121.872 622.541 121.962C623.579 122.051 624.348 122.139 624.85 122.226L624.064 128.41C623.75 128.34 623.385 128.294 622.971 128.273C622.557 128.242 622.195 128.237 621.887 128.259C621.087 128.318 620.561 128.527 620.309 128.885C620.057 129.244 619.951 129.7 619.991 130.254L621.795 154.936L613.301 155.556ZM640.08 154.032C637.515 154.22 635.283 153.873 633.383 152.99C631.482 152.098 629.977 150.775 628.869 149.02C627.761 147.255 627.118 145.162 626.941 142.741C626.764 140.32 627.096 138.161 627.937 136.264C628.777 134.356 630.073 132.828 631.825 131.679C633.576 130.52 635.734 129.846 638.298 129.659C640.863 129.472 643.096 129.824 644.997 130.716C646.897 131.599 648.401 132.922 649.51 134.687C650.618 136.442 651.26 138.53 651.437 140.951C651.614 143.371 651.283 145.536 650.442 147.443C649.601 149.34 648.305 150.869 646.554 152.028C644.802 153.177 642.644 153.845 640.08 154.032ZM639.683 147.75C640.401 147.697 641.004 147.411 641.492 146.891C641.979 146.37 642.334 145.653 642.556 144.74C642.778 143.826 642.844 142.754 642.754 141.523C642.664 140.282 642.443 139.231 642.091 138.37C641.738 137.498 641.283 136.84 640.725 136.397C640.166 135.953 639.528 135.757 638.81 135.809C638.051 135.865 637.417 136.154 636.909 136.675C636.4 137.197 636.035 137.915 635.813 138.828C635.59 139.732 635.524 140.804 635.615 142.045C635.705 143.276 635.926 144.327 636.278 145.199C636.631 146.07 637.097 146.727 637.675 147.17C638.254 147.612 638.923 147.805 639.683 147.75ZM655.743 152.455L654.016 128.82L662.264 128.217L662.592 132.71L662.838 132.692C663.148 130.999 663.741 129.733 664.618 128.896C665.506 128.057 666.58 127.592 667.842 127.5C668.211 127.473 668.578 127.477 668.941 127.512C669.314 127.537 669.674 127.588 670.02 127.666L670.55 134.913C670.119 134.8 669.593 134.73 668.972 134.703C668.351 134.677 667.82 134.679 667.379 134.711C666.548 134.772 665.813 135.017 665.174 135.445C664.545 135.862 664.065 136.423 663.735 137.128C663.404 137.823 663.272 138.621 663.337 139.524L664.237 151.834L655.743 152.455Z" fill="#FCEDEE"/>
<rect x="-32.4551" y="1.19434" width="1344.46" height="74.6485" transform="rotate(1.84848 -32.4551 1.19434)" fill="#EA5E4F"/>
<path d="M392.193 61.4026L393.083 33.8412L412.3 34.4614L412.126 39.8714L399.57 39.4662L399.387 45.1184L410.961 45.492L410.786 50.9154L399.212 50.5419L399.029 56.2076L411.585 56.6128L411.411 62.0228L392.193 61.4026ZM415.583 62.1575L416.25 41.4864L422.508 41.6884L422.385 45.4835L422.614 45.4908C423.085 44.2487 423.844 43.2808 424.89 42.587C425.936 41.8933 427.168 41.5694 428.586 41.6151C430.021 41.6614 431.238 42.0689 432.237 42.8376C433.237 43.6063 433.855 44.6142 434.093 45.8613L434.309 45.8683C434.734 44.6516 435.519 43.6935 436.665 42.994C437.81 42.2855 439.146 41.9559 440.671 42.0051C442.627 42.0682 444.194 42.7475 445.374 44.043C446.554 45.3294 447.109 47.0627 447.038 49.2429L446.589 63.1582L440.008 62.9458L440.409 50.5378C440.442 49.506 440.203 48.7124 439.691 48.157C439.179 47.5927 438.502 47.2969 437.658 47.2697C436.752 47.2404 436.029 47.5135 435.49 48.0888C434.96 48.6555 434.679 49.4323 434.647 50.4192L434.248 62.7599L427.923 62.5558L428.326 50.0804C428.357 49.1205 428.121 48.3539 427.619 47.7809C427.116 47.2079 426.439 46.9076 425.587 46.8801C425.013 46.8615 424.501 46.9842 424.053 47.2482C423.604 47.5031 423.246 47.8778 422.979 48.3721C422.72 48.8667 422.58 49.4549 422.558 50.1368L422.163 62.3699L415.583 62.1575ZM450.417 71.0414L451.334 42.6187L457.848 42.8289L457.733 46.3683L457.935 46.3748C458.225 45.7555 458.625 45.1622 459.138 44.5949C459.659 44.028 460.311 43.573 461.095 43.2301C461.887 42.8785 462.827 42.7202 463.912 42.7552C465.348 42.8015 466.677 43.2216 467.9 44.0155C469.131 44.8097 470.108 46.0043 470.829 47.5992C471.549 49.1942 471.871 51.2074 471.792 53.6387C471.717 55.9804 471.281 57.9287 470.485 59.4837C469.699 61.039 468.665 62.1911 467.383 62.9401C466.111 63.6894 464.712 64.0394 463.186 63.9902C462.146 63.9566 461.25 63.757 460.498 63.3915C459.746 63.026 459.119 62.5567 458.617 61.9836C458.124 61.4109 457.748 60.8015 457.49 60.1555L457.356 60.1512L456.998 71.2538L450.417 71.0414ZM457.447 53.1623C457.411 54.2748 457.528 55.2485 457.797 56.0835C458.075 56.9187 458.49 57.5743 459.04 58.0501C459.6 58.5172 460.279 58.7636 461.078 58.7894C461.885 58.8155 462.579 58.6133 463.158 58.183C463.738 57.7436 464.185 57.1159 464.499 56.2998C464.822 55.4839 465.001 54.5197 465.037 53.4072C465.073 52.2947 464.956 51.3255 464.686 50.4995C464.425 49.6738 464.02 49.0275 463.469 48.5607C462.927 48.0941 462.248 47.8477 461.432 47.8213C460.624 47.7953 459.931 47.9929 459.351 48.4143C458.772 48.8357 458.316 49.4497 457.985 50.2563C457.663 51.0632 457.483 52.0318 457.447 53.1623ZM484.544 64.7738C482.373 64.7037 480.521 64.1994 478.989 63.2608C477.466 62.3135 476.308 61.0278 475.516 59.4036C474.734 57.7707 474.377 55.8956 474.445 53.7782C474.514 51.6519 474.991 49.8037 475.877 48.2337C476.772 46.6549 478.01 45.4465 479.591 44.6084C481.181 43.7616 483.061 43.3732 485.233 43.4433C487.404 43.5134 489.251 44.022 490.774 44.9693C492.307 45.9079 493.464 47.1936 494.247 48.8265C495.038 50.4507 495.4 52.326 495.331 54.4523C495.263 56.5696 494.781 58.4177 493.886 59.9964C493 61.5665 491.762 62.7749 490.172 63.6217C488.591 64.4598 486.715 64.8438 484.544 64.7738ZM484.745 59.8092C485.534 59.8347 486.211 59.614 486.773 59.1472C487.336 58.6804 487.775 58.0209 488.09 57.1689C488.414 56.3172 488.594 55.3261 488.631 54.1956C488.668 53.0472 488.552 52.0376 488.284 51.1668C488.025 50.2962 487.629 49.6099 487.098 49.1077C486.566 48.6056 485.905 48.3418 485.116 48.3163C484.299 48.2899 483.601 48.5099 483.02 48.9761C482.448 49.4426 482 50.1018 481.676 50.9535C481.361 51.8055 481.185 52.8057 481.148 53.9541C481.112 55.0846 481.223 56.0851 481.482 56.9557C481.751 57.8265 482.155 58.5131 482.696 59.0156C483.245 59.5183 483.928 59.7828 484.745 59.8092ZM501.789 64.9396L497.073 44.0949L503.681 44.3081L506.04 57.6404L506.215 57.6461L509.63 44.5001L516.076 44.7081L518.72 57.9553L518.895 57.961L522.024 44.9001L528.632 45.1133L522.568 65.6102L515.53 65.3831L512.689 53.2342L512.46 53.2268L508.841 65.1672L501.789 64.9396ZM539.812 66.5574C537.65 66.4876 535.797 66.0013 534.255 65.0983C532.721 64.1866 531.559 62.9231 530.766 61.3079C529.984 59.684 529.628 57.773 529.699 55.5749C529.768 53.4396 530.249 51.5871 531.144 50.0173C532.04 48.4386 533.269 47.2299 534.831 46.3912C536.394 45.5435 538.217 45.1532 540.298 45.2204C541.77 45.2679 543.108 45.5401 544.313 46.0371C545.519 46.534 546.551 47.2454 547.41 48.1712C548.27 49.0971 548.925 50.2274 549.376 51.5622C549.827 52.888 550.025 54.3987 549.97 56.0944L549.917 57.7363L531.951 57.1564L532.075 53.3344L543.917 53.7166C543.931 53.0166 543.785 52.3877 543.48 51.83C543.175 51.2722 542.744 50.8318 542.189 50.5085C541.643 50.1765 541.006 49.9988 540.28 49.9753C539.544 49.9516 538.879 50.0963 538.285 50.4094C537.692 50.7136 537.215 51.1428 536.856 51.697C536.497 52.2423 536.297 52.869 536.256 53.5772L536.131 57.4665C536.104 58.3098 536.246 59.0553 536.557 59.7031C536.869 60.3418 537.324 60.846 537.923 61.2155C538.522 61.5851 539.243 61.7835 540.086 61.8108C540.669 61.8296 541.201 61.7659 541.682 61.6198C542.163 61.4736 542.579 61.249 542.93 60.946C543.281 60.643 543.549 60.2655 543.734 59.8134L549.771 60.1834C549.476 61.53 548.886 62.692 548.001 63.6694C547.126 64.638 545.993 65.3783 544.602 65.8903C543.212 66.3932 541.615 66.6156 539.812 66.5574ZM552.996 66.5922L553.663 45.9212L560.056 46.1275L559.934 49.8957L560.149 49.9026C560.57 48.551 561.217 47.5571 562.091 46.9207C562.965 46.2753 563.967 45.9708 565.098 46.0073C565.403 46.0172 565.716 46.0497 566.038 46.105C566.36 46.1513 566.658 46.2193 566.934 46.3091L566.749 52.0286C566.439 51.9108 566.029 51.8122 565.519 51.7329C565.019 51.6539 564.571 51.608 564.177 51.5953C563.396 51.5701 562.686 51.7223 562.047 52.052C561.417 52.3729 560.912 52.8371 560.533 53.4446C560.164 54.0434 559.966 54.7555 559.939 55.5809L559.577 66.8046L552.996 66.5922ZM568.947 67.107L569.614 46.436L576.195 46.6484L575.528 67.3194L568.947 67.107ZM572.989 44.1334C572.065 44.1036 571.281 43.773 570.636 43.1414C569.992 42.501 569.684 41.7456 569.713 40.8753C569.74 40.014 570.096 39.2891 570.78 38.7004C571.464 38.1028 572.268 37.8189 573.192 37.8487C574.125 37.8788 574.909 38.214 575.544 38.8541C576.188 39.4857 576.496 40.2321 576.468 41.0934C576.44 41.9636 576.084 42.6976 575.4 43.2952C574.726 43.8841 573.922 44.1636 572.989 44.1334ZM586.678 55.878L586.297 67.667L579.716 67.4546L580.383 46.7835L586.641 46.9855L586.519 50.7806L586.748 50.788C587.246 49.5377 588.059 48.5715 589.185 47.8894C590.312 47.1983 591.638 46.8773 593.164 46.9266C594.617 46.9735 595.867 47.3416 596.913 48.031C597.969 48.7117 598.774 49.6448 599.329 50.8303C599.893 52.007 600.145 53.3713 600.086 54.9232L599.661 68.0983L593.08 67.8859L593.463 56.0027C593.509 54.8546 593.247 53.948 592.675 53.2829C592.113 52.6181 591.312 52.269 590.271 52.2354C589.58 52.2131 588.965 52.3459 588.426 52.6339C587.896 52.9131 587.478 53.3263 587.173 53.8733C586.877 54.4205 586.712 55.0888 586.678 55.878ZM613.107 76.723C611.142 76.6596 609.468 76.3317 608.087 75.7392C606.705 75.1468 605.63 74.3622 604.862 73.3854C604.094 72.4086 603.649 71.3165 603.526 70.1091L609.768 69.9603C609.871 70.3857 610.075 70.7605 610.379 71.0846C610.692 71.4091 611.101 71.6648 611.607 71.8517C612.122 72.039 612.729 72.1439 613.429 72.1665C614.532 72.2021 615.452 71.9624 616.187 71.4472C616.931 70.9413 617.324 70.0245 617.367 68.6966L617.484 65.0631L617.255 65.0557C616.975 65.6843 616.561 66.2412 616.016 66.7266C615.47 67.2119 614.798 67.5854 613.999 67.847C613.21 68.1089 612.308 68.2235 611.294 68.1908C609.787 68.1422 608.416 67.7477 607.183 67.0073C605.959 66.2583 604.994 65.1315 604.288 63.6268C603.591 62.1134 603.281 60.1859 603.356 57.8443C603.434 55.4309 603.884 53.4561 604.706 51.9199C605.528 50.3747 606.575 49.2454 607.846 48.532C609.127 47.8189 610.489 47.4857 611.934 47.5323C613.019 47.5674 613.942 47.7857 614.701 48.1875C615.47 48.5805 616.096 49.0767 616.58 49.6761C617.063 50.2755 617.425 50.8934 617.665 51.5298L617.853 51.5359L617.968 47.9965L624.521 48.208L623.852 68.9598C623.795 70.7093 623.308 72.171 622.39 73.3448C621.472 74.5187 620.213 75.3897 618.614 75.9578C617.015 76.5348 615.179 76.7899 613.107 76.723ZM613.736 63.4737C614.535 63.4995 615.224 63.3106 615.802 62.9072C616.381 62.5038 616.836 61.9122 617.166 61.1325C617.497 60.3529 617.68 59.4112 617.716 58.3077C617.752 57.1862 617.63 56.2168 617.351 55.3995C617.082 54.5735 616.667 53.9315 616.107 53.4733C615.556 53.0155 614.881 52.7737 614.083 52.7479C613.266 52.7215 612.568 52.9235 611.988 53.3539C611.409 53.7842 610.958 54.4028 610.635 55.2097C610.322 56.0079 610.148 56.9588 610.112 58.0623C610.076 59.1659 610.194 60.1172 610.464 60.9162C610.735 61.7153 611.142 62.3347 611.684 62.7743C612.236 63.2142 612.92 63.4473 613.736 63.4737ZM661.777 52.5089L655.048 52.2917C654.981 51.598 654.817 50.9685 654.557 50.4033C654.296 49.838 653.944 49.3507 653.499 48.9411C653.054 48.5316 652.521 48.2135 651.9 47.9869C651.288 47.7516 650.605 47.6218 649.851 47.5975C648.514 47.5543 647.351 47.8446 646.361 48.4683C645.38 49.0922 644.609 50.0149 644.049 51.2362C643.497 52.4578 643.193 53.9478 643.137 55.7063C643.077 57.5366 643.288 59.0791 643.769 60.334C644.258 61.5803 644.968 62.5327 645.899 63.1915C646.839 63.8415 647.964 64.1876 649.274 64.2299C650.01 64.2537 650.681 64.181 651.288 64.012C651.904 63.8433 652.447 63.5869 652.916 63.2428C653.395 62.89 653.79 62.4582 654.103 61.9474C654.425 61.4279 654.655 60.8381 654.793 60.1779L661.521 60.4355C661.365 61.6519 660.972 62.8426 660.341 64.0078C659.72 65.1733 658.882 66.2285 657.828 67.1734C656.774 68.1093 655.502 68.8407 654.012 69.3674C652.531 69.8944 650.844 70.1273 648.951 70.0662C646.457 69.9857 644.24 69.3664 642.302 68.2081C640.373 67.0411 638.872 65.3851 637.801 63.2399C636.73 61.0948 636.243 58.5105 636.34 55.487C636.438 52.4545 637.1 49.9028 638.325 47.8317C639.551 45.7607 641.168 44.2098 643.177 43.1789C645.186 42.148 647.415 41.6721 649.865 41.7512C651.533 41.805 653.069 42.0881 654.472 42.6004C655.874 43.1037 657.1 43.8168 658.148 44.7398C659.196 45.6538 660.036 46.7631 660.667 48.0678C661.299 49.3725 661.669 50.8528 661.777 52.5089ZM674.658 70.9093C672.487 70.8393 670.635 70.3349 669.103 69.3964C667.579 68.4491 666.422 67.1633 665.63 65.5391C664.848 63.9063 664.491 62.0311 664.559 59.9138C664.627 57.7875 665.105 55.9393 665.991 54.3692C666.886 52.7905 668.124 51.5821 669.705 50.744C671.295 49.8972 673.175 49.5088 675.346 49.5789C677.518 49.6489 679.365 50.1576 680.888 51.1049C682.42 52.0435 683.578 53.3292 684.36 54.9621C685.152 56.5863 685.514 58.4615 685.445 60.5879C685.377 62.7052 684.895 64.5533 684 66.132C683.114 67.7021 681.876 68.9105 680.286 69.7573C678.705 70.5954 676.829 70.9794 674.658 70.9093ZM674.859 65.9448C675.648 65.9702 676.324 65.7496 676.887 65.2827C677.45 64.8159 677.889 64.1565 678.204 63.3045C678.528 62.4527 678.708 61.4617 678.745 60.3312C678.782 59.1828 678.666 58.1732 678.398 57.3023C678.138 56.4318 677.743 55.7454 677.211 55.2433C676.68 54.7411 676.019 54.4773 675.23 54.4519C674.413 54.4255 673.715 54.6455 673.134 55.1117C672.562 55.5782 672.114 56.2373 671.79 57.0891C671.475 57.9411 671.299 58.9413 671.262 60.0897C671.226 61.2202 671.337 62.2207 671.596 63.0912C671.865 63.9621 672.269 64.6487 672.81 65.1511C673.359 65.6539 674.042 65.9184 674.859 65.9448ZM688.485 70.9649L689.152 50.2938L695.41 50.4958L695.288 54.2909L695.516 54.2983C695.987 53.0561 696.746 52.0882 697.792 51.3945C698.839 50.7008 700.071 50.3768 701.488 50.4225C702.924 50.4689 704.141 50.8764 705.14 51.6451C706.139 52.4138 706.758 53.4217 706.996 54.6687L707.211 54.6757C707.637 53.459 708.422 52.5009 709.567 51.8014C710.713 51.093 712.048 50.7633 713.573 50.8126C715.529 50.8757 717.097 51.555 718.276 52.8504C719.456 54.1368 720.011 55.8702 719.941 58.0503L719.492 71.9656L712.911 71.7532L713.311 59.3452C713.345 58.3134 713.105 57.5199 712.593 56.9645C712.082 56.4001 711.404 56.1043 710.561 56.0771C709.655 56.0478 708.932 56.3209 708.392 56.8962C707.862 57.4629 707.581 58.2397 707.549 59.2266L707.151 71.5673L700.826 71.3632L701.228 58.8879C701.259 57.9279 701.024 57.1614 700.521 56.5883C700.019 56.0153 699.341 55.715 698.489 55.6875C697.915 55.669 697.404 55.7917 696.955 56.0556C696.507 56.3106 696.149 56.6852 695.881 57.1795C695.623 57.6741 695.483 58.2624 695.461 58.9442L695.066 71.1773L688.485 70.9649ZM723.569 72.0972L724.236 51.4261L730.494 51.6281L730.372 55.4232L730.601 55.4306C731.072 54.1884 731.83 53.2205 732.877 52.5268C733.923 51.833 735.155 51.5091 736.572 51.5548C738.008 51.6011 739.225 52.0087 740.224 52.7774C741.223 53.5461 741.842 54.5539 742.08 55.801L742.295 55.808C742.721 54.5913 743.506 53.6332 744.651 52.9337C745.797 52.2252 747.132 51.8956 748.657 51.9448C750.613 52.008 752.181 52.6872 753.361 53.9827C754.541 55.2691 755.095 57.0024 755.025 59.1826L754.576 73.0979L747.995 72.8855L748.396 60.4775C748.429 59.4457 748.189 58.6521 747.678 58.0967C747.166 57.5324 746.488 57.2366 745.645 57.2094C744.739 57.1801 744.016 57.4532 743.477 58.0285C742.946 58.5952 742.665 59.372 742.633 60.3589L742.235 72.6996L735.91 72.4955L736.313 60.0202C736.344 59.0602 736.108 58.2937 735.605 57.7206C735.103 57.1476 734.426 56.8473 733.573 56.8198C732.999 56.8012 732.488 56.924 732.039 57.1879C731.591 57.4429 731.233 57.8175 730.966 58.3118C730.707 58.8064 730.567 59.3946 730.545 60.0765L730.15 72.3096L723.569 72.0972ZM772.278 64.7374L772.657 52.9888L779.225 53.2008L778.558 73.8718L772.286 73.6694L772.41 69.8205L772.195 69.8136C771.697 71.0638 770.884 72.0435 769.756 72.7525C768.638 73.4529 767.303 73.778 765.751 73.7279C764.342 73.6825 763.114 73.3195 762.067 72.6391C761.021 71.9587 760.22 71.0302 759.665 69.8538C759.111 68.6683 758.854 67.2949 758.895 65.7335L759.321 52.5584L765.902 52.7708L765.518 64.654C765.491 65.7757 765.758 66.669 766.321 67.3338C766.883 67.9986 767.667 68.3472 768.671 68.3796C769.326 68.4008 769.919 68.2762 770.448 68.0059C770.987 67.7269 771.418 67.3142 771.741 66.7678C772.073 66.2127 772.252 65.5359 772.278 64.7374ZM789.708 62.4304L789.327 74.2194L782.746 74.007L783.413 53.336L789.671 53.5379L789.549 57.333L789.778 57.3404C790.276 56.0901 791.089 55.1239 792.215 54.4418C793.342 53.7507 794.668 53.4298 796.193 53.479C797.647 53.5259 798.897 53.894 799.943 54.5834C800.999 55.2642 801.804 56.1972 802.359 57.3827C802.923 58.5594 803.175 59.9237 803.116 61.4756L802.691 74.6507L796.11 74.4383L796.493 62.5551C796.539 61.407 796.277 60.5004 795.705 59.8354C795.143 59.1706 794.342 58.8214 793.301 58.7878C792.61 58.7655 791.995 58.8983 791.456 59.1863C790.926 59.4656 790.508 59.8787 790.203 60.4257C789.907 60.973 789.742 61.6412 789.708 62.4304ZM806.765 74.7822L807.432 54.1111L814.013 54.3235L813.346 74.9946L806.765 74.7822ZM810.807 51.8086C809.883 51.7788 809.099 51.4481 808.454 50.8166C807.811 50.1761 807.503 49.4207 807.531 48.5505C807.558 47.6892 807.914 46.9642 808.598 46.3755C809.282 45.7779 810.086 45.494 811.01 45.5238C811.943 45.5539 812.727 45.8891 813.362 46.5293C814.006 47.1608 814.314 47.9072 814.286 48.7685C814.258 49.6388 813.902 50.3727 813.218 50.9703C812.544 51.5593 811.74 51.8387 810.807 51.8086ZM829.869 54.8352L829.713 59.68L816.673 59.2592L816.829 54.4144L829.869 54.8352ZM819.721 49.5501L826.301 49.7625L825.684 68.8859C825.671 69.2896 825.724 69.6191 825.841 69.8744C825.968 70.121 826.155 70.3022 826.403 70.4179C826.651 70.5247 826.95 70.5838 827.3 70.5951C827.551 70.6032 827.816 70.5893 828.096 70.5534C828.385 70.5088 828.601 70.4709 828.746 70.4397L829.589 75.2224C829.272 75.302 828.824 75.3998 828.246 75.5158C827.676 75.6322 826.996 75.6955 826.205 75.706C824.66 75.7279 823.342 75.5058 822.252 75.0395C821.172 74.5646 820.355 73.8556 819.802 72.9127C819.258 71.9701 819.017 70.7993 819.08 69.4002L819.721 49.5501ZM832.56 75.6147L833.227 54.9436L839.808 55.156L839.141 75.8271L832.56 75.6147ZM836.602 52.6411C835.678 52.6113 834.894 52.2806 834.25 51.6491C833.606 51.0086 833.298 50.2532 833.326 49.383C833.354 48.5217 833.709 47.7967 834.393 47.208C835.077 46.6104 835.881 46.3265 836.805 46.3563C837.738 46.3864 838.522 46.7216 839.157 47.3618C839.801 47.9933 840.109 48.7397 840.082 49.601C840.053 50.4713 839.697 51.2052 839.014 51.8028C838.339 52.3918 837.535 52.6712 836.602 52.6411ZM852.98 76.6644C850.817 76.5946 848.965 76.1082 847.422 75.2052C845.889 74.2935 844.726 73.0301 843.934 71.4148C843.152 69.7909 842.796 67.8799 842.867 65.6818C842.935 63.5465 843.417 61.694 844.312 60.1242C845.207 58.5455 846.436 57.3368 847.999 56.4981C849.562 55.6504 851.385 55.2602 853.466 55.3273C854.938 55.3748 856.276 55.647 857.481 56.144C858.687 56.6409 859.719 57.3523 860.578 58.2782C861.438 59.204 862.093 60.3343 862.544 61.6691C862.995 62.9949 863.193 64.5057 863.138 66.2013L863.085 67.8432L845.119 67.2634L845.242 63.4414L857.085 63.8236C857.099 63.1235 856.953 62.4946 856.648 61.9369C856.342 61.3792 855.912 60.9387 855.357 60.6154C854.811 60.2834 854.174 60.1057 853.447 60.0823C852.712 60.0585 852.047 60.2032 851.453 60.5164C850.859 60.8205 850.383 61.2497 850.024 61.8039C849.665 62.3492 849.465 62.9759 849.424 63.6841L849.299 67.5734C849.272 68.4167 849.414 69.1623 849.725 69.81C850.037 70.4487 850.492 70.9529 851.091 71.3225C851.69 71.6921 852.411 71.8905 853.254 71.9177C853.837 71.9365 854.369 71.8728 854.85 71.7267C855.331 71.5806 855.746 71.356 856.098 71.053C856.449 70.75 856.717 70.3724 856.902 69.9204L862.939 70.2903C862.644 71.637 862.054 72.7989 861.169 73.7763C860.294 74.7449 859.161 75.4852 857.77 75.9972C856.38 76.5002 854.783 76.7226 852.98 76.6644ZM884.674 62.9222L878.627 62.8887C878.578 62.456 878.419 62.0692 878.152 61.7283C877.885 61.3784 877.53 61.102 877.088 60.8991C876.654 60.6875 876.146 60.5723 875.563 60.5535C874.8 60.5289 874.145 60.6604 873.597 60.9481C873.058 61.2361 872.784 61.6404 872.776 62.161C872.754 62.5645 872.905 62.9196 873.227 63.2264C873.558 63.5334 874.156 63.7907 875.021 63.9983L878.98 64.8804C881.031 65.3418 882.544 66.0463 883.519 66.9938C884.503 67.9417 884.976 69.1694 884.936 70.6769C884.881 72.0942 884.42 73.3142 883.551 74.337C882.692 75.36 881.535 76.14 880.081 76.6768C878.627 77.2047 876.976 77.4388 875.128 77.3791C872.176 77.2839 869.867 76.6031 868.202 75.3369C866.545 74.062 865.629 72.3979 865.453 70.3445L871.958 70.3928C872.078 71.1511 872.431 71.7373 873.02 72.1514C873.608 72.5656 874.369 72.7877 875.302 72.8178C876.145 72.8451 876.837 72.7102 877.376 72.4133C877.916 72.1163 878.198 71.7078 878.224 71.1878C878.23 70.7209 878.036 70.342 877.641 70.0508C877.246 69.7507 876.621 69.506 875.765 69.3167L872.181 68.5139C870.12 68.0702 868.6 67.3251 867.618 66.2786C866.638 65.2231 866.177 63.9059 866.237 62.3272C866.273 60.9452 866.679 59.7773 867.455 58.8234C868.231 57.8606 869.314 57.1411 870.704 56.665C872.093 56.189 873.721 55.981 875.587 56.0413C878.387 56.1316 880.575 56.7905 882.152 58.0179C883.729 59.2364 884.57 60.8711 884.674 62.9222Z" fill="#FEFEFA"/>
<path d="M281.877 36.5834C281.841 36.292 281.862 35.996 281.937 35.7125C282.011 35.429 282.139 35.1635 282.312 34.9311C282.486 34.6988 282.701 34.5041 282.947 34.3584C283.192 34.2126 283.463 34.1185 283.743 34.0816L284.077 34.0399C286.668 33.6994 289.285 34.497 291.355 36.2572C293.425 38.0175 294.777 40.5962 295.114 43.4262L295.203 44.1115C295.37 45.5131 295.283 46.9343 294.946 48.2939C294.609 49.6534 294.03 50.9247 293.241 52.0352C292.452 53.1457 291.469 54.0736 290.347 54.7659C289.226 55.4582 287.989 55.9013 286.706 56.07L286.371 56.1116C285.807 56.1841 285.239 56.0211 284.791 55.6584C284.344 55.2956 284.053 54.7626 283.982 54.176L281.877 36.5834Z" fill="#F8BF16"/>
<path d="M266.119 47.184C266.844 46.5914 266.752 46.2209 265.842 46.0726C261.024 45.3081 256.406 44.403 251.987 43.3574C248.563 42.5539 243.241 40.5236 241.11 37.4518C240.909 37.1648 240.772 36.8346 240.709 36.485C240.646 36.1355 240.658 35.7755 240.746 35.4313C240.833 35.0871 240.993 34.7674 241.214 34.4953C241.435 34.2233 241.712 34.0058 242.023 33.8587C244.38 32.7378 246.217 33.0071 248.709 33.014C254.365 33.0285 259.854 33.6432 265.175 34.8579C265.596 34.9485 265.984 34.9085 266.339 34.738C266.45 34.6816 266.546 34.5973 266.618 34.4929C266.691 34.3884 266.737 34.267 266.753 34.1395C266.769 34.012 266.755 33.8824 266.711 33.7624C266.667 33.6423 266.595 33.5356 266.501 33.4517C261.234 28.6827 255.571 23.7818 249.512 18.7493C247.596 17.1649 244.997 13.931 246.012 11.5592C246.765 9.788 248.788 10.2523 250.202 10.5079C262.669 12.7898 270.086 20.2217 278.461 29.5641C280.837 32.2133 279.95 34.9883 280.241 38.1687C280.633 42.4864 281.023 47.077 281.411 51.9406C281.95 58.6886 278.509 64.3211 275.603 69.9918C272.953 75.1844 269.206 79.47 264.362 82.8487C262.308 84.2944 259.411 85.902 256.968 85.0146C253.95 83.9092 252.865 81.3891 253.711 77.4544C254.083 75.7234 255.351 73.5348 257.515 70.8886C260.308 67.4857 263.196 64.1839 266.178 60.9831C266.742 60.3853 266.715 59.9574 266.098 59.6995C265.976 59.6551 265.839 59.6619 265.714 59.7186C263.101 60.9783 239.56 71.7372 241.874 61.3012C243.256 55.0458 259.706 49.5601 265.153 47.7198C265.507 47.5983 265.829 47.4197 266.119 47.184Z" fill="#FBE4E1"/>
<path d="M994.559 59.5831C994.613 59.2946 994.612 58.998 994.555 58.7102C994.499 58.4225 994.389 58.1493 994.231 57.9062C994.073 57.6632 993.87 57.455 993.635 57.2937C993.399 57.1324 993.135 57.0211 992.858 56.9662L992.527 56.903C989.964 56.3962 987.3 57.0234 985.121 58.6465C982.942 60.2696 981.427 62.7558 980.908 65.5581L980.775 66.2364C980.518 67.6243 980.514 69.0481 980.762 70.4265C981.01 71.805 981.506 73.111 982.222 74.27C982.938 75.4291 983.859 76.4185 984.934 77.1816C986.008 77.9447 987.214 78.4667 988.484 78.7178L988.815 78.7809C989.373 78.8896 989.95 78.7636 990.42 78.4305C990.891 78.0973 991.215 77.5842 991.323 77.0034L994.559 59.5831Z" fill="#F8BF16"/>
<path d="M1009.6 71.1778C1008.92 70.5396 1009.03 70.1759 1009.95 70.0865C1014.81 69.6342 1019.47 69.0288 1023.95 68.2703C1027.42 67.6893 1032.86 66.0064 1035.18 63.0783C1035.4 62.8049 1035.56 62.4842 1035.65 62.1395C1035.73 61.7947 1035.74 61.4347 1035.68 61.0856C1035.61 60.7365 1035.47 60.407 1035.27 60.1213C1035.07 59.8356 1034.81 59.6007 1034.51 59.4339C1032.23 58.1633 1030.37 58.3135 1027.89 58.1598C1022.24 57.8096 1016.73 58.0691 1011.34 58.9382C1010.91 59.0014 1010.53 58.9365 1010.18 58.7434C1010.08 58.68 1009.99 58.5897 1009.92 58.4808C1009.86 58.3719 1009.82 58.2478 1009.81 58.1195C1009.8 57.9912 1009.82 57.8629 1009.88 57.7459C1009.93 57.6289 1010.01 57.527 1010.1 57.4493C1015.67 53.0298 1021.64 48.5044 1028.01 43.8729C1030.02 42.4154 1032.82 39.3558 1031.96 36.9236C1031.33 35.1075 1029.28 35.4404 1027.85 35.6043C1015.26 37.0776 1007.38 44.0158 998.42 52.7987C995.878 55.2892 996.584 58.1155 996.089 61.2706C995.419 65.554 994.734 70.11 994.034 74.9384C993.061 81.6376 996.131 87.4802 998.666 93.3266C1000.98 98.6792 1004.44 103.197 1009.05 106.881C1011.01 108.457 1013.8 110.248 1016.29 109.52C1019.38 108.611 1020.62 106.166 1020.03 102.185C1019.77 100.434 1018.65 98.168 1016.66 95.3878C1014.09 91.8119 1011.42 88.3307 1008.65 84.9443C1008.13 84.3114 1008.18 83.8861 1008.81 83.6685C1008.94 83.632 1009.08 83.6477 1009.2 83.7123C1011.72 85.1379 1034.52 97.3923 1032.88 86.8289C1031.91 80.4973 1015.85 73.9623 1010.53 71.7747C1010.18 71.6306 1009.87 71.4316 1009.6 71.1778Z" fill="#FBE4E1"/>
<rect x="166.106" y="7.60254" width="74.6486" height="74.6485" transform="rotate(1.84848 166.106 7.60254)" fill="#072C3F"/>
<path d="M175.167 27.8087C183.514 17.0951 205.352 6.13242 219.316 11.995C223.137 13.5986 226.414 17.254 226.871 21.3595C228.334 34.3157 201.381 41.7547 192.319 44.0249C183.884 46.1244 179.344 54.43 174.724 61.2845C174.53 61.5714 174.276 61.8133 173.98 61.9933C173.683 62.1734 173.352 62.2876 173.009 62.3279C172.665 62.3682 172.318 62.3338 171.99 62.2269C171.662 62.1201 171.361 61.9434 171.109 61.709C169.051 59.7962 167.864 57.0679 167.618 54.3062C166.732 44.2391 169.248 35.4066 175.167 27.8087Z" fill="#9CDADF"/>
<path d="M189.45 63.2879C200.507 60.9547 213.324 58.8693 220.495 49.0409C224.196 44.0031 227.298 37.7522 232.516 34.1005C233.06 33.7148 233.653 33.6278 234.294 33.8395C239.941 35.6612 238.807 44.1404 237.663 48.4649C232.707 67.3739 221.216 78.4052 203.189 81.5587C194.966 82.9965 181.72 81.0728 180.751 70.5997C180.336 66.1931 185.936 64.034 189.45 63.2879Z" fill="#9CDADF"/>
<rect width="74.6486" height="74.6485" transform="matrix(-0.99948 -0.0322564 -0.0322565 0.99948 1111.95 38.1279)" fill="#072C3F"/>
<path d="M1102.68 57.5977C1094.98 46.2774 1073.72 33.8296 1059.29 38.8196C1055.34 40.1845 1051.81 43.6487 1051.08 47.7491C1048.77 60.6878 1075.4 69.9233 1084.37 72.7961C1092.72 75.4565 1096.74 84.1068 1100.95 91.3027C1101.12 91.604 1101.36 91.8638 1101.65 92.0642C1101.94 92.2646 1102.26 92.401 1102.6 92.4639C1102.95 92.5268 1103.3 92.5147 1103.64 92.4286C1103.97 92.3424 1104.29 92.1842 1104.56 91.9648C1106.75 90.1743 1108.12 87.5068 1108.55 84.7446C1110.1 74.6748 1108.14 65.6258 1102.68 57.5977Z" fill="#9CDADF"/>
<path d="M1086 92.3609C1075.03 89.295 1062.27 86.364 1055.7 76.0107C1052.3 70.7022 1049.59 64.2122 1044.58 60.1994C1044.05 59.7761 1043.46 59.6501 1042.8 59.8213C1037.01 61.2869 1037.6 69.8906 1038.46 74.3153C1042.22 93.6597 1053.06 105.504 1070.99 109.848C1079.17 111.829 1092.62 110.755 1094.28 100.282C1094.98 95.876 1089.49 93.3399 1086 92.3609Z" fill="#9CDADF"/>
<rect width="92.817" height="74.6485" transform="matrix(-0.99948 -0.0322564 -0.0322565 0.99948 1203.93 41.0967)" fill="#FBE4E1"/>
<path d="M1154.02 53.7762L1149.09 57.734C1147.25 59.2038 1147.5 59.9612 1149.84 60.0063C1153.35 60.0588 1157.97 58.0357 1161.14 56.7858C1161.42 56.6746 1161.72 56.6223 1162.02 56.632C1162.32 56.6417 1162.61 56.7132 1162.88 56.8422C1174.07 62.1249 1183.87 65.8743 1195.49 60.7201C1197.02 60.0402 1198.22 59.0662 1199.1 57.7983C1199.29 57.5112 1199.42 57.1803 1199.46 56.8336C1199.51 56.487 1199.47 56.135 1199.35 55.8075C1199.24 55.4801 1199.04 55.1868 1198.79 54.9528C1198.54 54.7188 1198.24 54.5509 1197.9 54.4634C1186.36 51.3667 1174.36 50.1238 1161.91 50.7347C1161.34 50.763 1160.76 50.6423 1160.25 50.3838C1159.73 50.1253 1159.29 49.7375 1158.96 49.2569C1156.8 46.0884 1154.25 44.0615 1151.3 43.1764C1148.93 42.462 1148.38 43.1837 1149.66 45.3414C1151.03 47.6338 1152.55 49.764 1154.22 51.7319C1154.34 51.877 1154.43 52.0463 1154.49 52.2296C1154.55 52.4128 1154.57 52.6061 1154.55 52.7975C1154.53 52.989 1154.47 53.1745 1154.38 53.3428C1154.29 53.5111 1154.17 53.6585 1154.02 53.7762Z" fill="#EA5E4F"/>
<path d="M1123.56 100.691C1120.36 102.431 1117.67 104.698 1115.48 107.494C1115.1 107.988 1115.07 108.539 1115.39 109.146C1115.48 109.331 1115.63 109.486 1115.8 109.598C1115.97 109.71 1116.17 109.774 1116.37 109.786C1122.53 110.177 1127.18 108.038 1130.33 103.37C1132.23 100.56 1135.9 99.7523 1138.98 99.6846C1150.43 99.4618 1162.22 99.994 1173.04 95.8922C1177.82 94.0717 1182.85 87.4744 1175.79 84.2386C1173.63 83.2575 1170.73 82.7894 1167.11 82.8343C1154.08 82.9812 1142.34 86.4706 1131.87 93.3028C1131.5 93.5408 1131.07 93.6517 1130.64 93.6186C1130.21 93.5856 1129.8 93.4103 1129.48 93.1195C1125.3 89.3186 1120.69 87.4631 1115.63 87.5532C1115.35 87.5593 1115.07 87.6334 1114.82 87.7694C1114.57 87.9054 1114.35 88.0994 1114.19 88.3356C1114.02 88.5719 1113.92 88.8436 1113.88 89.1285C1113.84 89.4135 1113.86 89.7036 1113.96 89.9752C1115.52 94.6942 1118.69 97.9107 1123.48 99.6247C1123.58 99.6589 1123.68 99.7251 1123.75 99.8148C1123.82 99.9045 1123.86 100.014 1123.87 100.128C1123.88 100.243 1123.86 100.357 1123.8 100.458C1123.75 100.558 1123.66 100.639 1123.56 100.691Z" fill="#EA5E4F"/>
<rect x="74.0947" y="4.7041" width="92.817" height="74.6485" transform="rotate(1.84847 74.0947 4.7041)" fill="#FBE4E1"/>
<path d="M123.093 20.575L127.752 24.842C129.493 26.4274 129.196 27.1672 126.858 27.0614C123.353 26.8875 118.871 24.5706 115.795 23.1193C115.521 22.9902 115.224 22.9186 114.924 22.9089C114.624 22.8992 114.326 22.9516 114.049 23.063C102.547 27.6136 92.5262 30.7233 81.2569 24.8302C79.778 24.0533 78.6415 23.0039 77.8475 21.682C77.6697 21.3828 77.5652 21.0444 77.5427 20.6956C77.5202 20.3468 77.5805 19.998 77.7185 19.6788C77.8564 19.3595 78.0679 19.0793 78.3349 18.8621C78.602 18.6448 78.9167 18.4969 79.2523 18.4309C90.9716 16.085 103.024 15.6182 115.409 17.0306C115.983 17.0961 116.563 17.0126 117.096 16.788C117.628 16.5634 118.095 16.205 118.453 15.7465C120.812 12.7237 123.491 10.8658 126.492 10.1727C128.9 9.61243 129.399 10.3678 127.988 12.4388C126.472 14.6381 124.818 16.6659 123.025 18.5221C122.892 18.6588 122.788 18.8218 122.719 19.001C122.65 19.1801 122.617 19.3717 122.624 19.564C122.63 19.7562 122.675 19.945 122.756 20.1189C122.837 20.2927 122.951 20.4479 123.093 20.575Z" fill="#EA5E4F"/>
<path d="M150.46 69.3557C153.545 71.2984 156.085 73.735 158.083 76.6654C158.434 77.1831 158.432 77.7349 158.074 78.3209C157.963 78.4984 157.811 78.6443 157.632 78.7449C157.454 78.8454 157.255 78.8973 157.054 78.8956C150.879 78.8887 146.371 76.4545 143.53 71.5929C141.816 68.6666 138.205 67.6234 135.135 67.3573C123.722 66.3965 111.926 66.1677 101.398 61.377C96.7458 59.2521 92.143 52.3437 99.4039 49.5703C101.622 48.7304 104.54 48.4499 108.156 48.7286C121.143 49.7149 132.64 53.9545 142.647 61.4474C142.996 61.7085 143.418 61.847 143.85 61.8417C144.282 61.8365 144.699 61.6878 145.038 61.4183C149.455 57.8948 154.182 56.3409 159.218 56.7566C159.502 56.7811 159.777 56.8731 160.019 57.025C160.262 57.1769 160.465 57.3845 160.613 57.6308C160.761 57.8771 160.849 58.1551 160.871 58.442C160.892 58.7289 160.845 59.0167 160.735 59.2817C158.873 63.8902 155.499 66.8954 150.613 68.2973C150.504 68.3245 150.404 68.3844 150.328 68.4694C150.252 68.5543 150.202 68.6605 150.186 68.7742C150.169 68.8879 150.186 69.004 150.235 69.1076C150.284 69.2112 150.362 69.2976 150.46 69.3557Z" fill="#EA5E4F"/>
<rect x="297.958" y="11.8584" width="54.1103" height="74.6485" transform="rotate(1.84848 297.958 11.8584)" fill="#FCF9E6"/>
<path d="M328.219 53.031C325.445 55.5603 323.872 58.7143 323.5 62.4929C323.162 65.9563 322.99 69.923 322.982 74.393C322.971 79.1646 321.322 85.7728 315.509 86.6046C308.702 87.5713 300.917 87.0476 300.6 78.3723C300.313 70.4947 300.525 62.5629 301.234 54.5769C302.005 45.8839 301.849 37.741 302.64 29.2421C303.324 21.8645 306.196 14.3818 313.776 12.6667C320.979 11.0361 323.755 18.411 323.211 23.9212C322.842 27.6179 320.793 37.5263 325.584 39.3595C329.406 40.8274 332.739 38.3776 333.924 34.8303C335.139 31.1697 333.07 23.7209 337.825 22.2398C341.202 21.1975 344.724 23.6752 345.729 26.801C347.268 31.5963 345.518 38.5879 343.963 43.6876C342.706 47.8126 340.127 50.0817 336.227 50.4948C333.587 50.7787 330.221 51.2062 328.219 53.031Z" fill="#3D866B"/>
<rect width="54.1103" height="74.6485" transform="matrix(-0.99948 -0.0322564 -0.0322565 0.99948 980.104 33.873)" fill="#FCF9E6"/>
<path d="M947.251 73.0088C949.856 75.7117 951.223 78.9606 951.35 82.7553C951.463 86.2332 951.38 90.2027 951.099 94.6639C950.803 99.4263 952.022 106.127 957.77 107.332C964.5 108.736 972.302 108.715 973.178 100.078C973.972 92.2354 974.273 84.3065 974.08 76.2914C973.871 67.5668 974.552 59.4509 974.31 50.9186C974.104 43.5123 971.72 35.86 964.266 33.6597C957.183 31.568 953.938 38.7487 954.125 44.2824C954.255 47.9952 955.661 58.0151 950.762 59.5356C946.853 60.754 943.685 58.0944 942.731 54.4781C941.755 50.7468 944.3 43.4468 939.65 41.6622C936.347 40.4043 932.673 42.6498 931.469 45.7043C929.623 50.3904 930.919 57.4803 932.142 62.6696C933.13 66.8671 935.557 69.2977 939.423 69.9615C942.039 70.415 945.37 71.0586 947.251 73.0088Z" fill="#3D866B"/>
<rect width="80.946" height="74.7195" transform="matrix(0.99948 0.0322564 -0.0333341 0.999444 1204.1 40.8086)" fill="#BDE6EA"/>
<path d="M1203.68 55.2612C1211.59 55.5165 1218.74 51.8816 1223.35 46.054C1227.57 52.1664 1234.47 56.2545 1242.38 56.5098C1250.3 56.7651 1257.45 53.1302 1262.05 47.3026C1266.28 53.415 1273.18 57.5031 1281.09 57.7584L1280.3 82.3432C1272.38 82.0879 1265.48 77.9997 1261.26 71.8873C1256.65 77.715 1249.5 81.3498 1241.59 81.0946C1233.68 80.8393 1226.78 76.7511 1222.56 70.6388C1217.95 76.4664 1210.8 80.1012 1202.89 79.846L1203.68 55.2612Z" fill="#072C3F"/>
<path d="M1222.24 80.4727C1217.63 86.3003 1210.48 89.9351 1202.57 89.6799L1201.77 114.265C1208.82 114.492 1215.5 112.79 1221.3 109.627C1226.88 113.157 1233.43 115.286 1240.48 115.513C1247.53 115.741 1254.2 114.038 1260 110.875C1265.59 114.406 1272.14 116.534 1279.19 116.762L1279.98 92.1771C1272.07 91.9218 1265.16 87.8336 1260.94 81.7212C1256.34 87.5489 1249.19 91.1837 1241.27 90.9285C1233.36 90.6732 1226.46 86.585 1222.24 80.4727Z" fill="#072C3F"/>
<rect width="79.58" height="74.7195" transform="matrix(-0.99948 -0.0322564 -0.0311789 0.999514 74.0996 4.63379)" fill="#BDE6EA"/>
<path d="M73.605 18.7088C65.7314 18.4546 58.8607 14.5145 54.6547 8.63026C50.078 14.231 42.9676 17.7196 35.094 17.4654C27.2204 17.2112 20.3497 13.2711 16.1437 7.38683C11.567 12.9875 4.4566 16.4762 -3.41697 16.222L-4.18013 39.8698C3.69345 40.124 10.8039 36.6354 15.3805 31.0347C19.5866 36.9189 26.4573 40.859 34.3308 41.1132C42.2044 41.3674 49.3148 37.8788 53.8915 32.2781C58.0975 38.1624 64.9682 42.1024 72.8418 42.3566L73.605 18.7088Z" fill="#072C3F"/>
<path d="M53.5863 41.7372C57.7923 47.6215 64.663 51.5615 72.5365 51.8157L71.7734 75.4636C64.7589 75.2371 58.2418 73.1822 52.6813 69.78C46.9129 72.8164 40.277 74.4466 33.2624 74.2202C26.2479 73.9937 19.7308 71.9388 14.1703 68.5366C8.40194 71.573 1.76599 73.2032 -5.24855 72.9767L-4.48539 49.3289C3.38818 49.5831 10.4986 46.0945 15.0753 40.4938C19.2813 46.3781 26.152 50.3181 34.0256 50.5723C41.8991 50.8265 49.0096 47.3379 53.5863 41.7372Z" fill="#072C3F"/>
<rect x="-38.3623" y="158.077" width="1436.1" height="74.6485" transform="rotate(1.84999 -38.3623 158.077)" fill="#ED949C"/>
<path d="M467.885 205.422C467.827 204.432 467.453 203.652 466.762 203.082C466.08 202.503 465.088 202.193 463.787 202.151C462.926 202.123 462.205 202.212 461.623 202.417C461.042 202.623 460.601 202.919 460.301 203.304C460.002 203.681 459.839 204.12 459.814 204.622C459.783 205.034 459.852 205.4 460.021 205.72C460.2 206.04 460.46 206.327 460.802 206.581C461.153 206.826 461.577 207.046 462.074 207.241C462.57 207.437 463.131 207.612 463.754 207.767L466.105 208.382C467.46 208.722 468.649 209.156 469.674 209.683C470.708 210.21 471.568 210.826 472.255 211.531C472.95 212.236 473.468 213.039 473.807 213.939C474.146 214.839 474.302 215.841 474.276 216.945C474.21 218.685 473.723 220.164 472.812 221.383C471.901 222.602 470.619 223.517 468.965 224.129C467.319 224.74 465.348 225.009 463.052 224.934C460.746 224.86 458.747 224.45 457.056 223.704C455.365 222.957 454.066 221.865 453.161 220.425C452.255 218.986 451.824 217.189 451.866 215.035L458.245 215.241C458.27 216.131 458.484 216.879 458.887 217.485C459.289 218.091 459.854 218.558 460.579 218.887C461.314 219.216 462.171 219.396 463.149 219.428C464.046 219.457 464.812 219.36 465.448 219.138C466.093 218.917 466.593 218.596 466.948 218.176C467.302 217.757 467.493 217.269 467.52 216.713C467.528 216.192 467.381 215.743 467.079 215.365C466.777 214.978 466.303 214.639 465.657 214.349C465.02 214.05 464.203 213.768 463.205 213.502L460.347 212.736C457.978 212.112 456.127 211.167 454.794 209.903C453.461 208.629 452.833 206.947 452.909 204.857C452.955 203.152 453.461 201.673 454.427 200.42C455.392 199.167 456.703 198.208 458.359 197.543C460.015 196.878 461.888 196.579 463.979 196.647C466.114 196.716 467.955 197.139 469.502 197.916C471.057 198.685 472.249 199.734 473.078 201.063C473.906 202.392 474.301 203.914 474.264 205.628L467.885 205.422ZM491.007 216.555L491.386 204.807L497.953 205.019L497.286 225.69L491.014 225.487L491.139 221.639L490.923 221.632C490.425 222.882 489.612 223.861 488.484 224.57C487.366 225.271 486.031 225.596 484.479 225.546C483.07 225.5 481.843 225.137 480.796 224.457C479.749 223.776 478.948 222.848 478.393 221.671C477.839 220.486 477.582 219.113 477.624 217.551L478.049 204.376L484.63 204.589L484.246 216.472C484.219 217.594 484.487 218.487 485.049 219.152C485.611 219.816 486.395 220.165 487.4 220.198C488.055 220.219 488.647 220.094 489.177 219.824C489.716 219.545 490.147 219.132 490.47 218.586C490.802 218.031 490.981 217.354 491.007 216.555ZM519.985 212.049L513.937 212.015C513.888 211.582 513.73 211.196 513.463 210.855C513.196 210.505 512.841 210.228 512.398 210.025C511.965 209.814 511.457 209.699 510.874 209.68C510.111 209.655 509.456 209.787 508.908 210.074C508.369 210.362 508.095 210.767 508.087 211.287C508.065 211.691 508.215 212.046 508.538 212.353C508.869 212.66 509.467 212.917 510.332 213.125L514.291 214.007C516.341 214.468 517.854 215.173 518.83 216.12C519.814 217.068 520.286 218.296 520.247 219.804C520.192 221.221 519.73 222.441 518.862 223.464C518.003 224.487 516.846 225.266 515.392 225.803C513.937 226.331 512.286 226.565 510.438 226.505C507.486 226.41 505.178 225.729 503.512 224.463C501.856 223.188 500.94 221.524 500.764 219.471L507.269 219.519C507.388 220.277 507.742 220.864 508.33 221.278C508.919 221.692 509.679 221.914 510.612 221.944C511.456 221.971 512.147 221.837 512.687 221.54C513.226 221.243 513.509 220.834 513.535 220.314C513.541 219.847 513.346 219.468 512.952 219.177C512.557 218.877 511.932 218.632 511.076 218.443L507.491 217.64C505.431 217.196 503.91 216.451 502.929 215.405C501.948 214.349 501.488 213.032 501.548 211.453C501.584 210.071 501.99 208.903 502.766 207.95C503.542 206.987 504.625 206.267 506.015 205.791C507.404 205.315 509.032 205.107 510.898 205.168C513.698 205.258 515.886 205.917 517.463 207.144C519.04 208.363 519.881 209.998 519.985 212.049ZM535.608 206.235L535.452 211.08L522.411 210.659L522.568 205.814L535.608 206.235ZM525.459 200.95L532.04 201.162L531.423 220.286C531.41 220.689 531.462 221.019 531.579 221.274C531.706 221.521 531.893 221.702 532.141 221.818C532.389 221.925 532.688 221.984 533.038 221.995C533.289 222.003 533.555 221.989 533.834 221.953C534.123 221.909 534.34 221.871 534.484 221.84L535.327 226.622C535.01 226.702 534.562 226.8 533.984 226.916C533.414 227.032 532.734 227.095 531.943 227.106C530.398 227.128 529.08 226.906 527.991 226.439C526.91 225.964 526.093 225.255 525.54 224.312C524.996 223.37 524.755 222.199 524.818 220.8L525.459 200.95ZM544.114 227.553C542.795 227.51 541.631 227.253 540.623 226.78C539.624 226.299 538.842 225.6 538.279 224.683C537.725 223.758 537.47 222.614 537.514 221.25C537.551 220.102 537.785 219.14 538.214 218.363C538.643 217.587 539.22 216.963 539.945 216.493C540.669 216.022 541.498 215.676 542.43 215.455C543.363 215.224 544.355 215.081 545.408 215.025C546.587 214.956 547.537 214.874 548.258 214.781C548.98 214.678 549.506 214.52 549.836 214.306C550.176 214.084 550.352 213.762 550.366 213.34L550.368 213.273C550.39 212.582 550.17 212.04 549.707 211.648C549.243 211.256 548.608 211.047 547.8 211.021C546.93 210.993 546.224 211.158 545.683 211.518C545.141 211.878 544.788 212.387 544.623 213.047L538.561 212.635C538.781 211.385 539.279 210.279 540.055 209.316C540.841 208.344 541.898 207.597 543.226 207.074C544.564 206.542 546.156 206.306 548.005 206.366C549.323 206.409 550.534 206.605 551.636 206.955C552.739 207.296 553.694 207.776 554.5 208.395C555.306 209.004 555.92 209.743 556.341 210.61C556.771 211.477 556.969 212.458 556.933 213.552L556.48 227.602L550.289 227.402L550.382 224.522L550.22 224.517C549.83 225.205 549.34 225.782 548.75 226.248C548.169 226.714 547.489 227.056 546.71 227.273C545.939 227.49 545.074 227.584 544.114 227.553ZM546.285 223.312C546.994 223.335 547.636 223.212 548.21 222.943C548.794 222.674 549.264 222.295 549.621 221.803C549.979 221.303 550.168 220.716 550.19 220.043L550.253 218.078C550.062 218.171 549.83 218.253 549.558 218.325C549.295 218.398 549.006 218.465 548.69 218.526C548.373 218.588 548.048 218.64 547.715 218.683C547.381 218.727 547.061 218.766 546.754 218.801C546.132 218.879 545.598 219.015 545.151 219.207C544.714 219.399 544.374 219.658 544.13 219.982C543.895 220.298 543.77 220.68 543.756 221.129C543.734 221.811 543.959 222.339 544.432 222.713C544.914 223.088 545.532 223.288 546.285 223.312ZM560.503 227.732L561.171 207.061L567.752 207.273L567.084 227.944L560.503 227.732ZM564.546 204.758C563.622 204.729 562.838 204.398 562.194 203.766C561.55 203.126 561.242 202.37 561.27 201.5C561.298 200.639 561.653 199.914 562.337 199.325C563.021 198.728 563.825 198.444 564.749 198.474C565.682 198.504 566.466 198.839 567.101 199.479C567.745 200.111 568.053 200.857 568.026 201.718C567.997 202.589 567.641 203.323 566.958 203.92C566.283 204.509 565.479 204.789 564.546 204.758ZM578.235 216.503L577.854 228.292L571.273 228.08L571.941 207.409L578.198 207.611L578.076 211.406L578.305 211.413C578.803 210.163 579.616 209.197 580.742 208.515C581.869 207.824 583.195 207.503 584.721 207.552C586.174 207.599 587.424 207.967 588.471 208.657C589.526 209.337 590.331 210.27 590.886 211.456C591.45 212.633 591.702 213.997 591.643 215.549L591.217 228.724L584.636 228.511L585.02 216.628C585.066 215.48 584.804 214.574 584.232 213.908C583.67 213.244 582.869 212.894 581.828 212.861C581.137 212.838 580.522 212.971 579.983 213.259C579.453 213.539 579.035 213.952 578.73 214.499C578.434 215.046 578.269 215.714 578.235 216.503ZM601.107 229.394C599.789 229.351 598.625 229.093 597.616 228.621C596.617 228.139 595.836 227.441 595.273 226.524C594.719 225.599 594.464 224.455 594.508 223.091C594.545 221.943 594.778 220.98 595.207 220.204C595.636 219.427 596.213 218.804 596.938 218.333C597.663 217.863 598.491 217.517 599.424 217.296C600.356 217.065 601.349 216.922 602.401 216.866C603.58 216.797 604.53 216.715 605.252 216.622C605.973 216.519 606.499 216.361 606.83 216.147C607.169 215.925 607.346 215.602 607.359 215.181L607.362 215.114C607.384 214.423 607.163 213.881 606.7 213.489C606.237 213.097 605.601 212.888 604.794 212.862C603.924 212.834 603.218 212.999 602.676 213.359C602.135 213.719 601.781 214.228 601.616 214.888L595.554 214.476C595.774 213.226 596.272 212.119 597.049 211.157C597.835 210.185 598.892 209.438 600.22 208.915C601.557 208.383 603.15 208.147 604.998 208.207C606.317 208.25 607.528 208.446 608.63 208.796C609.733 209.137 610.687 209.617 611.493 210.235C612.3 210.845 612.914 211.584 613.335 212.45C613.765 213.318 613.962 214.298 613.927 215.393L613.473 229.443L607.282 229.243L607.375 226.363L607.214 226.358C606.823 227.046 606.333 227.623 605.743 228.088C605.163 228.555 604.482 228.896 603.703 229.114C602.933 229.331 602.067 229.425 601.107 229.394ZM603.279 225.153C603.987 225.176 604.629 225.053 605.204 224.784C605.787 224.515 606.257 224.135 606.615 223.644C606.972 223.144 607.162 222.557 607.183 221.884L607.247 219.919C607.055 220.012 606.823 220.094 606.552 220.166C606.289 220.239 605.999 220.306 605.683 220.367C605.367 220.429 605.042 220.481 604.708 220.524C604.374 220.567 604.054 220.606 603.748 220.641C603.125 220.72 602.591 220.856 602.145 221.048C601.708 221.24 601.367 221.499 601.123 221.823C600.888 222.139 600.764 222.521 600.749 222.97C600.727 223.651 600.953 224.18 601.425 224.554C601.907 224.929 602.525 225.128 603.279 225.153ZM617.497 229.573L618.387 202.011L624.968 202.224L624.631 212.654L624.766 212.658C625.055 212.039 625.456 211.445 625.968 210.878C626.489 210.311 627.142 209.856 627.925 209.513C628.718 209.162 629.657 209.003 630.743 209.039C632.178 209.085 633.507 209.505 634.73 210.299C635.962 211.093 636.938 212.288 637.659 213.883C638.38 215.478 638.701 217.491 638.622 219.922C638.547 222.264 638.111 224.212 637.315 225.767C636.529 227.322 635.495 228.475 634.213 229.224C632.94 229.973 631.542 230.323 630.016 230.274C628.976 230.24 628.079 230.04 627.328 229.675C626.576 229.309 625.949 228.84 625.447 228.267C624.953 227.694 624.578 227.085 624.32 226.439L624.119 226.432L624.01 229.783L617.497 229.573ZM624.277 219.445C624.241 220.558 624.358 221.532 624.627 222.367C624.905 223.202 625.32 223.857 625.87 224.333C626.43 224.8 627.109 225.047 627.908 225.073C628.715 225.099 629.409 224.897 629.988 224.466C630.568 224.027 631.015 223.399 631.329 222.583C631.652 221.767 631.831 220.803 631.867 219.691C631.903 218.578 631.786 217.609 631.516 216.783C631.256 215.957 630.85 215.311 630.299 214.844C629.757 214.377 629.078 214.131 628.262 214.105C627.454 214.079 626.761 214.276 626.182 214.698C625.602 215.119 625.147 215.733 624.815 216.539C624.493 217.346 624.313 218.315 624.277 219.445ZM649.209 203.007L648.318 230.568L641.737 230.356L642.628 202.794L649.209 203.007ZM662.157 231.406C659.995 231.336 658.142 230.85 656.6 229.947C655.067 229.035 653.904 227.771 653.112 226.156C652.329 224.532 651.973 222.621 652.044 220.423C652.113 218.288 652.595 216.435 653.49 214.866C654.385 213.287 655.614 212.078 657.177 211.24C658.74 210.392 660.563 210.002 662.644 210.069C664.116 210.116 665.454 210.389 666.659 210.886C667.865 211.383 668.897 212.094 669.756 213.02C670.615 213.946 671.27 215.076 671.721 216.411C672.172 217.737 672.371 219.248 672.316 220.943L672.263 222.585L654.297 222.005L654.42 218.183L666.263 218.565C666.277 217.865 666.131 217.236 665.826 216.679C665.52 216.121 665.09 215.68 664.535 215.357C663.988 215.025 663.352 214.847 662.625 214.824C661.89 214.8 661.225 214.945 660.631 215.258C660.037 215.562 659.561 215.991 659.202 216.545C658.843 217.091 658.643 217.717 658.602 218.426L658.477 222.315C658.449 223.158 658.591 223.904 658.903 224.551C659.214 225.19 659.67 225.694 660.268 226.064C660.867 226.434 661.588 226.632 662.432 226.659C663.015 226.678 663.547 226.614 664.027 226.468C664.508 226.322 664.924 226.098 665.275 225.795C665.626 225.492 665.894 225.114 666.08 224.662L672.116 225.032C671.821 226.379 671.232 227.541 670.347 228.518C669.471 229.487 668.338 230.227 666.948 230.739C665.557 231.242 663.96 231.464 662.157 231.406ZM683.483 231.704L684.374 204.143L703.187 204.75L703.013 210.16L690.86 209.768L690.678 215.42L701.632 215.774L701.457 221.197L690.503 220.844L690.145 231.919L683.483 231.704ZM717.981 223.887L718.36 212.138L724.928 212.35L724.26 233.021L717.989 232.819L718.113 228.97L717.898 228.963C717.399 230.213 716.586 231.193 715.459 231.902C714.341 232.602 713.005 232.927 711.453 232.877C710.045 232.831 708.817 232.468 707.77 231.788C706.723 231.108 705.923 230.179 705.368 229.003C704.813 227.817 704.557 226.444 704.598 224.882L705.024 211.707L711.605 211.92L711.221 223.803C711.194 224.925 711.461 225.818 712.023 226.483C712.586 227.148 713.369 227.496 714.374 227.529C715.029 227.55 715.621 227.425 716.151 227.155C716.69 226.876 717.121 226.463 717.444 225.917C717.776 225.362 717.955 224.685 717.981 223.887ZM740.784 212.862L740.628 217.707L727.587 217.286L727.744 212.441L740.784 212.862ZM730.636 207.577L737.217 207.789L736.599 226.913C736.586 227.317 736.638 227.646 736.756 227.901C736.882 228.148 737.07 228.329 737.317 228.445C737.565 228.552 737.864 228.611 738.214 228.622C738.465 228.63 738.731 228.616 739.01 228.58C739.299 228.536 739.516 228.498 739.661 228.467L740.503 233.249C740.186 233.329 739.738 233.427 739.16 233.543C738.59 233.659 737.91 233.723 737.12 233.733C735.574 233.755 734.257 233.533 733.167 233.066C732.087 232.591 731.27 231.882 730.716 230.94C730.172 229.997 729.931 228.826 729.995 227.427L730.636 207.577ZM757.099 225.15L757.479 213.402L764.046 213.614L763.378 234.285L757.107 234.082L757.231 230.233L757.016 230.226C756.518 231.477 755.705 232.456 754.577 233.165C753.459 233.866 752.123 234.191 750.571 234.14C749.163 234.095 747.935 233.732 746.888 233.052C745.842 232.371 745.041 231.443 744.486 230.266C743.932 229.081 743.675 227.707 743.717 226.146L744.142 212.971L750.723 213.183L750.339 225.066C750.312 226.188 750.579 227.082 751.142 227.746C751.704 228.411 752.488 228.76 753.492 228.792C754.147 228.813 754.74 228.689 755.269 228.419C755.808 228.14 756.239 227.727 756.562 227.18C756.894 226.625 757.073 225.949 757.099 225.15ZM767.567 234.42L768.235 213.749L774.627 213.955L774.505 217.724L774.721 217.731C775.142 216.379 775.789 215.385 776.663 214.749C777.537 214.103 778.539 213.799 779.669 213.835C779.974 213.845 780.288 213.878 780.609 213.933C780.931 213.979 781.23 214.047 781.505 214.137L781.321 219.857C781.01 219.739 780.6 219.64 780.091 219.561C779.59 219.482 779.143 219.436 778.748 219.423C777.967 219.398 777.258 219.55 776.618 219.88C775.988 220.201 775.484 220.665 775.105 221.273C774.735 221.871 774.537 222.583 774.51 223.409L774.148 234.633L767.567 234.42ZM792.095 235.603C789.932 235.533 788.08 235.047 786.538 234.144C785.004 233.232 783.842 231.968 783.05 230.353C782.267 228.729 781.911 226.818 781.982 224.62C782.051 222.485 782.533 220.632 783.428 219.063C784.323 217.484 785.552 216.275 787.115 215.437C788.678 214.589 790.5 214.199 792.582 214.266C794.053 214.313 795.392 214.586 796.597 215.083C797.802 215.58 798.835 216.291 799.694 217.217C800.553 218.143 801.208 219.273 801.659 220.608C802.11 221.934 802.308 223.444 802.253 225.14L802.2 226.782L784.234 226.202L784.358 222.38L796.201 222.762C796.214 222.062 796.068 221.433 795.763 220.876C795.458 220.318 795.027 219.877 794.472 219.554C793.926 219.222 793.29 219.044 792.563 219.021C791.827 218.997 791.162 219.142 790.569 219.455C789.975 219.759 789.499 220.188 789.139 220.742C788.78 221.288 788.581 221.914 788.54 222.623L788.414 226.512C788.387 227.355 788.529 228.101 788.84 228.748C789.152 229.387 789.607 229.891 790.206 230.261C790.805 230.631 791.526 230.829 792.369 230.856C792.952 230.875 793.484 230.811 793.965 230.665C794.446 230.519 794.862 230.295 795.213 229.992C795.564 229.689 795.832 229.311 796.017 228.859L802.054 229.229C801.759 230.576 801.169 231.738 800.284 232.715C799.409 233.684 798.276 234.424 796.885 234.936C795.495 235.439 793.898 235.661 792.095 235.603ZM823.79 221.862L817.742 221.828C817.693 221.395 817.535 221.008 817.267 220.667C817 220.318 816.645 220.041 816.203 219.838C815.77 219.627 815.261 219.511 814.678 219.493C813.916 219.468 813.26 219.6 812.712 219.887C812.173 220.175 811.899 220.579 811.892 221.1C811.87 221.504 812.02 221.859 812.342 222.165C812.674 222.473 813.272 222.73 814.136 222.937L818.095 223.82C820.146 224.281 821.659 224.986 822.634 225.933C823.618 226.881 824.091 228.109 824.051 229.616C823.996 231.034 823.535 232.254 822.666 233.276C821.807 234.299 820.65 235.079 819.196 235.616C817.742 236.144 816.091 236.378 814.243 236.318C811.291 236.223 808.982 235.542 807.317 234.276C805.661 233.001 804.744 231.337 804.568 229.283L811.073 229.332C811.193 230.09 811.546 230.676 812.135 231.091C812.723 231.505 813.484 231.727 814.417 231.757C815.26 231.784 815.952 231.649 816.491 231.352C817.031 231.056 817.313 230.647 817.339 230.127C817.345 229.66 817.151 229.281 816.756 228.99C816.362 228.69 815.736 228.445 814.88 228.256L811.296 227.453C809.235 227.009 807.715 226.264 806.734 225.218C805.753 224.162 805.293 222.845 805.352 221.266C805.388 219.884 805.794 218.716 806.57 217.762C807.347 216.8 808.43 216.08 809.819 215.604C811.209 215.128 812.837 214.92 814.703 214.98C817.502 215.071 819.69 215.73 821.267 216.957C822.844 218.176 823.685 219.811 823.79 221.862Z" fill="#FEFEFA"/>
<rect x="74.1406" y="161.711" width="74.6486" height="74.6485" transform="rotate(1.84999 74.1406 161.711)" fill="#3D866B"/>
<path d="M71.7307 236.32L90.3832 236.923L74.1406 161.711L71.7307 236.32Z" fill="#BED6CD"/>
<path d="M109.037 237.526L127.69 238.128L111.447 162.916L109.037 237.526Z" fill="#BED6CD"/>
<path d="M90.3821 236.923L109.035 237.525L92.792 162.313L90.3821 236.923Z" fill="#BED6CD"/>
<path d="M127.688 238.128L146.34 238.731L130.098 163.519L127.688 238.128Z" fill="#BED6CD"/>
<rect width="74.6486" height="74.6485" transform="matrix(-0.999479 -0.0322829 -0.0322831 0.999479 1203.95 198.205)" fill="#3D866B"/>
<path d="M1201.54 272.815L1182.88 272.212L1203.95 198.205L1201.54 272.815Z" fill="#BED6CD"/>
<path d="M1164.23 271.609L1145.58 271.006L1166.64 196.999L1164.23 271.609Z" fill="#BED6CD"/>
<path d="M1182.88 272.211L1164.23 271.609L1185.29 197.602L1182.88 272.211Z" fill="#BED6CD"/>
<path d="M1145.58 271.006L1126.93 270.404L1147.99 196.396L1145.58 271.006Z" fill="#BED6CD"/>
<rect x="220.99" y="166.454" width="74.6486" height="74.6485" transform="rotate(1.84999 220.99 166.454)" fill="#072C3F"/>
<path d="M293.192 243.473L218.583 241.063C219.951 232.109 226.908 225.402 235.055 225.665C235.156 225.669 235.257 225.673 235.358 225.678C239.85 220.432 246.56 217.203 253.954 217.442C263.65 217.755 271.785 223.942 275.125 232.515C276.375 232.238 277.684 232.111 279.029 232.154C286.066 232.382 291.817 237.198 293.192 243.473Z" fill="#9CDADF"/>
<path d="M293.996 218.472L219.387 216.062C220.754 207.108 227.712 200.401 235.859 200.664C235.96 200.668 236.061 200.672 236.161 200.677C240.654 195.431 247.364 192.202 254.758 192.441C264.453 192.754 272.589 198.941 275.929 207.514C277.179 207.237 278.488 207.11 279.833 207.153C286.87 207.381 292.621 212.197 293.996 218.472Z" fill="#9CDADF"/>
<path d="M294.804 193.47L220.194 191.061C221.562 182.106 228.52 175.399 236.666 175.662C236.767 175.666 236.868 175.67 236.969 175.675C241.461 170.43 248.171 167.2 255.566 167.439C265.261 167.752 273.397 173.939 276.737 182.512C277.987 182.235 279.295 182.108 280.64 182.151C287.678 182.379 293.429 187.195 294.804 193.47Z" fill="#9CDADF"/>
<rect width="74.6486" height="74.6485" transform="matrix(-0.999479 -0.0322829 -0.0322831 0.999479 1057.09 193.461)" fill="#072C3F"/>
<path d="M980.077 265.66L1054.69 268.07C1053.9 259.046 1047.39 251.905 1039.24 251.641C1039.14 251.638 1039.04 251.636 1038.94 251.635C1034.79 246.11 1028.31 242.454 1020.91 242.215C1011.22 241.902 1002.7 247.551 998.813 255.89C997.584 255.534 996.286 255.323 994.941 255.279C987.904 255.052 981.854 259.487 980.077 265.66Z" fill="#9CDADF"/>
<path d="M980.882 240.659L1055.49 243.069C1054.7 234.045 1048.19 226.904 1040.05 226.64C1039.95 226.637 1039.85 226.635 1039.74 226.634C1035.6 221.109 1029.11 217.453 1021.72 217.214C1012.02 216.901 1003.51 222.55 999.619 230.889C998.39 230.533 997.092 230.322 995.747 230.278C988.709 230.051 982.66 234.486 980.882 240.659Z" fill="#9CDADF"/>
<path d="M981.692 215.657L1056.3 218.067C1055.51 209.043 1049 201.902 1040.86 201.638C1040.76 201.635 1040.66 201.633 1040.55 201.632C1036.41 196.107 1029.92 192.451 1022.53 192.212C1012.83 191.899 1004.31 197.548 1000.43 205.887C999.199 205.531 997.901 205.32 996.556 205.276C989.519 205.049 983.469 209.484 981.692 215.657Z" fill="#9CDADF"/>
<path d="M181.414 214.094C181.362 214.158 181.324 214.232 181.303 214.311C181.282 214.39 181.278 214.473 181.291 214.554C181.305 214.635 181.336 214.713 181.382 214.781C181.427 214.849 181.487 214.907 181.558 214.95C183.011 215.856 185.041 215.577 186.598 215.105C189.022 214.369 191.611 213.322 194.365 211.962C197.423 210.45 200.271 209.171 202.908 208.126C204.56 207.473 208.154 206.519 208.068 209.644C207.925 214.758 203.982 217.31 199.512 218.587C196.985 219.307 194.36 219.802 191.639 220.072C188.066 220.426 184.506 220.709 180.96 220.923C180.123 220.972 179.266 221.066 178.387 221.202C177.103 221.398 175.317 221.577 174.39 222.554C173.275 223.724 175.503 224.918 176.324 225.155C180.38 226.33 184.813 226.551 188.877 227.156C190.566 227.407 192.753 227.799 194.081 228.79C195.768 230.047 194.109 232.062 192.778 232.678C190.303 233.823 186.687 233.507 184.048 232.988C179.742 232.151 176.349 231.546 173.867 231.172C169.609 230.536 166.613 231.921 164.878 235.326C164.279 236.503 163.988 237.926 163.557 239.203C163.548 239.23 163.53 239.253 163.504 239.267C163.479 239.282 163.449 239.286 163.421 239.28L160.901 238.707C160.83 238.69 160.801 238.645 160.813 238.574C161.018 237.431 161.064 236.323 160.95 235.251C160.412 230.152 157.93 224.868 155.411 220.375C153.353 216.699 151.598 213.475 150.147 210.704C149.506 209.481 147.517 205.401 149.334 204.482C152.975 202.631 155.472 209.311 156.249 211.69C157.072 214.201 157.89 216.748 158.704 219.331C158.993 220.253 159.393 221.08 159.902 221.812C160.292 222.37 160.705 222.382 161.141 221.848C162.251 220.496 161.999 218.649 161.599 217.122C161.056 215.059 160.191 212.777 159.003 210.276C157.589 207.294 156.221 204.409 154.899 201.62C153.713 199.12 150.897 192.785 153.06 190.786C156.185 187.9 158.783 195.231 159.393 197.061C160.513 200.413 161.598 203.678 162.647 206.855C162.983 207.866 163.87 210.167 164.971 210.602C165.034 210.628 165.102 210.638 165.17 210.63C165.238 210.622 165.303 210.598 165.359 210.559C166.571 209.725 166.48 208.297 166.507 206.988C166.522 206.3 166.491 205.631 166.416 204.982C166.153 202.778 165.832 200.75 165.453 198.9C164.383 193.681 163.699 189.747 163.401 187.097C163.21 185.411 163.005 182.909 163.924 181.377C164.642 180.183 166.176 180.073 166.974 181.269C167.335 181.806 167.591 182.354 167.742 182.914C168.202 184.615 168.478 186.453 168.57 188.43C168.716 191.578 168.87 194.77 169.03 198.005C169.102 199.451 169.371 200.757 169.836 201.925C169.881 202.038 169.953 202.138 170.046 202.216C170.14 202.294 170.251 202.348 170.37 202.373C170.49 202.398 170.613 202.392 170.73 202.358C170.847 202.323 170.953 202.26 171.039 202.174C171.618 201.596 171.997 200.82 172.177 199.846C172.551 197.852 172.77 195.843 172.833 193.82C172.989 188.663 173.286 184.157 173.722 180.302C174.139 176.607 175.419 169.657 180.206 169.131C183.689 168.747 181.215 176.317 180.747 177.705C179.531 181.308 178.264 185.016 176.947 188.83C176.385 190.463 174.904 195.034 175.895 196.439C177.828 199.17 182.354 189.956 182.922 188.823C185.156 184.355 187.281 180.17 189.294 176.267C190.535 173.861 195.444 164.756 198.895 165.807C200.195 166.202 200.681 167.141 200.353 168.623C200.032 170.061 199.431 171.548 198.552 173.084C195 179.294 190.578 184.944 186.287 190.794C184.593 193.104 182.776 195.636 181.793 198.243C181.725 198.426 181.732 198.628 181.813 198.806C181.893 198.983 182.04 199.121 182.223 199.19C183.071 199.51 184.835 198.478 185.533 198.031C188.017 196.433 190.573 194.586 193.199 192.49C197.575 189.002 201.329 186.097 204.463 183.775C206.039 182.608 213.833 176.786 215.661 179.066C217.772 181.695 212.351 186.095 210.515 187.494C204.313 192.216 197.489 196.211 190.776 200.203C187.966 201.871 185.476 203.524 183.308 205.161C182.891 205.476 182.518 205.88 182.188 206.373C182.156 206.418 182.135 206.47 182.126 206.525C182.117 206.58 182.12 206.636 182.134 206.69C182.149 206.743 182.175 206.793 182.21 206.837C182.246 206.88 182.29 206.915 182.34 206.94C183.774 207.645 186.478 206.515 187.915 205.865C196.436 201.999 204.089 196.506 212.564 192.483C213.658 191.963 218.548 189.881 218.152 192.841C217.81 195.361 215.869 197.597 213.711 199.182C210.908 201.24 207.599 203.075 203.784 204.687C199.164 206.637 194.421 208.463 189.555 210.164C186.995 211.058 184.656 212.048 182.538 213.135C182.141 213.34 181.697 213.744 181.414 214.094Z" fill="#FCF9E6"/>
<path d="M1093.52 243.555C1093.57 243.622 1093.6 243.698 1093.62 243.779C1093.63 243.86 1093.63 243.943 1093.61 244.023C1093.59 244.103 1093.56 244.178 1093.51 244.243C1093.46 244.308 1093.39 244.362 1093.32 244.4C1091.81 245.21 1089.8 244.801 1088.28 244.23C1085.91 243.339 1083.39 242.127 1080.73 240.592C1077.78 238.886 1075.02 237.426 1072.46 236.213C1070.85 235.454 1067.32 234.271 1067.21 237.394C1067.02 242.507 1070.79 245.308 1075.17 246.871C1077.64 247.753 1080.23 248.416 1082.93 248.861C1086.47 249.445 1090.01 249.957 1093.53 250.399C1094.36 250.503 1095.21 250.651 1096.08 250.844C1097.35 251.122 1099.12 251.416 1099.98 252.451C1101.02 253.691 1098.72 254.738 1097.89 254.922C1093.76 255.833 1089.32 255.767 1085.23 256.108C1083.53 256.25 1081.32 256.5 1079.93 257.403C1078.17 258.549 1079.69 260.667 1080.98 261.367C1083.37 262.67 1087 262.587 1089.67 262.24C1094.02 261.683 1097.45 261.297 1099.95 261.084C1104.24 260.725 1107.14 262.3 1108.65 265.811C1109.17 267.023 1109.37 268.462 1109.72 269.765C1109.73 269.792 1109.74 269.816 1109.77 269.832C1109.79 269.848 1109.82 269.854 1109.85 269.85L1112.4 269.44C1112.47 269.428 1112.51 269.386 1112.5 269.314C1112.37 268.16 1112.39 267.052 1112.58 265.989C1113.44 260.935 1116.26 255.823 1119.06 251.501C1121.35 247.966 1123.31 244.862 1124.94 242.19C1125.66 241.011 1127.91 237.068 1126.15 236.034C1122.64 233.951 1119.72 240.456 1118.79 242.78C1117.8 245.233 1116.82 247.722 1115.84 250.246C1115.5 251.148 1115.04 251.948 1114.49 252.645C1114.06 253.177 1113.65 253.162 1113.25 252.602C1112.23 251.181 1112.6 249.353 1113.1 247.856C1113.77 245.832 1114.78 243.611 1116.13 241.192C1117.73 238.307 1119.28 235.516 1120.78 232.818C1122.13 230.4 1125.35 224.26 1123.32 222.126C1120.39 219.044 1117.32 226.192 1116.59 227.979C1115.26 231.252 1113.97 234.44 1112.71 237.543C1112.31 238.529 1111.28 240.768 1110.15 241.132C1110.09 241.153 1110.02 241.159 1109.95 241.147C1109.89 241.135 1109.82 241.106 1109.77 241.064C1108.61 240.153 1108.8 238.734 1108.85 237.426C1108.88 236.738 1108.96 236.073 1109.07 235.43C1109.48 233.247 1109.93 231.245 1110.43 229.423C1111.83 224.284 1112.77 220.402 1113.24 217.777C1113.54 216.107 1113.9 213.624 1113.08 212.035C1112.44 210.797 1110.92 210.589 1110.05 211.73C1109.65 212.243 1109.36 212.774 1109.17 213.323C1108.61 214.99 1108.21 216.807 1107.99 218.774C1107.64 221.906 1107.28 225.081 1106.92 228.299C1106.75 229.737 1106.4 231.023 1105.86 232.158C1105.81 232.268 1105.73 232.363 1105.63 232.435C1105.53 232.507 1105.42 232.554 1105.3 232.571C1105.18 232.588 1105.05 232.575 1104.94 232.533C1104.82 232.491 1104.72 232.421 1104.64 232.33C1104.1 231.715 1103.77 230.917 1103.66 229.933C1103.41 227.919 1103.32 225.901 1103.39 223.877C1103.57 218.721 1103.56 214.205 1103.38 210.33C1103.2 206.616 1102.37 199.598 1097.63 198.763C1094.18 198.156 1096.16 205.87 1096.53 207.285C1097.51 210.959 1098.54 214.741 1099.61 218.632C1100.06 220.298 1101.25 224.955 1100.17 226.293C1098.06 228.894 1094.14 219.407 1093.65 218.24C1091.7 213.637 1089.85 209.323 1088.1 205.299C1087.01 202.818 1082.7 193.414 1079.19 194.241C1077.87 194.551 1077.32 195.456 1077.55 196.957C1077.78 198.412 1078.28 199.935 1079.06 201.525C1082.21 207.951 1086.26 213.874 1090.16 219.989C1091.7 222.404 1093.35 225.048 1094.16 227.713C1094.22 227.9 1094.2 228.101 1094.11 228.273C1094.02 228.445 1093.86 228.573 1093.67 228.63C1092.81 228.894 1091.11 227.751 1090.44 227.26C1088.07 225.505 1085.64 223.497 1083.15 221.236C1079.01 217.472 1075.45 214.331 1072.47 211.812C1070.98 210.546 1063.58 204.233 1061.6 206.39C1059.33 208.878 1064.45 213.618 1066.2 215.133C1072.08 220.245 1078.63 224.672 1085.07 229.089C1087.77 230.935 1090.15 232.745 1092.21 234.519C1092.6 234.86 1092.95 235.287 1093.25 235.8C1093.27 235.848 1093.29 235.901 1093.3 235.956C1093.3 236.011 1093.3 236.067 1093.28 236.12C1093.26 236.173 1093.23 236.221 1093.19 236.262C1093.15 236.303 1093.11 236.335 1093.06 236.357C1091.58 236.968 1088.95 235.665 1087.56 234.924C1079.31 230.516 1072.03 224.54 1063.83 219.979C1062.77 219.389 1058.02 216.997 1058.23 219.975C1058.41 222.513 1060.2 224.869 1062.25 226.59C1064.92 228.825 1068.1 230.87 1071.8 232.724C1076.29 234.969 1080.9 237.097 1085.65 239.108C1088.15 240.166 1090.42 241.305 1092.46 242.526C1092.84 242.756 1093.26 243.188 1093.52 243.555Z" fill="#FCF9E6"/>
<rect x="295.602" y="168.864" width="74.6486" height="74.6485" transform="rotate(1.84999 295.602 168.864)" fill="#FBE4E1"/>
<path d="M364.656 208.636L365.715 175.871L355.808 185.157C350.07 179.036 341.997 175.104 332.95 174.812C323.902 174.52 315.592 177.923 309.471 183.661L320.681 195.619C323.742 192.75 327.897 191.049 332.421 191.195C336.944 191.341 340.981 193.307 343.85 196.367L331.891 207.577L299.126 206.519L298.068 239.284L307.975 229.997C313.712 236.118 321.785 240.05 330.833 240.342C339.881 240.635 348.191 237.232 354.311 231.494L343.101 219.536C340.041 222.405 335.886 224.106 331.362 223.96C326.838 223.814 322.802 221.848 319.933 218.787L331.891 207.577L364.656 208.636Z" fill="#EA5E4F"/>
<rect width="74.6486" height="74.6485" transform="matrix(-0.999479 -0.0322829 -0.0322831 0.999479 982.484 191.05)" fill="#FBE4E1"/>
<path d="M911.006 226.282L912.065 193.517L921.351 203.424C927.472 197.686 935.782 194.283 944.83 194.575C953.877 194.868 961.95 198.8 967.688 204.92L955.73 216.131C952.861 213.07 948.824 211.104 944.3 210.958C939.777 210.812 935.622 212.513 932.561 215.382L943.771 227.341L976.536 228.399L975.478 261.164L966.191 251.257C960.071 256.995 951.761 260.398 942.713 260.106C933.665 259.813 925.592 255.881 919.855 249.761L931.813 238.551C934.682 241.611 938.718 243.577 943.242 243.723C947.766 243.869 951.921 242.168 954.981 239.299L943.771 227.341L911.006 226.282Z" fill="#EA5E4F"/>
<rect width="82.7125" height="74.5112" transform="matrix(0.999479 0.0322829 -0.0333607 0.999443 1204.02 198.344)" fill="#EA5E4F"/>
<path d="M1247.8 202.061L1234.41 201.628L1234.2 208.178C1234.09 211.795 1236.99 214.824 1240.68 214.943C1244.38 215.063 1247.47 212.228 1247.59 208.611L1247.8 202.061Z" fill="#FCF9E6"/>
<path d="M1239.27 258.606C1235.57 258.486 1232.48 261.321 1232.37 264.938L1232.15 271.488L1245.54 271.921L1245.75 265.372C1245.87 261.755 1242.97 258.725 1239.27 258.606Z" fill="#FCF9E6"/>
<path d="M1261.44 208.108L1270.6 217.677L1265.72 222.155C1263.02 224.628 1258.78 224.491 1256.25 221.848C1253.72 219.206 1253.86 215.059 1256.55 212.586L1261.44 208.108Z" fill="#FCF9E6"/>
<path d="M1223.7 251.701C1221.17 249.059 1216.93 248.921 1214.24 251.394L1209.35 255.872L1218.52 265.441L1223.4 260.963C1226.1 258.49 1226.23 254.343 1223.7 251.701Z" fill="#FCF9E6"/>
<path d="M1275.46 244.479L1268.77 244.263C1265.07 244.143 1262.17 241.114 1262.29 237.497C1262.41 233.88 1265.5 231.044 1269.19 231.164L1275.89 231.381L1275.46 244.479Z" fill="#FCF9E6"/>
<path d="M1217.67 236.052C1217.78 232.435 1214.88 229.406 1211.18 229.287L1204.49 229.07L1204.07 242.169L1210.76 242.385C1214.46 242.505 1217.55 239.67 1217.67 236.052Z" fill="#FCF9E6"/>
<path d="M1259.54 266.769L1254.95 261.984C1252.42 259.342 1252.56 255.195 1255.25 252.722C1257.95 250.249 1262.19 250.386 1264.72 253.028L1269.3 257.813L1259.54 266.769Z" fill="#FCF9E6"/>
<path d="M1224.7 220.827C1227.4 218.354 1227.53 214.207 1225 211.565L1220.42 206.781L1210.65 215.736L1215.23 220.521C1217.77 223.163 1222 223.3 1224.7 220.827Z" fill="#FCF9E6"/>
<path d="M1239.41 254.239C1249.27 254.559 1257.51 246.998 1257.83 237.352C1258.14 227.707 1250.4 219.629 1240.54 219.31C1230.68 218.991 1222.44 226.551 1222.13 236.197C1221.82 245.842 1229.55 253.92 1239.41 254.239Z" fill="#FCF9E6"/>
<rect width="83.4555" height="74.5112" transform="matrix(0.999479 0.0322829 -0.0333607 0.999443 -9.3291 159.152)" fill="#EA5E4F"/>
<path d="M43.3859 163.158L29.9993 162.725L29.7874 169.274C29.6703 172.891 32.5721 175.921 36.2687 176.04C39.9653 176.16 43.0569 173.325 43.1739 169.707L43.3859 163.158Z" fill="#FCF9E6"/>
<path d="M34.8555 219.702C31.1589 219.583 28.0673 222.418 27.9502 226.035L27.7382 232.584L41.1248 233.018L41.3368 226.468C41.4539 222.851 38.5521 219.822 34.8555 219.702Z" fill="#FCF9E6"/>
<path d="M57.0205 169.205L66.1864 178.773L61.3036 183.251C58.607 185.724 54.369 185.587 51.8379 182.945C49.3068 180.303 49.441 176.156 52.1377 173.683L57.0205 169.205Z" fill="#FCF9E6"/>
<path d="M19.2862 212.797C16.7551 210.155 12.5172 210.018 9.82051 212.491L4.93775 216.969L14.1037 226.538L18.9865 222.06C21.6831 219.587 21.8173 215.44 19.2862 212.797Z" fill="#FCF9E6"/>
<path d="M71.0476 205.576L64.3543 205.359C60.6577 205.24 57.7559 202.21 57.873 198.593C57.9901 194.976 61.0817 192.141 64.7783 192.261L71.4715 192.477L71.0476 205.576Z" fill="#FCF9E6"/>
<path d="M13.2511 197.149C13.3682 193.532 10.4664 190.503 6.76983 190.383L0.0765475 190.167L-0.347408 203.265L6.34587 203.482C10.0425 203.601 13.1341 200.766 13.2511 197.149Z" fill="#FCF9E6"/>
<path d="M55.1219 227.865L50.5389 223.081C48.0078 220.439 48.142 216.292 50.8387 213.819C53.5354 211.346 57.7733 211.483 60.3045 214.125L64.8874 218.909L55.1219 227.865Z" fill="#FCF9E6"/>
<path d="M20.2856 181.924C22.9823 179.451 23.1165 175.304 20.5854 172.662L16.0024 167.877L6.23688 176.833L10.8199 181.617C13.351 184.26 17.5889 184.397 20.2856 181.924Z" fill="#FCF9E6"/>
<path d="M34.9968 215.336C44.8544 215.655 53.0986 208.095 53.4108 198.449C53.723 188.803 45.9849 180.725 36.1273 180.406C26.2698 180.087 18.0255 187.648 17.7133 197.294C17.4011 206.939 25.1392 215.017 34.9968 215.336Z" fill="#FCF9E6"/>
</svg>
