<svg width="233" height="138" viewBox="0 0 233 138" fill="none" xmlns="http://www.w3.org/2000/svg">
<rect width="231.356" height="137.542" transform="translate(0.788086 0.285156)" fill="#3D866B"/>
<rect x="0.788086" y="0.285156" width="122.356" height="137.542" fill="#7BCED5"/>
<path d="M123.144 12.0009C123.144 45.7916 95.7499 73.1787 61.9616 73.1787C28.1733 73.1787 0.788086 45.7916 0.788086 12.0009" fill="#EA5E4F"/>
<path d="M123.144 126.328C123.144 92.5375 95.7499 65.1504 61.9616 65.1504C28.1733 65.1504 0.788086 92.5375 0.788086 126.328" fill="#EA5E4F"/>
<path d="M98.5991 41.9395C92.5247 55.6155 78.3584 65.2087 61.8447 65.2087C45.331 65.2087 31.156 55.6155 25.0859 41.9395H98.5991Z" fill="#9CDADF"/>
<rect x="59.3623" y="63.6328" width="5.20662" height="36.0125" fill="#F3B7BD"/>
<rect x="0.788086" y="0.285156" width="122.356" height="11.7149" fill="#3D866B"/>
<rect x="0.788086" y="126.112" width="122.356" height="11.7149" fill="#3D866B"/>
<path d="M61.9659 95.7393L0.788086 126.545H123.144L61.9659 95.7393Z" fill="#072C3F"/>
<rect x="0.788086" y="0.285156" width="122.356" height="137.542" fill="#7BCED5"/>
<path d="M123.144 12.0009C123.144 45.7916 95.7499 73.1787 61.9616 73.1787C28.1733 73.1787 0.788086 45.7916 0.788086 12.0009" fill="#EA5E4F"/>
<path d="M123.144 126.328C123.144 92.5375 95.7499 65.1504 61.9616 65.1504C28.1733 65.1504 0.788086 92.5375 0.788086 126.328" fill="#EA5E4F"/>
<path d="M98.5991 41.9395C92.5247 55.6155 78.3584 65.2087 61.8447 65.2087C45.331 65.2087 31.156 55.6155 25.0859 41.9395H98.5991Z" fill="#9CDADF"/>
<rect x="59.3623" y="63.6328" width="5.20662" height="36.0125" fill="#F3B7BD"/>
<rect x="0.788086" y="0.285156" width="122.356" height="11.7149" fill="#3D866B"/>
<rect x="0.788086" y="126.112" width="122.356" height="11.7149" fill="#3D866B"/>
<path d="M61.9659 95.7393L0.788086 126.545H123.144L61.9659 95.7393Z" fill="#072C3F"/>
<rect width="45" height="66" transform="translate(155.145 36.0566)" fill="#3D866B"/>
</svg>
