<svg width="1090" height="243" viewBox="0 0 1090 243" fill="none" xmlns="http://www.w3.org/2000/svg">
<path d="M832.601 1.13281H474.301C445.87 1.13281 422.821 24.35 422.821 52.99C422.821 81.6299 445.87 104.847 474.301 104.847H832.601C861.032 104.847 884.081 81.6299 884.081 52.99C884.081 24.35 861.032 1.13281 832.601 1.13281Z" fill="#5D9A83"/>
<path fill-rule="evenodd" clip-rule="evenodd" d="M935.56 1.13281H153.067C124.635 1.13281 101.587 24.35 101.587 52.99C101.587 81.6299 124.635 104.847 153.067 104.847H831.914V52.2985H884.085C884.453 23.9774 907.358 1.13281 935.56 1.13281ZM936.247 1.13733C936.019 1.13432 935.79 1.13281 935.56 1.13281H936.247V1.13733ZM987.036 52.2985C987.039 52.5287 987.04 52.7592 987.04 52.99C987.04 81.6299 963.992 104.847 935.56 104.847C935.331 104.847 935.102 104.846 934.874 104.843V104.847H935.56H1038.52C1066.95 104.847 1090 81.6299 1090 52.99C1090 24.5808 1067.32 1.50742 1039.21 1.13733V52.2985H987.036Z" fill="#5D9A83"/>
<path d="M1090 52.99C1090 24.35 1066.95 1.13281 1038.52 1.13281C1010.09 1.13281 987.04 24.35 987.04 52.99C987.04 81.6299 1010.09 104.847 1038.52 104.847C1066.95 104.847 1090 81.6299 1090 52.99Z" fill="url(#paint0_radial_5926_1824)"/>
<path d="M984.295 52.9908C984.295 25.8784 962.476 3.89941 935.56 3.89941C908.645 3.89941 886.826 25.8784 886.826 52.9908C886.826 80.1033 908.645 102.082 935.56 102.082C962.476 102.082 984.295 80.1033 984.295 52.9908Z" fill="white" stroke="#5D9A83" stroke-width="4"/>
<path d="M306.134 1.13281H832.601C861.033 1.13281 884.081 24.35 884.081 52.99C884.081 81.6299 861.033 104.847 832.601 104.847H306.134V1.13281Z" fill="#5D9A83"/>
<path d="M483.483 66.0829C490.621 66.0829 495.904 61.2651 497.403 54.1461H507.183C505.612 66.011 498.188 74.9277 483.483 74.9996C466.85 74.9277 459.497 63.4942 459.497 49.3282C459.497 35.0903 466.993 23.6569 483.483 23.585C497.974 23.6569 505.541 32.5735 507.183 44.4384H497.403C495.904 37.3195 490.55 32.5016 483.483 32.5016C474.845 32.5016 469.063 39.6206 469.063 49.3282C469.063 59.3954 474.845 66.0829 483.483 66.0829ZM527.416 39.5487C538.624 39.5487 544.763 47.4586 544.763 57.2382C544.763 67.0177 538.766 74.9996 527.416 74.9996C515.352 74.9996 510.141 67.0177 510.141 57.2382C510.141 47.4586 515.495 39.5487 527.416 39.5487ZM527.273 66.0829C533.056 66.0829 535.126 62.1999 535.126 57.2382C535.126 52.5641 533.127 48.4653 527.416 48.4653C521.063 48.4653 519.707 52.5641 519.707 57.2382C519.707 62.3437 521.705 66.0829 527.273 66.0829ZM582.939 39.5487C588.221 39.5487 589.506 44.7261 589.506 57.2382V74.4243H579.869V56.5191C579.869 49.9754 578.513 48.3934 577.157 48.3934C574.944 48.3934 574.23 52.1327 574.23 54.6495V74.4243H564.593V56.5191C564.593 49.9754 563.95 48.3934 562.094 48.3934C560.167 48.3934 558.882 52.1327 558.882 54.6495V74.4243H549.316V40.052H557.24L558.882 45.3013H559.953C559.953 45.3013 563.094 39.5487 567.948 39.5487C573.445 39.5487 574.23 45.3013 574.23 45.3013H575.229C575.229 45.3013 577.514 39.5487 582.939 39.5487ZM628.912 39.5487C634.195 39.5487 635.48 44.7261 635.48 57.2382V74.4243H625.843V56.5191C625.843 49.9754 624.487 48.3934 623.13 48.3934C620.917 48.3934 620.203 52.1327 620.203 54.6495V74.4243H610.566V56.5191C610.566 49.9754 609.924 48.3934 608.068 48.3934C606.141 48.3934 604.856 52.1327 604.856 54.6495V74.4243H595.29V40.052H603.214L604.856 45.3013H605.926C605.926 45.3013 609.067 39.5487 613.922 39.5487C619.418 39.5487 620.203 45.3013 620.203 45.3013H621.203C621.203 45.3013 623.487 39.5487 628.912 39.5487ZM662.392 40.052H671.958V74.4243H664.034L662.392 69.175H661.321C661.321 69.175 658.038 74.9996 653.255 74.9996C643.761 74.9996 640.762 68.8154 640.762 57.2382V40.052H650.328V58.0292C650.328 64.5009 652.898 66.0829 656.11 66.0829C660.536 66.0829 662.392 62.3437 662.392 59.8988V40.052ZM696.737 39.5487C706.231 39.5487 709.229 45.6609 709.229 57.2382V74.4243H699.664V56.5191C699.664 49.9754 697.094 48.4653 693.881 48.4653C689.455 48.4653 687.599 52.1327 687.599 54.6495V74.4243H678.034V40.052H685.958L687.599 45.3013H688.67C688.67 45.3013 691.954 39.5487 696.737 39.5487ZM724.371 74.4962H714.806V40.052H724.371V74.4962ZM724.371 35.378H714.806V26.5332H724.371V35.378ZM740.805 41.3464L742.804 40.052H771.215V74.4962H761.578V48.9687H745.659V62.1999C745.659 64.0695 747.158 65.5796 749.014 65.5796H754.011V74.4962H744.874C739.591 74.4962 736.022 70.1098 736.022 64.7886V48.9687H727.741V43.4317C727.741 43.4317 736.022 40.5554 736.022 29.5534H745.659C745.659 37.4633 740.805 40.3397 740.805 40.3397V41.3464ZM771.215 35.378H761.578V26.5332H771.215V35.378ZM810.458 55.9438V58.6044H785.402C785.83 62.128 787.971 66.0829 792.968 66.0829C797.894 66.0829 800.25 64.6448 800.821 61.6246H810.458C810.101 68.8874 803.962 74.9996 793.111 74.9996C781.047 74.9996 775.836 67.0177 775.836 57.2382C775.836 47.4586 781.19 39.5487 793.111 39.5487C802.82 39.5487 808.602 45.4452 810.101 53.3551C810.244 54.218 810.386 55.0809 810.458 55.9438ZM786.044 53.3551H800.107C799.108 50.9821 796.966 48.4653 793.111 48.4653C788.971 48.4653 786.972 50.9821 786.044 53.3551ZM824.216 50.4069C824.216 54.1461 847.845 53.5708 847.845 63.7099C847.845 70.9727 839.849 74.9996 830.712 74.9996C821.575 74.9996 813.508 69.0312 813.508 61.9841H823.074C823.074 65.5796 826.5 66.0829 830.712 66.0829C835.209 66.0829 838.208 65.5796 838.208 63.7099C838.208 59.4673 814.579 61.8403 814.579 50.4069C814.579 43.2879 822.289 39.5487 830.641 39.5487C838.993 39.5487 846.417 45.0137 846.417 52.4922H836.851C836.28 49.472 834.852 48.4653 830.641 48.4653C826.143 48.4653 824.216 48.8249 824.216 50.4069Z" fill="white"/>
<path d="M502.938 52.9904C502.938 48.5155 506.992 44.8877 511.993 44.8877C516.995 44.8877 521.05 48.5155 521.05 52.9904C521.05 57.4655 516.995 61.0933 511.993 61.0933C506.992 61.0933 502.938 57.4655 502.938 52.9904Z" fill="url(#paint1_linear_5926_1824)"/>
<path d="M526.485 52.9904C526.485 48.5155 530.539 44.8877 535.54 44.8877C540.543 44.8877 544.597 48.5155 544.597 52.9904C544.597 57.4655 540.543 61.0933 535.54 61.0933C530.539 61.0933 526.485 57.4655 526.485 52.9904Z" fill="url(#paint2_linear_5926_1824)"/>
<path d="M550.028 52.9904C550.028 48.5155 554.084 44.8877 559.085 44.8877C564.086 44.8877 568.14 48.5155 568.14 52.9904C568.14 57.4655 564.086 61.0933 559.085 61.0933C554.084 61.0933 550.028 57.4655 550.028 52.9904Z" fill="url(#paint3_linear_5926_1824)"/>
<path fill-rule="evenodd" clip-rule="evenodd" d="M497.504 52.9896C497.504 52.0675 497.478 51.1519 497.425 50.2411C497.243 47.1442 494.248 44.8868 490.783 44.8868C473.935 44.8868 458.764 38.4549 448.174 28.1826C434.869 15.2785 419.071 1.13281 399.448 1.13281H369.582C337.574 1.13281 311.625 24.3503 311.625 52.9896C311.625 81.6312 337.574 104.847 369.582 104.847H399.448C419.071 104.847 434.869 90.703 448.174 77.7986C458.764 67.5259 473.935 61.0923 490.783 61.0923C494.248 61.0923 497.243 58.8366 497.425 55.7397C497.478 54.8289 497.504 53.9133 497.504 52.9896Z" fill="url(#paint4_linear_5926_1824)"/>
<path d="M371.342 3.20801H51.4802C24.1859 3.20801 2.05957 25.4965 2.05957 52.9909C2.05957 80.4852 24.1859 102.774 51.4802 102.774H371.342C398.636 102.774 420.762 80.4852 420.762 52.9909C420.762 25.4965 398.636 3.20801 371.342 3.20801Z" fill="white"/>
<path d="M371.342 3.20801H51.4802C24.1859 3.20801 2.05957 25.4965 2.05957 52.9909C2.05957 80.4852 24.1859 102.774 51.4802 102.774H371.342C398.636 102.774 420.762 80.4852 420.762 52.9909C420.762 25.4965 398.636 3.20801 371.342 3.20801Z" stroke="#5D9A83" stroke-width="3"/>
<path d="M74.2081 33.0055H46.7961V42.7132H66.0702V51.6299H46.7961V65.5801H74.2081V74.4249H37.2305V24.0889H74.2081V33.0055ZM112.004 39.5492C117.287 39.5492 118.572 44.7266 118.572 57.2387V74.4249H108.935V56.5196C108.935 49.976 107.579 48.394 106.222 48.394C104.009 48.394 103.295 52.1332 103.295 54.65V74.4249H93.6584V56.5196C93.6584 49.976 93.016 48.394 91.1599 48.394C89.2325 48.394 87.9476 52.1332 87.9476 54.65V74.4249H78.382V40.0526H86.3057L87.9476 45.3019H89.0184C89.0184 45.3019 92.1593 39.5492 97.0135 39.5492C102.51 39.5492 103.295 45.3019 103.295 45.3019H104.295C104.295 45.3019 106.579 39.5492 112.004 39.5492ZM142.701 39.5492C152.195 39.5492 157.906 45.3019 157.906 57.2387C157.906 68.816 152.338 75.0001 142.844 75.0001C136.277 75.0001 133.707 69.1755 133.707 69.1755H132.636L133.921 74.4249V91.1077H124.355V40.0526H132.279L133.921 45.5176H134.992C134.992 41.2031 140.274 39.5492 142.701 39.5492ZM139.917 66.0835C143.129 66.0835 148.34 64.7891 148.34 57.2387C148.34 49.8321 142.201 48.4659 139.846 48.4659C137.133 48.4659 133.921 50.5512 133.921 50.5512V59.8993C133.921 62.3442 135.491 66.0835 139.917 66.0835ZM178.508 39.5492C189.715 39.5492 195.854 47.4592 195.854 57.2387C195.854 67.0183 189.858 75.0001 178.508 75.0001C166.444 75.0001 161.232 67.0183 161.232 57.2387C161.232 47.4592 166.586 39.5492 178.508 39.5492ZM178.365 66.0835C184.147 66.0835 186.217 62.2004 186.217 57.2387C186.217 52.5647 184.218 48.4659 178.508 48.4659C172.154 48.4659 170.798 52.5647 170.798 57.2387C170.798 62.3442 172.797 66.0835 178.365 66.0835ZM227.963 40.0526H237.528L229.39 73.9934L229.319 74.4249H222.68L222.537 73.9934L218.183 52.4208H217.183L212.829 73.9934L212.686 74.4249H206.047L205.976 73.9934L197.838 40.0526H207.404L208.974 62.488H209.831L212.9 40.0526H222.466L225.536 62.488H226.392L227.963 40.0526ZM274.207 55.9444V58.605H249.15C249.579 62.1285 251.72 66.0835 256.717 66.0835C261.643 66.0835 263.999 64.6453 264.57 61.6251H274.207C273.85 68.8879 267.711 75.0001 256.86 75.0001C244.796 75.0001 239.585 67.0183 239.585 57.2387C239.585 47.4592 244.939 39.5492 256.86 39.5492C266.568 39.5492 272.351 45.4457 273.85 53.3557C273.992 54.2186 274.135 55.0815 274.207 55.9444ZM249.793 53.3557H263.856C262.856 50.9827 260.715 48.4659 256.86 48.4659C252.72 48.4659 250.721 50.9827 249.793 53.3557ZM297.532 40.0526H301.458V48.9692H297.532C291.036 48.9692 288.394 52.6366 288.394 55.1534V74.4249H278.829V40.0526H286.753L288.394 45.3019H289.465C289.465 45.3019 292.749 40.0526 297.532 40.0526ZM314.501 74.4968H304.935V40.0526H314.501V74.4968ZM314.501 35.3785H304.935V26.5338H314.501V35.3785ZM339.287 39.5492C348.781 39.5492 351.779 45.6614 351.779 57.2387V74.4249H342.214V56.5196C342.214 49.976 339.644 48.4659 336.431 48.4659C332.005 48.4659 330.149 52.1332 330.149 54.65V74.4249H320.584V40.0526H328.508L330.149 45.3019H331.22C331.22 45.3019 334.504 39.5492 339.287 39.5492ZM385.124 48.9692L382.198 46.1648H381.127C381.127 46.1648 382.983 48.8254 382.983 53.068C382.983 60.5465 378.557 66.5868 369.848 66.5868C366.636 66.5868 364.28 65.1487 364.137 65.1487C364.137 65.1487 363.637 65.652 363.637 66.9464C363.637 68.7441 367.421 69.607 370.99 69.607C381.912 69.607 387.837 70.8294 387.837 79.6023C387.837 85.5707 382.055 91.611 370.99 91.611C359.354 91.611 354.286 86.2179 354.286 80.2495C354.286 77.3012 355.642 74.4968 358.783 72.8429C358.783 72.8429 356.356 71.5485 356.356 67.0183C356.356 63.3509 359.497 61.0499 359.497 61.0499C357.712 59.6117 356.713 56.3039 356.713 53.068C356.713 45.5895 360.782 39.5492 369.848 39.5492C371.347 39.5492 372.703 39.7649 373.988 40.0526H387.766V48.9692H385.124ZM365.065 75.2878C365.065 75.2878 363.923 76.5821 363.852 78.0203C363.852 79.6023 364.494 82.6944 370.847 82.6944C375.559 82.6944 378.2 81.2562 378.2 78.4518C378.2 76.4383 375.63 75.2878 370.99 75.2878C366.065 75.2878 365.065 75.2878 365.065 75.2878ZM369.705 58.5331C372.989 58.5331 374.702 55.7286 374.702 53.068C374.702 50.4074 372.989 47.6749 369.919 47.6749C366.707 47.6749 365.065 50.4074 365.065 53.068C365.065 55.7286 366.707 58.5331 369.705 58.5331Z" fill="#133C40"/>
<path d="M609.444 104.848H270.364C241.932 104.848 218.884 128.065 218.884 156.705C218.884 185.345 241.932 208.562 270.364 208.562H609.444C637.876 208.562 660.924 185.345 660.924 156.705C660.924 128.065 637.876 104.848 609.444 104.848Z" fill="url(#paint5_radial_5926_1824)"/>
<path d="M265.109 142.976C265.109 150.886 302.015 145.349 302.015 162.823C302.015 173.393 293.734 178.714 277.958 178.714C263.253 178.714 253.973 171.667 253.973 161.456H263.538C263.538 165.483 266.965 169.798 277.958 169.798C289.023 169.798 292.378 167.137 292.378 162.823C292.378 155.272 255.472 160.234 255.472 142.976C255.472 132.62 262.182 127.299 277.958 127.299C292.664 127.299 300.088 133.843 300.088 144.702H290.451C289.808 140.675 287.667 136.216 277.958 136.216C268.178 136.216 265.109 139.021 265.109 142.976ZM327.668 143.767H337.234V178.139H329.31L327.668 172.89H326.598C326.598 172.89 323.314 178.714 318.531 178.714C309.037 178.714 306.039 172.53 306.039 160.953V143.767H315.604V161.744C315.604 168.216 318.174 169.798 321.387 169.798C325.812 169.798 327.668 166.058 327.668 163.614V143.767ZM352.375 154.122C352.375 157.861 376.003 157.286 376.003 167.425C376.003 174.687 368.008 178.714 358.871 178.714C349.733 178.714 341.667 172.746 341.667 165.699H351.233C351.233 169.294 354.659 169.798 358.871 169.798C363.368 169.798 366.366 169.294 366.366 167.425C366.366 163.182 342.738 165.555 342.738 154.122C342.738 147.003 350.447 143.263 358.799 143.263C367.151 143.263 374.576 148.729 374.576 156.207H365.01C364.439 153.187 363.011 152.18 358.799 152.18C354.302 152.18 352.375 152.54 352.375 154.122ZM403.915 152.683H395.634V165.915C395.634 167.784 397.133 169.294 398.989 169.294H403.915V178.139H394.849C389.566 178.139 385.997 173.825 385.997 168.503V152.683H377.716V147.147C377.716 147.147 385.997 144.27 385.997 133.268H395.634C395.634 141.178 390.78 144.054 390.78 144.054V145.061L392.779 143.767H403.915V152.683ZM431.324 143.767H440.818V178.139H432.966L431.324 172.89H430.253C430.253 172.89 427.898 178.714 422.401 178.714C413.906 178.714 407.339 172.53 407.339 160.953C407.339 149.016 414.192 143.263 422.472 143.263C426.399 143.263 431.324 147.075 431.324 147.075H432.324L431.324 145.78V143.767ZM431.324 162.894V154.194C431.324 154.194 428.683 152.18 425.399 152.18C421.973 152.18 416.833 153.403 416.833 160.953C416.833 167.497 421.045 169.798 425.328 169.798C430.111 169.798 431.324 165.339 431.324 162.894ZM456.427 178.211H446.861V143.767H456.427V178.211ZM456.427 139.093H446.861V130.247H456.427V139.093ZM481.213 143.263C490.707 143.263 493.705 149.376 493.705 160.953V178.139H484.14V160.234C484.14 153.69 481.57 152.18 478.358 152.18C473.932 152.18 472.076 155.847 472.076 158.364V178.139H462.51V143.767H470.434L472.076 149.016H473.146C473.146 149.016 476.43 143.263 481.213 143.263ZM521.909 143.767H531.404V178.139H523.551L521.909 172.89H520.839C520.839 172.89 518.483 178.714 512.986 178.714C504.491 178.714 497.924 172.53 497.924 160.953C497.924 149.016 504.777 143.263 513.058 143.263C516.984 143.263 521.909 147.075 521.909 147.075H522.909L521.909 145.78V143.767ZM521.909 162.894V154.194C521.909 154.194 519.268 152.18 515.984 152.18C512.558 152.18 507.418 153.403 507.418 160.953C507.418 167.497 511.63 169.798 515.913 169.798C520.696 169.798 521.909 165.339 521.909 162.894ZM555.936 143.335C565.43 143.335 570.998 149.448 570.998 161.025C570.998 172.962 565.287 178.714 555.793 178.714C553.366 178.714 548.083 177.132 548.083 172.746H547.012L545.371 178.211H537.447V124.423H547.012V143.839L545.727 149.088H546.798C546.798 149.088 549.368 143.335 555.936 143.335ZM552.937 169.87C555.293 169.87 561.432 168.431 561.432 161.025C561.432 153.546 556.221 152.18 553.009 152.18C548.583 152.18 547.012 155.919 547.012 158.364V167.784C547.012 167.784 550.225 169.87 552.937 169.87ZM585.316 178.211H575.751V124.423H585.316V178.211ZM624.593 159.659V162.319H599.537C599.965 165.843 602.107 169.798 607.104 169.798C612.029 169.798 614.385 168.36 614.956 165.339H624.593C624.236 172.602 618.097 178.714 607.247 178.714C595.182 178.714 589.971 170.733 589.971 160.953C589.971 151.173 595.325 143.263 607.247 143.263C616.955 143.263 622.737 149.16 624.236 157.07C624.379 157.933 624.522 158.796 624.593 159.659ZM600.179 157.07H614.242C613.243 154.697 611.101 152.18 607.247 152.18C603.106 152.18 601.107 154.697 600.179 157.07Z" fill="white"/>
<path fill-rule="evenodd" clip-rule="evenodd" d="M885.124 177.714H967.084V238.915V241.751H966.955C967.042 240.818 967.084 239.871 967.084 238.915C967.084 222.126 953.536 208.516 936.825 208.516H885.124V177.714Z" fill="#5D9A83"/>
<path fill-rule="evenodd" clip-rule="evenodd" d="M967.085 186.861H885.124V125.66V122.824H885.254C885.168 123.757 885.124 124.704 885.124 125.66C885.124 142.449 898.672 156.059 915.383 156.059H967.085V186.861Z" fill="#5D9A83"/>
<path d="M915.578 104.848H712.405C683.973 104.848 660.925 128.065 660.925 156.705C660.925 185.345 683.973 208.562 712.405 208.562H915.578C944.01 208.562 967.058 185.345 967.058 156.705C967.058 128.065 944.01 104.848 915.578 104.848Z" fill="#5D9A83"/>
<path d="M735.132 136.719H707.72V148.513H726.994V157.43H707.72V178.139H698.154V127.803H735.132V136.719ZM754.162 143.767H763.727V178.139H755.803L754.162 172.89H753.091C753.091 172.89 749.807 178.715 745.024 178.715C735.53 178.715 732.532 172.53 732.532 160.953V143.767H742.097V161.744C742.097 168.216 744.667 169.798 747.88 169.798C752.306 169.798 754.162 166.059 754.162 163.614V143.767ZM793.289 152.684H785.008V165.915C785.008 167.784 786.507 169.295 788.363 169.295H793.289V178.139H784.223C778.941 178.139 775.371 173.825 775.371 168.504V152.684H767.091V147.147C767.091 147.147 775.371 144.27 775.371 133.268H785.008C785.008 141.178 780.154 144.055 780.154 144.055V145.061L782.153 143.767H793.289V152.684ZM819.199 143.767H828.765V178.139H820.841L819.199 172.89H818.128C818.128 172.89 814.845 178.715 810.062 178.715C800.568 178.715 797.569 172.53 797.569 160.953V143.767H807.135V161.744C807.135 168.216 809.705 169.798 812.917 169.798C817.343 169.798 819.199 166.059 819.199 163.614V143.767ZM853.472 143.767H857.399V152.684H853.472C846.976 152.684 844.335 156.351 844.335 158.868V178.139H834.769V143.767H842.693L844.335 149.016H845.406C845.406 149.016 848.69 143.767 853.472 143.767ZM894.072 159.659V162.319H869.015C869.444 165.843 871.585 169.798 876.582 169.798C881.508 169.798 883.863 168.36 884.434 165.34H894.072C893.715 172.602 887.575 178.715 876.725 178.715C864.661 178.715 859.45 170.733 859.45 160.953C859.45 151.174 864.804 143.264 876.725 143.264C886.433 143.264 892.215 149.16 893.715 157.07C893.857 157.933 894 158.796 894.072 159.659ZM869.658 157.07H883.721C882.721 154.697 880.58 152.18 876.725 152.18C872.585 152.18 870.586 154.697 869.658 157.07ZM907.83 154.122C907.83 157.861 931.458 157.286 931.458 167.425C931.458 174.688 923.463 178.715 914.326 178.715C905.188 178.715 897.122 172.746 897.122 165.699H906.688C906.688 169.295 910.114 169.798 914.326 169.798C918.823 169.798 921.821 169.295 921.821 167.425C921.821 163.182 898.193 165.555 898.193 154.122C898.193 147.003 905.902 143.264 914.254 143.264C922.606 143.264 930.031 148.729 930.031 156.207H920.465C919.894 153.187 918.466 152.18 914.254 152.18C909.757 152.18 907.83 152.54 907.83 154.122Z" fill="white"/>
<path d="M148.679 119.184C155.575 120.538 162.642 117.617 166.582 111.736C170.265 106.239 178.3 106.239 181.983 111.736C185.923 117.617 192.99 120.538 199.886 119.184C206.346 117.915 212.025 123.64 210.769 130.096C209.416 137.051 212.336 144.146 218.18 148.096C223.631 151.781 223.631 159.86 218.18 163.545C212.336 167.494 209.416 174.59 210.769 181.546C212.025 188.001 206.346 193.726 199.886 192.458C192.99 191.103 185.923 194.024 181.983 199.904C178.3 205.403 170.265 205.403 166.582 199.904C162.642 194.024 155.575 191.103 148.679 192.458C142.219 193.726 136.539 188.001 137.795 181.546C139.149 174.59 136.229 167.494 130.386 163.545C124.934 159.86 124.934 151.781 130.386 148.096C136.229 144.146 139.149 137.051 137.795 130.096C136.539 123.64 142.219 117.915 148.679 119.184Z" fill="#EE4266" stroke="#FB5F80" stroke-width="6"/>
<path d="M158.033 143.086C156.748 143.086 155.76 144.032 155.76 145.327V146.322H161.493V152.495H153.783L152.399 151.599V152.296C152.399 152.296 155.711 154.935 155.711 160.411V170.168H149.088V160.411C149.088 154.138 143.355 152.495 143.355 152.495V146.322H149.088V143.634C149.088 139.95 152.053 136.963 155.76 136.963H161.493V143.086H158.033ZM174.902 145.974C182.661 145.974 186.912 151.45 186.912 158.22C186.912 164.991 182.76 170.517 174.902 170.517C166.55 170.517 162.943 164.991 162.943 158.22C162.943 151.45 166.649 145.974 174.902 145.974ZM174.803 164.344C178.807 164.344 180.24 161.655 180.24 158.22C180.24 154.985 178.856 152.147 174.902 152.147C170.504 152.147 169.565 154.985 169.565 158.22C169.565 161.755 170.949 164.344 174.803 164.344ZM202.962 146.322H205.68V152.495H202.962C198.465 152.495 196.636 155.034 196.636 156.777V170.119H190.014V146.322H195.5L196.636 149.956H197.378C197.378 149.956 199.651 146.322 202.962 146.322Z" fill="white"/>
<path d="M946.224 77.19H924.929C914.011 77.19 905.08 68.1924 905.08 57.1955V50.1673C905.08 39.1704 914.011 30.1729 924.929 30.1729H946.224C957.141 30.1729 966.073 39.1703 966.073 50.1673V57.1955C966.073 68.1924 957.141 77.19 946.224 77.19Z" fill="#FDE159"/>
<path d="M941.65 38.4297C940.601 38.4297 939.614 38.9256 938.981 39.7691L938.046 41.0177C937.395 41.8881 936.487 42.3217 935.579 42.3217C934.669 42.3217 933.76 41.8879 933.11 41.0177L932.176 39.7701C931.543 38.9261 930.555 38.4298 929.506 38.4298H927.624C920.517 38.4298 914.703 44.2869 914.703 51.4454V55.9149C914.703 63.0743 920.518 68.9321 927.625 68.9321H943.533C950.64 68.9321 956.454 63.075 956.454 55.9163V51.4454C956.454 44.2862 950.639 38.4298 943.533 38.4298L941.65 38.4297Z" fill="#FEF0AC"/>
<path d="M966.122 50.1249V57.1941C966.122 59.206 965.82 61.1517 965.259 62.9861C962.41 61.4089 960.419 57.8332 960.419 53.6797C960.419 49.5238 962.41 45.9519 965.259 44.376C965.82 46.2103 966.122 48.1143 966.122 50.1249Z" fill="#C63755"/>
<path d="M904.998 50.1259V57.1951C904.998 59.2069 905.3 61.1527 905.86 62.987C908.711 61.4097 910.701 57.8342 910.701 53.6807C910.701 49.5248 908.711 45.9529 905.86 44.377C905.3 46.2112 904.998 48.1152 904.998 50.1259Z" fill="#C63755"/>
<path d="M923.639 50.3849C925.074 51.4273 926.51 52.4697 927.946 53.5121C927.896 53.1276 927.847 52.743 927.798 52.3583C926.596 53.2999 925.394 54.2413 924.193 55.1829C923.453 55.7629 924.492 56.7959 925.224 56.2218C926.426 55.2804 927.627 54.3388 928.829 53.3974C929.235 53.0796 929.017 52.4863 928.682 52.2434C927.246 51.201 925.811 50.1586 924.375 49.116C923.613 48.5622 922.884 49.8364 923.639 50.3849Z" fill="#09061D"/>
<path d="M946.782 49.1153C945.346 50.1577 943.911 51.2001 942.475 52.2425C942.142 52.4854 941.922 53.0787 942.329 53.3964C943.53 54.338 944.731 55.2795 945.934 56.2211C946.665 56.7948 947.706 55.7621 946.965 55.182C945.763 54.2405 944.561 53.299 943.36 52.3575C943.31 52.7421 943.261 53.1268 943.213 53.5114C944.647 52.469 946.083 51.4264 947.518 50.384C948.273 49.8361 947.545 48.5607 946.782 49.1153Z" fill="#09061D"/>
<defs>
<radialGradient id="paint0_radial_5926_1824" cx="0" cy="0" r="1" gradientUnits="userSpaceOnUse" gradientTransform="translate(1101.59 1.30115) rotate(138.44) scale(131.07 131.197)">
<stop stop-color="white"/>
<stop offset="0.52" stop-color="#86B4A3"/>
<stop offset="1" stop-color="#5D9A83"/>
</radialGradient>
<linearGradient id="paint1_linear_5926_1824" x1="502.938" y1="52.9904" x2="521.048" y2="53.1271" gradientUnits="userSpaceOnUse">
<stop stop-color="white" stop-opacity="0.29"/>
<stop offset="1" stop-color="white" stop-opacity="0"/>
</linearGradient>
<linearGradient id="paint2_linear_5926_1824" x1="526.485" y1="52.9904" x2="544.595" y2="53.1271" gradientUnits="userSpaceOnUse">
<stop stop-color="white" stop-opacity="0.29"/>
<stop offset="1" stop-color="white" stop-opacity="0"/>
</linearGradient>
<linearGradient id="paint3_linear_5926_1824" x1="550.028" y1="52.9904" x2="568.14" y2="53.1271" gradientUnits="userSpaceOnUse">
<stop stop-color="white" stop-opacity="0.29"/>
<stop offset="1" stop-color="white" stop-opacity="0"/>
</linearGradient>
<linearGradient id="paint4_linear_5926_1824" x1="291.033" y1="52.9896" x2="678.854" y2="62.7895" gradientUnits="userSpaceOnUse">
<stop stop-color="white" stop-opacity="0.5"/>
<stop offset="1" stop-color="white" stop-opacity="0"/>
</linearGradient>
<radialGradient id="paint5_radial_5926_1824" cx="0" cy="0" r="1" gradientUnits="userSpaceOnUse" gradientTransform="translate(367.415 268.465) rotate(-51.4517) scale(218.933 265.7)">
<stop stop-color="white"/>
<stop offset="0.441786" stop-color="#83B2A0"/>
<stop offset="1" stop-color="#5D9A83"/>
</radialGradient>
</defs>
</svg>
