<svg width="1280" height="299" viewBox="0 0 1280 299" fill="none" xmlns="http://www.w3.org/2000/svg">
<rect x="-116.663" y="180.414" width="1428.53" height="74.6485" transform="rotate(-5.36608 -116.663 180.414)" fill="#ED949C"/>
<rect x="-35.5059" y="47.2705" width="1344.46" height="74.6485" transform="rotate(-0.0162656 -35.5059 47.2705)" fill="#072C3F"/>
<path d="M475.598 95.6056L464.846 95.6087L464.837 66.5177L475.576 66.5147C478.54 66.5139 481.092 67.0955 483.233 68.2597C485.383 69.4144 487.04 71.0806 488.206 73.2583C489.371 75.4265 489.954 78.021 489.955 81.0419C489.956 84.0722 489.374 86.6765 488.21 88.8549C487.055 91.0332 485.403 92.7051 483.254 93.8705C481.105 95.0264 478.553 95.6048 475.598 95.6056ZM471.875 89.6123L475.327 89.6114C476.956 89.6109 478.333 89.3359 479.46 88.7863C480.596 88.2273 481.453 87.3227 482.03 86.0725C482.617 84.8129 482.91 83.1367 482.91 81.0439C482.909 78.9511 482.615 77.2845 482.028 76.0441C481.44 74.7943 480.573 73.8949 479.427 73.346C478.291 72.7876 476.889 72.5086 475.223 72.5091L471.87 72.5101L471.875 89.6123ZM494.064 95.6004L494.058 73.7822L501.004 73.7802L501.01 95.5984L494.064 95.6004ZM497.538 71.2386C496.562 71.2389 495.724 70.9171 495.023 70.2734C494.322 69.6202 493.972 68.8343 493.971 67.9157C493.971 67.0066 494.321 66.23 495.022 65.5859C495.722 64.9323 496.56 64.6053 497.536 64.6051C498.521 64.6048 499.359 64.9312 500.05 65.5845C500.751 66.2282 501.102 67.0046 501.102 67.9137C501.102 68.8323 500.752 69.6183 500.051 70.272C499.36 70.9161 498.522 71.2383 497.538 71.2386ZM505.434 103.779L505.425 73.7789L512.3 73.777L512.301 77.5128L512.514 77.5127C512.798 76.8498 513.201 76.2105 513.721 75.5948C514.251 74.9791 514.924 74.477 515.738 74.0885C516.562 73.6906 517.546 73.4914 518.692 73.4911C520.207 73.4907 521.623 73.888 522.94 74.6831C524.266 75.4781 525.336 76.7042 526.151 78.3611C526.966 80.0181 527.374 82.1297 527.374 84.696C527.375 87.1676 526.983 89.2368 526.197 90.9037C525.421 92.5706 524.37 93.8209 523.045 94.6546C521.729 95.4883 520.266 95.9054 518.656 95.9059C517.558 95.9062 516.606 95.7265 515.801 95.3669C514.996 95.0073 514.319 94.534 513.769 93.947C513.229 93.3601 512.812 92.7305 512.519 92.0582L512.377 92.0582L512.38 103.777L505.434 103.779ZM512.232 84.6861C512.233 85.8604 512.389 86.883 512.702 87.7542C513.024 88.6253 513.484 89.3022 514.08 89.785C514.687 90.2583 515.411 90.4949 516.254 90.4946C517.106 90.4944 517.831 90.2574 518.427 89.7838C519.023 89.3007 519.473 88.6234 519.776 87.7521C520.088 86.8808 520.244 85.8581 520.244 84.6838C520.243 83.5096 520.087 82.4916 519.774 81.63C519.471 80.7683 519.021 80.1008 518.424 79.6275C517.837 79.1542 517.112 78.9177 516.251 78.9179C515.398 78.9182 514.674 79.1504 514.078 79.6146C513.481 80.0787 513.022 80.7418 512.7 81.6036C512.388 82.4654 512.232 83.4929 512.232 84.6861ZM541.202 95.9989C538.911 95.9996 536.941 95.5314 535.293 94.5943C533.654 93.6478 532.39 92.3319 531.499 90.6465C530.618 88.9517 530.177 86.9869 530.176 84.752C530.176 82.5077 530.615 80.5426 531.496 78.8568C532.385 77.1614 533.649 75.8448 535.287 74.9068C536.935 73.9594 538.904 73.4854 541.196 73.4847C543.488 73.4841 545.453 73.957 547.091 74.9035C548.739 75.8405 550.004 77.1564 550.885 78.8513C551.776 80.5366 552.221 82.5015 552.222 84.7458C552.222 86.9806 551.778 88.9457 550.888 90.641C550.008 92.3269 548.744 93.6435 547.097 94.591C545.459 95.529 543.494 95.9983 541.202 95.9989ZM541.243 90.7574C542.077 90.7572 542.782 90.5013 543.36 89.9898C543.937 89.4782 544.377 88.7679 544.68 87.8587C544.992 86.9495 545.148 85.8984 545.148 84.7052C545.148 83.4931 544.991 82.4325 544.678 81.5235C544.375 80.6145 543.934 79.9044 543.357 79.3932C542.779 78.882 542.073 78.6265 541.24 78.6267C540.378 78.627 539.649 78.8829 539.053 79.3944C538.466 79.9059 538.016 80.6163 537.704 81.5255C537.401 82.4346 537.25 83.4953 537.25 84.7074C537.251 85.9006 537.402 86.9517 537.706 87.8607C538.018 88.7697 538.468 89.4798 539.056 89.991C539.652 90.5022 540.382 90.7577 541.243 90.7574ZM562.726 83.1377L562.729 95.5809L555.783 95.5828L555.777 73.7647L562.382 73.7628L562.383 77.7685L562.625 77.7684C563.107 76.433 563.931 75.3864 565.095 74.6285C566.26 73.8611 567.647 73.4772 569.257 73.4767C570.791 73.4763 572.122 73.8216 573.249 74.5125C574.385 75.194 575.266 76.1502 575.892 77.3811C576.526 78.6025 576.839 80.0324 576.83 81.6706L576.834 95.5769L569.888 95.5788L569.885 83.0362C569.894 81.8241 569.586 80.8772 568.961 80.1956C568.345 79.5139 567.488 79.1733 566.389 79.1736C565.66 79.1738 565.016 79.3349 564.458 79.6571C563.908 79.9697 563.482 80.4197 563.18 81.0069C562.886 81.5941 562.735 82.3043 562.726 83.1377ZM591.334 95.9847C589.051 95.9853 587.082 95.5361 585.424 94.6369C583.776 93.7283 582.507 92.436 581.616 90.7602C580.735 89.0748 580.294 87.0721 580.294 84.752C580.293 82.4982 580.737 80.5284 581.627 78.8425C582.517 77.1472 583.771 75.8306 585.39 74.8926C587.009 73.9452 588.917 73.4712 591.114 73.4705C592.667 73.4701 594.088 73.7112 595.376 74.1938C596.664 74.6763 597.777 75.391 598.714 76.3377C599.652 77.2844 600.382 78.4537 600.903 79.8456C601.424 81.228 601.685 82.8141 601.686 84.6039L601.686 86.3369L582.723 86.3422L582.722 82.3081L595.222 82.3046C595.212 81.566 595.037 80.9079 594.696 80.3303C594.355 79.7528 593.886 79.3031 593.289 78.9813C592.702 78.65 592.025 78.4845 591.258 78.4847C590.481 78.4849 589.785 78.6603 589.17 79.0109C588.554 79.3519 588.067 79.8208 587.707 80.4175C587.347 81.0047 587.158 81.6724 587.139 82.4205L587.141 86.5256C587.141 87.4158 587.316 88.197 587.667 88.8692C588.017 89.532 588.515 90.048 589.159 90.4171C589.803 90.7862 590.57 90.9707 591.46 90.9704C592.076 90.9703 592.634 90.8849 593.136 90.7143C593.638 90.5437 594.069 90.2926 594.429 89.9611C594.788 89.6295 595.058 89.2223 595.238 88.7392L601.616 88.9221C601.351 90.3521 600.769 91.5975 599.87 92.6584C598.98 93.7098 597.81 94.5292 596.362 95.1168C594.913 95.6948 593.237 95.9841 591.334 95.9847ZM615.409 104.202C613.335 104.203 611.56 103.915 610.082 103.337C608.605 102.76 607.444 101.97 606.601 100.966C605.758 99.9626 605.251 98.8264 605.081 97.5575L611.657 97.1863C611.78 97.6313 612.008 98.0195 612.339 98.3509C612.68 98.6822 613.121 98.9378 613.661 99.1175C614.21 99.2973 614.854 99.3871 615.592 99.3869C616.757 99.3866 617.718 99.1022 618.476 98.5338C619.243 97.9749 619.626 96.9946 619.625 95.5931L619.624 91.7579L619.383 91.758C619.108 92.4304 618.692 93.0318 618.133 93.5623C617.575 94.0928 616.879 94.5096 616.046 94.8129C615.222 95.1162 614.275 95.2679 613.205 95.2682C611.614 95.2687 610.156 94.8998 608.83 94.1615C607.513 93.4138 606.457 92.2588 605.661 90.6965C604.875 89.1248 604.481 87.1031 604.48 84.6315C604.48 82.0842 604.886 79.9865 605.7 78.3386C606.514 76.6811 607.579 75.4545 608.895 74.6587C610.221 73.8628 611.646 73.4647 613.17 73.4643C614.316 73.4639 615.296 73.6625 616.111 74.06C616.935 74.4481 617.612 74.9498 618.142 75.5651C618.673 76.1805 619.076 76.8196 619.35 77.4824L619.549 77.4823L619.548 73.7466L626.466 73.7446L626.472 95.648C626.473 97.4946 626.009 99.0525 625.081 100.322C624.154 101.591 622.857 102.552 621.19 103.206C619.524 103.87 617.597 104.202 615.409 104.202ZM615.618 90.2107C616.461 90.2105 617.181 89.9878 617.777 89.5425C618.374 89.0973 618.833 88.4579 619.154 87.6245C619.476 86.7911 619.637 85.792 619.637 84.6272C619.636 83.4435 619.475 82.4255 619.153 81.5734C618.84 80.7117 618.38 80.049 617.774 79.5851C617.178 79.1213 616.458 78.8895 615.615 78.8897C614.753 78.89 614.024 79.1269 613.428 79.6006C612.831 80.0742 612.377 80.742 612.065 81.6038C611.762 82.4561 611.611 83.4647 611.611 84.6295C611.611 85.7943 611.768 86.7933 612.081 87.6265C612.393 88.4598 612.843 89.0988 613.431 89.5437C614.027 89.9887 614.756 90.211 615.618 90.2107ZM641.085 95.9706C638.793 95.9712 636.824 95.503 635.176 94.566C633.537 93.6195 632.272 92.3035 631.382 90.6182C630.501 88.9234 630.06 86.9585 630.059 84.7237C630.058 82.4794 630.498 80.5143 631.378 78.8284C632.268 77.1331 633.532 75.8164 635.17 74.8785C636.817 73.931 638.787 73.457 641.079 73.4563C643.37 73.4557 645.335 73.9286 646.974 74.8751C648.622 75.8122 649.887 77.1281 650.768 78.8229C651.658 80.5083 652.104 82.4731 652.105 84.7174C652.105 86.9523 651.661 88.9174 650.771 90.6127C649.891 92.2985 648.627 93.6152 646.98 94.5626C645.342 95.5006 643.377 95.9699 641.085 95.9706ZM641.126 90.7291C641.96 90.7288 642.665 90.4729 643.242 89.9614C643.82 89.4499 644.26 88.7395 644.563 87.8304C644.875 86.9212 645.031 85.87 645.031 84.6768C645.03 83.4647 644.874 82.4041 644.561 81.4951C644.258 80.5861 643.817 79.876 643.239 79.3648C642.662 78.8536 641.956 78.5981 641.123 78.5984C640.261 78.5986 639.532 78.8545 638.935 79.366C638.348 79.8776 637.899 80.5879 637.587 81.4971C637.284 82.4063 637.133 83.4669 637.133 84.6791C637.133 85.8722 637.285 86.9233 637.588 87.8323C637.901 88.7413 638.351 89.4514 638.938 89.9626C639.535 90.4738 640.264 90.7293 641.126 90.7291ZM655.666 95.5545L655.66 73.7363L662.407 73.7344L662.408 77.7117L662.635 77.7116C663.033 76.2721 663.681 75.2018 664.58 74.5008C665.48 73.7903 666.526 73.4349 667.719 73.4346C668.041 73.4345 668.373 73.4581 668.714 73.5053C669.055 73.5431 669.372 73.6046 669.665 73.6897L669.667 79.7266C669.336 79.6131 668.9 79.5233 668.36 79.4571C667.83 79.391 667.356 79.358 666.94 79.3581C666.116 79.3583 665.373 79.5432 664.71 79.9127C664.056 80.2727 663.54 80.7795 663.162 81.433C662.793 82.0771 662.608 82.8347 662.609 83.7059L662.612 95.5525L655.666 95.5545ZM681.554 95.9591C679.262 95.9597 677.292 95.4915 675.644 94.5545C674.006 93.608 672.741 92.2921 671.851 90.6067C670.969 88.9119 670.529 86.947 670.528 84.7122C670.527 82.4679 670.967 80.5028 671.847 78.8169C672.737 77.1216 674.001 75.805 675.639 74.867C677.286 73.9196 679.256 73.4455 681.547 73.4449C683.839 73.4442 685.804 73.9171 687.443 74.8636C689.091 75.8007 690.355 77.1166 691.236 78.8114C692.127 80.4968 692.573 82.4616 692.573 84.7059C692.574 86.9408 692.129 88.9059 691.24 90.6012C690.36 92.2871 689.096 93.6037 687.448 94.5511C685.81 95.4891 683.845 95.9584 681.554 95.9591ZM681.595 90.7176C682.428 90.7173 683.134 90.4615 683.711 89.9499C684.289 89.4384 684.729 88.728 685.032 87.8189C685.344 86.9097 685.5 85.8585 685.499 84.6653C685.499 83.4532 685.343 82.3926 685.03 81.4836C684.727 80.5746 684.286 79.8645 683.708 79.3533C683.13 78.8421 682.425 78.5867 681.591 78.5869C680.73 78.5871 680.001 78.843 679.404 79.3546C678.817 79.8661 678.368 80.5764 678.055 81.4856C677.753 82.3948 677.601 83.4555 677.602 84.6676C677.602 85.8608 677.754 86.9118 678.057 87.8209C678.37 88.7299 678.82 89.44 679.407 89.9512C680.004 90.4623 680.733 90.7178 681.595 90.7176ZM704.728 95.5406L704.72 66.4496L711.751 66.4476L711.758 89.8283L723.86 89.8249L723.862 95.5351L704.728 95.5406ZM737.687 95.9431C735.395 95.9438 733.425 95.4756 731.777 94.5386C730.139 93.5921 728.874 92.2761 727.983 90.5908C727.102 88.8959 726.661 86.9311 726.661 84.6963C726.66 82.4519 727.1 80.4869 727.98 78.801C728.87 77.1057 730.134 75.789 731.772 74.8511C733.419 73.9036 735.389 73.4296 737.68 73.4289C739.972 73.4283 741.937 73.9012 743.576 74.8477C745.224 75.7847 746.488 77.1007 747.369 78.7955C748.26 80.4808 748.706 82.4457 748.706 84.69C748.707 86.9248 748.262 88.8899 747.373 90.5853C746.492 92.2711 745.229 93.5878 743.581 94.5352C741.943 95.4732 739.978 95.9425 737.687 95.9431ZM737.728 90.7016C738.561 90.7014 739.266 90.4455 739.844 89.934C740.422 89.4225 740.862 88.7121 741.164 87.8029C741.477 86.8938 741.633 85.8426 741.632 84.6494C741.632 83.4373 741.475 82.3767 741.163 81.4677C740.859 80.5587 740.419 79.8486 739.841 79.3374C739.263 78.8262 738.558 78.5707 737.724 78.571C736.863 78.5712 736.133 78.8271 735.537 79.3386C734.95 79.8502 734.5 80.5605 734.188 81.4697C733.885 82.3789 733.734 83.4395 733.735 84.6516C733.735 85.8448 733.887 86.8959 734.19 87.8049C734.503 88.7139 734.953 89.424 735.54 89.9352C736.137 90.4464 736.866 90.7019 737.728 90.7016ZM762.44 104.161C760.367 104.161 758.591 103.873 757.113 103.296C755.636 102.718 754.476 101.928 753.633 100.924C752.79 99.9208 752.283 98.7846 752.112 97.5157L758.688 97.1446C758.812 97.5896 759.039 97.9778 759.371 98.3091C759.712 98.6405 760.152 98.896 760.692 99.0758C761.241 99.2556 761.885 99.3454 762.624 99.3451C763.788 99.3448 764.75 99.0604 765.507 98.492C766.274 97.9331 766.657 96.9529 766.657 95.5514L766.656 91.7162L766.414 91.7162C766.14 92.3886 765.723 92.9901 765.165 93.5206C764.606 94.051 763.91 94.4679 763.077 94.7711C762.253 95.0744 761.306 95.2262 760.236 95.2265C758.645 95.227 757.187 94.858 755.861 94.1198C754.544 93.3721 753.488 92.2171 752.692 90.6548C751.906 89.083 751.512 87.0614 751.512 84.5898C751.511 82.0424 751.917 79.9448 752.731 78.2968C753.545 76.6394 754.61 75.4128 755.926 74.6169C757.252 73.8211 758.677 73.423 760.202 73.4225C761.347 73.4222 762.328 73.6208 763.142 74.0183C763.966 74.4063 764.643 74.908 765.174 75.5234C765.704 76.1388 766.107 76.7779 766.382 77.4407L766.581 77.4406L766.579 73.7048L773.497 73.7028L773.503 95.6063C773.504 97.4528 773.04 99.0107 772.113 100.28C771.185 101.549 769.888 102.511 768.221 103.165C766.555 103.828 764.628 104.16 762.44 104.161ZM762.649 90.169C763.492 90.1688 764.212 89.946 764.808 89.5008C765.405 89.0555 765.864 88.4162 766.186 87.5828C766.507 86.7493 766.668 85.7502 766.668 84.5855C766.667 83.4018 766.506 82.3838 766.184 81.5316C765.871 80.67 765.412 80.0072 764.806 79.5434C764.209 79.0795 763.489 78.8477 762.646 78.848C761.785 78.8482 761.055 79.0852 760.459 79.5588C759.862 80.0325 759.408 80.7002 759.096 81.562C758.793 82.4144 758.642 83.423 758.642 84.5877C758.643 85.7525 758.799 86.7515 759.112 87.5848C759.425 88.418 759.875 89.0571 760.462 89.502C761.058 89.9469 761.788 90.1692 762.649 90.169ZM777.932 95.5198L777.925 73.7016L784.871 73.6996L784.878 95.5178L777.932 95.5198ZM781.405 71.158C780.429 71.1583 779.591 70.8365 778.89 70.1928C778.189 69.5396 777.839 68.7537 777.838 67.8351C777.838 66.926 778.188 66.1494 778.889 65.5053C779.589 64.8517 780.427 64.5247 781.403 64.5245C782.388 64.5242 783.226 64.8507 783.917 65.5039C784.618 66.1476 784.969 66.924 784.969 67.8331C784.969 68.7517 784.619 69.5378 783.919 70.1914C783.228 70.8355 782.39 71.1577 781.405 71.158ZM799.483 95.9256C797.182 95.9262 795.208 95.4533 793.56 94.5068C791.921 93.5603 790.661 92.2444 789.78 90.559C788.899 88.8642 788.458 86.9041 788.458 84.6787C788.457 82.4439 788.897 80.4835 789.777 78.7977C790.667 77.1023 791.93 75.7809 793.568 74.8335C795.216 73.8861 797.181 73.412 799.463 73.4114C801.48 73.4108 803.237 73.7749 804.733 74.5036C806.239 75.2324 807.414 76.2642 808.257 77.5992C809.109 78.9247 809.56 80.4824 809.607 82.2721L803.116 82.274C802.983 81.1566 802.604 80.2808 801.979 79.6465C801.363 79.0122 800.558 78.6952 799.564 78.6954C798.759 78.6957 798.053 78.9231 797.448 79.3779C796.842 79.8231 796.368 80.4861 796.028 81.3669C795.696 82.2382 795.531 83.3178 795.531 84.6057C795.532 85.8936 795.698 86.9825 796.029 87.8726C796.371 88.7532 796.844 89.4207 797.451 89.875C798.057 90.3199 798.762 90.5423 799.567 90.542C800.211 90.5419 800.779 90.4044 801.272 90.1296C801.773 89.8549 802.185 89.4523 802.507 88.9219C802.829 88.382 803.032 87.7286 803.117 86.9615L809.609 86.9596C809.543 88.7589 809.094 90.331 808.261 91.6759C807.437 93.0209 806.277 94.0676 804.781 94.8161C803.295 95.5552 801.529 95.925 799.483 95.9256Z" fill="#FEFEFA"/>
<path d="M279.811 72.4123C279.766 72.1222 279.777 71.8257 279.842 71.5399C279.908 71.2541 280.027 70.9846 280.192 70.7467C280.358 70.5089 280.567 70.3073 280.808 70.1536C281.048 69.9999 281.316 69.8971 281.595 69.8511L281.927 69.7985C284.505 69.3739 287.148 70.0859 289.274 71.7779C291.399 73.4698 292.835 76.0032 293.264 78.8207L293.375 79.5028C293.587 80.8982 293.546 82.3215 293.254 83.6913C292.962 85.0611 292.424 86.3506 291.672 87.4861C290.919 88.6217 289.967 89.5811 288.869 90.3095C287.77 91.0379 286.548 91.5211 285.271 91.7314L284.938 91.784C284.377 91.8747 283.804 91.7303 283.345 91.3823C282.885 91.0343 282.577 90.511 282.488 89.9271L279.811 72.4123Z" fill="#F8BF16"/>
<path d="M264.406 83.5201C265.112 82.9042 265.007 82.5369 264.093 82.4182C259.253 81.8109 254.608 81.0566 250.157 80.1553C246.709 79.4636 241.323 77.6076 239.094 74.6068C238.884 74.3265 238.736 74.0009 238.661 73.6536C238.587 73.3063 238.588 72.9461 238.664 72.5993C238.74 72.2524 238.89 71.9276 239.102 71.6485C239.314 71.3694 239.583 71.1431 239.89 70.9859C242.209 69.7889 244.054 69.9982 246.545 69.9241C252.198 69.7545 257.704 70.1902 263.061 71.2312C263.485 71.308 263.872 71.2555 264.221 71.0735C264.33 71.0134 264.424 70.9262 264.492 70.8194C264.561 70.7127 264.603 70.5898 264.615 70.4618C264.627 70.3339 264.609 70.2048 264.561 70.0863C264.513 69.9677 264.438 69.8634 264.342 69.7826C258.922 65.1874 253.103 60.4735 246.883 55.6407C244.917 54.1196 242.213 50.972 243.15 48.5684C243.846 46.7736 245.883 47.1718 247.304 47.3813C259.839 49.2563 267.494 56.443 276.168 65.5079C278.629 68.0784 277.834 70.8807 278.228 74.05C278.76 78.3526 279.299 82.9281 279.845 87.7765C280.603 94.5034 277.348 100.245 274.627 106.007C272.148 111.283 268.543 115.688 263.811 119.223C261.805 120.735 258.962 122.436 256.491 121.628C253.439 120.622 252.272 118.138 252.99 114.178C253.306 112.436 254.502 110.207 256.578 107.492C259.259 104 262.038 100.606 264.914 97.3099C265.459 96.694 265.418 96.2673 264.793 96.0296C264.67 95.9891 264.533 96.0004 264.41 96.0612C261.839 97.4052 238.66 108.924 240.634 98.4187C241.812 92.1216 258.074 86.1035 263.458 84.087C263.808 83.954 264.124 83.765 264.406 83.5201Z" fill="#FBE4E1"/>
<path d="M992.865 72.2102C992.909 71.92 992.898 71.6236 992.833 71.3378C992.767 71.0521 992.648 70.7826 992.482 70.5448C992.316 70.3071 992.107 70.1056 991.866 69.9521C991.626 69.7985 991.358 69.6959 991.079 69.65L990.747 69.5976C988.169 69.1745 985.527 69.888 983.402 71.5811C981.277 73.2743 979.843 75.8085 979.415 78.6262L979.305 79.3084C979.093 80.7039 979.135 82.1272 979.428 83.4968C979.721 84.8664 980.259 86.1556 981.012 87.2908C981.765 88.4259 982.718 89.3848 983.817 90.1125C984.916 90.8403 986.138 91.3228 987.415 91.5324L987.748 91.5847C988.309 91.6752 988.882 91.5305 989.342 91.1822C989.801 90.8339 990.109 90.3105 990.198 89.7265L992.865 72.2102Z" fill="#F8BF16"/>
<path d="M1008.28 83.3092C1007.57 82.6937 1007.67 82.3264 1008.59 82.2072C1013.43 81.5971 1018.07 80.8402 1022.52 79.9364C1025.97 79.2427 1031.35 77.3837 1033.58 74.3816C1033.79 74.1012 1033.94 73.7754 1034.01 73.4281C1034.09 73.0808 1034.09 72.7206 1034.01 72.3738C1033.94 72.027 1033.79 71.7022 1033.57 71.4233C1033.36 71.1443 1033.09 70.9181 1032.78 70.7611C1030.47 69.5654 1028.62 69.7758 1026.13 69.7031C1020.48 69.5367 1014.97 69.9756 1009.61 71.0196C1009.19 71.0967 1008.8 71.0443 1008.45 70.8625C1008.34 70.8025 1008.25 70.7153 1008.18 70.6086C1008.11 70.5019 1008.07 70.379 1008.06 70.2511C1008.05 70.1231 1008.07 69.9941 1008.11 69.8755C1008.16 69.7569 1008.24 69.6525 1008.33 69.5717C1013.75 64.9735 1019.57 60.2562 1025.78 55.4199C1027.75 53.8976 1030.45 50.7485 1029.51 48.3455C1028.82 46.5511 1026.78 46.9505 1025.36 47.1608C1012.82 49.0429 1005.17 56.2339 996.503 65.3037C994.044 67.8756 994.841 70.6774 994.449 73.8469C993.919 78.1499 993.382 82.7257 992.839 87.5744C992.085 94.3017 995.343 100.041 998.068 105.802C1000.55 111.077 1004.16 115.48 1008.89 119.012C1010.9 120.522 1013.74 122.222 1016.21 121.413C1019.26 120.405 1020.43 117.921 1019.71 113.961C1019.39 112.219 1018.2 109.991 1016.12 107.277C1013.43 103.786 1010.65 100.394 1007.78 97.0993C1007.23 96.4838 1007.27 96.057 1007.9 95.8189C1008.02 95.7784 1008.16 95.7896 1008.28 95.8503C1010.85 97.1929 1034.04 108.699 1032.06 98.1944C1030.88 91.8979 1014.61 85.8891 1009.22 83.8756C1008.87 83.7428 1008.56 83.554 1008.28 83.3092Z" fill="#FBE4E1"/>
<rect x="163.159" y="47.2148" width="74.6486" height="74.6485" transform="rotate(-0.0162657 163.159 47.2148)" fill="#EA5E4F"/>
<path d="M172.873 67.1147C180.866 56.1351 202.336 44.4677 216.483 49.8727C220.355 51.3512 223.749 54.898 224.339 58.9864C226.223 71.8882 199.527 80.2003 190.543 82.7642C182.181 85.137 177.914 93.5859 173.519 100.587C173.334 100.88 173.088 101.13 172.798 101.32C172.508 101.51 172.181 101.634 171.839 101.686C171.497 101.737 171.148 101.714 170.817 101.618C170.485 101.522 170.179 101.355 169.919 101.129C167.8 99.2843 166.525 96.596 166.19 93.8438C164.976 83.8108 167.204 74.9011 172.873 67.1147Z" fill="#FBE4E1"/>
<path d="M188.303 102.11C199.277 99.4186 212.02 96.9172 218.867 86.8607C222.402 81.7051 225.3 75.3566 230.396 71.537C230.927 71.1338 231.516 71.0276 232.164 71.2183C237.868 72.8553 237.01 81.3669 236.007 85.7263C231.669 104.787 220.543 116.186 202.628 119.924C194.457 121.629 181.155 120.137 179.846 109.701C179.287 105.311 184.814 102.97 188.303 102.11Z" fill="#FBE4E1"/>
<rect width="74.6486" height="74.6485" transform="matrix(-1 0.000283889 0.000283784 1 1109.5 46.9463)" fill="#EA5E4F"/>
<path d="M1100.86 66.7075C1092.8 55.6438 1071.15 43.8943 1056.89 49.3511C1052.99 50.8437 1049.57 54.4211 1048.97 58.543C1047.08 71.5501 1074 79.9142 1083.06 82.4937C1091.49 84.8809 1095.79 93.3957 1100.23 100.451C1100.41 100.746 1100.66 100.998 1100.96 101.189C1101.25 101.38 1101.58 101.506 1101.92 101.558C1102.27 101.609 1102.62 101.586 1102.95 101.489C1103.29 101.392 1103.6 101.223 1103.86 100.995C1105.99 99.1343 1107.28 96.4236 1107.61 93.6489C1108.83 83.5341 1106.58 74.5537 1100.86 66.7075Z" fill="#FBE4E1"/>
<path d="M1085.33 101.995C1074.26 99.2877 1061.41 96.7734 1054.51 86.6395C1050.94 81.4443 1048.01 75.0461 1042.87 71.1985C1042.34 70.7923 1041.74 70.6856 1041.09 70.8783C1035.34 72.5318 1036.21 81.1117 1037.23 85.5057C1041.61 104.718 1052.83 116.203 1070.89 119.961C1079.13 121.675 1092.54 120.164 1093.86 109.642C1094.42 105.216 1088.84 102.86 1085.33 101.995Z" fill="#FBE4E1"/>
<rect width="92.817" height="74.6485" transform="matrix(-1 0.000283889 0.000283784 1 1201.53 46.9199)" fill="#FBE4E1"/>
<path d="M1152.05 61.2165L1147.26 65.3325C1145.46 66.8614 1145.74 67.6103 1148.08 67.5793C1151.59 67.5175 1156.14 65.3451 1159.26 63.993C1159.54 63.8726 1159.84 63.8105 1160.14 63.8104C1160.44 63.8104 1160.73 63.8723 1161.01 63.9925C1172.36 68.9085 1182.27 72.337 1193.73 66.8072C1195.23 66.078 1196.4 65.0655 1197.24 63.7696C1197.42 63.4763 1197.54 63.1414 1197.57 62.7935C1197.6 62.4456 1197.56 62.095 1197.43 61.7715C1197.3 61.448 1197.1 61.1612 1196.84 60.9356C1196.58 60.7099 1196.27 60.552 1195.93 60.4753C1184.3 57.7558 1172.27 56.904 1159.84 57.9197C1159.27 57.9668 1158.69 57.8648 1158.16 57.6233C1157.64 57.3817 1157.18 57.0086 1156.84 56.5389C1154.58 53.4423 1151.96 51.4996 1148.98 50.7109C1146.59 50.0739 1146.07 50.813 1147.42 52.9281C1148.86 55.1747 1150.45 57.2543 1152.18 59.1668C1152.31 59.3078 1152.41 59.474 1152.47 59.6553C1152.54 59.8366 1152.56 60.0291 1152.55 60.2211C1152.54 60.413 1152.49 60.6003 1152.4 60.7715C1152.31 60.9427 1152.19 61.0941 1152.05 61.2165Z" fill="#EA5E4F"/>
<path d="M1123.14 109.097C1119.99 110.94 1117.37 113.294 1115.28 116.16C1114.91 116.666 1114.9 117.217 1115.24 117.815C1115.34 117.996 1115.49 118.146 1115.67 118.252C1115.84 118.359 1116.04 118.417 1116.24 118.422C1122.41 118.612 1127 116.323 1129.99 111.555C1131.8 108.685 1135.44 107.758 1138.52 107.59C1149.95 106.995 1161.75 107.143 1172.43 102.691C1177.15 100.716 1181.97 93.9586 1174.8 90.9544C1172.61 90.0441 1169.7 89.6704 1166.08 89.8334C1153.07 90.4039 1141.44 94.2737 1131.2 101.443C1130.84 101.693 1130.41 101.818 1129.98 101.799C1129.55 101.779 1129.14 101.618 1128.81 101.337C1124.51 97.6744 1119.83 95.9702 1114.78 96.2247C1114.5 96.2401 1114.22 96.3232 1113.98 96.4673C1113.73 96.6114 1113.52 96.8124 1113.36 97.0538C1113.21 97.2952 1113.11 97.5702 1113.08 97.8564C1113.05 98.1425 1113.09 98.4315 1113.19 98.7C1114.9 103.366 1118.18 106.477 1123.02 108.035C1123.12 108.065 1123.22 108.128 1123.3 108.216C1123.37 108.303 1123.42 108.411 1123.43 108.525C1123.44 108.639 1123.42 108.755 1123.37 108.857C1123.32 108.959 1123.23 109.042 1123.14 109.097Z" fill="#EA5E4F"/>
<rect x="71.1094" y="47.2344" width="92.817" height="74.9239" transform="rotate(-0.016269 71.1094 47.2344)" fill="#FBE4E1"/>
<path d="M120.59 61.5488L125.385 65.6641C127.177 67.1927 126.904 67.9422 124.564 67.9125C121.055 67.8527 116.5 65.6818 113.378 64.3307C113.1 64.2104 112.802 64.1485 112.501 64.1486C112.201 64.1487 111.905 64.2108 111.631 64.3312C100.284 69.2562 90.3694 72.6921 78.9144 67.1659C77.4109 66.4372 76.2409 65.4248 75.4043 64.1288C75.2169 63.8354 75.1014 63.5004 75.0675 63.1524C75.0337 62.8043 75.0827 62.4535 75.2101 62.1298C75.3376 61.8061 75.5399 61.519 75.7997 61.2931C76.0596 61.0671 76.3693 60.909 76.7025 60.8321C88.3394 58.1046 100.37 57.2454 112.794 58.2546C113.37 58.3015 113.947 58.1991 114.472 57.9571C114.997 57.7151 115.453 57.3415 115.795 56.8714C118.054 53.7719 120.672 51.8267 123.648 51.036C126.037 50.3973 126.56 51.1364 125.217 53.2534C123.774 55.502 122.187 57.5836 120.455 59.4981C120.327 59.6392 120.228 59.8055 120.164 59.987C120.101 60.1684 120.075 60.361 120.088 60.553C120.101 60.7451 120.152 60.9324 120.238 61.1037C120.324 61.2749 120.444 61.4263 120.59 61.5488Z" fill="#EA5E4F"/>
<path d="M149.529 109.438C152.676 111.28 155.295 113.634 157.386 116.499C157.755 117.005 157.77 117.557 157.431 118.155C157.326 118.336 157.179 118.487 157.004 118.593C156.829 118.7 156.632 118.758 156.431 118.763C150.259 118.957 145.674 116.67 142.676 111.901C140.868 109.03 137.224 108.105 134.148 107.938C122.71 107.349 110.913 107.504 100.234 103.057C95.5151 101.083 90.6899 94.3246 97.8568 91.3149C100.047 90.4028 102.954 90.0273 106.577 90.1883C119.589 90.7517 131.218 94.6169 141.464 101.784C141.821 102.034 142.247 102.158 142.679 102.139C143.11 102.12 143.522 101.958 143.853 101.677C148.152 98.0098 152.826 96.302 157.873 96.5538C158.158 96.569 158.435 96.652 158.683 96.796C158.93 96.9401 159.14 97.141 159.296 97.3825C159.452 97.624 159.549 97.8991 159.58 98.1853C159.61 98.4715 159.573 98.7608 159.472 99.0294C157.761 103.698 154.486 106.813 149.649 108.374C149.54 108.405 149.442 108.468 149.369 108.556C149.295 108.643 149.249 108.751 149.237 108.865C149.224 108.979 149.245 109.095 149.297 109.197C149.349 109.299 149.43 109.383 149.529 109.438Z" fill="#EA5E4F"/>
<rect x="295.079" y="47.1768" width="54.1103" height="74.6485" transform="rotate(-0.0162657 295.079 47.1768)" fill="#FCF9E6"/>
<path d="M326.663 87.3426C323.973 89.9609 322.503 93.1644 322.255 96.9531C322.03 100.426 321.987 104.396 322.125 108.864C322.269 113.633 320.836 120.291 315.053 121.312C308.28 122.5 300.483 122.23 299.884 113.569C299.341 105.705 299.294 97.7706 299.743 89.7658C300.231 81.0523 299.81 72.9188 300.324 64.3986C300.768 57.0027 303.394 49.4305 310.915 47.4696C318.061 45.6055 321.075 52.8862 320.711 58.4112C320.463 62.118 318.737 72.0878 323.585 73.7641C327.453 75.1069 330.705 72.5499 331.773 68.9659C332.868 65.2677 330.558 57.8902 335.263 56.2551C338.604 55.1035 342.205 57.4653 343.311 60.5568C345.005 65.2994 343.483 72.3443 342.095 77.4918C340.973 81.6556 338.47 84.0074 334.584 84.5472C331.956 84.9168 328.605 85.4536 326.663 87.3426Z" fill="#3D866B"/>
<rect width="54.1103" height="74.6485" transform="matrix(-1 0.000283889 0.000283784 1 977.58 46.9834)" fill="#FCF9E6"/>
<path d="M946.019 87.1667C948.711 89.7834 950.182 92.9861 950.433 96.7747C950.659 100.247 950.705 104.217 950.57 108.685C950.428 113.455 951.865 120.112 957.649 121.129C964.421 122.313 972.219 122.039 972.813 113.378C973.352 105.514 973.394 97.5792 972.94 89.5745C972.448 80.8614 972.864 72.7276 972.345 64.2077C971.897 56.8121 969.266 49.2414 961.745 47.2848C954.597 45.4247 951.587 52.7071 951.954 58.2319C952.205 61.9385 953.936 71.9073 949.089 73.5864C945.222 74.9314 941.969 72.3763 940.899 68.7929C939.801 65.0953 942.107 57.7164 937.402 56.084C934.06 54.9343 930.46 57.2981 929.356 60.3903C927.664 65.1339 929.19 72.1779 930.582 77.3247C931.706 81.4877 934.21 83.8381 938.096 84.3757C940.725 84.7439 944.076 85.2788 946.019 87.1667Z" fill="#3D866B"/>
<rect width="81.1159" height="74.9415" transform="matrix(1 -0.000283889 -0.000794394 1 1201.52 46.626)" fill="#BDE6EA"/>
<path d="M1201.56 60.5413C1209.58 60.5389 1216.7 56.6082 1221.17 50.5332C1225.64 56.6056 1232.76 60.532 1240.78 60.5296C1248.8 60.5272 1255.92 56.5965 1260.39 50.5215C1264.86 56.5939 1271.98 60.5203 1280 60.5179L1280.01 85.5295C1271.99 85.5318 1264.87 81.6054 1260.4 75.5331C1255.93 81.6081 1248.81 85.5388 1240.79 85.5411C1232.77 85.5435 1225.65 81.6171 1221.18 75.5448C1216.71 81.6198 1209.59 85.5504 1201.57 85.5528L1201.56 60.5413Z" fill="#072C3F"/>
<path d="M1221.18 85.5494C1216.71 91.6244 1209.59 95.5551 1201.57 95.5575L1201.58 120.569C1208.72 120.567 1215.42 118.616 1221.19 115.209C1226.96 118.613 1233.66 120.559 1240.8 120.557C1247.94 120.555 1254.64 118.604 1260.41 115.198C1266.18 118.601 1272.88 120.548 1280.02 120.546L1280.01 95.5341C1271.99 95.5365 1264.87 91.6101 1260.4 85.5377C1255.93 91.6127 1248.81 95.5434 1240.79 95.5458C1232.77 95.5482 1225.65 91.6218 1221.18 85.5494Z" fill="#072C3F"/>
<rect width="79.58" height="74.7195" transform="matrix(-1 0.000283889 0.00136197 0.999999 71.1045 47.2402)" fill="#BDE6EA"/>
<path d="M71.0681 61.3241C63.1905 61.3262 56.1952 57.6118 51.7999 51.8675C47.4079 57.6142 40.4148 61.3323 32.5371 61.3345C24.6594 61.3366 17.6641 57.6222 13.2689 51.8779C8.87686 57.6246 1.88373 61.3427 -5.99394 61.3449L-5.98719 85.005C1.89049 85.0029 8.88361 81.2847 13.2756 75.538C17.6709 81.2823 24.6662 84.9967 32.5438 84.9946C40.4215 84.9925 47.4147 81.2743 51.8067 75.5277C56.2019 81.272 63.1972 84.9863 71.0749 84.9842L71.0681 61.3241Z" fill="#072C3F"/>
<path d="M51.8094 84.9917C56.2046 90.736 63.1999 94.4504 71.0776 94.4483L71.0843 118.108C64.0662 118.11 57.4857 116.269 51.8174 113.049C46.1509 116.272 39.5715 118.117 32.5533 118.119C25.5351 118.121 18.9546 116.279 13.2863 113.059C7.61984 116.282 1.04045 118.127 -5.97774 118.129L-5.98449 94.469C1.89319 94.4669 8.88631 90.7488 13.2783 85.0021C17.6736 90.7464 24.6689 94.4608 32.5465 94.4586C40.4242 94.4565 47.4174 90.7384 51.8094 84.9917Z" fill="#072C3F"/>
<rect x="-37.6113" y="174.732" width="1436.1" height="74.6485" transform="rotate(-0.0147477 -37.6113 174.732)" fill="#3D866B"/>
<path d="M545.736 208.316L538.634 208.318C538.539 207.589 538.345 206.931 538.051 206.344C537.757 205.757 537.369 205.255 536.886 204.839C536.403 204.422 535.83 204.105 535.167 203.887C534.513 203.66 533.789 203.547 532.994 203.547C531.583 203.547 530.366 203.893 529.343 204.585C528.33 205.276 527.549 206.276 527 207.583C526.461 208.89 526.191 210.471 526.192 212.327C526.192 214.259 526.467 215.878 527.017 217.185C527.576 218.482 528.357 219.462 529.361 220.125C530.375 220.778 531.573 221.104 532.955 221.104C533.732 221.104 534.437 221.004 535.072 220.805C535.716 220.606 536.279 220.317 536.762 219.938C537.254 219.55 537.657 219.081 537.969 218.532C538.291 217.973 538.513 217.343 538.636 216.642L545.738 216.683C545.616 217.971 545.242 219.24 544.617 220.49C544.002 221.74 543.155 222.881 542.075 223.914C540.996 224.937 539.68 225.752 538.127 226.358C536.584 226.965 534.813 227.268 532.815 227.269C530.182 227.269 527.824 226.692 525.741 225.537C523.667 224.373 522.028 222.679 520.825 220.454C519.621 218.228 519.019 215.52 519.019 212.329C519.018 209.128 519.628 206.415 520.849 204.189C522.07 201.964 523.722 200.273 525.805 199.117C527.888 197.961 530.222 197.383 532.807 197.382C534.569 197.382 536.198 197.628 537.694 198.12C539.19 198.602 540.507 199.312 541.643 200.249C542.78 201.177 543.703 202.318 544.414 203.672C545.125 205.026 545.565 206.574 545.736 208.316ZM559.949 227.276C557.658 227.276 555.688 226.808 554.04 225.871C552.401 224.925 551.137 223.609 550.246 221.923C549.365 220.228 548.924 218.264 548.924 216.029C548.923 213.784 549.363 211.819 550.243 210.133C551.133 208.438 552.397 207.122 554.035 206.184C555.682 205.236 557.652 204.762 559.943 204.762C562.235 204.761 564.2 205.234 565.839 206.181C567.487 207.118 568.751 208.434 569.632 210.128C570.523 211.814 570.968 213.779 570.969 216.023C570.97 218.258 570.525 220.223 569.635 221.918C568.755 223.604 567.491 224.921 565.844 225.868C564.206 226.806 562.241 227.275 559.949 227.276ZM559.99 222.034C560.824 222.034 561.529 221.778 562.107 221.267C562.684 220.755 563.124 220.045 563.427 219.136C563.74 218.227 563.896 217.175 563.895 215.982C563.895 214.77 563.738 213.71 563.426 212.801C563.122 211.892 562.682 211.181 562.104 210.67C561.526 210.159 560.821 209.903 559.987 209.904C559.126 209.904 558.397 210.16 557.8 210.671C557.213 211.183 556.763 211.893 556.451 212.802C556.148 213.711 555.997 214.772 555.997 215.984C555.998 217.177 556.15 218.229 556.453 219.138C556.766 220.047 557.216 220.757 557.803 221.268C558.4 221.779 559.129 222.035 559.99 222.034ZM574.53 226.86L574.524 205.042L581.13 205.04L581.131 209.046L581.372 209.046C581.826 207.72 582.593 206.673 583.672 205.906C584.752 205.139 586.04 204.755 587.536 204.755C589.051 204.754 590.348 205.142 591.428 205.918C592.508 206.695 593.195 207.736 593.489 209.043L593.716 209.043C594.123 207.745 594.918 206.708 596.101 205.931C597.285 205.145 598.682 204.752 600.291 204.751C602.356 204.751 604.032 205.413 605.32 206.739C606.609 208.055 607.253 209.863 607.254 212.164L607.257 226.852L600.311 226.854L600.308 213.757C600.308 212.668 600.028 211.839 599.469 211.271C598.91 210.694 598.186 210.405 597.296 210.405C596.339 210.406 595.587 210.718 595.037 211.344C594.498 211.959 594.228 212.788 594.228 213.83L594.232 226.855L587.556 226.857L587.552 213.689C587.552 212.676 587.277 211.876 586.728 211.289C586.178 210.702 585.454 210.408 584.554 210.409C583.948 210.409 583.413 210.556 582.949 210.849C582.485 211.134 582.121 211.541 581.856 212.071C581.6 212.602 581.473 213.227 581.473 213.946L581.476 226.858L574.53 226.86ZM611.563 235.032L611.556 205.032L618.431 205.031L618.432 208.766L618.645 208.766C618.929 208.103 619.331 207.464 619.852 206.848C620.382 206.233 621.054 205.731 621.868 205.342C622.692 204.944 623.677 204.745 624.823 204.745C626.338 204.745 627.754 205.142 629.07 205.937C630.396 206.732 631.467 207.958 632.281 209.615C633.096 211.272 633.504 213.384 633.505 215.95C633.505 218.422 633.113 220.491 632.327 222.158C631.551 223.825 630.5 225.075 629.175 225.909C627.859 226.742 626.396 227.159 624.786 227.16C623.687 227.16 622.736 226.98 621.931 226.621C621.126 226.261 620.448 225.788 619.899 225.201C619.359 224.614 618.942 223.984 618.649 223.312L618.506 223.312L618.509 235.031L611.563 235.032ZM618.363 215.94C618.363 217.114 618.519 218.137 618.832 219.008C619.154 219.879 619.614 220.556 620.21 221.039C620.817 221.512 621.541 221.749 622.384 221.748C623.236 221.748 623.961 221.511 624.557 221.038C625.153 220.555 625.603 219.877 625.906 219.006C626.218 218.135 626.374 217.112 626.374 215.938C626.374 214.763 626.217 213.746 625.904 212.884C625.601 212.022 625.151 211.355 624.554 210.881C623.967 210.408 623.243 210.171 622.381 210.172C621.529 210.172 620.804 210.404 620.208 210.868C619.611 211.332 619.152 211.995 618.83 212.857C618.518 213.719 618.362 214.747 618.363 215.94ZM647.346 227.253C645.064 227.254 643.094 226.805 641.437 225.905C639.789 224.997 638.52 223.704 637.629 222.029C636.748 220.343 636.307 218.34 636.306 216.02C636.306 213.767 636.75 211.797 637.64 210.111C638.53 208.416 639.784 207.099 641.403 206.161C643.022 205.214 644.93 204.74 647.127 204.739C648.68 204.739 650.101 204.98 651.389 205.463C652.677 205.945 653.79 206.66 654.728 207.607C655.665 208.553 656.395 209.723 656.916 211.115C657.437 212.497 657.698 214.083 657.698 215.873L657.699 217.606L638.736 217.611L638.735 213.577L651.235 213.573C651.225 212.835 651.05 212.177 650.709 211.599C650.368 211.022 649.899 210.572 649.302 210.25C648.715 209.919 648.038 209.753 647.271 209.753C646.494 209.754 645.798 209.929 645.183 210.279C644.567 210.621 644.08 211.089 643.72 211.686C643.36 212.273 643.171 212.941 643.152 213.689L643.153 217.794C643.154 218.684 643.329 219.466 643.68 220.138C644.03 220.801 644.527 221.317 645.172 221.686C645.816 222.055 646.583 222.239 647.473 222.239C648.088 222.239 648.647 222.154 649.149 221.983C649.651 221.812 650.082 221.561 650.441 221.23C650.801 220.898 651.071 220.491 651.251 220.008L657.629 220.191C657.364 221.621 656.782 222.866 655.882 223.927C654.992 224.979 653.823 225.798 652.374 226.386C650.926 226.964 649.25 227.253 647.346 227.253ZM673.559 205.016L673.56 210.13L659.796 210.134L659.794 205.02L673.559 205.016ZM662.677 199.792L669.623 199.79L669.628 219.975C669.628 220.401 669.694 220.747 669.827 221.012C669.969 221.267 670.173 221.452 670.438 221.566C670.703 221.67 671.02 221.722 671.39 221.722C671.655 221.722 671.934 221.698 672.228 221.65C672.531 221.593 672.758 221.546 672.909 221.508L673.962 226.522C673.63 226.617 673.162 226.735 672.556 226.878C671.959 227.02 671.244 227.11 670.411 227.148C668.782 227.224 667.385 227.035 666.22 226.581C665.065 226.117 664.179 225.398 663.564 224.422C662.957 223.447 662.663 222.221 662.682 220.744L662.677 199.792ZM677.108 226.834L677.103 205.016L684.049 205.014L684.054 226.832L677.108 226.834ZM680.582 202.472C679.607 202.472 678.769 202.151 678.068 201.507C677.367 200.854 677.016 200.068 677.016 199.149C677.016 198.24 677.366 197.463 678.066 196.819C678.767 196.166 679.605 195.839 680.58 195.839C681.565 195.838 682.403 196.165 683.095 196.818C683.796 197.462 684.146 198.238 684.147 199.147C684.147 200.066 683.797 200.852 683.096 201.506C682.405 202.15 681.567 202.472 680.582 202.472ZM700.785 205.009L700.786 210.123L687.022 210.127L687.021 205.013L700.785 205.009ZM689.903 199.785L696.849 199.783L696.854 219.968C696.854 220.394 696.921 220.74 697.053 221.005C697.196 221.26 697.399 221.445 697.664 221.559C697.93 221.663 698.247 221.715 698.616 221.715C698.881 221.715 699.161 221.691 699.454 221.643C699.757 221.586 699.984 221.539 700.136 221.501L701.188 226.515C700.857 226.61 700.388 226.728 699.782 226.871C699.186 227.013 698.471 227.103 697.637 227.141C696.009 227.217 694.612 227.028 693.447 226.574C692.292 226.11 691.406 225.391 690.79 224.415C690.184 223.44 689.89 222.214 689.908 220.737L689.903 199.785ZM704.335 226.827L704.329 205.009L711.275 205.007L711.281 226.825L704.335 226.827ZM707.809 202.465C706.833 202.465 705.995 202.144 705.294 201.5C704.593 200.847 704.243 200.061 704.242 199.142C704.242 198.233 704.592 197.456 705.293 196.812C705.994 196.159 706.832 195.832 707.807 195.832C708.792 195.831 709.63 196.158 710.321 196.811C711.022 197.455 711.373 198.231 711.373 199.14C711.373 200.059 711.023 200.845 710.323 201.499C709.631 202.143 708.793 202.465 707.809 202.465ZM725.887 227.233C723.595 227.234 721.625 226.765 719.977 225.828C718.339 224.882 717.074 223.566 716.184 221.881C715.303 220.186 714.862 218.221 714.861 215.986C714.861 213.742 715.3 211.777 716.181 210.091C717.07 208.395 718.334 207.079 719.972 206.141C721.62 205.194 723.589 204.72 725.881 204.719C728.173 204.718 730.138 205.191 731.776 206.138C733.424 207.075 734.689 208.391 735.57 210.086C736.46 211.771 736.906 213.736 736.907 215.98C736.907 218.215 736.463 220.18 735.573 221.876C734.693 223.561 733.429 224.878 731.781 225.825C730.143 226.763 728.178 227.233 725.887 227.233ZM725.928 221.992C726.761 221.991 727.467 221.736 728.044 221.224C728.622 220.713 729.062 220.002 729.365 219.093C729.677 218.184 729.833 217.133 729.833 215.94C729.832 214.727 729.676 213.667 729.363 212.758C729.06 211.849 728.619 211.139 728.042 210.627C727.464 210.116 726.758 209.861 725.925 209.861C725.063 209.861 724.334 210.117 723.738 210.629C723.151 211.14 722.701 211.85 722.389 212.76C722.086 213.669 721.935 214.729 721.935 215.942C721.935 217.135 722.087 218.186 722.39 219.095C722.703 220.004 723.153 220.714 723.74 221.225C724.337 221.736 725.066 221.992 725.928 221.992ZM747.41 214.372L747.414 226.816L740.468 226.817L740.462 204.999L747.067 204.998L747.068 209.003L747.31 209.003C747.792 207.668 748.616 206.621 749.78 205.863C750.945 205.096 752.332 204.712 753.942 204.712C755.476 204.711 756.807 205.057 757.934 205.748C759.07 206.429 759.951 207.385 760.577 208.616C761.211 209.838 761.524 211.268 761.515 212.906L761.519 226.812L754.573 226.814L754.569 214.271C754.579 213.059 754.271 212.112 753.645 211.431C753.03 210.749 752.173 210.408 751.074 210.408C750.345 210.409 749.701 210.57 749.142 210.892C748.593 211.205 748.167 211.654 747.864 212.242C747.571 212.829 747.42 213.539 747.41 214.372Z" fill="#FEFEFA"/>
<rect x="74.9502" y="174.703" width="74.6486" height="74.6485" transform="rotate(-0.0147477 74.9502 174.703)" fill="#3D866B"/>
<path d="M74.9694 249.352L93.6315 249.347L74.9502 174.703L74.9694 249.352Z" fill="#BED6CD"/>
<path d="M112.296 249.342L130.958 249.337L112.276 174.693L112.296 249.342Z" fill="#BED6CD"/>
<path d="M93.6305 249.347L112.293 249.342L93.6113 174.698L93.6305 249.347Z" fill="#BED6CD"/>
<path d="M130.956 249.337L149.618 249.332L130.937 174.688L130.956 249.337Z" fill="#BED6CD"/>
<rect width="74.6486" height="74.6485" transform="matrix(-1 0.000257396 0.000257174 1 1205.35 174.414)" fill="#3D866B"/>
<path d="M1205.37 249.063L1186.7 249.067L1205.35 174.414L1205.37 249.063Z" fill="#BED6CD"/>
<path d="M1168.04 249.071L1149.38 249.076L1168.02 174.423L1168.04 249.071Z" fill="#BED6CD"/>
<path d="M1186.7 249.066L1168.04 249.071L1186.68 174.418L1186.7 249.066Z" fill="#BED6CD"/>
<path d="M1149.38 249.076L1130.72 249.081L1149.36 174.428L1149.38 249.076Z" fill="#BED6CD"/>
<rect x="221.876" y="174.666" width="74.6486" height="74.6485" transform="rotate(-0.0147478 221.876 174.666)" fill="#072C3F"/>
<path d="M296.547 249.294L221.898 249.314C222.974 240.32 229.71 233.39 237.86 233.388C237.962 233.388 238.063 233.389 238.163 233.391C242.483 228.002 249.084 224.556 256.482 224.554C266.182 224.551 274.515 230.47 278.132 238.929C279.373 238.612 280.677 238.443 282.022 238.442C289.063 238.441 294.968 243.067 296.547 249.294Z" fill="#9CDADF"/>
<path d="M296.537 224.281L221.888 224.3C222.964 215.306 229.7 208.376 237.851 208.374C237.952 208.374 238.053 208.375 238.154 208.377C242.473 202.988 249.074 199.542 256.472 199.54C266.173 199.537 274.506 205.456 278.123 213.916C279.363 213.598 280.667 213.429 282.013 213.429C289.054 213.427 294.958 218.053 296.537 224.281Z" fill="#9CDADF"/>
<path d="M296.53 199.266L221.881 199.285C222.957 190.291 229.693 183.362 237.844 183.359C237.945 183.359 238.046 183.36 238.147 183.363C242.466 177.973 249.067 174.527 256.466 174.525C266.166 174.523 274.499 180.442 278.116 188.901C279.356 188.584 280.66 188.414 282.006 188.414C289.047 188.412 294.951 193.039 296.53 199.266Z" fill="#9CDADF"/>
<rect width="74.6486" height="74.6485" transform="matrix(-1 0.000257398 0.000257175 1 1058.42 174.45)" fill="#072C3F"/>
<path d="M983.789 249.118L1058.44 249.099C1057.36 240.105 1050.62 233.179 1042.47 233.181C1042.37 233.181 1042.27 233.182 1042.16 233.184C1037.84 227.797 1031.24 224.355 1023.84 224.357C1014.14 224.359 1005.81 230.282 1002.2 238.743C1000.96 238.427 999.654 238.258 998.308 238.259C991.267 238.26 985.365 242.89 983.789 249.118Z" fill="#9CDADF"/>
<path d="M983.782 224.103L1058.43 224.084C1057.35 215.091 1050.61 208.164 1042.46 208.167C1042.36 208.167 1042.26 208.168 1042.16 208.17C1037.83 202.783 1031.23 199.34 1023.83 199.342C1014.13 199.344 1005.8 205.268 1002.19 213.729C1000.95 213.412 999.646 213.244 998.3 213.244C991.259 213.246 985.357 217.875 983.782 224.103Z" fill="#9CDADF"/>
<path d="M983.777 199.089L1058.43 199.07C1057.34 190.076 1050.61 183.15 1042.45 183.152C1042.35 183.152 1042.25 183.153 1042.15 183.155C1037.83 177.768 1031.23 174.325 1023.83 174.327C1014.13 174.33 1005.8 180.253 1002.19 188.714C1000.95 188.398 999.641 188.229 998.295 188.229C991.254 188.231 985.352 192.861 983.777 199.089Z" fill="#9CDADF"/>
<path d="M183.872 223.568C183.822 223.633 183.786 223.708 183.768 223.788C183.749 223.868 183.748 223.951 183.764 224.032C183.78 224.112 183.814 224.188 183.862 224.255C183.91 224.322 183.972 224.378 184.043 224.419C185.525 225.276 187.545 224.932 189.086 224.41C191.485 223.595 194.038 222.464 196.746 221.016C199.754 219.405 202.558 218.034 205.16 216.904C206.79 216.197 210.351 215.127 210.367 218.253C210.39 223.369 206.533 226.048 202.106 227.469C199.604 228.272 196.997 228.852 194.286 229.21C190.726 229.68 187.178 230.079 183.64 230.408C182.806 230.484 181.952 230.605 181.078 230.771C179.8 231.008 178.022 231.245 177.127 232.252C176.05 233.458 178.316 234.578 179.144 234.789C183.237 235.831 187.674 235.907 191.755 236.38C193.453 236.575 195.651 236.897 197.01 237.843C198.738 239.045 197.145 241.113 195.834 241.772C193.399 242.997 189.774 242.799 187.119 242.366C182.789 241.67 179.377 241.175 176.884 240.882C172.608 240.385 169.659 241.867 168.036 245.327C167.475 246.522 167.231 247.954 166.841 249.245C166.833 249.272 166.816 249.296 166.791 249.311C166.766 249.326 166.736 249.331 166.707 249.326L164.171 248.835C164.099 248.82 164.068 248.777 164.078 248.705C164.246 247.556 164.256 246.448 164.107 245.38C163.404 240.301 160.751 235.101 158.087 230.692C155.91 227.084 154.052 223.919 152.511 221.197C151.831 219.995 149.71 215.982 151.496 215.005C155.075 213.036 157.787 219.631 158.642 221.984C159.546 224.467 160.447 226.986 161.344 229.54C161.663 230.453 162.089 231.267 162.622 231.982C163.031 232.527 163.444 232.525 163.862 231.978C164.928 230.59 164.615 228.752 164.165 227.239C163.556 225.195 162.617 222.942 161.349 220.481C159.838 217.547 158.377 214.707 156.965 211.963C155.698 209.503 152.677 203.263 154.775 201.195C157.804 198.209 160.639 205.451 161.308 207.26C162.537 210.574 163.728 213.802 164.88 216.944C165.247 217.942 166.21 220.213 167.324 220.613C167.388 220.636 167.456 220.644 167.524 220.634C167.591 220.624 167.655 220.598 167.71 220.557C168.895 219.684 168.757 218.26 168.742 216.95C168.734 216.262 168.682 215.595 168.585 214.949C168.25 212.754 167.864 210.738 167.425 208.901C166.186 203.72 165.374 199.81 164.99 197.171C164.744 195.492 164.457 192.999 165.326 191.437C166.005 190.22 167.535 190.061 168.371 191.229C168.75 191.755 169.024 192.295 169.192 192.85C169.708 194.534 170.043 196.362 170.2 198.335C170.448 201.477 170.705 204.662 170.971 207.89C171.09 209.333 171.401 210.63 171.904 211.781C171.953 211.893 172.028 211.991 172.124 212.066C172.219 212.141 172.332 212.191 172.452 212.212C172.573 212.233 172.696 212.224 172.812 212.185C172.927 212.147 173.031 212.08 173.115 211.992C173.674 211.395 174.028 210.607 174.176 209.628C174.485 207.623 174.638 205.608 174.635 203.583C174.624 198.424 174.774 193.911 175.085 190.044C175.381 186.337 176.434 179.349 181.202 178.667C184.67 178.171 182.444 185.818 182.021 187.22C180.923 190.86 179.777 194.608 178.585 198.463C178.077 200.113 176.745 204.729 177.781 206.102C179.802 208.768 184.026 199.412 184.556 198.261C186.645 193.723 188.631 189.471 190.517 185.505C191.679 183.059 196.288 173.799 199.772 174.738C201.084 175.09 201.601 176.012 201.321 177.504C201.047 178.952 200.495 180.458 199.666 182.021C196.318 188.344 192.083 194.135 187.984 200.121C186.366 202.485 184.632 205.075 183.734 207.713C183.673 207.898 183.686 208.1 183.773 208.274C183.859 208.449 184.011 208.582 184.195 208.645C185.053 208.937 186.783 207.849 187.466 207.379C189.897 205.701 192.391 203.772 194.948 201.592C199.207 197.963 202.866 194.937 205.922 192.515C207.459 191.297 215.059 185.225 216.961 187.444C219.157 190.003 213.881 194.577 212.091 196.035C206.047 200.956 199.356 205.171 192.777 209.379C190.022 211.138 187.588 212.871 185.474 214.578C185.068 214.906 184.708 215.322 184.394 215.825C184.364 215.872 184.345 215.925 184.337 215.98C184.33 216.035 184.335 216.09 184.351 216.144C184.367 216.197 184.394 216.246 184.431 216.288C184.468 216.33 184.514 216.364 184.565 216.387C186.021 217.046 188.687 215.828 190.101 215.132C198.493 210.99 205.963 205.251 214.302 200.954C215.379 200.399 220.199 198.16 219.899 201.13C219.639 203.66 217.772 205.958 215.667 207.612C212.932 209.761 209.684 211.703 205.924 213.437C201.369 215.537 196.688 217.516 191.881 219.375C189.351 220.352 187.045 221.418 184.964 222.572C184.574 222.791 184.143 223.209 183.872 223.568Z" fill="#FCF9E6"/>
<path d="M1096.45 223.334C1096.5 223.399 1096.54 223.474 1096.56 223.554C1096.57 223.634 1096.58 223.717 1096.56 223.798C1096.54 223.878 1096.51 223.954 1096.46 224.021C1096.41 224.088 1096.35 224.144 1096.28 224.185C1094.8 225.043 1092.78 224.7 1091.24 224.179C1088.84 223.365 1086.29 222.235 1083.58 220.788C1080.57 219.179 1077.76 217.81 1075.16 216.681C1073.53 215.975 1069.97 214.906 1069.95 218.032C1069.93 223.148 1073.79 225.826 1078.22 227.245C1080.72 228.046 1083.33 228.625 1086.04 228.982C1089.6 229.449 1093.15 229.847 1096.69 230.174C1097.52 230.25 1098.38 230.37 1099.25 230.536C1100.53 230.772 1102.31 231.008 1103.2 232.014C1104.28 233.22 1102.01 234.341 1101.19 234.552C1097.09 235.597 1092.66 235.675 1088.58 236.15C1086.88 236.346 1084.68 236.669 1083.32 237.616C1081.59 238.819 1083.19 240.886 1084.5 241.544C1086.94 242.768 1090.56 242.568 1093.21 242.134C1097.54 241.435 1100.96 240.939 1103.45 240.644C1107.72 240.145 1110.67 241.625 1112.3 245.085C1112.86 246.28 1113.11 247.711 1113.5 249.002C1113.5 249.029 1113.52 249.053 1113.55 249.068C1113.57 249.083 1113.6 249.088 1113.63 249.083L1116.17 248.591C1116.24 248.576 1116.27 248.533 1116.26 248.461C1116.09 247.312 1116.08 246.204 1116.23 245.136C1116.93 240.056 1119.58 234.855 1122.24 230.445C1124.42 226.836 1126.27 223.67 1127.81 220.947C1128.49 219.745 1130.61 215.731 1128.82 214.754C1125.24 212.787 1122.53 219.384 1121.68 221.737C1120.78 224.22 1119.88 226.74 1118.98 229.295C1118.66 230.207 1118.24 231.021 1117.71 231.737C1117.3 232.282 1116.88 232.281 1116.47 231.733C1115.4 230.346 1115.71 228.508 1116.16 226.995C1116.77 224.95 1117.71 222.697 1118.97 220.235C1120.48 217.3 1121.94 214.46 1123.35 211.715C1124.62 209.255 1127.64 203.013 1125.54 200.946C1122.51 197.962 1119.68 205.205 1119.01 207.014C1117.78 210.329 1116.59 213.558 1115.44 216.7C1115.07 217.699 1114.11 219.97 1113 220.37C1112.93 220.394 1112.87 220.401 1112.8 220.392C1112.73 220.382 1112.67 220.356 1112.61 220.315C1111.43 219.442 1111.56 218.018 1111.58 216.708C1111.59 216.02 1111.64 215.353 1111.73 214.707C1112.07 212.512 1112.45 210.496 1112.89 208.658C1114.13 203.477 1114.94 199.567 1115.32 196.928C1115.57 195.248 1115.85 192.755 1114.98 191.194C1114.3 189.977 1112.77 189.818 1111.94 190.988C1111.56 191.513 1111.28 192.053 1111.12 192.608C1110.6 194.293 1110.27 196.121 1110.11 198.094C1109.86 201.236 1109.61 204.421 1109.34 207.65C1109.23 209.092 1108.92 210.39 1108.41 211.541C1108.37 211.653 1108.29 211.75 1108.19 211.826C1108.1 211.901 1107.99 211.951 1107.87 211.972C1107.75 211.993 1107.62 211.984 1107.51 211.946C1107.39 211.907 1107.29 211.841 1107.2 211.753C1106.64 211.156 1106.29 210.368 1106.14 209.389C1105.83 207.384 1105.68 205.369 1105.68 203.345C1105.69 198.185 1105.53 193.672 1105.22 189.806C1104.92 186.099 1103.87 179.111 1099.1 178.432C1095.63 177.937 1097.86 185.583 1098.28 186.985C1099.38 190.625 1100.53 194.372 1101.73 198.226C1102.24 199.876 1103.57 204.492 1102.53 205.865C1100.51 208.532 1096.29 199.178 1095.75 198.028C1093.66 193.49 1091.67 189.239 1089.79 185.274C1088.62 182.829 1084.01 173.571 1080.53 174.512C1079.21 174.865 1078.7 175.787 1078.98 177.279C1079.25 178.727 1079.81 180.232 1080.64 181.796C1083.99 188.117 1088.23 193.905 1092.33 199.889C1093.95 202.253 1095.68 204.842 1096.58 207.479C1096.64 207.664 1096.63 207.866 1096.54 208.04C1096.46 208.215 1096.31 208.348 1096.12 208.411C1095.26 208.704 1093.53 207.617 1092.85 207.147C1090.42 205.471 1087.92 203.543 1085.37 201.363C1081.1 197.737 1077.44 194.713 1074.39 192.292C1072.85 191.075 1065.24 185.007 1063.34 187.227C1061.15 189.787 1066.43 194.358 1068.22 195.815C1074.27 200.734 1080.96 204.945 1087.54 209.15C1090.3 210.907 1092.73 212.639 1094.85 214.345C1095.25 214.673 1095.61 215.088 1095.93 215.592C1095.96 215.638 1095.98 215.691 1095.98 215.746C1095.99 215.801 1095.99 215.857 1095.97 215.91C1095.95 215.963 1095.93 216.013 1095.89 216.055C1095.85 216.097 1095.81 216.131 1095.76 216.154C1094.3 216.813 1091.63 215.596 1090.22 214.901C1081.82 210.764 1074.35 205.028 1066.01 200.736C1064.93 200.181 1060.11 197.944 1060.41 200.915C1060.67 203.445 1062.54 205.742 1064.65 207.395C1067.39 209.542 1070.63 211.482 1074.39 213.215C1078.95 215.312 1083.63 217.289 1088.44 219.145C1090.97 220.121 1093.28 221.185 1095.36 222.339C1095.75 222.557 1096.18 222.975 1096.45 223.334Z" fill="#FCF9E6"/>
<rect x="296.526" y="174.646" width="74.6486" height="74.6485" transform="rotate(-0.0147477 296.526 174.646)" fill="#FBE4E1"/>
<path d="M366.838 212.15L366.83 179.368L357.231 188.972C351.297 183.041 343.1 179.374 334.048 179.376C324.995 179.379 316.801 183.05 310.87 188.984L322.463 200.571C325.428 197.604 329.526 195.769 334.052 195.767C338.578 195.766 342.677 197.6 345.644 200.565L334.056 212.158L301.274 212.167L301.282 244.949L310.882 235.345C316.816 241.276 325.012 244.943 334.065 244.941C343.117 244.938 351.312 241.267 357.243 235.333L345.649 223.746C342.684 226.713 338.587 228.548 334.06 228.55C329.534 228.551 325.436 226.717 322.469 223.752L334.056 212.158L366.838 212.15Z" fill="#EA5E4F"/>
<rect width="74.6486" height="74.6485" transform="matrix(-1 0.000257397 0.000257173 1 983.768 174.47)" fill="#FBE4E1"/>
<path d="M913.473 212.01L913.465 179.228L923.069 188.827C929 182.893 937.195 179.222 946.247 179.219C955.3 179.217 963.496 182.884 969.43 188.815L957.843 200.408C954.876 197.443 950.778 195.609 946.251 195.61C941.725 195.612 937.628 197.447 934.662 200.414L946.256 212.002L979.038 211.993L979.046 244.775L969.442 235.176C963.511 241.11 955.317 244.781 946.264 244.784C937.211 244.786 929.015 241.119 923.081 235.188L934.668 223.595C937.635 226.56 941.733 228.394 946.26 228.393C950.786 228.391 954.883 226.556 957.849 223.589L946.256 212.002L913.473 212.01Z" fill="#EA5E4F"/>
<rect width="82.7125" height="74.5112" transform="matrix(1 -0.000257392 -0.000821 1 1205.43 174.55)" fill="#EA5E4F"/>
<path d="M1249.3 176.841L1235.91 176.843L1235.91 183.396C1235.91 187.015 1238.91 189.948 1242.61 189.947C1246.31 189.947 1249.3 187.012 1249.3 183.393L1249.3 176.841Z" fill="#FCF9E6"/>
<path d="M1242.62 233.632C1238.92 233.633 1235.92 236.567 1235.92 240.186L1235.92 246.739L1249.31 246.737L1249.31 240.184C1249.31 236.565 1246.31 233.632 1242.62 233.632Z" fill="#FCF9E6"/>
<path d="M1263.13 182.44L1272.6 191.706L1267.86 196.34C1265.25 198.899 1261.01 198.9 1258.39 196.342C1255.78 193.783 1255.78 189.634 1258.39 187.075L1263.13 182.44Z" fill="#FCF9E6"/>
<path d="M1226.83 227.238C1224.21 224.679 1219.97 224.68 1217.36 227.24L1212.62 231.874L1222.1 241.139L1226.83 236.505C1229.45 233.945 1229.45 229.796 1226.83 227.238Z" fill="#FCF9E6"/>
<path d="M1278.33 218.336L1271.63 218.337C1267.93 218.338 1264.93 215.405 1264.93 211.786C1264.93 208.167 1267.93 205.232 1271.63 205.232L1278.33 205.23L1278.33 218.336Z" fill="#FCF9E6"/>
<path d="M1220.29 211.794C1220.29 208.175 1217.29 205.242 1213.59 205.243L1206.89 205.244L1206.9 218.349L1213.59 218.348C1217.29 218.347 1220.29 215.413 1220.29 211.794Z" fill="#FCF9E6"/>
<path d="M1263.14 241.131L1258.4 236.499C1255.79 233.94 1255.78 229.791 1258.4 227.232C1261.01 224.672 1265.25 224.672 1267.87 227.23L1272.61 231.863L1263.14 241.131Z" fill="#FCF9E6"/>
<path d="M1226.82 196.348C1229.44 193.788 1229.44 189.639 1226.82 187.081L1222.09 182.448L1212.62 191.717L1217.35 196.35C1219.97 198.908 1224.21 198.907 1226.82 196.348Z" fill="#FCF9E6"/>
<path d="M1242.61 229.264C1252.48 229.262 1260.47 221.437 1260.47 211.786C1260.47 202.136 1252.47 194.314 1242.61 194.316C1232.75 194.318 1224.75 202.143 1224.75 211.793C1224.76 221.444 1232.75 229.266 1242.61 229.264Z" fill="#FCF9E6"/>
<rect width="83.4555" height="74.5112" transform="matrix(1 -0.000257393 -0.000821001 1 -8.55859 174.862)" fill="#EA5E4F"/>
<path d="M44.2587 177.151L30.8651 177.154L30.8664 183.706C30.8671 187.325 33.8659 190.259 37.5644 190.258C41.2629 190.257 44.2606 187.323 44.2599 183.704L44.2587 177.151Z" fill="#FCF9E6"/>
<path d="M37.5727 233.943C33.8742 233.944 30.8765 236.878 30.8772 240.497L30.8785 247.05L44.272 247.047L44.2708 240.494C44.2701 236.875 41.2713 233.942 37.5727 233.943Z" fill="#FCF9E6"/>
<path d="M58.0828 182.751L67.5552 192.016L62.8208 196.651C60.206 199.21 55.9658 199.211 53.3501 196.652C50.7343 194.094 50.7335 189.945 53.3483 187.385L58.0828 182.751Z" fill="#FCF9E6"/>
<path d="M21.7871 227.548C19.1713 224.99 14.9311 224.991 12.3164 227.55L7.58191 232.185L17.0544 241.45L21.7888 236.815C24.4036 234.256 24.4028 230.107 21.7871 227.548Z" fill="#FCF9E6"/>
<path d="M73.286 218.646L66.5892 218.648C62.8907 218.648 59.8919 215.715 59.8912 212.096C59.8905 208.477 62.8882 205.543 66.5867 205.542L73.2835 205.541L73.286 218.646Z" fill="#FCF9E6"/>
<path d="M15.2459 212.105C15.2453 208.486 12.2464 205.552 8.54791 205.553L1.85112 205.554L1.85362 218.66L8.55041 218.659C12.2489 218.658 15.2466 215.724 15.2459 212.105Z" fill="#FCF9E6"/>
<path d="M58.0941 241.442L53.3578 236.809C50.7421 234.251 50.7413 230.102 53.3561 227.542C55.9708 224.983 60.211 224.982 62.8267 227.541L67.563 232.173L58.0941 241.442Z" fill="#FCF9E6"/>
<path d="M21.7812 196.658C24.396 194.099 24.3952 189.95 21.7795 187.391L17.0432 182.759L7.57432 192.028L12.3105 196.66C14.9263 199.219 19.1665 199.218 21.7812 196.658Z" fill="#FCF9E6"/>
<path d="M37.5719 229.574C47.4347 229.573 55.4285 221.748 55.4267 212.097C55.4248 202.446 47.428 194.624 37.5652 194.626C27.7025 194.628 19.7086 202.453 19.7105 212.104C19.7123 221.754 27.7091 229.576 37.5719 229.574Z" fill="#FCF9E6"/>
</svg>
