<svg width="1280" height="299" viewBox="0 0 1280 299" fill="none" xmlns="http://www.w3.org/2000/svg">
<rect x="-116.666" y="180.289" width="1428.54" height="74.6485" transform="rotate(-5.36134 -116.666 180.289)" fill="#072C3F"/>
<rect x="-35.4971" y="47.1533" width="1344.46" height="74.6485" fill="#ED949C"/>
<path d="M472.283 95.5306L461.53 95.5328L461.524 66.4418L472.263 66.4397C475.227 66.4391 477.779 67.021 479.919 68.1853C482.069 69.3402 483.727 71.0065 484.892 73.1843C486.057 75.3526 486.64 77.9472 486.641 80.968C486.641 83.9983 486.059 86.6026 484.895 88.7809C483.74 90.9592 482.088 92.6309 479.939 93.7961C477.789 94.9518 475.237 95.53 472.283 95.5306ZM468.56 89.537L472.012 89.5363C473.64 89.536 475.018 89.2611 476.145 88.7116C477.281 88.1527 478.138 87.2482 478.715 85.998C479.302 84.7385 479.596 83.0623 479.595 80.9695C479.595 78.8767 479.301 77.2101 478.713 75.9696C478.126 74.7198 477.259 73.8203 476.113 73.2713C474.977 72.7128 473.575 72.4337 471.909 72.4341L468.556 72.4347L468.56 89.537ZM490.749 95.5269L490.744 73.7087L497.69 73.7073L497.695 95.5255L490.749 95.5269ZM494.224 71.1654C493.248 71.1656 492.41 70.8438 491.709 70.2C491.009 69.5467 490.658 68.7608 490.658 67.8422C490.658 66.9331 491.008 66.1566 491.708 65.5125C492.409 64.8589 493.247 64.5321 494.222 64.5319C495.207 64.5317 496.045 64.8582 496.737 65.5115C497.438 66.1553 497.788 66.9317 497.788 67.8408C497.789 68.7594 497.438 69.5454 496.738 70.199C496.047 70.843 495.209 71.1652 494.224 71.1654ZM502.117 103.706L502.111 73.7064L508.986 73.705L508.987 77.4408L509.2 77.4408C509.484 76.7778 509.887 76.1386 510.407 75.5229C510.937 74.9073 511.61 74.4053 512.424 74.0168C513.248 73.6189 514.233 73.4199 515.378 73.4197C516.894 73.4193 518.309 73.8168 519.626 74.612C520.952 75.4072 522.022 76.6333 522.837 78.2903C523.651 79.9473 524.059 82.059 524.06 84.6253C524.06 87.0969 523.668 89.1661 522.882 90.8329C522.106 92.4997 521.055 93.75 519.729 94.5836C518.413 95.4171 516.95 95.8341 515.34 95.8344C514.242 95.8347 513.29 95.6549 512.485 95.2952C511.68 94.9355 511.003 94.4622 510.454 93.8752C509.914 93.2882 509.497 92.6585 509.203 91.9862L509.061 91.9863L509.063 103.705L502.117 103.706ZM508.918 84.6141C508.918 85.7884 509.074 86.8111 509.387 87.6822C509.709 88.5534 510.169 89.2304 510.765 89.7132C511.371 90.1866 512.096 90.4232 512.939 90.423C513.791 90.4228 514.515 90.1859 515.112 89.7123C515.708 89.2292 516.158 88.5521 516.461 87.6808C516.773 86.8095 516.929 85.7868 516.929 84.6125C516.929 83.4383 516.772 82.4203 516.46 81.5586C516.156 80.697 515.706 80.0294 515.11 79.5561C514.523 79.0827 513.798 78.8461 512.936 78.8463C512.084 78.8464 511.36 79.0786 510.763 79.5427C510.167 80.0069 509.708 80.6698 509.386 81.5317C509.073 82.3935 508.917 83.421 508.918 84.6141ZM537.886 95.9293C535.595 95.9298 533.625 95.4614 531.977 94.5243C530.339 93.5776 529.074 92.2616 528.184 90.5762C527.303 88.8813 526.862 86.9164 526.861 84.6815C526.861 82.4372 527.301 80.4722 528.181 78.7864C529.071 77.0911 530.335 75.7746 531.973 74.8368C533.621 73.8895 535.59 73.4156 537.882 73.4151C540.174 73.4147 542.139 73.8878 543.777 74.8344C545.425 75.7716 546.69 77.0876 547.571 78.7825C548.461 80.4679 548.906 82.4328 548.907 84.6771C548.907 86.912 548.463 88.877 547.573 90.5723C546.693 92.2581 545.429 93.5746 543.781 94.5219C542.143 95.4597 540.178 95.9289 537.886 95.9293ZM537.928 90.6878C538.761 90.6877 539.467 90.4319 540.044 89.9204C540.622 89.4089 541.062 88.6986 541.365 87.7894C541.677 86.8803 541.833 85.8291 541.833 84.6359C541.833 83.4238 541.676 82.3632 541.364 81.4542C541.06 80.5452 540.62 79.835 540.042 79.3238C539.464 78.8125 538.759 78.557 537.926 78.5572C537.064 78.5573 536.335 78.8132 535.738 79.3246C535.151 79.8361 534.702 80.5464 534.389 81.4556C534.086 82.3648 533.935 83.4254 533.935 84.6375C533.936 85.8307 534.087 86.8818 534.391 87.7908C534.703 88.6999 535.153 89.41 535.74 89.9212C536.337 90.4325 537.066 90.688 537.928 90.6878ZM559.411 83.0699L559.413 95.5131L552.467 95.5145L552.463 73.6963L559.068 73.695L559.069 77.7006L559.31 77.7006C559.793 76.3653 560.617 75.3187 561.781 74.5609C562.946 73.7936 564.333 73.4098 565.943 73.4095C567.477 73.4092 568.808 73.7545 569.935 74.4456C571.071 75.1272 571.952 76.0835 572.577 77.3144C573.212 78.5359 573.525 79.9657 573.516 81.604L573.518 95.5102L566.572 95.5116L566.57 82.969C566.579 81.7569 566.271 80.81 565.646 80.1283C565.03 79.4466 564.173 79.1059 563.075 79.1061C562.346 79.1062 561.702 79.2673 561.143 79.5894C560.594 79.902 560.168 80.3519 559.865 80.9391C559.572 81.5263 559.42 82.2366 559.411 83.0699ZM588.018 95.9192C585.736 95.9197 583.766 95.4703 582.109 94.571C580.461 93.6622 579.191 92.3699 578.301 90.6939C577.42 89.0085 576.979 87.0057 576.979 84.6857C576.978 82.4319 577.423 80.4621 578.313 78.7763C579.203 77.0811 580.457 75.7645 582.076 74.8267C583.695 73.8794 585.603 73.4055 587.8 73.4051C589.353 73.4048 590.774 73.646 592.062 74.1287C593.35 74.6114 594.463 75.3261 595.4 76.2729C596.338 77.2197 597.067 78.389 597.588 79.781C598.11 81.1634 598.37 82.7495 598.371 84.5393L598.371 86.2723L579.408 86.2761L579.407 82.242L591.907 82.2395C591.898 81.5009 591.722 80.8427 591.381 80.2652C591.04 79.6876 590.571 79.2379 589.975 78.916C589.387 78.5847 588.71 78.4191 587.943 78.4193C587.167 78.4194 586.471 78.5947 585.855 78.9452C585.24 79.2863 584.752 79.7551 584.393 80.3518C584.033 80.939 583.844 81.6066 583.825 82.3547L583.826 86.4599C583.826 87.35 584.001 88.1312 584.352 88.8035C584.702 89.4663 585.199 89.9823 585.843 90.3515C586.487 90.7207 587.255 90.9052 588.145 90.905C588.76 90.9049 589.319 90.8196 589.821 90.649C590.323 90.4784 590.753 90.2274 591.113 89.8959C591.473 89.5644 591.743 89.1571 591.923 88.6741L598.301 88.8575C598.036 90.2875 597.454 91.5329 596.554 92.5937C595.664 93.645 594.495 94.4643 593.046 95.0518C591.597 95.6297 589.921 95.9189 588.018 95.9192ZM612.093 104.139C610.019 104.139 608.243 103.851 606.766 103.273C605.288 102.696 604.128 101.906 603.285 100.902C602.442 99.8984 601.935 98.7621 601.765 97.4932L608.341 97.1225C608.464 97.5676 608.692 97.9558 609.023 98.2872C609.364 98.6186 609.805 98.8741 610.344 99.054C610.894 99.2338 611.538 99.3236 612.276 99.3235C613.441 99.3232 614.402 99.0389 615.16 98.4706C615.927 97.9117 616.31 96.9315 616.31 95.53L616.309 91.6948L616.067 91.6949C615.793 92.3673 615.376 92.9687 614.818 93.4991C614.259 94.0295 613.563 94.4463 612.73 94.7495C611.906 95.0527 610.959 95.2044 609.889 95.2046C608.298 95.2049 606.84 94.8359 605.514 94.0975C604.198 93.3497 603.141 92.1946 602.346 90.6323C601.559 89.0605 601.166 87.0388 601.165 84.5672C601.165 82.0198 601.572 79.9222 602.386 78.2743C603.2 76.6169 604.265 75.3904 605.581 74.5947C606.907 73.799 608.332 73.401 609.856 73.4006C611.002 73.4004 611.982 73.5991 612.797 73.9966C613.621 74.3847 614.298 74.8865 614.828 75.5019C615.359 76.1173 615.761 76.7565 616.036 77.4193L616.235 77.4193L616.234 73.6835L623.152 73.6821L623.156 95.5855C623.157 97.4321 622.693 98.9899 621.765 100.259C620.837 101.528 619.54 102.49 617.874 103.143C616.207 103.807 614.28 104.138 612.093 104.139ZM612.303 90.1473C613.146 90.1471 613.865 89.9245 614.462 89.4793C615.058 89.0341 615.518 88.3948 615.839 87.5614C616.161 86.728 616.322 85.7289 616.322 84.5641C616.321 83.3804 616.16 82.3624 615.838 81.5102C615.525 80.6486 615.066 79.9858 614.46 79.5219C613.863 79.058 613.143 78.8261 612.301 78.8263C611.439 78.8265 610.71 79.0634 610.113 79.537C609.517 80.0106 609.062 80.6783 608.75 81.5401C608.447 82.3924 608.296 83.401 608.296 84.5657C608.296 85.7305 608.453 86.7295 608.765 87.5628C609.078 88.3961 609.528 89.0352 610.115 89.4801C610.712 89.9251 611.441 90.1475 612.303 90.1473ZM637.769 95.9092C635.478 95.9097 633.508 95.4413 631.86 94.5042C630.221 93.5575 628.957 92.2415 628.067 90.5561C627.185 88.8612 626.745 86.8963 626.744 84.6615C626.744 82.4171 627.184 80.4521 628.064 78.7663C628.954 77.071 630.218 75.7545 631.856 74.8167C633.503 73.8694 635.473 73.3955 637.765 73.395C640.056 73.3946 642.021 73.8677 643.66 74.8143C645.308 75.7515 646.572 77.0675 647.453 78.7624C648.344 80.4478 648.789 82.4127 648.79 84.657C648.79 86.8919 648.346 88.8569 647.456 90.5522C646.575 92.238 645.311 93.5545 643.664 94.5018C642.026 95.4396 640.061 95.9088 637.769 95.9092ZM637.811 90.6678C638.644 90.6676 639.35 90.4118 639.927 89.9003C640.505 89.3888 640.945 88.6785 641.248 87.7693C641.56 86.8602 641.716 85.809 641.716 84.6158C641.716 83.4037 641.559 82.3431 641.246 81.4341C640.943 80.5251 640.503 79.8149 639.925 79.3037C639.347 78.7924 638.642 78.5369 637.808 78.5371C636.947 78.5372 636.218 78.7931 635.621 79.3046C635.034 79.816 634.584 80.5264 634.272 81.4355C633.969 82.3447 633.818 83.4053 633.818 84.6174C633.818 85.8106 633.97 86.8617 634.273 87.7707C634.586 88.6798 635.036 89.3899 635.623 89.9011C636.22 90.4124 636.949 90.6679 637.811 90.6678ZM652.35 95.4944L652.346 73.6762L659.093 73.6748L659.094 77.6521L659.321 77.6521C659.718 76.2126 660.367 75.1424 661.266 74.4414C662.166 73.731 663.212 73.3757 664.405 73.3755C664.727 73.3754 665.059 73.399 665.4 73.4463C665.741 73.4841 666.058 73.5456 666.351 73.6308L666.353 79.6677C666.021 79.5541 665.586 79.4643 665.046 79.3981C664.515 79.3319 664.042 79.2988 663.625 79.2989C662.801 79.2991 662.058 79.4839 661.395 79.8534C660.742 80.2133 660.226 80.7201 659.847 81.3735C659.478 82.0176 659.294 82.7752 659.294 83.6464L659.296 95.493L652.35 95.4944ZM678.238 95.9011C675.946 95.9016 673.977 95.4332 672.329 94.496C670.69 93.5494 669.426 92.2334 668.535 90.5479C667.654 88.853 667.213 86.8882 667.213 84.6533C667.213 82.409 667.653 80.4439 668.533 78.7582C669.423 77.0629 670.687 75.7464 672.325 74.8085C673.972 73.8612 675.942 73.3874 678.234 73.3869C680.525 73.3864 682.49 73.8595 684.129 74.8062C685.777 75.7433 687.041 77.0594 687.922 78.7543C688.813 80.4397 689.258 82.4046 689.259 84.6489C689.259 86.8837 688.814 88.8488 687.924 90.544C687.044 92.2298 685.78 93.5464 684.133 94.4937C682.495 95.4315 680.53 95.9006 678.238 95.9011ZM678.28 90.6596C679.113 90.6594 679.818 90.4036 680.396 89.8921C680.973 89.3807 681.414 88.6703 681.717 87.7612C682.029 86.852 682.185 85.8009 682.185 84.6077C682.184 83.3956 682.028 82.335 681.715 81.426C681.412 80.5169 680.972 79.8068 680.394 79.2956C679.816 78.7843 679.11 78.5288 678.277 78.5289C677.415 78.5291 676.686 78.7849 676.09 79.2964C675.503 79.8079 675.053 80.5182 674.741 81.4274C674.438 82.3365 674.287 83.3972 674.287 84.6093C674.287 85.8025 674.439 86.8536 674.742 87.7626C675.055 88.6716 675.505 89.3818 676.092 89.893C676.689 90.4043 677.418 90.6598 678.28 90.6596ZM719.006 66.3901L726.023 66.3886L726.027 85.1529C726.028 87.3214 725.512 89.2107 724.48 90.8208C723.448 92.4214 722.009 93.6622 720.162 94.5432C718.316 95.4148 716.171 95.8509 713.728 95.8513C711.256 95.8518 709.097 95.4167 707.251 94.5458C705.404 93.6655 703.969 92.4253 702.946 90.8251C701.923 89.2155 701.411 87.3264 701.411 85.1578L701.407 66.3936L708.438 66.3922L708.442 84.5456C708.442 85.5494 708.66 86.4442 709.096 87.2301C709.541 88.016 710.161 88.6314 710.957 89.0763C711.752 89.5213 712.676 89.7436 713.727 89.7434C714.778 89.7432 715.697 89.5205 716.482 89.0752C717.278 88.63 717.898 88.0143 718.343 87.2283C718.788 86.4422 719.01 85.5473 719.01 84.5435L719.006 66.3901ZM737.462 66.3863L737.467 95.4773L730.436 95.4787L730.43 66.3878L737.462 66.3863ZM755.341 65.0191L745.973 99.8505L740.05 99.8517L749.418 65.0203L755.341 65.0191ZM775.53 66.3787L782.547 66.3773L782.551 85.1415C782.551 87.31 782.035 89.1994 781.003 90.8094C779.971 92.41 778.532 93.6508 776.686 94.5319C774.84 95.4035 772.695 95.8395 770.252 95.84C767.78 95.8405 765.621 95.4053 763.774 94.5345C761.927 93.6542 760.492 92.4139 759.469 90.8137C758.446 89.2041 757.934 87.315 757.934 85.1464L757.93 66.3822L764.962 66.3808L764.965 84.5342C764.965 85.538 765.183 86.4329 765.619 87.2188C766.064 88.0046 766.685 88.6201 767.48 89.065C768.276 89.5099 769.199 89.7322 770.25 89.732C771.301 89.7318 772.22 89.5091 773.006 89.0639C773.801 88.6186 774.421 88.003 774.866 87.2169C775.311 86.4308 775.534 85.5359 775.533 84.5321L775.53 66.3787ZM794.07 66.375L799.385 75.5642L799.612 75.5642L804.979 66.3728L812.849 66.3712L804.073 80.9184L813.139 95.462L805.07 95.4637L799.614 86.175L799.387 86.175L793.934 95.4659L785.923 95.4675L794.94 80.9202L786.144 66.3766L794.07 66.375Z" fill="#FEFEFA"/>
<path d="M279.817 72.3213C279.773 72.0312 279.783 71.7348 279.849 71.449C279.915 71.1632 280.034 70.8937 280.199 70.6558C280.365 70.4179 280.574 70.2164 280.815 70.0627C281.055 69.9091 281.323 69.8063 281.602 69.7603L281.934 69.7077C284.512 69.2833 287.155 69.9955 289.28 71.6877C291.406 73.3798 292.841 75.9133 293.27 78.7308L293.381 79.413C293.593 80.8084 293.552 82.2316 293.26 83.6014C292.968 84.9712 292.43 86.2606 291.677 87.3961C290.925 88.5317 289.972 89.491 288.874 90.2193C287.775 90.9476 286.553 91.4307 285.276 91.6409L284.944 91.6934C284.382 91.7841 283.809 91.6397 283.35 91.2916C282.89 90.9436 282.582 90.4203 282.493 89.8364L279.817 72.3213Z" fill="#F8BF16"/>
<path d="M264.412 83.4278C265.118 82.812 265.013 82.4447 264.099 82.3259C259.259 81.7182 254.614 80.9635 250.163 80.0619C246.715 79.3699 241.33 77.5135 239.101 74.5124C238.89 74.2321 238.742 73.9065 238.668 73.5592C238.593 73.2119 238.594 72.8517 238.671 72.5049C238.747 72.158 238.896 71.8332 239.109 71.5541C239.321 71.2751 239.59 71.0487 239.897 70.8916C242.216 69.6948 244.061 69.9043 246.551 69.8303C252.205 69.6613 257.71 70.0974 263.068 71.1388C263.492 71.2157 263.878 71.1632 264.228 70.9812C264.337 70.9212 264.43 70.8339 264.499 70.7272C264.568 70.6204 264.61 70.4976 264.622 70.3696C264.634 70.2416 264.616 70.1126 264.568 69.994C264.52 69.8755 264.445 69.7711 264.349 69.6903C258.93 65.0947 253.11 60.3803 246.891 55.547C244.925 54.0257 242.222 50.8779 243.159 48.4744C243.854 46.6797 245.891 47.0781 247.313 47.2877C259.847 49.1637 267.502 56.351 276.176 65.4166C278.636 67.9873 277.84 70.7895 278.234 73.9588C278.766 78.2615 279.305 82.8371 279.85 87.6855C280.608 94.4124 277.352 100.154 274.631 105.916C272.151 111.192 268.546 115.597 263.814 119.131C261.808 120.642 258.965 122.343 256.494 121.535C253.442 120.529 252.275 118.045 252.994 114.085C253.309 112.343 254.505 110.114 256.582 107.399C259.263 103.907 262.042 100.514 264.919 97.2177C265.463 96.6019 265.423 96.1751 264.798 95.9374C264.674 95.8969 264.537 95.9082 264.414 95.9689C261.843 97.3127 238.664 108.83 240.638 98.3245C241.817 92.0275 258.08 86.0108 263.464 83.9947C263.814 83.8617 264.13 83.6727 264.412 83.4278Z" fill="#FBE4E1"/>
<path d="M992.872 72.1781C992.916 71.888 992.905 71.5915 992.839 71.3058C992.774 71.02 992.655 70.7505 992.489 70.5127C992.323 70.2749 992.114 70.0735 991.873 69.9199C991.632 69.7664 991.365 69.6637 991.086 69.6178L990.753 69.5654C988.176 69.142 985.533 69.8553 983.408 71.5483C981.283 73.2413 979.849 75.7753 979.422 78.593L979.311 79.2752C979.099 80.6707 979.14 82.094 979.433 83.4636C979.726 84.8333 980.265 86.1225 981.018 87.2577C981.771 88.3929 982.724 89.3518 983.822 90.0797C984.921 90.8076 986.143 91.2902 987.42 91.4999L987.753 91.5523C988.315 91.6428 988.888 91.4981 989.347 91.1498C989.806 90.8016 990.114 90.2782 990.203 89.6942L992.872 72.1781Z" fill="#F8BF16"/>
<path d="M1008.28 83.2784C1007.58 82.6629 1007.68 82.2955 1008.59 82.1764C1013.43 81.5667 1018.08 80.8102 1022.53 79.9068C1025.98 79.2134 1031.36 77.3548 1033.59 74.3529C1033.8 74.0725 1033.95 73.7468 1034.02 73.3995C1034.1 73.0521 1034.09 72.6919 1034.02 72.3451C1033.94 71.9983 1033.79 71.6736 1033.58 71.3946C1033.37 71.1156 1033.1 70.8894 1032.79 70.7324C1030.47 69.5364 1028.63 69.7467 1026.14 69.6737C1020.48 69.507 1014.98 69.9453 1009.62 70.9889C1009.2 71.0659 1008.81 71.0135 1008.46 70.8317C1008.35 70.7718 1008.26 70.6845 1008.19 70.5778C1008.12 70.4711 1008.08 70.3482 1008.07 70.2203C1008.05 70.0923 1008.07 69.9633 1008.12 69.8447C1008.17 69.7261 1008.24 69.6217 1008.34 69.5409C1013.76 64.9431 1019.57 60.2264 1025.79 55.3906C1027.76 53.8685 1030.46 50.7195 1029.52 48.3165C1028.82 46.522 1026.79 46.9212 1025.37 47.1314C1012.83 49.0124 1005.18 56.2028 996.51 65.2719C994.051 67.8436 994.848 70.6455 994.455 73.815C993.925 78.1179 993.388 82.6937 992.845 87.5423C992.09 94.2696 995.348 100.009 998.071 105.77C1000.55 111.045 1004.16 115.449 1008.89 118.981C1010.9 120.492 1013.74 122.191 1016.21 121.383C1019.27 120.375 1020.43 117.891 1019.71 113.931C1019.4 112.189 1018.2 109.961 1016.12 107.247C1013.44 103.756 1010.66 100.363 1007.78 97.0685C1007.24 96.4529 1007.28 96.0261 1007.9 95.7881C1008.02 95.7476 1008.16 95.7588 1008.28 95.8195C1010.86 97.1623 1034.04 108.67 1032.06 98.1655C1030.88 91.869 1014.61 85.8588 1009.23 83.8449C1008.88 83.7121 1008.56 83.5232 1008.28 83.2784Z" fill="#FBE4E1"/>
<rect x="163.168" y="47.1143" width="74.6486" height="74.6485" fill="#3D866B"/>
<path d="M172.88 67.0157C180.874 56.0368 202.345 44.3711 216.492 49.7773C220.363 51.2561 223.757 54.8031 224.347 58.8917C226.229 71.7936 199.533 80.1035 190.549 82.6666C182.187 85.0388 177.919 93.4873 173.524 100.488C173.339 100.781 173.093 101.031 172.802 101.221C172.512 101.41 172.185 101.535 171.843 101.587C171.501 101.638 171.152 101.615 170.821 101.519C170.49 101.423 170.184 101.256 169.924 101.03C167.805 99.1848 166.53 96.4965 166.195 93.7442C164.982 83.7112 167.21 74.8016 172.88 67.0157Z" fill="#FBE4E1"/>
<path d="M188.307 102.013C199.282 99.3217 212.025 96.8214 218.873 86.7655C222.408 81.6102 225.306 75.2619 230.403 71.4427C230.934 71.0396 231.523 70.9334 232.171 71.1242C237.874 72.7617 237.016 81.2732 236.013 85.6325C231.673 104.692 220.546 116.091 202.631 119.828C194.46 121.532 181.158 120.039 179.85 109.603C179.291 105.212 184.818 102.872 188.307 102.013Z" fill="#FBE4E1"/>
<rect width="74.6486" height="74.6485" transform="matrix(-1 0.000201137 0.000201032 1 1109.51 46.9238)" fill="#3D866B"/>
<path d="M1100.87 66.6845C1092.8 55.6201 1071.15 43.8687 1056.9 49.3244C1052.99 50.8167 1049.57 54.3938 1048.98 58.5157C1047.09 71.5226 1074 79.8889 1083.06 82.4692C1091.49 84.8571 1095.8 93.3722 1100.23 100.428C1100.42 100.723 1100.67 100.975 1100.96 101.166C1101.25 101.357 1101.58 101.483 1101.93 101.535C1102.27 101.586 1102.62 101.563 1102.96 101.466C1103.29 101.369 1103.6 101.201 1103.86 100.972C1106 99.1117 1107.28 96.4011 1107.62 93.6265C1108.84 83.5118 1106.59 74.5311 1100.87 66.6845Z" fill="#FBE4E1"/>
<path d="M1085.33 101.971C1074.27 99.2624 1061.42 96.7471 1054.51 86.6126C1050.94 81.4171 1048.02 75.0186 1042.88 71.1706C1042.35 70.7644 1041.75 70.6577 1041.1 70.8503C1035.35 72.5033 1036.22 81.0833 1037.23 85.4774C1041.61 104.69 1052.84 116.176 1070.9 119.936C1079.14 121.65 1092.54 120.14 1093.86 109.619C1094.42 105.192 1088.85 102.836 1085.33 101.971Z" fill="#FBE4E1"/>
<rect width="92.817" height="74.6485" transform="matrix(-1 0.000201137 0.000201032 1 1201.54 46.9053)" fill="#FBE4E1"/>
<path d="M1152.06 61.1981L1147.26 65.3136C1145.47 66.8424 1145.75 67.5914 1148.08 67.5605C1151.59 67.4991 1156.15 65.327 1159.27 63.9751C1159.55 63.8548 1159.85 63.7928 1160.15 63.7927C1160.45 63.7926 1160.74 63.8546 1161.02 63.9748C1172.37 68.8917 1182.28 72.321 1193.73 66.7922C1195.24 66.0631 1196.41 65.0507 1197.24 63.7549C1197.43 63.4616 1197.55 63.1268 1197.58 62.7789C1197.61 62.431 1197.56 62.0804 1197.44 61.7569C1197.31 61.4334 1197.11 61.1466 1196.85 60.9208C1196.59 60.6951 1196.28 60.5372 1195.94 60.4605C1184.3 57.7401 1172.27 56.8872 1159.85 57.9019C1159.27 57.949 1158.7 57.8469 1158.17 57.6054C1157.65 57.3638 1157.19 56.9906 1156.85 56.5209C1154.59 53.4241 1151.97 51.4812 1148.99 50.6923C1146.6 50.0551 1146.08 50.7941 1147.42 52.9093C1148.87 55.156 1150.46 57.2358 1152.19 59.1484C1152.32 59.2894 1152.42 59.4556 1152.48 59.6369C1152.54 59.8182 1152.57 60.0107 1152.56 60.2027C1152.54 60.3946 1152.49 60.5819 1152.41 60.7531C1152.32 60.9243 1152.2 61.0757 1152.06 61.1981Z" fill="#EA5E4F"/>
<path d="M1123.14 109.077C1119.99 110.919 1117.38 113.273 1115.29 116.138C1114.92 116.644 1114.9 117.196 1115.24 117.793C1115.35 117.974 1115.49 118.125 1115.67 118.231C1115.84 118.337 1116.04 118.395 1116.24 118.4C1122.41 118.591 1127 116.303 1129.99 111.535C1131.8 108.665 1135.44 107.738 1138.52 107.57C1149.96 106.976 1161.76 107.125 1172.43 102.675C1177.15 100.7 1181.97 93.9426 1174.8 90.9379C1172.61 90.0274 1169.71 89.6534 1166.08 89.8161C1153.07 90.3856 1141.44 94.2544 1131.2 101.423C1130.84 101.673 1130.42 101.797 1129.99 101.778C1129.56 101.759 1129.14 101.597 1128.81 101.317C1124.51 97.6537 1119.84 95.9491 1114.79 96.2032C1114.5 96.2185 1114.23 96.3017 1113.98 96.4457C1113.73 96.5898 1113.52 96.7908 1113.37 97.0322C1113.21 97.2736 1113.11 97.5486 1113.08 97.8347C1113.05 98.1208 1113.09 98.4099 1113.19 98.6783C1114.91 103.344 1118.18 106.456 1123.02 108.014C1123.13 108.044 1123.23 108.108 1123.3 108.195C1123.37 108.282 1123.42 108.39 1123.43 108.504C1123.45 108.618 1123.42 108.734 1123.37 108.836C1123.32 108.938 1123.24 109.022 1123.14 109.077Z" fill="#EA5E4F"/>
<rect x="71.1182" y="47.126" width="92.817" height="74.9239" fill="#FBE4E1"/>
<path d="M120.598 61.4441L125.392 65.5598C127.185 67.0887 126.911 67.8381 124.571 67.8082C121.062 67.7481 116.507 65.5768 113.386 64.2255C113.108 64.1052 112.809 64.0432 112.509 64.0433C112.209 64.0433 111.913 64.1054 111.639 64.2258C100.291 69.1499 90.3764 72.5849 78.9218 67.0578C77.4184 66.329 76.2485 65.3165 75.412 64.0204C75.2246 63.727 75.1091 63.392 75.0753 63.044C75.0415 62.6959 75.0905 62.3451 75.218 62.0214C75.3455 61.6977 75.5478 61.4106 75.8076 61.1847C76.0675 60.9588 76.3772 60.8007 76.7105 60.7238C88.3476 57.9973 100.378 57.1391 112.803 58.1493C113.378 58.1962 113.956 58.0939 114.481 57.852C115.006 57.61 115.461 57.2365 115.804 56.7664C118.063 53.6671 120.681 51.7221 123.657 50.9316C126.046 50.2931 126.569 51.0323 125.226 53.1491C123.783 55.3976 122.195 57.4791 120.463 59.3934C120.335 59.5345 120.236 59.7009 120.173 59.8823C120.109 60.0637 120.083 60.2563 120.096 60.4484C120.108 60.6404 120.16 60.8278 120.246 60.999C120.332 61.1702 120.452 61.3217 120.598 61.4441Z" fill="#EA5E4F"/>
<path d="M149.533 109.336C152.68 111.178 155.298 113.532 157.389 116.398C157.758 116.904 157.773 117.456 157.435 118.053C157.329 118.235 157.182 118.385 157.007 118.492C156.832 118.598 156.635 118.656 156.434 118.661C150.262 118.855 145.677 116.567 142.68 111.798C140.872 108.927 137.228 108.001 134.152 107.835C122.714 107.245 110.917 107.399 100.239 102.95C95.5198 100.976 90.6951 94.2175 97.8623 91.2084C100.052 90.2965 102.959 89.9212 106.583 90.0825C119.594 90.647 131.223 94.5132 141.468 101.681C141.825 101.931 142.252 102.056 142.683 102.036C143.115 102.017 143.527 101.855 143.857 101.574C148.157 97.9074 152.831 96.2001 157.878 96.4522C158.163 96.4675 158.44 96.5505 158.687 96.6946C158.935 96.8386 159.145 97.0396 159.301 97.2811C159.457 97.5225 159.554 97.7976 159.584 98.0839C159.615 98.3701 159.578 98.6594 159.476 98.928C157.765 103.597 154.49 106.712 149.653 108.272C149.544 108.303 149.446 108.366 149.373 108.454C149.299 108.541 149.253 108.649 149.241 108.763C149.228 108.877 149.249 108.993 149.301 109.095C149.353 109.197 149.434 109.281 149.533 109.336Z" fill="#EA5E4F"/>
<rect x="295.088" y="47.0869" width="54.1103" height="74.6485" fill="#ED949C"/>
<path d="M326.669 87.255C323.978 89.8731 322.508 93.0765 322.26 96.8652C322.035 100.338 321.991 104.308 322.128 108.776C322.272 113.545 320.838 120.203 315.055 121.223C308.283 122.411 300.486 122.14 299.887 113.479C299.345 105.615 299.299 97.6808 299.748 89.6759C300.237 80.9625 299.816 72.829 300.331 64.3088C300.776 56.913 303.403 49.341 310.923 47.3807C318.07 45.5172 321.083 52.7982 320.719 58.3231C320.47 62.0298 318.744 71.9995 323.592 73.6762C327.459 75.0193 330.711 72.4627 331.78 68.8788C332.875 65.1806 330.566 57.8029 335.271 56.1682C338.612 55.0169 342.213 57.3789 343.318 60.4705C345.012 65.2133 343.49 72.2581 342.101 77.4055C340.979 81.5692 338.475 83.9207 334.59 84.4602C331.961 84.8297 328.611 85.3662 326.669 87.255Z" fill="#3D866B"/>
<rect width="54.1103" height="74.6485" transform="matrix(-1 0.000201137 0.000201032 1 977.589 46.9502)" fill="#ED949C"/>
<path d="M946.024 87.1312C948.716 89.7482 950.187 92.951 950.437 96.7396C950.664 100.212 950.709 104.182 950.573 108.65C950.432 113.42 951.868 120.077 957.651 121.095C964.424 122.279 972.221 122.006 972.817 113.345C973.356 105.48 973.399 97.546 972.945 89.5413C972.454 80.8281 972.871 72.6944 972.352 64.1744C971.905 56.7788 969.275 49.2078 961.753 47.2506C954.606 45.3899 951.596 52.6721 951.962 58.1969C952.212 61.9035 953.943 71.8725 949.096 73.5512C945.229 74.8958 941.976 72.3405 940.905 68.757C939.809 65.0593 942.115 57.6807 937.41 56.0479C934.068 54.8979 930.468 57.2614 929.364 60.3534C927.672 65.0969 929.197 72.141 930.588 77.2879C931.712 81.4511 934.216 83.8017 938.102 84.3396C940.73 84.708 944.081 85.2431 946.024 87.1312Z" fill="#3D866B"/>
<rect width="81.1159" height="74.9415" transform="matrix(1 -0.000201136 -0.000877146 1 1201.52 46.6113)" fill="#BDE6EA"/>
<path d="M1201.57 60.5325C1209.59 60.5307 1216.7 56.6011 1221.18 50.527C1225.65 56.5991 1232.77 60.5257 1240.79 60.524C1248.8 60.5223 1255.92 56.5926 1260.39 50.5186C1264.86 56.5907 1271.98 60.5173 1280 60.5156L1280.01 85.5246C1271.99 85.5264 1264.87 81.5998 1260.4 75.5277C1255.93 81.6017 1248.81 85.5314 1240.79 85.5331C1232.77 85.5348 1225.65 81.6082 1221.18 75.5361C1216.71 81.6101 1209.59 85.5398 1201.57 85.5415L1201.57 60.5325Z" fill="#072C3F"/>
<path d="M1221.18 85.5397C1216.71 91.6138 1209.59 95.5434 1201.58 95.5452L1201.58 120.554C1208.72 120.553 1215.42 118.603 1221.19 115.197C1226.96 118.6 1233.65 120.547 1240.8 120.546C1247.94 120.544 1254.64 118.594 1260.4 115.188C1266.17 118.592 1272.87 120.539 1280.01 120.537L1280.01 95.5283C1271.99 95.53 1264.87 91.6034 1260.4 85.5313C1255.93 91.6053 1248.81 95.535 1240.79 95.5367C1232.77 95.5384 1225.66 91.6118 1221.18 85.5397Z" fill="#072C3F"/>
<rect width="79.58" height="74.7195" transform="matrix(-1 0.000201137 0.00127922 0.999999 71.1133 47.1318)" fill="#BDE6EA"/>
<path d="M71.0761 61.2157C63.1985 61.2171 56.2035 57.5022 51.8087 51.7575C47.4162 57.5038 40.4228 61.2214 32.5451 61.2229C24.6674 61.2243 17.6725 57.5094 13.2776 51.7647C8.88517 57.511 1.89174 61.2286 -5.98594 61.2301L-5.98114 84.8902C1.89653 84.8887 8.88997 81.1712 13.2824 75.4248C17.6772 81.1695 24.6722 84.8845 32.5499 84.883C40.4276 84.8815 47.421 81.164 51.8135 75.4177C56.2083 81.1623 63.2033 84.8773 71.0809 84.8758L71.0761 61.2157Z" fill="#072C3F"/>
<path d="M51.8154 84.8817C56.2102 90.6264 63.2052 94.3413 71.0828 94.3399L71.0876 118C64.0695 118.001 57.4892 116.159 51.8211 112.939C46.1543 116.161 39.5748 118.006 32.5566 118.007C25.5384 118.009 18.9581 116.166 13.2901 112.946C7.6233 116.168 1.04376 118.013 -5.97443 118.014L-5.97923 94.3543C1.89845 94.3528 8.89188 90.6352 13.2844 84.8889C17.6792 90.6336 24.6741 94.3485 32.5518 94.3471C40.4295 94.3456 47.4229 90.628 51.8154 84.8817Z" fill="#072C3F"/>
<rect x="-37.6133" y="174.614" width="1436.1" height="74.6485" fill="#3D866B"/>
<path d="M545.732 208.247L538.629 208.248C538.535 207.519 538.34 206.861 538.047 206.273C537.753 205.686 537.365 205.185 536.882 204.768C536.399 204.351 535.826 204.034 535.163 203.817C534.509 203.589 533.785 203.476 532.989 203.476C531.578 203.476 530.362 203.822 529.339 204.514C528.326 205.205 527.545 206.204 526.996 207.511C526.456 208.818 526.187 210.4 526.187 212.256C526.187 214.187 526.462 215.807 527.012 217.113C527.571 218.411 528.352 219.391 529.356 220.053C530.369 220.707 531.567 221.033 532.95 221.033C533.726 221.033 534.432 220.933 535.066 220.734C535.71 220.535 536.274 220.246 536.756 219.867C537.249 219.479 537.651 219.01 537.964 218.461C538.285 217.902 538.508 217.272 538.631 216.572L545.733 216.613C545.61 217.901 545.236 219.17 544.612 220.42C543.996 221.67 543.149 222.811 542.07 223.844C540.99 224.867 539.674 225.681 538.121 226.288C536.578 226.894 534.807 227.197 532.809 227.198C530.176 227.198 527.818 226.621 525.735 225.466C523.661 224.302 522.022 222.607 520.819 220.382C519.616 218.156 519.014 215.448 519.014 212.257C519.013 209.056 519.623 206.343 520.845 204.117C522.066 201.892 523.718 200.201 525.801 199.045C527.884 197.89 530.218 197.312 532.804 197.311C534.565 197.311 536.194 197.557 537.69 198.049C539.186 198.532 540.503 199.242 541.639 200.179C542.776 201.107 543.699 202.248 544.41 203.602C545.12 204.956 545.561 206.504 545.732 208.247ZM559.943 227.207C557.651 227.208 555.682 226.739 554.034 225.802C552.395 224.855 551.131 223.539 550.24 221.854C549.359 220.159 548.919 218.194 548.918 215.959C548.918 213.715 549.358 211.75 550.238 210.064C551.128 208.369 552.392 207.052 554.03 206.114C555.678 205.167 557.647 204.693 559.939 204.693C562.231 204.693 564.196 205.166 565.834 206.112C567.482 207.05 568.747 208.366 569.628 210.061C570.518 211.746 570.963 213.711 570.964 215.955C570.964 218.19 570.519 220.155 569.63 221.85C568.749 223.536 567.485 224.853 565.838 225.8C564.2 226.738 562.235 227.207 559.943 227.207ZM559.985 221.966C560.818 221.966 561.524 221.71 562.101 221.198C562.679 220.687 563.119 219.976 563.422 219.067C563.734 218.158 563.89 217.107 563.89 215.914C563.89 214.702 563.733 213.641 563.421 212.732C563.117 211.823 562.677 211.113 562.099 210.602C561.522 210.09 560.816 209.835 559.983 209.835C559.121 209.835 558.392 210.091 557.795 210.602C557.208 211.114 556.759 211.824 556.446 212.733C556.143 213.642 555.992 214.703 555.992 215.915C555.992 217.108 556.144 218.16 556.447 219.069C556.76 219.978 557.21 220.688 557.797 221.199C558.394 221.71 559.123 221.966 559.985 221.966ZM574.524 226.793L574.52 204.974L581.125 204.973L581.126 208.979L581.367 208.979C581.822 207.653 582.589 206.607 583.668 205.839C584.747 205.072 586.035 204.688 587.531 204.688C589.047 204.688 590.344 205.076 591.424 205.852C592.503 206.629 593.19 207.67 593.484 208.977L593.711 208.977C594.118 207.679 594.913 206.642 596.097 205.866C597.281 205.079 598.677 204.686 600.287 204.686C602.352 204.686 604.028 205.348 605.316 206.674C606.604 207.99 607.248 209.798 607.249 212.099L607.251 226.787L600.305 226.788L600.303 213.692C600.303 212.603 600.023 211.774 599.464 211.206C598.906 210.628 598.181 210.34 597.291 210.34C596.335 210.34 595.582 210.653 595.033 211.278C594.493 211.893 594.223 212.722 594.223 213.764L594.226 226.789L587.55 226.79L587.547 213.623C587.547 212.61 587.272 211.809 586.723 211.222C586.174 210.635 585.449 210.342 584.549 210.342C583.943 210.342 583.408 210.489 582.944 210.783C582.48 211.067 582.116 211.474 581.851 212.004C581.595 212.535 581.468 213.16 581.468 213.88L581.47 226.791L574.524 226.793ZM611.557 234.968L611.551 204.968L618.426 204.967L618.427 208.703L618.64 208.703C618.924 208.04 619.326 207.4 619.847 206.785C620.377 206.169 621.05 205.667 621.864 205.279C622.688 204.881 623.673 204.682 624.818 204.682C626.334 204.681 627.749 205.079 629.066 205.874C630.392 206.669 631.462 207.895 632.277 209.552C633.091 211.21 633.499 213.321 633.499 215.887C633.5 218.359 633.107 220.428 632.321 222.095C631.545 223.762 630.494 225.012 629.169 225.846C627.853 226.679 626.39 227.096 624.78 227.096C623.681 227.097 622.729 226.917 621.924 226.557C621.119 226.197 620.442 225.724 619.893 225.137C619.353 224.55 618.936 223.92 618.643 223.248L618.501 223.248L618.503 234.967L611.557 234.968ZM618.357 215.876C618.357 217.05 618.514 218.073 618.827 218.944C619.149 219.815 619.608 220.492 620.205 220.975C620.811 221.448 621.535 221.685 622.378 221.685C623.23 221.685 623.955 221.448 624.551 220.974C625.148 220.491 625.598 219.814 625.9 218.943C626.213 218.072 626.369 217.049 626.369 215.875C626.368 214.7 626.212 213.682 625.899 212.821C625.596 211.959 625.146 211.291 624.55 210.818C623.962 210.345 623.238 210.108 622.376 210.108C621.524 210.108 620.799 210.34 620.203 210.805C619.606 211.269 619.147 211.932 618.825 212.793C618.513 213.655 618.357 214.683 618.357 215.876ZM647.34 227.192C645.058 227.192 643.088 226.743 641.431 225.843C639.783 224.935 638.514 223.642 637.623 221.966C636.742 220.281 636.302 218.278 636.301 215.958C636.301 213.704 636.746 211.734 637.635 210.049C638.525 208.353 639.78 207.037 641.399 206.099C643.018 205.152 644.926 204.678 647.123 204.678C648.676 204.677 650.097 204.919 651.385 205.401C652.673 205.884 653.785 206.599 654.723 207.546C655.661 208.493 656.39 209.662 656.911 211.054C657.432 212.436 657.693 214.022 657.693 215.812L657.694 217.545L638.73 217.549L638.73 213.514L651.23 213.512C651.22 212.774 651.045 212.115 650.704 211.538C650.363 210.96 649.894 210.511 649.297 210.189C648.71 209.857 648.033 209.692 647.266 209.692C646.489 209.692 645.793 209.867 645.178 210.218C644.563 210.559 644.075 211.028 643.715 211.624C643.355 212.212 643.166 212.879 643.147 213.627L643.148 217.732C643.148 218.623 643.324 219.404 643.674 220.076C644.025 220.739 644.522 221.255 645.166 221.624C645.81 221.993 646.577 222.178 647.467 222.178C648.083 222.178 648.641 222.092 649.143 221.922C649.645 221.751 650.076 221.5 650.436 221.169C650.795 220.837 651.065 220.43 651.245 219.947L657.623 220.13C657.358 221.56 656.776 222.806 655.876 223.867C654.986 224.918 653.817 225.737 652.368 226.325C650.92 226.902 649.243 227.192 647.34 227.192ZM673.554 204.957L673.555 210.071L659.791 210.073L659.79 204.96L673.554 204.957ZM662.673 199.732L669.619 199.731L669.622 219.915C669.622 220.341 669.689 220.687 669.821 220.952C669.963 221.208 670.167 221.392 670.432 221.506C670.697 221.61 671.015 221.662 671.384 221.662C671.649 221.662 671.928 221.638 672.222 221.591C672.525 221.534 672.752 221.487 672.904 221.449L673.956 226.463C673.624 226.558 673.156 226.676 672.55 226.818C671.953 226.96 671.238 227.05 670.405 227.088C668.776 227.164 667.379 226.975 666.214 226.521C665.059 226.057 664.173 225.338 663.558 224.362C662.951 223.387 662.658 222.161 662.676 220.684L662.673 199.732ZM677.102 226.775L677.098 204.957L684.044 204.955L684.048 226.774L677.102 226.775ZM680.578 202.413C679.603 202.414 678.764 202.092 678.064 201.448C677.363 200.795 677.012 200.009 677.012 199.09C677.012 198.181 677.362 197.404 678.063 196.76C678.763 196.107 679.601 195.78 680.577 195.78C681.562 195.78 682.4 196.106 683.091 196.759C683.792 197.403 684.143 198.18 684.143 199.089C684.143 200.007 683.793 200.793 683.092 201.447C682.401 202.091 681.563 202.413 680.578 202.413ZM700.781 204.952L700.782 210.066L687.017 210.068L687.017 204.955L700.781 204.952ZM689.899 199.727L696.845 199.726L696.849 219.911C696.849 220.337 696.915 220.682 697.048 220.947C697.19 221.203 697.394 221.388 697.659 221.501C697.924 221.605 698.241 221.657 698.61 221.657C698.876 221.657 699.155 221.634 699.448 221.586C699.752 221.529 699.979 221.482 700.13 221.444L701.182 226.458C700.851 226.553 700.382 226.671 699.776 226.813C699.18 226.956 698.465 227.046 697.631 227.084C696.002 227.16 694.606 226.971 693.441 226.516C692.285 226.052 691.4 225.333 690.784 224.358C690.178 223.382 689.884 222.156 689.903 220.679L689.899 199.727ZM704.329 226.77L704.325 204.952L711.271 204.951L711.275 226.769L704.329 226.77ZM707.805 202.409C706.829 202.409 705.991 202.087 705.29 201.443C704.589 200.79 704.239 200.004 704.239 199.085C704.238 198.176 704.589 197.4 705.289 196.756C705.99 196.102 706.828 195.775 707.803 195.775C708.788 195.775 709.626 196.101 710.318 196.755C711.019 197.399 711.369 198.175 711.369 199.084C711.369 200.003 711.019 200.789 710.319 201.442C709.627 202.086 708.789 202.408 707.805 202.409ZM725.881 227.178C723.589 227.179 721.619 226.71 719.971 225.773C718.333 224.826 717.068 223.51 716.178 221.825C715.297 220.13 714.856 218.165 714.856 215.93C714.855 213.686 715.295 211.721 716.176 210.035C717.066 208.34 718.33 207.023 719.968 206.085C721.615 205.138 723.585 204.664 725.877 204.664C728.168 204.664 730.133 205.137 731.772 206.083C733.42 207.021 734.684 208.337 735.565 210.032C736.456 211.717 736.901 213.682 736.901 215.926C736.902 218.161 736.457 220.126 735.567 221.821C734.687 223.507 733.423 224.824 731.775 225.771C730.137 226.709 728.172 227.178 725.881 227.178ZM725.922 221.937C726.756 221.937 727.461 221.681 728.039 221.169C728.616 220.658 729.056 219.947 729.359 219.038C729.672 218.129 729.828 217.078 729.827 215.885C729.827 214.673 729.671 213.612 729.358 212.703C729.055 211.794 728.615 211.084 728.037 210.573C727.459 210.061 726.753 209.806 725.92 209.806C725.058 209.806 724.329 210.062 723.733 210.573C723.146 211.085 722.696 211.795 722.384 212.704C722.081 213.613 721.93 214.674 721.93 215.886C721.93 217.079 722.082 218.131 722.385 219.04C722.697 219.949 723.147 220.659 723.735 221.17C724.331 221.681 725.061 221.937 725.922 221.937ZM747.405 214.319L747.407 226.762L740.461 226.764L740.458 204.946L747.063 204.944L747.063 208.95L747.305 208.95C747.788 207.615 748.611 206.568 749.776 205.81C750.941 205.043 752.328 204.659 753.938 204.659C755.472 204.659 756.802 205.004 757.929 205.695C759.066 206.377 759.947 207.333 760.572 208.564C761.207 209.786 761.519 211.216 761.51 212.854L761.513 226.76L754.567 226.761L754.564 214.219C754.574 213.006 754.266 212.06 753.641 211.378C753.025 210.696 752.168 210.355 751.069 210.356C750.34 210.356 749.696 210.517 749.138 210.839C748.588 211.151 748.162 211.601 747.859 212.189C747.566 212.776 747.415 213.486 747.405 214.319Z" fill="#FEFEFA"/>
<rect x="74.9482" y="174.595" width="74.6486" height="74.6485" fill="#3D866B"/>
<path d="M74.9613 249.243L93.6234 249.24L74.9482 174.595L74.9613 249.243Z" fill="#BED6CD"/>
<path d="M112.287 249.236L130.95 249.233L112.274 174.588L112.287 249.236Z" fill="#BED6CD"/>
<path d="M93.6224 249.24L112.285 249.237L93.6094 174.592L93.6224 249.24Z" fill="#BED6CD"/>
<path d="M130.948 249.233L149.61 249.23L130.935 174.585L130.948 249.233Z" fill="#BED6CD"/>
<rect width="74.6486" height="74.6485" transform="matrix(-1 0.000174643 0.000174421 1 1205.34 174.398)" fill="#3D866B"/>
<path d="M1205.36 249.047L1186.7 249.05L1205.34 174.398L1205.36 249.047Z" fill="#BED6CD"/>
<path d="M1168.03 249.053L1149.37 249.056L1168.02 174.404L1168.03 249.053Z" fill="#BED6CD"/>
<path d="M1186.69 249.049L1168.03 249.052L1186.68 174.4L1186.69 249.049Z" fill="#BED6CD"/>
<path d="M1149.37 249.056L1130.71 249.059L1149.36 174.407L1149.37 249.056Z" fill="#BED6CD"/>
<rect x="221.874" y="174.569" width="74.6486" height="74.6485" fill="#072C3F"/>
<path d="M296.539 249.204L221.89 249.217C222.967 240.223 229.703 233.294 237.854 233.292C237.955 233.292 238.056 233.293 238.157 233.296C242.477 227.907 249.078 224.461 256.476 224.46C266.177 224.458 274.509 230.378 278.125 238.837C279.366 238.52 280.67 238.351 282.015 238.351C289.056 238.349 294.96 242.976 296.539 249.204Z" fill="#9CDADF"/>
<path d="M296.53 224.19L221.881 224.203C222.958 215.209 229.694 208.28 237.845 208.279C237.946 208.279 238.047 208.28 238.148 208.282C242.468 202.893 249.069 199.447 256.467 199.446C266.168 199.444 274.5 205.364 278.117 213.824C279.357 213.507 280.661 213.337 282.006 213.337C289.048 213.336 294.952 217.963 296.53 224.19Z" fill="#9CDADF"/>
<path d="M296.526 199.176L221.877 199.189C222.954 190.195 229.69 183.266 237.841 183.264C237.942 183.264 238.043 183.265 238.144 183.267C242.464 177.878 249.065 174.433 256.464 174.431C266.164 174.43 274.496 180.349 278.113 188.809C279.353 188.492 280.657 188.323 282.003 188.322C289.044 188.321 294.948 192.948 296.526 199.176Z" fill="#9CDADF"/>
<rect width="74.6486" height="74.6485" transform="matrix(-1 0.000174646 0.000174422 1 1058.42 174.423)" fill="#072C3F"/>
<path d="M983.782 249.085L1058.43 249.071C1057.35 240.078 1050.61 233.151 1042.46 233.152C1042.36 233.153 1042.26 233.154 1042.16 233.156C1037.84 227.768 1031.23 224.325 1023.84 224.326C1014.13 224.328 1005.8 230.251 1002.19 238.711C1000.95 238.395 999.647 238.226 998.301 238.226C991.26 238.227 985.357 242.856 983.782 249.085Z" fill="#9CDADF"/>
<path d="M983.776 224.07L1058.42 224.057C1057.34 215.063 1050.61 208.136 1042.46 208.138C1042.35 208.138 1042.25 208.139 1042.15 208.141C1037.83 202.754 1031.23 199.31 1023.83 199.312C1014.13 199.313 1005.8 205.236 1002.19 213.697C1000.94 213.38 999.641 213.211 998.295 213.212C991.254 213.213 985.352 217.842 983.776 224.07Z" fill="#9CDADF"/>
<path d="M983.773 199.055L1058.42 199.042C1057.34 190.049 1050.6 183.122 1042.45 183.123C1042.35 183.123 1042.25 183.124 1042.15 183.126C1037.83 177.739 1031.22 174.296 1023.83 174.297C1014.13 174.299 1005.8 180.221 1002.18 188.682C1000.94 188.365 999.638 188.197 998.292 188.197C991.251 188.198 985.349 192.827 983.773 199.055Z" fill="#9CDADF"/>
<path d="M183.866 223.468C183.816 223.533 183.78 223.608 183.762 223.688C183.743 223.768 183.742 223.851 183.758 223.932C183.774 224.013 183.808 224.089 183.856 224.155C183.904 224.222 183.966 224.278 184.037 224.319C185.519 225.177 187.539 224.832 189.08 224.31C191.479 223.496 194.032 222.365 196.74 220.917C199.748 219.306 202.553 217.936 205.154 216.806C206.785 216.099 210.346 215.029 210.361 218.155C210.384 223.271 206.526 225.95 202.1 227.371C199.597 228.173 196.991 228.753 194.28 229.111C190.72 229.58 187.171 229.979 183.633 230.308C182.799 230.384 181.945 230.505 181.071 230.671C179.794 230.908 178.015 231.145 177.12 232.151C176.043 233.357 178.309 234.478 179.137 234.689C183.23 235.731 187.667 235.808 191.748 236.281C193.446 236.476 195.644 236.798 197.003 237.745C198.73 238.947 197.138 241.015 195.827 241.673C193.391 242.898 189.767 242.699 187.111 242.267C182.781 241.57 179.37 241.075 176.877 240.782C172.601 240.284 169.652 241.766 168.028 245.226C167.468 246.421 167.223 247.852 166.833 249.144C166.825 249.171 166.807 249.194 166.783 249.209C166.758 249.224 166.728 249.23 166.699 249.225L164.163 248.733C164.091 248.719 164.06 248.675 164.07 248.604C164.238 247.455 164.248 246.346 164.099 245.278C163.396 240.199 160.744 234.999 158.081 230.59C155.904 226.982 154.045 223.817 152.505 221.095C151.825 219.893 149.704 215.879 151.49 214.903C155.07 212.934 157.782 219.529 158.636 221.882C159.54 224.365 160.441 226.884 161.337 229.439C161.657 230.351 162.083 231.165 162.615 231.88C163.024 232.425 163.437 232.424 163.856 231.876C164.921 230.489 164.609 228.65 164.159 227.137C163.55 225.093 162.611 222.84 161.343 220.379C159.832 217.445 158.371 214.605 156.96 211.861C155.693 209.401 152.673 203.161 154.771 201.093C157.8 198.107 160.635 205.35 161.304 207.158C162.532 210.473 163.722 213.701 164.874 216.842C165.242 217.841 166.204 220.112 167.318 220.511C167.382 220.535 167.451 220.543 167.518 220.533C167.585 220.523 167.65 220.497 167.704 220.456C168.889 219.583 168.751 218.159 168.736 216.849C168.729 216.161 168.676 215.494 168.58 214.848C168.245 212.653 167.859 210.637 167.42 208.8C166.181 203.619 165.37 199.709 164.986 197.07C164.74 195.391 164.454 192.897 165.323 191.336C166.002 190.119 167.532 189.96 168.368 191.128C168.747 191.654 169.02 192.194 169.189 192.749C169.704 194.433 170.04 196.261 170.196 198.234C170.444 201.376 170.701 204.561 170.966 207.789C171.085 209.232 171.396 210.529 171.899 211.681C171.948 211.792 172.023 211.89 172.119 211.965C172.214 212.04 172.327 212.09 172.447 212.111C172.567 212.132 172.691 212.123 172.806 212.085C172.922 212.046 173.026 211.98 173.11 211.891C173.669 211.294 174.023 210.506 174.171 209.527C174.481 207.522 174.634 205.507 174.631 203.483C174.62 198.324 174.77 193.81 175.082 189.943C175.378 186.237 176.431 179.249 181.199 178.567C184.668 178.071 182.441 185.718 182.018 187.12C180.919 190.76 179.774 194.507 178.581 198.362C178.073 200.012 176.74 204.629 177.777 206.001C179.797 208.668 184.022 199.312 184.552 198.161C186.641 193.623 188.628 189.371 190.514 185.406C191.676 182.96 196.287 173.7 199.77 174.639C201.082 174.992 201.598 175.914 201.319 177.406C201.044 178.854 200.493 180.359 199.664 181.923C196.315 188.246 192.079 194.036 187.98 200.022C186.362 202.386 184.628 204.975 183.73 207.613C183.668 207.798 183.682 208 183.768 208.175C183.854 208.349 184.006 208.482 184.19 208.545C185.048 208.837 186.778 207.749 187.462 207.28C189.892 205.602 192.386 203.673 194.943 201.493C199.203 197.864 202.862 194.839 205.919 192.417C207.456 191.199 215.057 185.128 216.958 187.347C219.153 189.906 213.877 194.479 212.088 195.937C206.043 200.858 199.352 205.073 192.772 209.28C190.017 211.039 187.583 212.772 185.469 214.479C185.063 214.807 184.703 215.222 184.388 215.725C184.359 215.772 184.339 215.825 184.332 215.88C184.325 215.935 184.329 215.991 184.345 216.044C184.362 216.097 184.389 216.147 184.426 216.189C184.463 216.231 184.508 216.264 184.559 216.288C186.015 216.946 188.681 215.728 190.096 215.033C198.488 210.892 205.958 205.153 214.298 200.857C215.375 200.302 220.195 198.063 219.894 201.033C219.635 203.564 217.767 205.861 215.662 207.515C212.927 209.664 209.679 211.605 205.919 213.339C201.364 215.439 196.683 217.418 191.875 219.275C189.345 220.252 187.04 221.318 184.958 222.473C184.568 222.691 184.137 223.109 183.866 223.468Z" fill="#FCF9E6"/>
<path d="M1096.45 223.31C1096.5 223.375 1096.53 223.45 1096.55 223.53C1096.57 223.61 1096.57 223.693 1096.55 223.774C1096.54 223.854 1096.5 223.93 1096.46 223.997C1096.41 224.064 1096.35 224.119 1096.28 224.16C1094.79 225.019 1092.77 224.675 1091.23 224.154C1088.83 223.341 1086.28 222.21 1083.57 220.763C1080.56 219.153 1077.76 217.784 1075.16 216.655C1073.52 215.948 1069.96 214.88 1069.95 218.006C1069.93 223.122 1073.79 225.799 1078.21 227.219C1080.72 228.02 1083.32 228.599 1086.03 228.956C1089.59 229.424 1093.14 229.822 1096.68 230.149C1097.52 230.226 1098.37 230.346 1099.24 230.512C1100.52 230.748 1102.3 230.984 1103.19 231.991C1104.27 233.196 1102.01 234.318 1101.18 234.529C1097.09 235.572 1092.65 235.651 1088.57 236.125C1086.87 236.321 1084.67 236.644 1083.31 237.591C1081.59 238.793 1083.18 240.861 1084.49 241.519C1086.93 242.743 1090.55 242.543 1093.21 242.11C1097.54 241.411 1100.95 240.915 1103.44 240.621C1107.72 240.122 1110.67 241.602 1112.29 245.062C1112.85 246.257 1113.1 247.688 1113.49 248.979C1113.5 249.007 1113.51 249.03 1113.54 249.045C1113.56 249.06 1113.59 249.066 1113.62 249.061L1116.16 248.568C1116.23 248.553 1116.26 248.51 1116.25 248.439C1116.08 247.289 1116.07 246.181 1116.22 245.113C1116.92 240.034 1119.57 234.832 1122.23 230.422C1124.41 226.814 1126.27 223.648 1127.81 220.926C1128.49 219.723 1130.61 215.709 1128.82 214.733C1125.24 212.766 1122.53 219.362 1121.68 221.715C1120.77 224.198 1119.87 226.717 1118.98 229.273C1118.66 230.185 1118.23 230.999 1117.7 231.714C1117.29 232.259 1116.88 232.258 1116.46 231.711C1115.39 230.324 1115.7 228.485 1116.15 226.972C1116.76 224.928 1117.7 222.675 1118.97 220.213C1120.48 217.278 1121.94 214.438 1123.35 211.693C1124.61 209.233 1127.63 202.992 1125.53 200.924C1122.5 197.94 1119.67 205.183 1119 206.992C1117.78 210.307 1116.59 213.535 1115.44 216.677C1115.07 217.676 1114.11 219.948 1112.99 220.347C1112.93 220.371 1112.86 220.379 1112.79 220.369C1112.73 220.359 1112.66 220.333 1112.61 220.292C1111.42 219.419 1111.56 217.995 1111.57 216.685C1111.58 215.997 1111.63 215.33 1111.73 214.684C1112.06 212.489 1112.45 210.473 1112.89 208.636C1114.12 203.454 1114.93 199.544 1115.32 196.905C1115.56 195.225 1115.85 192.732 1114.98 191.171C1114.3 189.954 1112.77 189.796 1111.93 190.965C1111.55 191.49 1111.28 192.03 1111.11 192.585C1110.6 194.269 1110.26 196.098 1110.11 198.071C1109.86 201.213 1109.6 204.398 1109.34 207.626C1109.22 209.069 1108.91 210.366 1108.41 211.518C1108.36 211.63 1108.28 211.727 1108.19 211.802C1108.09 211.878 1107.98 211.928 1107.86 211.949C1107.74 211.97 1107.62 211.961 1107.5 211.922C1107.39 211.884 1107.28 211.818 1107.2 211.729C1106.64 211.132 1106.28 210.345 1106.14 209.366C1105.83 207.361 1105.67 205.346 1105.67 203.321C1105.68 198.162 1105.53 193.649 1105.22 189.782C1104.92 186.075 1103.87 179.088 1099.1 178.408C1095.63 177.913 1097.86 185.559 1098.28 186.961C1099.38 190.601 1100.53 194.348 1101.72 198.202C1102.23 199.852 1103.57 204.468 1102.53 205.841C1100.51 208.508 1096.28 199.154 1095.75 198.003C1093.66 193.466 1091.67 189.215 1089.78 185.249C1088.62 182.805 1084.01 173.546 1080.52 174.486C1079.21 174.839 1078.7 175.762 1078.98 177.254C1079.25 178.701 1079.8 180.207 1080.63 181.77C1083.98 188.092 1088.22 193.88 1092.32 199.865C1093.94 202.228 1095.68 204.817 1096.58 207.455C1096.64 207.64 1096.62 207.842 1096.54 208.016C1096.45 208.191 1096.3 208.324 1096.12 208.387C1095.26 208.679 1093.53 207.592 1092.84 207.122C1090.41 205.446 1087.92 203.518 1085.36 201.338C1081.1 197.711 1077.44 194.687 1074.38 192.266C1072.84 191.049 1065.24 184.98 1063.34 187.2C1061.15 189.76 1066.42 194.331 1068.21 195.789C1074.26 200.708 1080.95 204.92 1087.53 209.125C1090.29 210.883 1092.73 212.615 1094.84 214.321C1095.25 214.649 1095.61 215.064 1095.92 215.567C1095.95 215.614 1095.97 215.667 1095.98 215.722C1095.98 215.777 1095.98 215.833 1095.96 215.886C1095.95 215.939 1095.92 215.988 1095.88 216.03C1095.85 216.072 1095.8 216.106 1095.75 216.13C1094.29 216.788 1091.63 215.572 1090.21 214.876C1081.82 210.739 1074.35 205.002 1066.01 200.709C1064.93 200.154 1060.11 197.917 1060.41 200.888C1060.67 203.418 1062.54 205.715 1064.64 207.368C1067.38 209.515 1070.63 211.456 1074.39 213.189C1078.95 215.287 1083.63 217.264 1088.44 219.12C1090.97 220.096 1093.27 221.161 1095.35 222.315C1095.74 222.533 1096.17 222.951 1096.45 223.31Z" fill="#FCF9E6"/>
<rect x="296.524" y="174.556" width="74.6486" height="74.6485" fill="#FBE4E1"/>
<path d="M366.834 212.065L366.828 179.282L357.228 188.886C351.295 182.954 343.098 179.287 334.046 179.288C324.993 179.29 316.798 182.96 310.867 188.894L322.459 200.482C325.425 197.515 329.522 195.68 334.049 195.679C338.575 195.678 342.673 197.512 345.64 200.478L334.052 212.07L301.269 212.076L301.275 244.858L310.875 235.255C316.809 241.186 325.005 244.854 334.057 244.852C343.11 244.851 351.305 241.18 357.236 235.247L345.644 223.659C342.678 226.625 338.581 228.461 334.054 228.461C329.528 228.462 325.43 226.628 322.463 223.663L334.052 212.07L366.834 212.065Z" fill="#EA5E4F"/>
<rect width="74.6486" height="74.6485" transform="matrix(-1 0.000174644 0.00017442 1 983.766 174.436)" fill="#FBE4E1"/>
<path d="M913.469 211.969L913.463 179.187L923.066 188.787C928.998 182.854 937.193 179.183 946.245 179.182C955.298 179.18 963.494 182.848 969.427 188.779L957.839 200.371C954.872 197.406 950.774 195.572 946.248 195.573C941.722 195.573 937.624 197.409 934.659 200.375L946.251 211.964L979.033 211.958L979.039 244.74L969.435 235.14C963.504 241.073 955.309 244.744 946.257 244.746C937.204 244.747 929.008 241.08 923.074 235.148L934.663 223.556C937.629 226.522 941.727 228.355 946.254 228.355C950.78 228.354 954.877 226.519 957.843 223.552L946.251 211.964L913.469 211.969Z" fill="#EA5E4F"/>
<rect width="82.7125" height="74.5112" transform="matrix(1 -0.00017464 -0.000903753 1 1205.43 174.534)" fill="#EA5E4F"/>
<path d="M1249.3 176.828L1235.91 176.83L1235.91 183.383C1235.91 187.002 1238.91 189.935 1242.6 189.935C1246.3 189.934 1249.3 187 1249.3 183.381L1249.3 176.828Z" fill="#FCF9E6"/>
<path d="M1242.61 233.62C1238.91 233.62 1235.91 236.554 1235.91 240.173L1235.91 246.726L1249.31 246.725L1249.31 240.172C1249.31 236.553 1246.31 233.619 1242.61 233.62Z" fill="#FCF9E6"/>
<path d="M1263.12 182.429L1272.6 191.695L1267.86 196.329C1265.25 198.889 1261.01 198.889 1258.39 196.33C1255.77 193.772 1255.77 189.623 1258.39 187.063L1263.12 182.429Z" fill="#FCF9E6"/>
<path d="M1226.82 227.224C1224.21 224.665 1219.97 224.666 1217.35 227.225L1212.62 231.859L1222.09 241.125L1226.82 236.491C1229.44 233.932 1229.44 229.783 1226.82 227.224Z" fill="#FCF9E6"/>
<path d="M1278.32 218.326L1271.63 218.327C1267.93 218.327 1264.93 215.394 1264.93 211.775C1264.93 208.156 1267.93 205.222 1271.63 205.221L1278.32 205.221L1278.32 218.326Z" fill="#FCF9E6"/>
<path d="M1220.28 211.78C1220.28 208.161 1217.29 205.227 1213.59 205.228L1206.89 205.228L1206.89 218.334L1213.59 218.333C1217.29 218.333 1220.28 215.399 1220.28 211.78Z" fill="#FCF9E6"/>
<path d="M1263.13 241.12L1258.39 236.487C1255.78 233.929 1255.78 229.78 1258.39 227.22C1261.01 224.661 1265.25 224.661 1267.86 227.219L1272.6 231.852L1263.13 241.12Z" fill="#FCF9E6"/>
<path d="M1226.82 196.334C1229.44 193.775 1229.44 189.626 1226.82 187.067L1222.08 182.434L1212.61 191.702L1217.35 196.335C1219.97 198.894 1224.21 198.893 1226.82 196.334Z" fill="#FCF9E6"/>
<path d="M1242.61 229.251C1252.47 229.25 1260.47 221.426 1260.46 211.775C1260.46 202.125 1252.47 194.302 1242.6 194.303C1232.74 194.304 1224.75 202.128 1224.75 211.779C1224.75 221.43 1232.75 229.252 1242.61 229.251Z" fill="#FCF9E6"/>
<rect width="83.4555" height="74.5112" transform="matrix(1 -0.00017464 -0.000903753 1 -8.56055 174.746)" fill="#EA5E4F"/>
<path d="M44.2567 177.039L30.8632 177.041L30.8639 183.594C30.8643 187.213 33.8628 190.146 37.5614 190.146C41.2599 190.145 44.2578 187.211 44.2574 183.592L44.2567 177.039Z" fill="#FCF9E6"/>
<path d="M37.5661 233.831C33.8676 233.831 30.8696 236.765 30.87 240.384L30.8707 246.937L44.2643 246.935L44.2636 240.383C44.2632 236.764 41.2646 233.83 37.5661 233.831Z" fill="#FCF9E6"/>
<path d="M58.0804 182.64L67.552 191.906L62.8172 196.54C60.2022 199.1 55.9621 199.1 53.3465 196.541C50.731 193.983 50.7305 189.834 53.3455 187.274L58.0804 182.64Z" fill="#FCF9E6"/>
<path d="M21.7809 227.435C19.1654 224.876 14.9252 224.876 12.3102 227.436L7.5754 232.07L17.0471 241.336L21.7819 236.702C24.3969 234.142 24.3965 229.993 21.7809 227.435Z" fill="#FCF9E6"/>
<path d="M73.2806 218.537L66.5838 218.538C62.8853 218.538 59.8867 215.605 59.8863 211.986C59.886 208.367 62.8839 205.433 66.5824 205.432L73.2792 205.431L73.2806 218.537Z" fill="#FCF9E6"/>
<path d="M15.2411 211.991C15.2407 208.372 12.2421 205.438 8.54361 205.439L1.84682 205.439L1.84824 218.545L8.54502 218.544C12.2436 218.544 15.2415 215.61 15.2411 211.991Z" fill="#FCF9E6"/>
<path d="M58.0868 241.331L53.3509 236.698C50.7354 234.14 50.735 229.991 53.3499 227.431C55.9649 224.872 60.2051 224.872 62.8206 227.43L67.5565 232.063L58.0868 241.331Z" fill="#FCF9E6"/>
<path d="M21.7777 196.545C24.3926 193.986 24.3922 189.837 21.7767 187.278L17.0408 182.645L7.57113 191.913L12.307 196.546C14.9225 199.105 19.1627 199.104 21.7777 196.545Z" fill="#FCF9E6"/>
<path d="M37.5656 229.462C47.4284 229.461 55.4229 221.637 55.4218 211.986C55.4208 202.336 47.4246 194.513 37.5618 194.514C27.6991 194.515 19.7046 202.339 19.7056 211.99C19.7067 221.641 27.7029 229.463 37.5656 229.462Z" fill="#FCF9E6"/>
</svg>
