<svg width="1280" height="279" viewBox="0 0 1280 279" fill="none" xmlns="http://www.w3.org/2000/svg">
<rect x="-117.008" y="160.407" width="1428.53" height="74.6485" transform="rotate(-4.60724 -117.008 160.407)" fill="#EA5E4F"/>
<rect x="-34.0947" y="28.3506" width="1344.46" height="74.6485" transform="rotate(0.742567 -34.0947 28.3506)" fill="#3AB6C0"/>
<path d="M473.005 83.4071L462.253 83.2677L462.63 54.1792L473.367 54.3184C476.331 54.3568 478.876 54.9722 481 56.1646C483.135 57.3477 484.77 59.0357 485.907 61.2287C487.043 63.4121 487.592 66.0142 487.553 69.0347C487.514 72.0648 486.898 74.6612 485.705 76.8239C484.521 78.9868 482.847 80.6367 480.683 81.7735C478.518 82.9008 475.959 83.4453 473.005 83.4071ZM469.361 77.365L472.812 77.4097C474.441 77.4309 475.822 77.1741 476.956 76.6395C478.1 76.0956 478.968 75.2024 479.562 73.96C480.166 72.7082 480.481 71.0361 480.508 68.9434C480.535 66.8508 480.263 65.1805 479.692 63.9324C479.121 62.6749 478.267 61.7642 477.128 61.2001C475.999 60.6267 474.601 60.3292 472.935 60.3076L469.583 60.2642L469.361 77.365ZM491.469 83.6464L491.752 61.83L498.697 61.92L498.414 83.7364L491.469 83.6464ZM495.265 59.3327C494.289 59.3201 493.455 58.9873 492.763 58.3343C492.071 57.6719 491.731 56.8814 491.743 55.9629C491.754 55.0539 492.115 54.282 492.824 53.6472C493.533 53.0029 494.375 52.6871 495.351 52.6998C496.335 52.7125 497.169 53.0501 497.852 53.7124C498.544 54.3653 498.884 55.1463 498.873 56.0553C498.861 56.9738 498.5 57.7552 497.791 58.3995C497.091 59.0344 496.249 59.3455 495.265 59.3327ZM502.729 91.9748L503.118 61.9773L509.992 62.0664L509.944 65.8019L510.157 65.8047C510.45 65.1455 510.86 64.5116 511.389 63.9029C511.927 63.2943 512.606 62.8011 513.426 62.4235C514.255 62.0364 515.242 61.8504 516.388 61.8652C517.903 61.8848 519.313 62.3009 520.619 63.1133C521.934 63.9259 522.988 65.166 523.781 66.8336C524.574 68.5012 524.954 70.6181 524.921 73.1841C524.889 75.6555 524.469 77.7194 523.661 79.3757C522.863 81.0322 521.796 82.2685 520.46 83.0845C519.133 83.9007 517.664 84.2984 516.055 84.2776C514.956 84.2633 514.007 84.0711 513.207 83.7008C512.406 83.3306 511.736 82.8484 511.194 82.2542C510.662 81.6601 510.253 81.025 509.969 80.3489L509.827 80.3471L509.675 92.0648L502.729 91.9748ZM509.78 72.9737C509.765 74.1478 509.908 75.1725 510.209 76.0477C510.52 76.923 510.97 77.606 511.56 78.0966C512.16 78.5779 512.882 78.824 513.724 78.835C514.576 78.846 515.304 78.6187 515.907 78.153C516.509 77.6778 516.968 77.0066 517.282 76.1394C517.606 75.2723 517.776 74.2517 517.791 73.0775C517.806 71.9034 517.663 70.8834 517.362 70.0177C517.07 69.1521 516.629 68.4787 516.038 67.9976C515.457 67.5165 514.736 67.2704 513.874 67.2592C513.022 67.2482 512.295 67.4708 511.692 67.927C511.09 68.3833 510.622 69.0401 510.289 69.8976C509.965 70.7553 509.796 71.7806 509.78 72.9737ZM538.598 84.6692C536.306 84.6395 534.343 84.1452 532.707 83.1865C531.081 82.2183 529.834 80.8858 528.966 79.1888C528.107 77.4824 527.693 75.5119 527.722 73.2773C527.751 71.0331 528.216 69.074 529.119 67.4C530.031 65.7166 531.312 64.4168 532.962 63.5006C534.622 62.5751 536.598 62.1272 538.889 62.1569C541.181 62.1866 543.139 62.6855 544.765 63.6536C546.401 64.6124 547.648 65.9449 548.506 67.6513C549.375 69.3483 549.794 71.3188 549.765 73.563C549.736 75.7976 549.266 77.7567 548.354 79.4401C547.451 81.1141 546.17 82.4139 544.51 83.3394C542.86 84.2556 540.889 84.6989 538.598 84.6692ZM538.708 79.4287C539.541 79.4395 540.25 79.193 540.834 78.6891C541.419 78.1853 541.868 77.4808 542.183 76.5758C542.507 75.6708 542.677 74.6218 542.692 73.4287C542.708 72.2167 542.566 71.1541 542.265 70.2411C541.974 69.3281 541.543 68.6122 540.972 68.0934C540.401 67.5746 539.699 67.3098 538.865 67.299C538.004 67.2879 537.271 67.5341 536.668 68.0377C536.074 68.5414 535.615 69.2457 535.291 70.1507C534.976 71.0558 534.811 72.1143 534.795 73.3263C534.78 74.5194 534.918 75.5724 535.209 76.4854C535.51 77.3984 535.95 78.1144 536.531 78.6334C537.121 79.1524 537.846 79.4175 538.708 79.4287ZM560.289 72.0941L560.128 84.5363L553.183 84.4462L553.465 62.6299L560.07 62.7155L560.018 66.7208L560.259 66.724C560.76 65.3951 561.597 64.3595 562.772 63.6171C563.946 62.8652 565.338 62.4997 566.948 62.5205C568.482 62.5404 569.808 62.9033 570.926 63.6091C572.053 64.3056 572.921 65.2734 573.53 66.5124C574.149 67.7421 574.443 69.176 574.412 70.814L574.232 84.7191L567.287 84.629L567.449 72.0875C567.474 70.8756 567.179 69.9247 566.563 69.2348C565.956 68.5451 565.104 68.1931 564.005 68.1789C563.276 68.1694 562.63 68.3221 562.067 68.6368C561.514 68.9421 561.082 69.3864 560.771 69.9695C560.47 70.5528 560.31 71.261 560.289 72.0941ZM588.725 85.3189C586.443 85.2893 584.479 84.814 582.834 83.893C581.198 82.9626 579.946 81.6536 579.077 79.9661C578.219 78.2692 577.804 76.2609 577.834 73.941C577.864 71.6874 578.334 69.7236 579.246 68.0497C580.158 66.3663 581.43 65.0664 583.061 64.1499C584.693 63.224 586.607 62.7753 588.803 62.8038C590.356 62.8239 591.774 63.0838 593.055 63.5834C594.337 64.083 595.44 64.8123 596.365 65.7714C597.29 66.7304 598.004 67.9093 598.507 69.3079C599.01 70.6971 599.25 72.2866 599.226 74.0762L599.204 75.809L580.242 75.5632L580.295 71.5295L592.794 71.6915C592.794 70.9528 592.627 70.2924 592.294 69.7104C591.96 69.1284 591.497 68.6725 590.905 68.3429C590.322 68.0038 589.647 67.8294 588.88 67.8194C588.104 67.8094 587.406 67.9755 586.786 68.3179C586.166 68.6508 585.672 69.1132 585.305 69.705C584.937 70.2875 584.739 70.9526 584.711 71.7004L584.657 75.8051C584.646 76.6952 584.811 77.4787 585.152 78.1555C585.494 78.8229 585.985 79.3454 586.624 79.723C587.263 80.1006 588.027 80.2952 588.918 80.3067C589.533 80.3147 590.093 80.2367 590.597 80.0728C591.101 79.9089 591.535 79.6635 591.899 79.3368C592.263 79.01 592.538 78.6064 592.725 78.1258L599.099 78.3931C598.816 79.8194 598.217 81.0571 597.304 82.1059C596.4 83.1454 595.22 83.9493 593.764 84.5176C592.308 85.0765 590.628 85.3435 588.725 85.3189ZM612.689 93.8546C610.616 93.8277 608.844 93.5159 607.374 92.9192C605.905 92.3224 604.755 91.5167 603.925 90.5021C603.095 89.4875 602.604 88.3446 602.45 87.0736L609.03 86.7895C609.148 87.2362 609.37 87.6273 609.697 87.963C610.034 88.2989 610.471 88.5602 611.008 88.7472C611.555 88.9342 612.198 89.0325 612.936 89.0421C614.101 89.0571 615.066 88.7855 615.831 88.2272C616.605 87.6785 617.001 86.7034 617.019 85.302L617.069 81.4671L616.827 81.464C616.544 82.1327 616.12 82.7286 615.554 83.2516C614.989 83.7746 614.287 84.1823 613.45 84.4745C612.622 84.7668 611.673 84.906 610.604 84.8922C609.013 84.8715 607.559 84.4833 606.243 83.7276C604.937 82.9625 603.896 81.7936 603.121 80.2209C602.355 78.6389 601.989 76.6122 602.021 74.1408C602.054 71.5937 602.488 69.5016 603.324 67.8646C604.159 66.2181 605.241 65.0056 606.567 64.2273C607.903 63.4491 609.333 63.0699 610.858 63.0896C612.003 63.1045 612.981 63.316 613.79 63.7243C614.609 64.1232 615.279 64.6338 615.802 65.2562C616.324 65.8785 616.718 66.5229 616.984 67.1893L617.183 67.1918L617.231 63.4564L624.148 63.546L623.864 85.4476C623.841 87.294 623.356 88.8456 622.412 90.1024C621.468 91.3592 620.158 92.3035 618.483 92.9353C616.808 93.5765 614.877 93.8829 612.689 93.8546ZM613.084 79.8671C613.926 79.878 614.649 79.6648 615.251 79.2275C615.853 78.7902 616.321 78.157 616.654 77.3279C616.986 76.4988 617.16 75.5019 617.176 74.3372C617.191 73.1536 617.043 72.1336 616.732 71.2773C616.431 70.4115 615.98 69.7428 615.38 69.2709C614.79 68.7992 614.073 68.5579 613.23 68.547C612.369 68.5358 611.636 68.7631 611.034 69.2288C610.431 69.6945 609.968 70.3562 609.644 71.2138C609.33 72.0621 609.166 73.0685 609.151 74.2332C609.136 75.3979 609.279 76.3989 609.58 77.2362C609.882 78.0735 610.324 78.7185 610.905 79.1711C611.496 79.6239 612.222 79.8559 613.084 79.8671ZM638.472 85.9636C636.18 85.9339 634.217 85.4397 632.582 84.4809C630.956 83.5128 629.709 82.1802 628.84 80.4832C627.982 78.7769 627.567 76.8064 627.596 74.5717C627.625 72.3276 628.091 70.3685 628.993 68.6945C629.905 67.0111 631.186 65.7113 632.837 64.7951C634.497 63.8695 636.472 63.4216 638.764 63.4513C641.055 63.481 643.014 63.9799 644.64 64.9481C646.275 65.9068 647.522 67.2394 648.381 68.9457C649.249 70.6427 649.669 72.6133 649.64 74.8574C649.611 77.0921 649.14 79.0511 648.228 80.7345C647.326 82.4086 646.044 83.7084 644.385 84.6339C642.734 85.5501 640.763 85.9933 638.472 85.9636ZM638.582 80.7232C639.416 80.734 640.124 80.4874 640.709 79.9836C641.293 79.4798 641.742 78.7753 642.057 77.8702C642.381 76.9653 642.551 75.9162 642.567 74.7231C642.583 73.5111 642.44 72.4486 642.139 71.5355C641.848 70.6226 641.417 69.9067 640.846 69.3879C640.275 68.8691 639.573 68.6043 638.74 68.5935C637.878 68.5823 637.146 68.8285 636.542 69.3321C635.949 69.8358 635.49 70.5402 635.166 71.4451C634.851 72.3502 634.685 73.4088 634.67 74.6208C634.654 75.8139 634.792 76.8669 635.083 77.7798C635.384 78.6929 635.825 79.4089 636.405 79.9278C636.995 80.4469 637.721 80.712 638.582 80.7232ZM653.057 85.7407L653.34 63.9244L660.086 64.0118L660.035 67.9887L660.262 67.9917C660.678 66.5576 661.341 65.496 662.25 64.8069C663.158 64.1084 664.209 63.7669 665.402 63.7824C665.724 63.7866 666.055 63.8145 666.396 63.8663C666.736 63.9086 667.052 63.9742 667.345 64.0633L667.267 70.0997C666.937 69.9818 666.502 69.8862 665.963 69.8129C665.434 69.7397 664.961 69.7005 664.544 69.6951C663.721 69.6844 662.975 69.8594 662.307 70.2201C661.649 70.5714 661.127 71.0713 660.739 71.7198C660.362 72.3589 660.167 73.114 660.156 73.9851L660.002 85.8307L653.057 85.7407ZM678.937 86.4881C676.646 86.4584 674.682 85.9642 673.047 85.0054C671.421 84.0373 670.174 82.7047 669.306 81.0077C668.447 79.3014 668.032 77.3309 668.061 75.0962C668.09 72.8521 668.556 70.893 669.459 69.2189C670.371 67.5355 671.652 66.2357 673.302 65.3195C674.962 64.394 676.938 63.9461 679.229 63.9758C681.521 64.0055 683.479 64.5044 685.105 65.4725C686.74 66.4313 687.988 67.7639 688.846 69.4702C689.714 71.1672 690.134 73.1378 690.105 75.3819C690.076 77.6166 689.605 79.5756 688.693 81.259C687.791 82.933 686.51 84.2328 684.85 85.1584C683.2 86.0746 681.229 86.5178 678.937 86.4881ZM679.048 81.2476C679.881 81.2584 680.59 81.0119 681.174 80.5081C681.758 80.0042 682.208 79.2998 682.523 78.3947C682.847 77.4897 683.017 76.4407 683.032 75.2476C683.048 74.0356 682.905 72.9731 682.605 72.06C682.313 71.1471 681.882 70.4312 681.311 69.9124C680.74 69.3936 680.038 69.1288 679.205 69.118C678.343 69.1068 677.611 69.353 677.008 69.8566C676.414 70.3603 675.955 71.0646 675.631 71.9696C675.316 72.8747 675.151 73.9332 675.135 75.1453C675.12 76.3383 675.258 77.3914 675.549 78.3043C675.849 79.2174 676.29 79.9334 676.87 80.4523C677.46 80.9713 678.186 81.2365 679.048 81.2476ZM720.09 57.5162L727.107 57.6071L726.864 76.3697C726.836 78.5381 726.295 80.4205 725.242 82.0168C724.189 83.6037 722.734 84.8255 720.876 85.6821C719.018 86.5293 716.868 86.9371 714.425 86.9054C711.954 86.8734 709.8 86.4099 707.965 85.5148C706.13 84.6103 704.712 83.3512 703.71 81.7377C702.708 80.1148 702.221 78.2191 702.249 76.0507L702.492 57.2881L709.523 57.3792L709.288 75.5311C709.275 76.5348 709.481 77.4324 709.906 78.224C710.341 79.0157 710.953 79.6392 711.743 80.0945C712.533 80.5499 713.453 80.7844 714.504 80.798C715.555 80.8116 716.476 80.601 717.268 80.1662C718.069 79.7314 718.698 79.124 719.153 78.3438C719.608 77.5637 719.842 76.6718 719.855 75.6681L720.09 57.5162ZM738.544 57.7553L738.167 86.8438L731.136 86.7527L731.513 57.6642L738.544 57.7553ZM756.44 56.6235L746.615 91.3287L740.692 91.2519L750.517 56.5468L756.44 56.6235ZM776.609 58.2487L783.626 58.3396L783.382 77.1023C783.354 79.2707 782.814 81.153 781.761 82.7494C780.708 84.3362 779.253 85.558 777.395 86.4147C775.537 87.2619 773.387 87.6696 770.944 87.638C768.472 87.606 766.319 87.1424 764.484 86.2473C762.649 85.3428 761.23 84.0838 760.228 82.4703C759.227 80.8473 758.74 78.9516 758.768 76.7833L759.011 58.0206L766.042 58.1117L765.807 76.2636C765.793 77.2673 766 78.165 766.425 78.9565C766.86 79.7482 767.472 80.3717 768.262 80.8271C769.051 81.2824 769.972 81.5169 771.023 81.5305C772.074 81.5442 772.995 81.3335 773.787 80.8987C774.588 80.464 775.216 79.8565 775.671 79.0764C776.127 78.2962 776.361 77.4043 776.374 76.4006L776.609 58.2487ZM795.148 58.489L800.341 67.7474L800.568 67.7504L806.056 58.6304L813.925 58.7324L804.959 73.1628L813.832 87.8245L805.764 87.7199L800.431 78.3603L800.203 78.3573L794.629 87.5756L786.618 87.4718L795.826 73.0445L787.223 58.3863L795.148 58.489Z" fill="#FEFEFA"/>
<path d="M280.861 57.6663C280.821 57.3756 280.835 57.0793 280.905 56.7944C280.974 56.5095 281.096 56.2416 281.265 56.0059C281.434 55.7703 281.646 55.5715 281.889 55.421C282.131 55.2706 282.4 55.1713 282.679 55.1289L283.013 55.0808C285.596 54.6904 288.229 55.4373 290.332 57.1572C292.435 58.8772 293.837 61.4293 294.228 64.2523L294.331 64.9358C294.525 66.334 294.465 67.7565 294.154 69.1223C293.844 70.4881 293.289 71.7704 292.522 72.8959C291.754 74.0214 290.789 74.9681 289.681 75.6819C288.574 76.3957 287.345 76.8626 286.066 77.056L285.732 77.1042C285.17 77.1875 284.599 77.0355 284.144 76.6815C283.689 76.3274 283.388 75.8001 283.306 75.215L280.861 57.6663Z" fill="#F8BF16"/>
<path d="M265.311 68.5691C266.025 67.9626 265.925 67.594 265.013 67.4632C260.181 66.7918 255.546 65.9761 251.108 65.0159C247.669 64.2786 242.309 62.3515 240.119 59.3214C239.913 59.0383 239.769 58.7108 239.699 58.3625C239.629 58.0143 239.635 57.6541 239.716 57.3083C239.797 56.9625 239.951 56.6397 240.166 56.3634C240.382 56.0872 240.654 55.8644 240.963 55.7113C243.297 54.5451 245.14 54.7789 247.631 54.7377C253.286 54.6431 258.786 55.1517 264.129 56.2635C264.552 56.3459 264.939 56.2985 265.291 56.1211C265.401 56.0626 265.495 55.9765 265.566 55.8707C265.636 55.7648 265.68 55.6425 265.693 55.5148C265.707 55.387 265.69 55.2577 265.644 55.1385C265.598 55.0193 265.524 54.914 265.429 54.8319C260.071 50.1654 254.314 45.3748 248.159 40.4601C246.213 38.913 243.551 35.7299 244.52 33.339C245.239 31.5536 247.271 31.9787 248.69 32.207C261.198 34.2478 268.757 41.5353 277.311 50.7143C279.738 53.3171 278.905 56.1086 279.257 59.2829C279.732 63.5922 280.211 68.1744 280.692 73.0296C281.361 79.7659 278.03 85.4638 275.233 91.1896C272.685 96.4323 269.021 100.789 264.243 104.261C262.217 105.746 259.352 107.409 256.892 106.569C253.854 105.522 252.72 103.024 253.49 99.0733C253.829 97.3354 255.054 95.1228 257.166 92.4353C259.894 88.9791 262.717 85.6222 265.637 82.3644C266.189 81.7558 266.154 81.3286 265.532 81.0826C265.409 81.0405 265.272 81.05 265.149 81.1091C262.56 82.419 239.231 93.6302 241.343 83.1516C242.605 76.8706 258.946 71.0685 264.356 69.1234C264.707 68.9951 265.026 68.8103 265.311 68.5691Z" fill="#FBE4E1"/>
<path d="M993.856 66.907C993.904 66.6175 993.897 66.3209 993.835 66.0343C993.773 65.7477 993.658 65.4767 993.495 65.2368C993.332 64.9968 993.126 64.7926 992.887 64.6359C992.649 64.4792 992.382 64.373 992.104 64.3234L991.772 64.2666C989.2 63.8094 986.549 64.4878 984.402 66.1527C982.254 67.8176 980.787 70.3325 980.322 73.1444L980.203 73.825C979.972 75.2176 979.995 76.6413 980.27 78.0147C980.545 79.3881 981.066 80.6843 981.804 81.8293C982.542 82.9743 983.483 83.9457 984.572 84.688C985.661 85.4303 986.877 85.9289 988.151 86.1554L988.483 86.2121C989.043 86.31 989.618 86.1729 990.081 85.8307C990.545 85.4886 990.86 84.9693 990.957 84.3865L993.856 66.907Z" fill="#F8BF16"/>
<path d="M1009.12 78.2092C1008.42 77.5844 1008.53 77.2184 1009.45 77.1114C1014.29 76.5655 1018.95 75.8701 1023.41 75.0253C1026.87 74.3774 1032.27 72.5898 1034.54 69.6175C1034.76 69.3399 1034.91 69.0161 1034.99 68.6698C1035.06 68.3235 1035.07 67.9634 1035 67.6156C1034.92 67.2678 1034.78 66.9411 1034.57 66.6593C1034.36 66.3775 1034.1 66.1478 1033.79 65.9868C1031.49 64.7604 1029.64 64.9464 1027.15 64.8407C1021.5 64.5995 1015.99 64.9654 1010.62 65.9383C1010.19 66.0098 1009.81 65.9523 1009.46 65.7659C1009.35 65.7045 1009.26 65.616 1009.19 65.5084C1009.13 65.4008 1009.08 65.2774 1009.07 65.1493C1009.06 65.0212 1009.08 64.8924 1009.13 64.7745C1009.18 64.6566 1009.26 64.5532 1009.36 64.4736C1014.83 59.9475 1020.71 55.3077 1026.99 50.5542C1028.98 49.0581 1031.72 45.945 1030.82 43.5298C1030.14 41.7263 1028.1 42.0987 1026.68 42.2901C1014.12 44.0061 1006.37 51.0951 997.585 60.0493C995.092 62.5884 995.852 65.4006 995.418 68.5646C994.831 72.8602 994.234 77.4285 993.627 82.2696C992.783 88.9863 995.965 94.7686 998.613 100.565C1001.03 105.872 1004.57 110.323 1009.26 113.917C1011.25 115.454 1014.07 117.191 1016.55 116.415C1019.61 115.447 1020.81 112.978 1020.14 109.01C1019.85 107.263 1018.68 105.02 1016.64 102.278C1014 98.7528 1011.27 95.3238 1008.44 91.9914C1007.9 91.3688 1007.94 90.9425 1008.57 90.7128C1008.7 90.6739 1008.83 90.6869 1008.96 90.7492C1011.51 92.1257 1034.54 103.938 1032.7 93.408C1031.6 87.0964 1015.42 80.8727 1010.06 78.7881C1009.71 78.6507 1009.4 78.4577 1009.12 78.2092Z" fill="#FBE4E1"/>
<rect x="164.554" y="30.9258" width="74.6486" height="74.6485" transform="rotate(0.742567 164.554 30.9258)" fill="#EA5E4F"/>
<path d="M174.003 50.953C182.141 40.0803 203.764 28.6982 217.838 34.2902C221.689 35.8198 225.036 39.4112 225.572 43.5071C227.285 56.4326 200.481 64.3905 191.464 66.8352C183.071 69.0971 178.693 77.4887 174.206 84.4312C174.017 84.7218 173.768 84.9685 173.475 85.1542C173.183 85.34 172.854 85.4605 172.511 85.5075C172.168 85.5544 171.82 85.5267 171.49 85.4262C171.16 85.3257 170.856 85.1549 170.599 84.9254C168.505 83.0526 167.265 80.3477 166.966 77.5913C165.886 67.5432 168.231 58.6637 174.003 50.953Z" fill="#FBE4E1"/>
<path d="M188.968 86.1499C199.977 83.6038 212.752 81.2714 219.732 71.3065C223.335 66.1982 226.316 59.8885 231.463 56.1367C231.999 55.7406 232.589 55.6422 233.235 55.8415C238.916 57.5539 237.945 66.0534 236.885 70.3992C232.295 89.4003 221.019 100.651 203.056 104.152C194.863 105.748 181.582 104.081 180.412 93.6283C179.911 89.2305 185.468 86.9637 188.968 86.1499Z" fill="#FBE4E1"/>
<rect width="74.6486" height="74.6485" transform="matrix(-0.999916 -0.0129599 -0.01296 0.999916 1110.81 43.1904)" fill="#EA5E4F"/>
<path d="M1101.91 62.835C1094 51.6654 1072.5 39.6302 1058.18 44.8978C1054.25 46.3386 1050.79 49.8704 1050.14 53.984C1048.08 66.965 1074.88 75.6848 1083.9 78.384C1092.3 80.8827 1096.49 89.4537 1100.84 96.5672C1101.02 96.865 1101.26 97.1201 1101.55 97.3149C1101.84 97.5098 1102.17 97.6398 1102.52 97.6961C1102.86 97.7524 1103.21 97.7335 1103.55 97.6409C1103.88 97.5483 1104.19 97.384 1104.46 97.1594C1106.62 95.3269 1107.94 92.6334 1108.31 89.8635C1109.66 79.7657 1107.53 70.7562 1101.91 62.835Z" fill="#FBE4E1"/>
<path d="M1085.91 97.9136C1074.89 95.06 1062.07 92.3758 1055.3 82.1513C1051.8 76.9093 1048.96 70.4729 1043.87 66.5576C1043.34 66.1444 1042.75 66.0298 1042.1 66.2138C1036.33 67.7911 1037.08 76.3818 1038.04 80.7888C1042.17 100.057 1053.24 111.69 1071.25 115.687C1079.46 117.51 1092.89 116.176 1094.34 105.673C1094.96 101.255 1089.42 98.8251 1085.91 97.9136Z" fill="#FBE4E1"/>
<rect width="92.817" height="74.6485" transform="matrix(-0.999916 -0.0129599 -0.01296 0.999916 1202.83 44.3828)" fill="#FBE4E1"/>
<path d="M1153.17 58.0228L1148.32 62.0748C1146.51 63.5799 1146.78 64.3324 1149.12 64.3324C1152.63 64.3171 1157.21 62.2052 1160.35 60.8945C1160.63 60.7778 1160.93 60.7197 1161.23 60.7236C1161.53 60.7275 1161.82 60.7933 1162.09 60.9171C1173.38 65.983 1183.25 69.5425 1194.77 64.1649C1196.28 63.4557 1197.47 62.4587 1198.32 61.1741C1198.51 60.8832 1198.63 60.5499 1198.67 60.2025C1198.71 59.8551 1198.66 59.5039 1198.54 59.1787C1198.42 58.8536 1198.22 58.5641 1197.96 58.335C1197.7 58.1059 1197.4 57.9439 1197.06 57.8628C1185.46 54.9895 1173.44 53.9783 1161.01 54.8294C1160.43 54.8689 1159.85 54.7593 1159.33 54.5108C1158.81 54.2623 1158.36 53.8832 1158.02 53.409C1155.8 50.2827 1153.21 48.3055 1150.25 47.4775C1147.86 46.8089 1147.33 47.541 1148.65 49.6737C1150.06 51.9393 1151.62 54.0397 1153.33 55.975C1153.46 56.1177 1153.55 56.2852 1153.62 56.4673C1153.68 56.6494 1153.7 56.8423 1153.69 57.034C1153.67 57.2258 1153.62 57.4124 1153.53 57.5824C1153.44 57.7524 1153.32 57.9023 1153.17 58.0228Z" fill="#EA5E4F"/>
<path d="M1123.63 105.516C1120.46 107.318 1117.81 109.637 1115.68 112.474C1115.31 112.975 1115.28 113.527 1115.61 114.128C1115.72 114.311 1115.86 114.463 1116.04 114.572C1116.21 114.68 1116.41 114.741 1116.61 114.749C1122.78 115.021 1127.39 112.793 1130.45 108.065C1132.29 105.219 1135.95 104.34 1139.03 104.213C1150.47 103.769 1162.26 104.074 1173 99.7639C1177.74 97.8514 1182.65 91.1582 1175.52 88.0593C1173.35 87.1201 1170.44 86.7079 1166.82 86.8229C1153.8 87.221 1142.12 90.9366 1131.79 97.9695C1131.43 98.2145 1131 98.3337 1130.57 98.309C1130.14 98.2842 1129.73 98.1168 1129.4 97.8323C1125.15 94.1127 1120.5 92.3467 1115.45 92.5343C1115.16 92.5459 1114.88 92.6254 1114.63 92.7662C1114.39 92.907 1114.17 93.1052 1114.01 93.3446C1113.85 93.5839 1113.75 93.8576 1113.72 94.1433C1113.69 94.429 1113.72 94.7185 1113.82 94.9882C1115.47 99.6762 1118.7 102.831 1123.52 104.452C1123.63 104.484 1123.73 104.549 1123.8 104.637C1123.87 104.725 1123.92 104.834 1123.93 104.948C1123.94 105.062 1123.92 105.178 1123.86 105.279C1123.81 105.38 1123.73 105.463 1123.63 105.516Z" fill="#EA5E4F"/>
<rect x="72.5117" y="29.7266" width="92.817" height="74.9239" transform="rotate(0.742564 72.5117 29.7266)" fill="#FBE4E1"/>
<path d="M121.799 44.6948L126.538 48.8733C128.31 50.4256 128.027 51.1713 125.688 51.1106C122.18 51.0044 117.654 48.7733 114.551 47.381C114.274 47.2571 113.976 47.1912 113.676 47.1873C113.376 47.1834 113.079 47.2416 112.804 47.3584C101.392 52.1326 91.433 55.4369 80.0521 49.7596C78.5585 49.011 77.402 47.9832 76.5826 46.6762C76.3991 46.3804 76.288 46.0439 76.2588 45.6954C76.2296 45.347 76.2832 44.9968 76.4149 44.6748C76.5467 44.3528 76.7527 44.0685 77.0156 43.846C77.2784 43.6235 77.5902 43.4694 77.9244 43.397C89.5963 40.8238 101.637 40.1241 114.047 41.2977C114.622 41.3522 115.201 41.2575 115.729 41.0225C116.257 40.7875 116.717 40.4199 117.066 39.9544C119.366 36.8851 122.009 34.9748 124.996 34.2235C127.393 33.6165 127.906 34.3625 126.535 36.4615C125.062 38.6908 123.448 40.7511 121.691 42.6425C121.56 42.7819 121.459 42.947 121.394 43.1275C121.328 43.3081 121.3 43.5004 121.31 43.6925C121.32 43.8847 121.368 44.0728 121.452 44.2451C121.537 44.4175 121.654 44.5705 121.799 44.6948Z" fill="#EA5E4F"/>
<path d="M150.101 92.9629C153.223 94.8467 155.81 97.2349 157.864 100.128C158.225 100.639 158.233 101.191 157.887 101.784C157.779 101.964 157.63 102.113 157.453 102.217C157.277 102.321 157.079 102.376 156.879 102.379C150.704 102.491 146.15 100.143 143.216 95.3348C141.446 92.4406 137.815 91.4668 134.741 91.2598C123.311 90.5192 111.513 90.5182 100.895 85.9294C96.2023 83.8936 91.467 77.0719 98.6731 74.1573C100.875 73.2743 103.786 72.9373 107.408 73.1463C120.411 73.882 131.987 77.9009 142.137 85.203C142.491 85.4574 142.916 85.5878 143.348 85.5742C143.779 85.5605 144.194 85.4037 144.528 85.1276C148.876 81.5177 153.571 79.872 158.615 80.1905C158.899 80.2095 159.176 80.2962 159.421 80.4435C159.666 80.5908 159.874 80.7945 160.026 81.038C160.179 81.2815 160.273 81.5579 160.299 81.8445C160.326 82.1311 160.285 82.4199 160.18 82.6871C158.408 87.3331 155.092 90.4045 150.234 91.9012C150.125 91.9305 150.027 91.9924 149.952 92.0788C149.878 92.1653 149.83 92.2725 149.816 92.3865C149.802 92.5006 149.821 92.6164 149.872 92.7191C149.923 92.8218 150.003 92.9067 150.101 92.9629Z" fill="#EA5E4F"/>
<rect x="296.463" y="32.6357" width="54.1103" height="74.6485" transform="rotate(0.742567 296.463 32.6357)" fill="#FCF9E6"/>
<path d="M327.513 73.2165C324.788 75.7989 323.276 78.9826 322.977 82.7677C322.707 86.237 322.611 90.2062 322.689 94.6755C322.77 99.4465 321.249 106.085 315.453 107.029C308.666 108.127 300.873 107.754 300.388 99.0861C299.949 91.2155 300.008 83.2811 300.563 75.2829C301.166 66.5766 300.852 58.4383 301.48 49.9256C302.021 42.5363 304.748 34.9995 312.294 33.1384C319.464 31.3691 322.381 38.6891 321.944 44.2088C321.647 47.9119 319.789 57.858 324.615 59.5983C328.464 60.9922 331.75 58.4786 332.865 54.909C334.009 51.2257 331.797 43.8182 336.523 42.2456C339.879 41.1383 343.449 43.5475 344.513 46.6534C346.145 51.4181 344.53 58.4422 343.073 63.5709C341.897 67.7194 339.362 70.0378 335.47 70.5262C332.837 70.861 329.48 71.3533 327.513 73.2165Z" fill="#3D866B"/>
<rect width="54.1103" height="74.6485" transform="matrix(-0.999916 -0.0129599 -0.01296 0.999916 978.906 41.4805)" fill="#FCF9E6"/>
<path d="M946.815 81.2421C949.472 83.8943 950.901 87.1162 951.101 90.9077C951.282 94.3828 951.275 98.3532 951.081 102.819C950.876 107.586 952.225 114.262 957.994 115.356C964.751 116.629 972.551 116.458 973.26 107.806C973.903 99.9495 974.05 92.0163 973.702 84.0063C973.325 75.2874 973.849 67.1599 973.443 58.6339C973.093 51.2329 970.563 43.628 963.068 41.572C955.946 39.6174 952.84 46.8594 953.133 52.3885C953.335 56.0981 954.934 66.089 950.065 67.7037C946.181 68.9974 942.961 66.3994 941.939 62.8021C940.891 59.0904 943.294 51.7427 938.611 50.0481C935.284 48.8542 931.654 51.1702 930.509 54.2474C928.754 58.9682 930.187 66.0318 931.51 71.1965C932.579 75.3742 935.052 77.7575 938.93 78.3465C941.554 78.7495 944.897 79.3287 946.815 81.2421Z" fill="#3D866B"/>
<rect width="81.1159" height="74.9415" transform="matrix(0.999916 0.0129599 -0.0140381 0.999902 1202.83 44.0889)" fill="#BDE6EA"/>
<path d="M1202.68 58.6353C1210.61 58.738 1217.71 54.9424 1222.21 48.9905C1226.56 55.0569 1233.55 59.035 1241.49 59.1377C1249.42 59.2404 1256.51 55.4447 1261.02 49.4928C1265.36 55.5593 1272.36 59.5373 1280.29 59.6401L1279.97 84.3861C1272.03 84.2834 1265.04 80.3054 1260.69 74.2389C1256.19 80.1908 1249.1 83.9864 1241.16 83.8837C1233.23 83.781 1226.24 79.803 1221.89 73.7365C1217.39 79.6884 1210.29 83.4841 1202.36 83.3813L1202.68 58.6353Z" fill="#072C3F"/>
<path d="M1221.76 83.635C1217.26 89.5868 1210.17 93.3825 1202.23 93.2798L1201.91 118.026C1208.98 118.117 1215.63 116.275 1221.38 112.98C1227.05 116.423 1233.65 118.437 1240.72 118.528C1247.78 118.62 1254.43 116.777 1260.19 113.482C1265.85 116.925 1272.45 118.939 1279.52 119.031L1279.84 94.2845C1271.91 94.1818 1264.91 90.2038 1260.57 84.1373C1256.06 90.0892 1248.97 93.8849 1241.04 93.7821C1233.1 93.6794 1226.11 89.7014 1221.76 83.635Z" fill="#072C3F"/>
<rect width="79.58" height="74.7195" transform="matrix(-0.999916 -0.0129599 -0.0118819 0.999929 72.5068 29.7324)" fill="#BDE6EA"/>
<path d="M72.2836 43.8145C64.4066 43.7123 57.4612 39.9056 53.1424 34.1036C48.6746 39.7916 41.6328 43.4168 33.7558 43.3146C25.8788 43.2124 18.9334 39.4057 14.6145 33.6037C10.1468 39.2917 3.10506 42.9169 -4.77195 42.8147L-5.07855 66.4728C2.79847 66.575 9.84022 62.9498 14.3079 57.2618C18.6268 63.0638 25.5722 66.8705 33.4492 66.9727C41.3262 67.0749 48.368 63.4497 52.8358 57.7617C57.1546 63.5637 64.1 67.3704 71.977 67.4726L72.2836 43.8145Z" fill="#072C3F"/>
<path d="M52.7131 67.225C57.0319 73.027 63.9774 76.8337 71.8544 76.9359L71.5478 100.594C64.5302 100.503 57.9747 98.5743 52.3495 95.28C46.6409 98.4272 40.0376 100.185 33.02 100.094C26.0024 100.003 19.4469 98.0744 13.8217 94.7801C8.11306 97.9273 1.50981 99.6853 -5.50779 99.5942L-5.20119 75.9361C2.67583 76.0383 9.71758 72.4131 14.1853 66.7251C18.5041 72.5271 25.4496 76.3338 33.3266 76.436C41.2036 76.5382 48.2454 72.913 52.7131 67.225Z" fill="#072C3F"/>
<rect x="-37.8877" y="155.773" width="1436.1" height="74.6485" transform="rotate(0.744085 -37.8877 155.773)" fill="#072C3F"/>
<path d="M544.965 197.08L537.863 196.988C537.778 196.257 537.593 195.597 537.307 195.006C537.021 194.415 536.639 193.908 536.161 193.485C535.684 193.062 535.115 192.738 534.455 192.511C533.805 192.275 533.082 192.152 532.287 192.142C530.876 192.124 529.654 192.454 528.623 193.131C527.601 193.81 526.807 194.798 526.24 196.098C525.684 197.398 525.393 198.975 525.369 200.831C525.344 202.763 525.598 204.386 526.13 205.7C526.672 207.004 527.44 207.994 528.435 208.67C529.44 209.337 530.633 209.679 532.016 209.697C532.792 209.707 533.499 209.617 534.136 209.426C534.783 209.236 535.35 208.954 535.838 208.582C536.335 208.2 536.743 207.736 537.063 207.191C537.392 206.637 537.623 206.01 537.755 205.311L544.856 205.446C544.716 206.732 544.326 207.996 543.685 209.238C543.053 210.479 542.191 211.609 541.098 212.627C540.005 213.636 538.678 214.433 537.118 215.019C535.566 215.605 533.792 215.885 531.794 215.859C529.161 215.825 526.811 215.217 524.743 214.035C522.685 212.843 521.068 211.127 519.895 208.886C518.721 206.645 518.155 203.929 518.196 200.738C518.238 197.538 518.884 194.833 520.134 192.623C521.385 190.414 523.059 188.745 525.157 187.617C527.255 186.489 529.597 185.942 532.182 185.975C533.943 185.998 535.569 186.266 537.058 186.777C538.548 187.28 539.855 188.007 540.979 188.959C542.103 189.902 543.012 191.055 543.704 192.418C544.397 193.781 544.817 195.335 544.965 197.08ZM558.926 216.226C556.634 216.196 554.671 215.702 553.035 214.743C551.409 213.775 550.162 212.442 549.294 210.745C548.436 209.039 548.021 207.068 548.05 204.834C548.079 202.589 548.545 200.63 549.447 198.956C550.359 197.273 551.641 195.973 553.291 195.057C554.951 194.132 556.927 193.684 559.218 193.713C561.509 193.743 563.468 194.242 565.094 195.21C566.729 196.169 567.976 197.502 568.835 199.208C569.703 200.905 570.123 202.876 570.093 205.12C570.064 207.355 569.594 209.314 568.682 210.997C567.779 212.671 566.498 213.971 564.838 214.896C563.188 215.812 561.217 216.256 558.926 216.226ZM559.036 210.985C559.87 210.996 560.578 210.75 561.163 210.246C561.747 209.742 562.196 209.038 562.511 208.132C562.835 207.228 563.005 206.178 563.021 204.985C563.037 203.773 562.894 202.711 562.593 201.798C562.302 200.885 561.871 200.169 561.3 199.65C560.729 199.131 560.027 198.866 559.194 198.856C558.332 198.844 557.6 199.091 556.997 199.594C556.403 200.098 555.944 200.802 555.62 201.707C555.305 202.612 555.139 203.671 555.124 204.883C555.108 206.076 555.246 207.129 555.537 208.042C555.838 208.955 556.278 209.671 556.859 210.19C557.449 210.709 558.175 210.974 559.036 210.985ZM573.511 216.003L573.794 194.187L580.399 194.273L580.347 198.278L580.588 198.281C581.06 196.961 581.84 195.925 582.93 195.172C584.019 194.419 585.312 194.052 586.808 194.072C588.323 194.091 589.615 194.497 590.685 195.287C591.754 196.077 592.427 197.128 592.703 198.439L592.931 198.441C593.355 197.15 594.164 196.123 595.357 195.362C596.551 194.591 597.953 194.217 599.563 194.237C601.627 194.264 603.294 194.949 604.565 196.291C605.835 197.624 606.456 199.441 606.426 201.742L606.235 216.428L599.29 216.338L599.46 203.243C599.474 202.154 599.205 201.321 598.654 200.746C598.103 200.161 597.382 199.863 596.492 199.851C595.536 199.839 594.779 200.142 594.222 200.76C593.674 201.368 593.393 202.193 593.38 203.235L593.211 216.259L586.535 216.172L586.706 203.006C586.719 201.993 586.455 201.189 585.914 200.595C585.372 200.001 584.651 199.698 583.752 199.686C583.146 199.678 582.609 199.818 582.141 200.105C581.673 200.384 581.304 200.786 581.032 201.313C580.769 201.84 580.633 202.463 580.624 203.183L580.456 216.093L573.511 216.003ZM610.433 224.665L610.822 194.668L617.697 194.757L617.648 198.493L617.861 198.495C618.154 197.836 618.565 197.202 619.093 196.594C619.632 195.985 620.31 195.492 621.13 195.114C621.959 194.727 622.946 194.541 624.092 194.556C625.607 194.576 627.017 194.992 628.323 195.804C629.638 196.617 630.692 197.857 631.485 199.525C632.278 201.192 632.658 203.309 632.624 205.875C632.592 208.347 632.173 210.41 631.365 212.067C630.567 213.723 629.5 214.959 628.163 215.775C626.836 216.592 625.368 216.989 623.758 216.968C622.66 216.954 621.71 216.762 620.91 216.392C620.11 216.021 619.439 215.539 618.898 214.945C618.365 214.351 617.957 213.716 617.672 213.04L617.53 213.038L617.378 224.755L610.433 224.665ZM617.484 205.664C617.469 206.838 617.612 207.863 617.913 208.738C618.223 209.614 618.674 210.297 619.264 210.787C619.864 211.269 620.585 211.515 621.428 211.526C622.28 211.537 623.008 211.309 623.61 210.844C624.213 210.369 624.672 209.697 624.986 208.83C625.31 207.963 625.479 206.943 625.495 205.768C625.51 204.594 625.367 203.574 625.066 202.709C624.774 201.843 624.333 201.17 623.742 200.688C623.161 200.207 622.44 199.961 621.578 199.95C620.726 199.939 619.999 200.161 619.396 200.618C618.794 201.074 618.326 201.731 617.993 202.588C617.669 203.446 617.499 204.471 617.484 205.664ZM646.315 217.361C644.033 217.331 642.07 216.856 640.424 215.935C638.788 215.004 637.536 213.695 636.668 212.008C635.809 210.311 635.395 208.302 635.425 205.983C635.454 203.729 635.925 201.765 636.837 200.091C637.749 198.408 639.021 197.108 640.652 196.192C642.284 195.266 644.198 194.817 646.395 194.846C647.947 194.866 649.365 195.126 650.646 195.625C651.928 196.125 653.031 196.854 653.956 197.813C654.881 198.773 655.595 199.951 656.098 201.35C656.601 202.739 656.84 204.329 656.817 206.118L656.795 207.851L637.833 207.605L637.886 203.571L650.385 203.733C650.385 202.995 650.218 202.334 649.885 201.752C649.551 201.17 649.088 200.715 648.496 200.385C647.913 200.046 647.238 199.871 646.471 199.861C645.695 199.851 644.997 200.017 644.377 200.36C643.757 200.693 643.263 201.155 642.896 201.747C642.528 202.329 642.33 202.994 642.301 203.742L642.248 207.847C642.237 208.737 642.402 209.52 642.743 210.197C643.085 210.865 643.575 211.387 644.214 211.765C644.854 212.142 645.618 212.337 646.508 212.349C647.124 212.357 647.683 212.279 648.188 212.115C648.692 211.951 649.126 211.705 649.49 211.379C649.854 211.052 650.129 210.648 650.315 210.168L656.69 210.435C656.406 211.862 655.808 213.099 654.895 214.148C653.991 215.188 652.811 215.991 651.354 216.56C649.898 217.118 648.218 217.385 646.315 217.361ZM672.82 195.473L672.753 200.586L658.99 200.407L659.057 195.294L672.82 195.473ZM662.008 190.105L668.953 190.195L668.691 210.378C668.686 210.804 668.747 211.151 668.877 211.417C669.015 211.675 669.216 211.862 669.48 211.979C669.744 212.087 670.06 212.143 670.43 212.148C670.695 212.151 670.974 212.131 671.269 212.088C671.572 212.035 671.8 211.991 671.952 211.955L672.938 216.982C672.606 217.072 672.135 217.185 671.527 217.319C670.929 217.453 670.213 217.534 669.379 217.561C667.75 217.615 666.355 217.408 665.197 216.938C664.047 216.459 663.171 215.728 662.569 214.745C661.975 213.762 661.698 212.532 661.736 211.055L662.008 190.105ZM676.08 217.335L676.364 195.519L683.309 195.609L683.026 217.426L676.08 217.335ZM679.876 193.022C678.901 193.009 678.067 192.676 677.375 192.023C676.683 191.361 676.343 190.57 676.354 189.652C676.366 188.743 676.727 187.971 677.436 187.336C678.145 186.692 678.987 186.376 679.962 186.389C680.947 186.402 681.781 186.739 682.464 187.402C683.156 188.055 683.496 188.836 683.485 189.745C683.473 190.663 683.112 191.444 682.403 192.089C681.703 192.724 680.861 193.035 679.876 193.022ZM700.044 195.827L699.978 200.94L686.215 200.761L686.281 195.648L700.044 195.827ZM689.232 190.458L696.178 190.549L695.915 210.732C695.91 211.158 695.972 211.504 696.101 211.771C696.24 212.029 696.441 212.216 696.704 212.333C696.968 212.44 697.285 212.497 697.654 212.501C697.919 212.505 698.199 212.485 698.493 212.441C698.797 212.388 699.025 212.344 699.177 212.308L700.162 217.336C699.83 217.426 699.36 217.538 698.752 217.672C698.153 217.807 697.437 217.887 696.603 217.914C694.974 217.969 693.58 217.762 692.421 217.292C691.272 216.813 690.396 216.082 689.793 215.098C689.2 214.115 688.922 212.885 688.96 211.408L689.232 190.458ZM703.304 217.689L703.588 195.873L710.533 195.963L710.25 217.779L703.304 217.689ZM707.101 193.375C706.125 193.363 705.291 193.03 704.599 192.377C703.907 191.714 703.567 190.924 703.579 190.006C703.591 189.096 703.951 188.325 704.66 187.69C705.369 187.046 706.211 186.73 707.187 186.742C708.172 186.755 709.005 187.093 709.688 187.755C710.38 188.408 710.721 189.189 710.709 190.098C710.697 191.017 710.336 191.798 709.627 192.442C708.928 193.077 708.085 193.388 707.101 193.375ZM724.849 218.381C722.558 218.351 720.594 217.857 718.959 216.898C717.333 215.93 716.086 214.597 715.218 212.9C714.359 211.194 713.944 209.223 713.973 206.989C714.003 204.744 714.468 202.785 715.371 201.111C716.283 199.428 717.564 198.128 719.214 197.212C720.874 196.287 722.85 195.839 725.141 195.868C727.433 195.898 729.392 196.397 731.017 197.365C732.653 198.324 733.9 199.657 734.758 201.363C735.627 203.06 736.046 205.031 736.017 207.275C735.988 209.509 735.517 211.468 734.605 213.152C733.703 214.826 732.422 216.126 730.762 217.051C729.111 217.967 727.141 218.41 724.849 218.381ZM724.96 213.14C725.793 213.151 726.502 212.905 727.086 212.401C727.67 211.897 728.12 211.192 728.435 210.287C728.759 209.382 728.929 208.333 728.944 207.14C728.96 205.928 728.818 204.866 728.517 203.953C728.226 203.04 727.795 202.324 727.224 201.805C726.653 201.286 725.951 201.021 725.117 201.011C724.256 200.999 723.523 201.246 722.92 201.749C722.326 202.253 721.867 202.957 721.543 203.862C721.228 204.767 721.063 205.826 721.047 207.038C721.032 208.231 721.17 209.284 721.461 210.197C721.761 211.11 722.202 211.826 722.782 212.345C723.372 212.864 724.098 213.129 724.96 213.14ZM746.541 205.806L746.38 218.248L739.434 218.158L739.718 196.342L746.322 196.428L746.27 200.433L746.512 200.436C747.012 199.107 747.849 198.072 749.024 197.329C750.198 196.577 751.59 196.212 753.2 196.233C754.734 196.253 756.06 196.616 757.178 197.322C758.305 198.018 759.173 198.986 759.782 200.225C760.401 201.455 760.695 202.888 760.664 204.526L760.484 218.432L753.538 218.341L753.701 205.8C753.726 204.588 753.431 203.637 752.815 202.947C752.208 202.257 751.356 201.905 750.257 201.891C749.528 201.882 748.882 202.034 748.319 202.349C747.766 202.654 747.334 203.099 747.023 203.682C746.722 204.265 746.562 204.973 746.541 205.806Z" fill="#FEFEFA"/>
<rect x="74.665" y="157.235" width="74.6486" height="74.6485" transform="rotate(0.744085 74.665 157.235)" fill="#3D866B"/>
<path d="M73.6956 231.878L92.3562 232.12L74.665 157.235L73.6956 231.878Z" fill="#BED6CD"/>
<path d="M111.019 232.363L129.679 232.605L111.988 157.721L111.019 232.363Z" fill="#BED6CD"/>
<path d="M92.3548 232.12L111.015 232.362L93.3242 157.478L92.3548 232.12Z" fill="#BED6CD"/>
<path d="M129.677 232.605L148.338 232.847L130.646 157.963L129.677 232.605Z" fill="#BED6CD"/>
<rect width="74.6486" height="74.6485" transform="matrix(-0.999916 -0.0129864 -0.0129866 0.999916 1204.96 171.916)" fill="#3D866B"/>
<path d="M1204 246.558L1185.33 246.316L1204.96 171.916L1204 246.558Z" fill="#BED6CD"/>
<path d="M1166.68 246.073L1148.01 245.83L1167.64 171.431L1166.68 246.073Z" fill="#BED6CD"/>
<path d="M1185.33 246.315L1166.67 246.073L1186.3 171.673L1185.33 246.315Z" fill="#BED6CD"/>
<path d="M1148.01 245.831L1129.35 245.588L1148.98 171.188L1148.01 245.831Z" fill="#BED6CD"/>
<rect x="221.579" y="159.144" width="74.6486" height="74.6485" transform="rotate(0.744085 221.579 159.144)" fill="#072C3F"/>
<path d="M295.254 234.755L220.612 233.785C221.807 224.806 228.634 217.966 236.784 218.072C236.885 218.073 236.986 218.076 237.087 218.079C241.477 212.748 248.124 209.389 255.521 209.485C265.221 209.611 273.474 215.64 276.979 224.147C278.224 223.846 279.53 223.694 280.875 223.711C287.916 223.803 293.758 228.507 295.254 234.755Z" fill="#9CDADF"/>
<path d="M295.575 209.743L220.932 208.773C222.127 199.794 228.954 192.955 237.104 193.06C237.206 193.062 237.307 193.064 237.407 193.068C241.798 187.736 248.444 184.378 255.842 184.474C265.541 184.6 273.795 190.628 277.3 199.135C278.544 198.834 279.85 198.682 281.195 198.699C288.236 198.791 294.079 203.495 295.575 209.743Z" fill="#9CDADF"/>
<path d="M295.9 184.73L221.258 183.761C222.452 174.782 229.279 167.942 237.43 168.048C237.531 168.049 237.632 168.051 237.732 168.055C242.123 162.723 248.769 159.365 256.167 159.461C265.866 159.587 274.12 165.616 277.625 174.122C278.869 173.821 280.175 173.669 281.521 173.687C288.561 173.778 294.404 178.482 295.9 184.73Z" fill="#9CDADF"/>
<rect width="74.6486" height="74.6485" transform="matrix(-0.999916 -0.0129864 -0.0129866 0.999916 1058.05 170.007)" fill="#072C3F"/>
<path d="M982.439 243.679L1057.08 244.648C1056.12 235.641 1049.47 228.627 1041.32 228.521C1041.22 228.519 1041.12 228.519 1041.02 228.52C1036.77 223.076 1030.21 219.546 1022.81 219.45C1013.12 219.324 1004.71 225.137 1000.98 233.549C999.747 233.216 998.445 233.03 997.1 233.013C990.059 232.921 984.096 237.472 982.439 243.679Z" fill="#9CDADF"/>
<path d="M982.761 218.667L1057.4 219.637C1056.44 210.63 1049.79 203.615 1041.64 203.509C1041.54 203.508 1041.44 203.507 1041.34 203.508C1037.09 198.064 1030.53 194.535 1023.14 194.438C1013.44 194.313 1005.03 200.125 1001.31 208.538C1000.07 208.205 998.768 208.019 997.422 208.001C990.382 207.91 984.419 212.461 982.761 218.667Z" fill="#9CDADF"/>
<path d="M983.088 193.655L1057.73 194.624C1056.77 185.617 1050.12 178.602 1041.97 178.496C1041.87 178.495 1041.77 178.495 1041.67 178.496C1037.42 173.052 1030.86 169.522 1023.46 169.426C1013.76 169.3 1005.36 175.112 1001.63 183.525C1000.4 183.192 999.095 183.006 997.749 182.988C990.709 182.897 984.746 187.448 983.088 193.655Z" fill="#9CDADF"/>
<path d="M182.93 207.538C182.879 207.602 182.842 207.677 182.823 207.757C182.803 207.837 182.801 207.92 182.816 208C182.831 208.081 182.863 208.158 182.91 208.225C182.958 208.292 183.019 208.349 183.09 208.391C184.56 209.268 186.584 208.95 188.132 208.449C190.541 207.666 193.11 206.569 195.837 205.156C198.865 203.585 201.688 202.252 204.304 201.156C205.943 200.471 209.518 199.448 209.492 202.574C209.448 207.69 205.555 210.318 201.111 211.681C198.598 212.45 195.984 212.995 193.268 213.318C189.703 213.74 186.149 214.092 182.607 214.374C181.772 214.44 180.916 214.549 180.04 214.703C178.76 214.923 176.978 215.137 176.07 216.132C174.978 217.323 177.228 218.474 178.053 218.695C182.132 219.791 186.568 219.927 190.643 220.453C192.337 220.671 194.531 221.022 195.878 221.986C197.589 223.211 195.969 225.258 194.65 225.899C192.198 227.092 188.577 226.845 185.927 226.378C181.607 225.624 178.202 225.084 175.713 224.758C171.444 224.204 168.476 225.647 166.807 229.085C166.231 230.273 165.967 231.701 165.56 232.987C165.552 233.014 165.534 233.037 165.509 233.052C165.484 233.067 165.454 233.072 165.426 233.067L162.896 232.542C162.824 232.526 162.794 232.482 162.805 232.411C162.988 231.264 163.012 230.156 162.878 229.086C162.242 223.998 159.658 218.763 157.053 214.32C154.924 210.684 153.107 207.495 151.603 204.752C150.939 203.541 148.871 199.5 150.669 198.547C154.275 196.626 156.9 203.256 157.723 205.62C158.594 208.115 159.461 210.645 160.324 213.212C160.632 214.128 161.047 214.947 161.57 215.669C161.971 216.22 162.385 216.224 162.81 215.682C163.894 214.309 163.606 212.466 163.176 210.948C162.594 208.895 161.685 206.631 160.449 204.153C158.978 201.199 157.554 198.34 156.179 195.578C154.944 193.101 152.006 186.822 154.131 184.782C157.2 181.836 159.939 189.115 160.584 190.933C161.769 194.263 162.916 197.506 164.027 200.663C164.381 201.666 165.313 203.95 166.422 204.364C166.486 204.388 166.554 204.397 166.622 204.388C166.689 204.379 166.754 204.353 166.809 204.313C168.005 203.456 167.886 202.03 167.888 200.72C167.89 200.032 167.846 199.364 167.758 198.717C167.453 196.518 167.093 194.497 166.678 192.654C165.508 187.457 164.748 183.537 164.399 180.894C164.175 179.211 163.922 176.714 164.811 175.165C165.506 173.957 167.038 173.817 167.858 174.997C168.23 175.527 168.497 176.071 168.658 176.628C169.151 178.319 169.463 180.152 169.593 182.126C169.8 185.271 170.015 188.459 170.238 191.691C170.338 193.135 170.631 194.436 171.119 195.594C171.166 195.706 171.24 195.805 171.335 195.881C171.43 195.958 171.542 196.009 171.662 196.032C171.781 196.054 171.905 196.047 172.021 196.01C172.137 195.973 172.242 195.908 172.327 195.821C172.894 195.231 173.258 194.448 173.419 193.471C173.755 191.47 173.935 189.457 173.958 187.433C174.015 182.274 174.225 177.763 174.587 173.901C174.932 170.198 176.078 163.225 180.854 162.606C184.329 162.155 182.002 169.772 181.56 171.168C180.414 174.794 179.219 178.526 177.976 182.365C177.446 184.008 176.053 188.607 177.071 189.993C179.056 192.686 183.403 183.386 183.949 182.243C186.097 177.732 188.14 173.507 190.078 169.566C191.272 167.136 196.004 157.938 199.475 158.923C200.782 159.292 201.287 160.221 200.987 161.709C200.694 163.153 200.122 164.652 199.273 166.204C195.841 172.482 191.529 178.216 187.352 184.148C185.703 186.49 183.935 189.057 183.002 191.683C182.938 191.867 182.949 192.069 183.033 192.244C183.117 192.42 183.267 192.555 183.45 192.621C184.304 192.924 186.049 191.859 186.738 191.398C189.191 189.753 191.71 187.857 194.295 185.71C198.603 182.138 202.301 179.161 205.389 176.779C206.942 175.582 214.622 169.611 216.495 171.855C218.656 174.443 213.32 178.947 211.511 180.381C205.402 185.222 198.656 189.348 192.022 193.468C189.244 195.191 186.787 196.891 184.651 198.57C184.24 198.893 183.875 199.304 183.554 199.803C183.524 199.849 183.504 199.902 183.496 199.956C183.487 200.011 183.491 200.067 183.507 200.121C183.522 200.174 183.549 200.224 183.585 200.266C183.622 200.309 183.667 200.343 183.717 200.367C185.164 201.045 187.846 199.862 189.27 199.185C197.716 195.155 205.261 189.515 213.657 185.329C214.741 184.788 219.59 182.613 219.25 185.579C218.957 188.106 217.06 190.379 214.933 192.005C212.17 194.117 208.897 196.016 205.114 197.7C200.532 199.74 195.825 201.657 190.994 203.451C188.451 204.395 186.131 205.43 184.034 206.557C183.642 206.77 183.206 207.183 182.93 207.538Z" fill="#FCF9E6"/>
<path d="M1095.43 219.39C1095.48 219.456 1095.52 219.531 1095.53 219.611C1095.55 219.692 1095.55 219.775 1095.54 219.855C1095.52 219.935 1095.48 220.011 1095.43 220.077C1095.39 220.143 1095.32 220.198 1095.25 220.238C1093.76 221.077 1091.74 220.707 1090.21 220.165C1087.82 219.32 1085.28 218.157 1082.59 216.674C1079.61 215.025 1076.82 213.618 1074.23 212.455C1072.61 211.728 1069.06 210.612 1069.01 213.738C1068.92 218.853 1072.74 221.581 1077.15 223.059C1079.64 223.893 1082.24 224.506 1084.95 224.899C1088.5 225.414 1092.05 225.858 1095.58 226.232C1096.41 226.319 1097.26 226.451 1098.14 226.628C1099.41 226.881 1101.19 227.141 1102.07 228.159C1103.13 229.379 1100.85 230.47 1100.02 230.67C1095.91 231.66 1091.47 231.68 1087.39 232.1C1085.69 232.274 1083.49 232.568 1082.11 233.497C1080.37 234.677 1081.94 236.765 1083.24 237.44C1085.66 238.696 1089.29 238.544 1091.95 238.146C1096.29 237.504 1099.7 237.053 1102.2 236.791C1106.48 236.349 1109.41 237.868 1110.99 241.349C1111.54 242.551 1111.76 243.985 1112.14 245.281C1112.14 245.309 1112.16 245.333 1112.19 245.348C1112.21 245.363 1112.24 245.369 1112.27 245.365L1114.81 244.906C1114.88 244.892 1114.91 244.849 1114.91 244.777C1114.75 243.626 1114.76 242.517 1114.92 241.452C1115.69 236.382 1118.41 231.216 1121.13 226.841C1123.35 223.262 1125.25 220.121 1126.82 217.419C1127.52 216.225 1129.69 212.24 1127.92 211.24C1124.36 209.225 1121.57 215.785 1120.68 218.127C1119.75 220.598 1118.81 223.106 1117.88 225.649C1117.55 226.557 1117.12 227.365 1116.57 228.073C1116.16 228.613 1115.75 228.606 1115.33 228.054C1114.29 226.653 1114.62 224.818 1115.09 223.311C1115.73 221.275 1116.69 219.034 1117.99 216.59C1119.54 213.675 1121.04 210.855 1122.49 208.128C1123.78 205.685 1126.88 199.484 1124.81 197.389C1121.82 194.365 1118.89 201.57 1118.2 203.371C1116.93 206.669 1115.7 209.881 1114.51 213.008C1114.13 214.002 1113.14 216.26 1112.02 216.646C1111.95 216.668 1111.88 216.675 1111.82 216.664C1111.75 216.654 1111.69 216.627 1111.63 216.585C1110.46 215.697 1110.61 214.274 1110.65 212.965C1110.66 212.277 1110.72 211.611 1110.83 210.966C1111.19 208.776 1111.6 206.765 1112.07 204.933C1113.37 199.769 1114.23 195.869 1114.65 193.236C1114.92 191.56 1115.24 189.07 1114.39 187.498C1113.72 186.272 1112.2 186.093 1111.34 187.251C1110.96 187.772 1110.68 188.308 1110.5 188.861C1109.97 190.538 1109.61 192.363 1109.43 194.333C1109.14 197.472 1108.84 200.653 1108.53 203.878C1108.4 205.319 1108.07 206.612 1107.55 207.757C1107.5 207.867 1107.42 207.964 1107.33 208.038C1107.23 208.112 1107.12 208.161 1107 208.18C1106.88 208.2 1106.75 208.189 1106.64 208.149C1106.52 208.109 1106.42 208.041 1106.34 207.952C1105.79 207.348 1105.44 206.555 1105.31 205.574C1105.02 203.566 1104.89 201.549 1104.92 199.524C1105 194.366 1104.91 189.851 1104.65 185.981C1104.4 182.27 1103.43 175.269 1098.67 174.527C1095.21 173.986 1097.34 181.661 1097.75 183.068C1098.8 186.722 1099.9 190.484 1101.04 194.354C1101.53 196.01 1102.8 200.644 1101.75 202.003C1099.69 204.643 1095.59 195.234 1095.07 194.077C1093.04 189.512 1091.11 185.235 1089.27 181.245C1088.14 178.785 1083.65 169.467 1080.16 170.361C1078.84 170.697 1078.31 171.612 1078.57 173.108C1078.83 174.559 1079.36 176.072 1080.17 177.646C1083.44 184.011 1087.6 189.855 1091.62 195.893C1093.21 198.277 1094.91 200.889 1095.77 203.538C1095.83 203.724 1095.82 203.925 1095.73 204.099C1095.64 204.272 1095.49 204.404 1095.3 204.464C1094.44 204.745 1092.72 203.635 1092.05 203.157C1089.64 201.448 1087.17 199.487 1084.64 197.274C1080.43 193.592 1076.81 190.52 1073.78 188.058C1072.26 186.821 1064.74 180.653 1062.81 182.847C1060.58 185.379 1065.8 190.019 1067.57 191.5C1073.55 196.498 1080.18 200.798 1086.71 205.089C1089.44 206.883 1091.85 208.647 1093.95 210.381C1094.35 210.714 1094.7 211.134 1095.01 211.641C1095.04 211.688 1095.06 211.741 1095.06 211.796C1095.07 211.851 1095.07 211.907 1095.05 211.96C1095.03 212.013 1095 212.062 1094.97 212.104C1094.93 212.145 1094.88 212.178 1094.83 212.201C1093.37 212.841 1090.72 211.589 1089.31 210.875C1080.97 206.627 1073.58 200.793 1065.29 196.39C1064.22 195.822 1059.43 193.521 1059.7 196.495C1059.92 199.029 1061.76 201.35 1063.84 203.031C1066.55 205.214 1069.77 207.197 1073.51 208.979C1078.04 211.137 1082.69 213.176 1087.48 215.095C1090 216.104 1092.29 217.199 1094.35 218.381C1094.74 218.604 1095.17 219.027 1095.43 219.39Z" fill="#FCF9E6"/>
<rect x="296.223" y="160.113" width="74.6486" height="74.6485" transform="rotate(0.744085 296.223 160.113)" fill="#FBE4E1"/>
<path d="M366.033 198.545L366.458 165.766L356.733 175.242C350.878 169.233 342.731 165.457 333.679 165.34C324.627 165.222 316.385 168.785 310.376 174.64L321.814 186.379C324.819 183.452 328.94 181.671 333.466 181.729C337.992 181.788 342.065 183.676 344.993 186.68L333.253 198.119L300.474 197.693L300.048 230.473L309.774 220.997C315.628 227.006 323.776 230.781 332.827 230.899C341.879 231.016 350.122 227.454 356.131 221.599L344.692 209.859C341.687 212.786 337.566 214.568 333.04 214.509C328.514 214.45 324.441 212.562 321.513 209.558L333.253 198.119L366.033 198.545Z" fill="#EA5E4F"/>
<rect width="74.6486" height="74.6485" transform="matrix(-0.999916 -0.0129864 -0.0129866 0.999916 983.405 169.037)" fill="#FBE4E1"/>
<path d="M912.621 205.643L913.047 172.863L922.523 182.589C928.532 176.734 936.774 173.172 945.826 173.289C954.878 173.407 963.025 177.182 968.88 183.191L957.14 194.63C954.213 191.625 950.139 189.738 945.613 189.679C941.087 189.62 936.966 191.401 933.962 194.329L945.4 206.068L978.18 206.494L977.754 239.274L968.278 229.548C962.269 235.403 954.026 238.965 944.975 238.848C935.923 238.73 927.776 234.955 921.921 228.946L933.661 217.507C936.588 220.512 940.662 222.399 945.187 222.458C949.713 222.517 953.835 220.736 956.839 217.808L945.4 206.068L912.621 205.643Z" fill="#EA5E4F"/>
<rect width="82.7125" height="74.5112" transform="matrix(0.999916 0.0129864 -0.0140647 0.999901 1205.04 172.054)" fill="#EA5E4F"/>
<path d="M1248.88 174.926L1235.49 174.751L1235.41 181.303C1235.36 184.922 1238.32 187.894 1242.02 187.943C1245.72 187.991 1248.75 185.097 1248.8 181.478L1248.88 174.926Z" fill="#FCF9E6"/>
<path d="M1241.45 231.624C1237.75 231.576 1234.71 234.47 1234.67 238.089L1234.58 244.641L1247.97 244.816L1248.06 238.264C1248.11 234.645 1245.15 231.672 1241.45 231.624Z" fill="#FCF9E6"/>
<path d="M1262.63 180.708L1271.98 190.098L1267.19 194.669C1264.54 197.194 1260.3 197.139 1257.72 194.546C1255.14 191.953 1255.19 187.804 1257.84 185.279L1262.63 180.708Z" fill="#FCF9E6"/>
<path d="M1225.75 225.021C1223.17 222.428 1218.93 222.373 1216.28 224.897L1211.48 229.469L1220.83 238.858L1225.63 234.287C1228.28 231.762 1228.33 227.614 1225.75 225.021Z" fill="#FCF9E6"/>
<path d="M1277.36 216.802L1270.66 216.714C1266.97 216.666 1264.01 213.693 1264.05 210.075C1264.1 206.456 1267.14 203.562 1270.84 203.61L1277.53 203.697L1277.36 216.802Z" fill="#FCF9E6"/>
<path d="M1219.41 209.492C1219.46 205.873 1216.5 202.901 1212.8 202.852L1206.1 202.765L1205.93 215.869L1212.63 215.957C1216.33 216.005 1219.36 213.111 1219.41 209.492Z" fill="#FCF9E6"/>
<path d="M1261.87 239.394L1257.19 234.699C1254.61 232.106 1254.67 227.958 1257.31 225.433C1259.96 222.908 1264.2 222.964 1266.78 225.557L1271.46 230.252L1261.87 239.394Z" fill="#FCF9E6"/>
<path d="M1226.15 194.134C1228.8 191.609 1228.85 187.46 1226.27 184.867L1221.6 180.173L1212.01 189.315L1216.68 194.01C1219.26 196.603 1223.5 196.658 1226.15 194.134Z" fill="#FCF9E6"/>
<path d="M1241.5 227.256C1251.37 227.385 1259.46 219.666 1259.59 210.016C1259.72 200.367 1251.82 192.44 1241.96 192.311C1232.1 192.182 1224 199.9 1223.88 209.55C1223.75 219.2 1231.64 227.127 1241.5 227.256Z" fill="#FCF9E6"/>
<rect width="83.4555" height="74.5112" transform="matrix(0.999916 0.0129864 -0.0140647 0.999901 -8.83887 156.288)" fill="#EA5E4F"/>
<path d="M43.9435 159.276L30.5511 159.101L30.4656 165.654C30.4183 169.272 33.378 172.245 37.0763 172.293C40.7745 172.342 43.8108 169.447 43.858 165.828L43.9435 159.276Z" fill="#FCF9E6"/>
<path d="M36.506 215.975C32.8078 215.926 29.7715 218.821 29.7243 222.439L29.6388 228.992L43.0312 229.166L43.1167 222.614C43.164 218.996 40.2043 216.023 36.506 215.975Z" fill="#FCF9E6"/>
<path d="M57.6923 165.059L67.0412 174.449L62.2458 179.02C59.5973 181.544 55.3575 181.489 52.7759 178.896C50.1942 176.303 50.2484 172.155 52.8968 169.63L57.6923 165.059Z" fill="#FCF9E6"/>
<path d="M20.8064 209.371C18.2248 206.779 13.985 206.723 11.3366 209.248L6.54114 213.819L15.8901 223.209L20.6855 218.638C23.3339 216.113 23.3881 211.964 20.8064 209.371Z" fill="#FCF9E6"/>
<path d="M72.4188 201.152L65.7226 201.065C62.0243 201.017 59.0646 198.044 59.1119 194.425C59.1591 190.807 62.1954 187.912 65.8936 187.96L72.5898 188.048L72.4188 201.152Z" fill="#FCF9E6"/>
<path d="M14.4704 193.843C14.5177 190.224 11.558 187.251 7.85975 187.203L1.16354 187.116L0.992474 200.22L7.68869 200.307C11.3869 200.356 14.4232 197.461 14.4704 193.843Z" fill="#FCF9E6"/>
<path d="M56.9262 223.745L52.2518 219.05C49.6702 216.457 49.7243 212.308 52.3728 209.784C55.0212 207.259 59.261 207.314 61.8426 209.907L66.5171 214.602L56.9262 223.745Z" fill="#FCF9E6"/>
<path d="M21.2097 178.484C23.8582 175.96 23.9123 171.811 21.3307 169.218L16.6562 164.523L7.06538 173.666L11.7398 178.361C14.3215 180.954 18.5613 181.009 21.2097 178.484Z" fill="#FCF9E6"/>
<path d="M36.5631 211.606C46.425 211.735 54.5218 204.017 54.6477 194.367C54.7737 184.717 46.8812 176.79 37.0192 176.661C27.1573 176.533 19.0606 184.251 18.9346 193.901C18.8086 203.551 26.7012 211.478 36.5631 211.606Z" fill="#FCF9E6"/>
</svg>
