<svg width="52" height="48" viewBox="0 0 52 48" fill="none" xmlns="http://www.w3.org/2000/svg">
<g filter="url(#filter0_d_6241_504)">
<path d="M33.3064 32.3917C28.7995 35.3799 26.5968 38.5971 26.0588 39.8322L26.0893 35.8729V32.7503C26.4303 32.1049 28.7589 30.051 29.8806 29.1048C31.0784 28.1237 34.4849 25.7939 38.529 24.3238C42.573 22.8536 46.2842 23.4622 47.6342 23.9503C45.1858 24.01 44.0459 25.4493 43.782 26.1615C46.1329 27.0699 47.0455 27.8448 47.2079 28.1187C44.6499 27.6257 43.7668 27.8199 42.4116 28.1187C41.0565 28.4175 38.9401 28.6566 33.3064 32.3917Z" fill="url(#paint0_linear_6241_504)"/>
<path d="M18.8873 32.3891C23.3943 35.3772 25.597 38.5944 26.1349 39.8295L26.1045 35.8703V32.7477C25.7634 32.1022 23.4349 30.0484 22.3132 29.1021C21.1154 28.121 17.7088 25.7913 13.6648 24.3211C9.62073 22.851 5.90962 23.4596 4.55957 23.9476C7.00793 24.0074 8.14785 25.4467 8.41177 26.1588C6.06086 27.0672 5.14831 27.8422 4.9859 28.1161C7.54389 27.623 8.427 27.8173 9.78212 28.1161C11.1372 28.4149 13.2537 28.6539 18.8873 32.3891Z" fill="url(#paint1_linear_6241_504)"/>
</g>
<path d="M31.4035 12.4903C31.306 13.8051 30.632 14.3629 30.3072 14.4775C29.7469 13.7005 34.063 20.4388 36.291 23.905C37.098 22.4856 38.0268 18.3919 35.3318 14.4775C33.1758 11.3459 31.5507 10.2741 31.0076 10.1297C31.373 10.7722 31.5253 10.8469 31.4035 12.4903Z" fill="url(#paint2_linear_6241_504)"/>
<path d="M20.8785 12.4605C20.9759 13.7752 21.6499 14.333 21.9747 14.4476C22.5351 13.6707 18.219 20.4089 15.9909 23.8751C15.1839 22.4558 14.2551 18.362 16.9501 14.4476C19.1061 11.316 20.7313 10.2443 21.2743 10.0998C20.9089 10.7423 20.7566 10.817 20.8785 12.4605Z" fill="url(#paint3_linear_6241_504)"/>
<path d="M30.292 14.5073C27.4782 12.0929 26.3586 9.75621 26.1505 8.88965V21.141C28.4039 21.141 29.5154 22.9637 29.7895 23.8751H36.2606C36.3215 21.9777 33.8092 17.5253 30.292 14.5073Z" fill="url(#paint4_linear_6241_504)"/>
<path d="M22.0101 14.5223C24.8238 12.1079 25.9435 9.77115 26.1516 8.90459V21.1559C23.8981 21.1559 22.7866 22.9787 22.5125 23.8901H16.0414C15.9805 21.9926 18.4928 17.5403 22.0101 14.5223Z" fill="url(#paint5_linear_6241_504)"/>
<path d="M30.2314 14.4023C31.5307 15.6224 34.1293 18.2329 34.1293 18.9144" stroke="url(#paint6_linear_6241_504)"/>
<path d="M22.0703 14.4023C20.8928 15.7598 18.5379 18.6642 18.5379 19.4224" stroke="url(#paint7_linear_6241_504)"/>
<path d="M27.9319 28.8057C26.458 30.4265 26.2063 31.3337 26.1961 31.5996C26.1961 30.7572 25.0034 29.3959 24.4756 28.8057C26.0835 29.4183 27.4497 29.0609 27.9319 28.8057Z" fill="url(#paint8_linear_6241_504)"/>
<path d="M21.7655 26.0866C18.2574 25.7878 16.4972 24.4979 16.0557 23.8903C17.5935 23.457 20.4865 20.9769 20.791 20.3494C21.0346 19.8474 22.1106 18.6462 22.6181 18.1083C21.9603 18.0485 21.7959 17.9639 21.7959 17.929C24.902 15.419 25.9932 12.9787 26.1506 12.0723V29.3885C23.4586 29.3885 22.1055 27.1872 21.7655 26.0866Z" fill="url(#paint9_linear_6241_504)"/>
<path d="M30.5357 26.0866C34.0438 25.7878 35.8039 24.4979 36.2455 23.8903C34.7076 23.457 31.8147 20.9769 31.5102 20.3494C31.2665 19.8474 30.1906 18.6462 29.683 18.1083C30.3408 18.0485 30.5052 17.9639 30.5052 17.929C27.3991 15.419 26.3079 12.9787 26.1506 12.0723V29.3885C28.8425 29.3885 30.1956 27.1872 30.5357 26.0866Z" fill="url(#paint10_linear_6241_504)"/>
<ellipse cx="26.181" cy="25.1602" rx="3.71517" ry="3.64552" fill="#FDFFFC"/>
<ellipse cx="26.1656" cy="25.1449" rx="2.51231" ry="2.46521" fill="url(#paint11_linear_6241_504)"/>
<path d="M39.1228 10.2346C42.4117 13.4259 41.559 18.4868 40.7216 20.6183C43.4014 17.188 43.919 14.0395 43.8429 12.894C43.9952 11.4249 43.2186 7.70067 38.8944 4.55715C34.5702 1.41364 28.6371 0.767211 26.2111 0.836934V4.55715C32.1493 5.1249 35.0118 6.24545 39.1228 10.2346Z" fill="url(#paint12_linear_6241_504)"/>
<path d="M13.2864 10.2395C9.99756 13.4308 10.8502 18.4917 11.6877 20.6233C9.00787 17.1929 8.49018 14.0444 8.56631 12.8989C8.41405 11.4298 9.19058 7.70557 13.5148 4.56206C17.839 1.41854 23.7851 0.767211 26.2111 0.836934L26.2622 4.56206C20.324 5.1298 17.3974 6.25035 13.2864 10.2395Z" fill="url(#paint13_linear_6241_504)"/>
<path d="M26.0596 39.7974V36.0499C19.3392 26.3052 8.33892 26.4997 4.98645 28.1137C11.7686 27.7331 20.0189 31.1471 26.0596 39.7974Z" fill="url(#paint14_linear_6241_504)"/>
<path d="M26.0586 39.7974V36.0499C32.779 26.3052 43.7793 26.4997 47.1318 28.1137C40.3496 27.7331 32.0992 31.1471 26.0586 39.7974Z" fill="url(#paint15_linear_6241_504)"/>
<defs>
<filter id="filter0_d_6241_504" x="0.55957" y="23.3975" width="51.0742" height="24.4346" filterUnits="userSpaceOnUse" color-interpolation-filters="sRGB">
<feFlood flood-opacity="0" result="BackgroundImageFix"/>
<feColorMatrix in="SourceAlpha" type="matrix" values="0 0 0 0 0 0 0 0 0 0 0 0 0 0 0 0 0 0 127 0" result="hardAlpha"/>
<feOffset dy="4"/>
<feGaussianBlur stdDeviation="2"/>
<feComposite in2="hardAlpha" operator="out"/>
<feColorMatrix type="matrix" values="0 0 0 0 0 0 0 0 0 0 0 0 0 0 0 0 0 0 0.25 0"/>
<feBlend mode="normal" in2="BackgroundImageFix" result="effect1_dropShadow_6241_504"/>
<feBlend mode="normal" in="SourceGraphic" in2="effect1_dropShadow_6241_504" result="shape"/>
</filter>
<linearGradient id="paint0_linear_6241_504" x1="26.0969" y1="23.3975" x2="26.0969" y2="39.8322" gradientUnits="userSpaceOnUse">
<stop stop-color="#5FACD3"/>
<stop offset="0.244" stop-color="#A37AD5"/>
<stop offset="0.553058" stop-color="#E05397"/>
<stop offset="1" stop-color="#8B285E"/>
</linearGradient>
<linearGradient id="paint1_linear_6241_504" x1="26.0969" y1="23.3975" x2="26.0969" y2="39.8322" gradientUnits="userSpaceOnUse">
<stop stop-color="#5FACD3"/>
<stop offset="0.244" stop-color="#A37AD5"/>
<stop offset="0.553058" stop-color="#E05397"/>
<stop offset="1" stop-color="#8B285E"/>
</linearGradient>
<linearGradient id="paint2_linear_6241_504" x1="26.141" y1="8.88965" x2="26.141" y2="23.905" gradientUnits="userSpaceOnUse">
<stop offset="0.384023" stop-color="#EE7F92"/>
<stop offset="1" stop-color="#B53F54"/>
</linearGradient>
<linearGradient id="paint3_linear_6241_504" x1="26.141" y1="8.88965" x2="26.141" y2="23.905" gradientUnits="userSpaceOnUse">
<stop offset="0.384023" stop-color="#EE7F92"/>
<stop offset="1" stop-color="#B53F54"/>
</linearGradient>
<linearGradient id="paint4_linear_6241_504" x1="26.141" y1="8.88965" x2="26.141" y2="23.905" gradientUnits="userSpaceOnUse">
<stop offset="0.384023" stop-color="#EE7F92"/>
<stop offset="1" stop-color="#B53F54"/>
</linearGradient>
<linearGradient id="paint5_linear_6241_504" x1="26.141" y1="8.88965" x2="26.141" y2="23.905" gradientUnits="userSpaceOnUse">
<stop offset="0.384023" stop-color="#EE7F92"/>
<stop offset="1" stop-color="#B53F54"/>
</linearGradient>
<linearGradient id="paint6_linear_6241_504" x1="30.2314" y1="14.4095" x2="32.5853" y2="19.6169" gradientUnits="userSpaceOnUse">
<stop stop-color="#D15F73"/>
<stop offset="1" stop-color="#D15E72"/>
</linearGradient>
<linearGradient id="paint7_linear_6241_504" x1="22.0703" y1="14.4104" x2="19.1099" y2="19.7449" gradientUnits="userSpaceOnUse">
<stop stop-color="#D15F73"/>
<stop offset="1" stop-color="#D15E72"/>
</linearGradient>
<linearGradient id="paint8_linear_6241_504" x1="26.2037" y1="28.8056" x2="26.2037" y2="31.6294" gradientUnits="userSpaceOnUse">
<stop stop-color="#6C84B0"/>
<stop offset="1" stop-color="#776392"/>
</linearGradient>
<linearGradient id="paint9_linear_6241_504" x1="26.1506" y1="12.0723" x2="26.1506" y2="29.3885" gradientUnits="userSpaceOnUse">
<stop stop-color="#CF6AB8"/>
<stop offset="1" stop-color="#683DA6"/>
</linearGradient>
<linearGradient id="paint10_linear_6241_504" x1="26.1506" y1="12.0723" x2="26.1506" y2="29.3885" gradientUnits="userSpaceOnUse">
<stop stop-color="#CF6AB8"/>
<stop offset="1" stop-color="#683DA6"/>
</linearGradient>
<linearGradient id="paint11_linear_6241_504" x1="26.1656" y1="22.6797" x2="26.1656" y2="27.6101" gradientUnits="userSpaceOnUse">
<stop stop-color="#64A83A"/>
<stop offset="1" stop-color="#4A8A10"/>
</linearGradient>
<linearGradient id="paint12_linear_6241_504" x1="26.2046" y1="0.832075" x2="26.2046" y2="20.6233" gradientUnits="userSpaceOnUse">
<stop stop-color="#D23A15"/>
<stop offset="1" stop-color="#DE903B"/>
</linearGradient>
<linearGradient id="paint13_linear_6241_504" x1="26.2046" y1="0.832075" x2="26.2046" y2="20.6233" gradientUnits="userSpaceOnUse">
<stop stop-color="#D23A15"/>
<stop offset="1" stop-color="#DE903B"/>
</linearGradient>
<linearGradient id="paint14_linear_6241_504" x1="15.5078" y1="27.277" x2="15.5078" y2="39.7974" gradientUnits="userSpaceOnUse">
<stop stop-color="#8F67C6" stop-opacity="0.95"/>
<stop offset="1" stop-color="#99235F"/>
</linearGradient>
<linearGradient id="paint15_linear_6241_504" x1="36.6104" y1="27.277" x2="36.6104" y2="39.7974" gradientUnits="userSpaceOnUse">
<stop stop-color="#8F67C6" stop-opacity="0.95"/>
<stop offset="1" stop-color="#99235F"/>
</linearGradient>
</defs>
</svg>
