<svg width="832" height="204" viewBox="0 0 832 204" fill="none" xmlns="http://www.w3.org/2000/svg">
<rect width="104" height="101.771" fill="#7BCED5"/>
<rect x="519.999" y="101.771" width="104" height="101.771" fill="#7BCED5"/>
<rect x="728" y="101.771" width="104" height="101.771" fill="#7BCED5"/>
<rect x="103.999" width="104" height="101.771" fill="#EA5E4F"/>
<rect x="207.999" width="104" height="101.771" fill="#072C3F"/>
<rect x="312" width="104" height="101.771" fill="#5D9A83"/>
<rect x="416" width="104" height="101.771" fill="#F3B7BD"/>
<rect x="416" y="101.771" width="104" height="101.771" fill="#072C3F"/>
<rect x="623.999" y="101.771" width="104" height="101.771" fill="#F3B7BD"/>
<rect x="519.999" width="104" height="101.771" fill="#072C3F"/>
<rect x="623.999" width="104" height="101.771" fill="#EA5E4F"/>
<rect x="728" width="104" height="101.771" fill="#3AB6C0"/>
<path d="M5.94238 42.5444L51.6281 5.94238L97.3138 42.5444V95.0851H75.6118V79.5175C75.6118 66.3754 64.8739 55.7221 51.6281 55.7221C38.3823 55.7221 27.6443 66.3754 27.6443 79.5175V95.0851H5.94238V42.5444Z" fill="#072C3F"/>
<path d="M118.857 8.91504V92.8578H189.708L118.857 8.91504Z" fill="#7BCED5"/>
<rect x="161.215" y="8.91504" width="31.5748" height="83.9427" fill="#F6C9CD"/>
<rect x="221.371" y="34.1709" width="25.2571" height="67.6" transform="rotate(-90 221.371 34.1709)" fill="#EA5E4F"/>
<rect x="221.371" y="59.4287" width="25.2571" height="52" transform="rotate(-90 221.371 59.4287)" fill="#ED949C"/>
<rect x="221.371" y="8.91406" width="31.5748" height="83.9427" fill="#7BCED5"/>
<ellipse cx="364.743" cy="50.514" rx="41.6" ry="41.5999" fill="#FCF9E6"/>
<ellipse cx="571.628" cy="152.657" rx="35.2857" ry="50.8856" fill="#5D9A83"/>
<ellipse cx="676" cy="50.514" rx="41.6" ry="41.5999" fill="#F9DBDE"/>
<ellipse cx="462.427" cy="32.315" rx="23.4" ry="23.4" fill="#FCF9E6"/>
<path d="M462.056 54.9727V92.8583H497.713L462.056 54.9727Z" fill="#EA5E4F"/>
<rect x="430.856" y="8.91504" width="31.5748" height="83.9427" fill="#3AB6C0"/>
<path d="M568.995 50.514L613.599 74.0117C605.388 84.9448 591.605 92.114 575.983 92.114C550.806 92.114 530.399 73.4904 530.399 50.514C530.399 27.5376 550.806 8.91406 575.983 8.91406C591.605 8.91406 605.388 16.0832 613.599 27.0163L568.995 50.514Z" fill="#9EC2B5"/>
<path d="M737.656 13.3711V88.3996H821.599L737.656 13.3711Z" fill="#FCF9E6"/>
<path d="M821.6 13.3711V88.3996H737.657L821.6 13.3711Z" fill="#072C3F"/>
<path d="M464.093 180.157C485.743 180.157 503.291 162.607 503.291 140.961C503.291 119.315 485.743 101.771 464.093 101.771" fill="#F3B7BD"/>
<rect x="430.113" y="180.16" width="76.1615" height="23.3829" fill="#EA5E4F"/>
<ellipse cx="447.149" cy="118.808" rx="17.0361" ry="17.0361" fill="#3AB6C0"/>
<path d="M672.094 180.157C693.744 180.157 711.292 162.607 711.292 140.961C711.292 119.315 693.744 101.771 672.094 101.771" fill="#072C3F"/>
<rect x="638.115" y="180.16" width="76.1615" height="23.3829" fill="#EA5E4F"/>
<ellipse cx="655.151" cy="118.808" rx="17.0361" ry="17.0361" fill="#3AB6C0"/>
<path d="M820.114 101.771V162.574C814.684 164.097 808.949 164.914 803.029 164.914C801.528 164.914 800.042 164.862 798.571 164.751C765.782 162.47 739.886 135.148 739.886 101.771H820.114Z" fill="#EA5E4F"/>
<path d="M820.115 101.771H798.572V203.543H820.115V101.771Z" fill="#072C3F"/>
</svg>
