<svg width="78" height="46" viewBox="0 0 78 46" fill="none" xmlns="http://www.w3.org/2000/svg">
<path d="M77.9847 3.73381C70.9972 15.8518 64.0105 27.969 57.0249 40.0851C55.9781 41.9062 54.6303 42.4861 53.0784 41.8537C52.4354 41.5735 51.9086 41.0796 51.5867 40.4551C44.7405 28.589 37.8944 16.723 31.0482 4.85691C30.0014 3.02006 30.4515 1.76575 32.5347 0.333008H44.56C44.8923 0.857824 44.9551 1.45611 45.0179 2.05965C45.2312 4.35328 46.2822 6.48699 47.9692 8.05091C49.6559 9.61486 51.8594 10.4988 54.1566 10.5328C58.8464 10.5721 62.8347 6.99029 63.4445 2.1961C63.5256 1.55845 63.5335 0.905057 63.8894 0.333008H75.6451C76.9065 0.773854 77.5791 1.74738 78.0004 2.95708L77.9847 3.73381Z" fill="#115395"/>
<path d="M0.666992 41.4105C3.70625 36.1886 6.74463 30.9649 9.78211 25.7396C13.7059 18.9572 17.6219 12.1678 21.53 5.37149C23.074 2.70281 25.5707 2.6792 27.1016 5.32688C33.8483 17.0303 40.5401 28.7389 47.3601 40.3845C48.7262 42.7147 47.3601 45.3545 44.5756 45.1288C41.4168 44.8664 38.224 45.037 35.0469 45.0895C34.0158 45.1079 33.6233 44.8271 33.5291 43.7276C33.1182 38.8836 29.5486 35.3306 24.9635 35.0681C20.1429 34.8057 16.2017 37.7841 15.1732 42.4943C15.1444 42.6229 15.1078 42.7567 15.0868 42.8774C14.7388 45.0606 14.7388 45.0606 12.5614 45.0606C9.81875 45.0606 7.06563 44.9635 4.33607 45.0974C2.66379 45.1761 1.49397 44.6329 0.672226 43.229L0.666992 41.4105Z" fill="#FEB82F"/>
</svg>
