<svg width="478" height="305" viewBox="0 0 478 305" fill="none" xmlns="http://www.w3.org/2000/svg">
<rect x="0.470703" y="0.5" width="305.831" height="152" fill="#072C3F"/>
<path d="M431.911 99.0532H382.047C377.708 99.0532 373.556 97.2956 370.536 94.1769L356.413 79.5896C354.922 78.051 354.943 75.5946 356.465 74.0822L370.568 60.0477C373.572 57.0593 377.635 55.3852 381.869 55.3852H433.053C440.724 55.3852 445.622 47.1971 441.992 40.438C429.11 16.4422 403.669 0.201665 374.464 0.504155C344.444 0.81186 318.852 18.325 306.852 43.6141H136.722C124.68 18.4501 99.1511 1.42205 69.2203 1.11435C40.0196 0.817075 14.5792 17.0576 1.69208 41.043C-1.9378 47.8021 2.9594 55.9901 10.6312 55.9901H61.8145C66.0494 55.9901 70.1121 57.6695 73.1161 60.6527L87.2184 74.6871C88.7361 76.1996 88.7622 78.6508 87.2706 80.1945L73.1474 94.7818C70.1277 97.9006 65.9763 99.6582 61.6372 99.6582H11.7733C3.97639 99.6582 -0.952101 108.117 2.97505 114.856C16.0916 137.37 40.489 152.5 68.4276 152.5C98.8069 152.5 125.009 134.601 137.061 108.775H306.92C319.098 134.272 345.122 151.89 375.262 151.89C403.195 151.89 427.592 136.755 440.714 114.245C444.641 107.507 439.713 99.048 431.916 99.048L431.911 99.0532Z" fill="#EA5E4F"/>
<rect x="306.303" y="0.5" width="171.229" height="152" fill="#5AC2CA"/>
<rect x="161.627" y="152.5" width="315.904" height="152" fill="#EA5E4F"/>
<rect x="0.470703" y="152.5" width="161.157" height="152" fill="#F6C9CD"/>
<path d="M475.035 114.705C461.962 137.31 437.644 152.5 409.796 152.5C379.755 152.5 353.821 134.812 341.683 109.213H306.303V43.7864H341.615C353.576 18.3962 379.085 0.813106 409.006 0.504172C438.117 0.200473 463.474 16.5059 476.314 40.5924C479.932 47.3785 475.051 55.5993 467.404 55.5993H416.388C412.167 55.5993 408.117 57.2853 405.128 60.2804L391.067 74.3762C389.554 75.8947 389.528 78.3557 391.015 79.9056L405.092 94.5512C408.102 97.6772 412.24 99.447 416.565 99.447H466.266C474.037 99.447 478.95 107.94 475.035 114.705Z" fill="#072C3F"/>
<path d="M56.6948 152.5C60.0372 152.72 62.6299 154.114 64.723 156.613C68.9337 161.652 74.3486 164.338 80.9432 164.383C87.3371 164.428 92.6783 161.945 96.93 157.192C101.194 152.427 104.549 151.624 110.48 153.927C118.36 156.988 125.532 161.232 132.057 166.576C135.83 169.666 136.948 173.62 135.363 178.23C130.931 191.104 138.316 203.773 151.694 206.239C156.679 207.156 159.476 209.981 160.402 214.877C162.118 223.959 161.991 233.025 160.275 242.087C159.448 246.453 156.142 249.567 151.636 250.252C137.784 252.356 129.96 265.632 134.876 278.697C136.641 283.393 135.551 287.482 131.677 290.649C125.41 295.769 118.52 299.85 111.02 302.915C106.498 304.762 102.095 303.612 99.0026 299.793C89.7292 288.342 74.0128 288.538 65.0507 300.217C61.9459 304.265 57.6041 305.5 52.8405 303.682C44.7918 300.616 37.4026 296.409 30.7056 291C26.5031 287.608 25.4135 283.503 27.4902 278.534C31.4756 268.995 28.4077 258.487 19.9822 252.865C17.3444 251.104 14.4567 249.983 11.2945 249.555C5.15462 248.724 2.32427 246.033 1.35352 239.894C-0.0350322 231.122 0.239402 222.361 2.00069 213.666C2.93868 209.048 6.19501 206.211 11.0488 205.567C25.0203 203.704 33.0608 190.521 28.293 177.297C26.5399 172.438 27.7483 168.333 31.8443 165.157C38.2422 160.2 45.2464 156.311 52.8364 153.486C54.0734 153.026 55.4128 152.83 56.703 152.508L56.6948 152.5ZM107.928 228.5C107.956 213.919 95.9019 201.857 81.275 201.829C66.345 201.796 54.2208 213.715 54.2126 228.431C54.2044 243.269 66.1648 255.242 81.0333 255.274C95.8609 255.307 107.899 243.326 107.928 228.505V228.5Z" fill="#3D866B"/>
<path fill-rule="evenodd" clip-rule="evenodd" d="M308.712 152.5H359.225L326.508 195.935H387.797L279.171 304.5L312.296 231.294H251.363L308.712 152.5Z" fill="#F6C9CD"/>
</svg>
