<svg width="323" height="453" viewBox="0 0 323 453" fill="none" xmlns="http://www.w3.org/2000/svg">
<g filter="url(#filter0_dd_5864_354)">
<rect x="12" y="66.8018" width="299" height="364" rx="32" fill="white"/>
<rect x="15" y="69.8018" width="293" height="358" rx="29" stroke="#5D9A83" stroke-width="6"/>
<path fill-rule="evenodd" clip-rule="evenodd" d="M161.5 155.474C138.992 155.474 120.746 173.72 120.746 196.228C120.746 218.736 138.992 236.983 161.5 236.983C184.008 236.983 202.254 218.736 202.254 196.228C202.254 173.72 184.008 155.474 161.5 155.474ZM105.926 196.228C105.926 165.536 130.807 140.654 161.5 140.654C192.193 140.654 217.074 165.536 217.074 196.228C217.074 226.921 192.193 251.802 161.5 251.802C130.807 251.802 105.926 226.921 105.926 196.228Z" fill="#5D9A83"/>
<path fill-rule="evenodd" clip-rule="evenodd" d="M161.5 181.432C153.328 181.432 146.704 188.056 146.704 196.228C146.704 204.399 153.328 211.024 161.5 211.024C169.671 211.024 176.295 204.399 176.295 196.228C176.295 188.056 169.671 181.432 161.5 181.432ZM131.908 196.228C131.908 179.885 145.157 166.637 161.5 166.637C177.842 166.637 191.091 179.885 191.091 196.228C191.091 212.571 177.842 225.819 161.5 225.819C145.157 225.819 131.908 212.571 131.908 196.228Z" fill="#F3B7BD"/>
<path d="M165.676 196.309L183.797 177.471L184.035 173.213L179.702 173.976L161.581 192.813" fill="#3D866B"/>
<path d="M159.853 197.522L191.083 210.79L195.155 209.644L193.043 205.817L161.813 192.55" fill="#3D866B"/>
<path d="M158.24 192.97L152.438 196.229L158.24 199.488L161.499 205.291L164.758 199.488L170.561 196.229L164.758 192.97L161.499 187.167L158.24 192.97Z" fill="#ED786C"/>
<path d="M96.9917 283.003V281.343H100.752V295.803H98.9117V283.003H96.9917ZM112.758 282.923H105.738V287.483C106.045 287.056 106.498 286.709 107.098 286.443C107.698 286.163 108.345 286.023 109.038 286.023C110.145 286.023 111.045 286.256 111.738 286.723C112.431 287.176 112.925 287.769 113.218 288.503C113.525 289.223 113.678 289.989 113.678 290.803C113.678 291.763 113.498 292.623 113.138 293.383C112.778 294.143 112.225 294.743 111.478 295.183C110.745 295.623 109.831 295.843 108.738 295.843C107.338 295.843 106.205 295.483 105.338 294.763C104.471 294.043 103.945 293.083 103.758 291.883H105.538C105.711 292.643 106.078 293.236 106.638 293.663C107.198 294.089 107.905 294.303 108.758 294.303C109.811 294.303 110.605 293.989 111.138 293.363C111.671 292.723 111.938 291.883 111.938 290.843C111.938 289.803 111.671 289.003 111.138 288.443C110.605 287.869 109.818 287.583 108.778 287.583C108.071 287.583 107.451 287.756 106.918 288.103C106.398 288.436 106.018 288.896 105.778 289.483H104.058V281.323H112.758V282.923ZM128.069 281.863V292.163C128.069 293.309 127.715 294.229 127.009 294.923C126.302 295.603 125.369 295.943 124.209 295.943C123.035 295.943 122.095 295.596 121.389 294.903C120.682 294.196 120.329 293.236 120.329 292.023H122.149C122.162 292.703 122.335 293.256 122.669 293.683C123.015 294.109 123.529 294.323 124.209 294.323C124.889 294.323 125.395 294.123 125.729 293.723C126.062 293.309 126.229 292.789 126.229 292.163V281.863H128.069ZM141.034 284.843V295.803H139.214V294.183C138.867 294.743 138.381 295.183 137.754 295.503C137.141 295.809 136.461 295.963 135.714 295.963C134.861 295.963 134.094 295.789 133.414 295.443C132.734 295.083 132.194 294.549 131.794 293.843C131.407 293.136 131.214 292.276 131.214 291.263V284.843H133.014V291.023C133.014 292.103 133.287 292.936 133.834 293.523C134.381 294.096 135.127 294.383 136.074 294.383C137.047 294.383 137.814 294.083 138.374 293.483C138.934 292.883 139.214 292.009 139.214 290.863V284.843H141.034ZM145.587 281.003V295.803H143.767V281.003H145.587ZM149.289 283.063C148.942 283.063 148.649 282.943 148.409 282.703C148.169 282.463 148.049 282.169 148.049 281.823C148.049 281.476 148.169 281.183 148.409 280.943C148.649 280.703 148.942 280.583 149.289 280.583C149.622 280.583 149.902 280.703 150.129 280.943C150.369 281.183 150.489 281.476 150.489 281.823C150.489 282.169 150.369 282.463 150.129 282.703C149.902 282.943 149.622 283.063 149.289 283.063ZM150.169 284.843V295.803H148.349V284.843H150.169ZM165.523 287.703V289.243H157.543V287.703H165.523ZM173.25 284.983C173.344 283.756 173.817 282.796 174.67 282.103C175.524 281.409 176.63 281.063 177.99 281.063C178.897 281.063 179.677 281.229 180.33 281.563C180.997 281.883 181.497 282.323 181.83 282.883C182.177 283.443 182.35 284.076 182.35 284.783C182.35 285.609 182.11 286.323 181.63 286.923C181.164 287.523 180.55 287.909 179.79 288.083V288.183C180.657 288.396 181.344 288.816 181.85 289.443C182.357 290.069 182.61 290.889 182.61 291.903C182.61 292.663 182.437 293.349 182.09 293.963C181.744 294.563 181.224 295.036 180.53 295.383C179.837 295.729 179.004 295.903 178.03 295.903C176.617 295.903 175.457 295.536 174.55 294.803C173.644 294.056 173.137 293.003 173.03 291.643H174.79C174.884 292.443 175.21 293.096 175.77 293.603C176.33 294.109 177.077 294.363 178.01 294.363C178.944 294.363 179.65 294.123 180.13 293.643C180.624 293.149 180.87 292.516 180.87 291.743C180.87 290.743 180.537 290.023 179.87 289.583C179.204 289.143 178.197 288.923 176.85 288.923H176.39V287.403H176.87C178.097 287.389 179.024 287.189 179.65 286.803C180.277 286.403 180.59 285.789 180.59 284.963C180.59 284.256 180.357 283.689 179.89 283.263C179.437 282.836 178.784 282.623 177.93 282.623C177.104 282.623 176.437 282.836 175.93 283.263C175.424 283.689 175.124 284.263 175.03 284.983H173.25ZM184.248 283.003V281.343H188.008V295.803H186.168V283.003H184.248ZM203.106 281.863V292.163C203.106 293.309 202.753 294.229 202.046 294.923C201.339 295.603 200.406 295.943 199.246 295.943C198.073 295.943 197.133 295.596 196.426 294.903C195.719 294.196 195.366 293.236 195.366 292.023H197.186C197.199 292.703 197.373 293.256 197.706 293.683C198.053 294.109 198.566 294.323 199.246 294.323C199.926 294.323 200.433 294.123 200.766 293.723C201.099 293.309 201.266 292.789 201.266 292.163V281.863H203.106ZM216.072 284.843V295.803H214.252V294.183C213.905 294.743 213.418 295.183 212.792 295.503C212.178 295.809 211.498 295.963 210.752 295.963C209.898 295.963 209.132 295.789 208.452 295.443C207.772 295.083 207.232 294.549 206.832 293.843C206.445 293.136 206.252 292.276 206.252 291.263V284.843H208.052V291.023C208.052 292.103 208.325 292.936 208.872 293.523C209.418 294.096 210.165 294.383 211.112 294.383C212.085 294.383 212.852 294.083 213.412 293.483C213.972 292.883 214.252 292.009 214.252 290.863V284.843H216.072ZM220.625 281.003V295.803H218.805V281.003H220.625ZM224.326 283.063C223.98 283.063 223.686 282.943 223.446 282.703C223.206 282.463 223.086 282.169 223.086 281.823C223.086 281.476 223.206 281.183 223.446 280.943C223.686 280.703 223.98 280.583 224.326 280.583C224.66 280.583 224.94 280.703 225.166 280.943C225.406 281.183 225.526 281.476 225.526 281.823C225.526 282.169 225.406 282.463 225.166 282.703C224.94 282.943 224.66 283.063 224.326 283.063ZM225.206 284.843V295.803H223.386V284.843H225.206Z" fill="#A8A699"/>
<rect x="44" y="324.803" width="235" height="74" rx="24" fill="#5D9A83"/>
<path d="M93.3641 358.803V341.348H100.25C101.574 341.348 102.702 341.601 103.634 342.107C104.566 342.607 105.276 343.303 105.765 344.195C106.259 345.081 106.506 346.104 106.506 347.263C106.506 348.422 106.256 349.445 105.756 350.331C105.256 351.218 104.532 351.908 103.583 352.402C102.64 352.896 101.498 353.144 100.157 353.144H95.7675V350.186H99.5601C100.27 350.186 100.856 350.064 101.316 349.82C101.782 349.57 102.128 349.226 102.356 348.789C102.589 348.345 102.705 347.837 102.705 347.263C102.705 346.683 102.589 346.178 102.356 345.746C102.128 345.308 101.782 344.97 101.316 344.732C100.85 344.487 100.259 344.365 99.5431 344.365H97.0544V358.803H93.3641ZM114.11 359.058C112.763 359.058 111.604 358.786 110.633 358.24C109.667 357.689 108.922 356.911 108.4 355.905C107.877 354.894 107.616 353.698 107.616 352.317C107.616 350.97 107.877 349.789 108.4 348.771C108.922 347.754 109.658 346.962 110.607 346.394C111.562 345.825 112.681 345.541 113.965 345.541C114.829 345.541 115.633 345.681 116.377 345.959C117.127 346.232 117.78 346.644 118.337 347.195C118.9 347.746 119.337 348.439 119.65 349.274C119.962 350.104 120.118 351.075 120.118 352.189V353.186H109.064V350.936H116.701C116.701 350.414 116.587 349.95 116.36 349.547C116.133 349.144 115.817 348.828 115.414 348.601C115.016 348.368 114.553 348.252 114.025 348.252C113.474 348.252 112.985 348.379 112.559 348.635C112.138 348.885 111.809 349.223 111.57 349.649C111.332 350.07 111.209 350.539 111.204 351.056V353.195C111.204 353.843 111.323 354.402 111.562 354.874C111.806 355.345 112.15 355.709 112.593 355.965C113.036 356.22 113.562 356.348 114.17 356.348C114.573 356.348 114.942 356.291 115.278 356.178C115.613 356.064 115.9 355.894 116.138 355.666C116.377 355.439 116.559 355.161 116.684 354.831L120.042 355.053C119.871 355.86 119.522 356.564 118.993 357.166C118.471 357.763 117.795 358.229 116.965 358.564C116.141 358.894 115.189 359.058 114.11 359.058ZM125.638 351.235V358.803H122.008V345.712H125.468V348.021H125.621C125.911 347.26 126.397 346.658 127.079 346.215C127.761 345.766 128.587 345.541 129.559 345.541C130.468 345.541 131.261 345.74 131.937 346.138C132.613 346.536 133.138 347.104 133.513 347.843C133.888 348.575 134.076 349.45 134.076 350.468V358.803H130.445V351.115C130.451 350.314 130.246 349.689 129.832 349.24C129.417 348.786 128.846 348.558 128.119 348.558C127.63 348.558 127.198 348.664 126.823 348.874C126.454 349.084 126.164 349.391 125.954 349.794C125.749 350.192 125.644 350.672 125.638 351.235ZM141.281 359.016C140.287 359.016 139.386 358.76 138.58 358.249C137.778 357.732 137.142 356.973 136.671 355.973C136.205 354.968 135.972 353.735 135.972 352.274C135.972 350.774 136.213 349.527 136.696 348.533C137.179 347.533 137.821 346.786 138.622 346.291C139.429 345.791 140.313 345.541 141.273 345.541C142.006 345.541 142.617 345.666 143.105 345.916C143.599 346.161 143.997 346.468 144.298 346.837C144.605 347.2 144.838 347.558 144.997 347.911H145.108V341.348H148.73V358.803H145.151V356.706H144.997C144.827 357.07 144.585 357.431 144.273 357.789C143.966 358.141 143.565 358.433 143.071 358.666C142.582 358.899 141.986 359.016 141.281 359.016ZM142.432 356.127C143.017 356.127 143.511 355.968 143.915 355.649C144.324 355.325 144.636 354.874 144.852 354.294C145.074 353.715 145.185 353.036 145.185 352.257C145.185 351.479 145.077 350.803 144.861 350.229C144.645 349.655 144.332 349.212 143.923 348.899C143.514 348.587 143.017 348.431 142.432 348.431C141.835 348.431 141.332 348.593 140.923 348.916C140.514 349.24 140.205 349.689 139.994 350.263C139.784 350.837 139.679 351.502 139.679 352.257C139.679 353.019 139.784 353.692 139.994 354.277C140.21 354.857 140.52 355.311 140.923 355.641C141.332 355.965 141.835 356.127 142.432 356.127ZM154.968 359.05C154.133 359.05 153.389 358.905 152.735 358.615C152.082 358.32 151.565 357.885 151.184 357.311C150.809 356.732 150.622 356.01 150.622 355.146C150.622 354.419 150.755 353.808 151.022 353.314C151.289 352.82 151.653 352.422 152.113 352.121C152.573 351.82 153.096 351.593 153.681 351.439C154.272 351.286 154.892 351.178 155.539 351.115C156.301 351.036 156.914 350.962 157.38 350.894C157.846 350.82 158.184 350.712 158.394 350.57C158.605 350.428 158.71 350.218 158.71 349.939V349.888C158.71 349.348 158.539 348.931 158.198 348.635C157.863 348.34 157.386 348.192 156.767 348.192C156.113 348.192 155.593 348.337 155.207 348.627C154.82 348.911 154.565 349.269 154.44 349.7L151.082 349.428C151.252 348.632 151.588 347.945 152.088 347.365C152.588 346.78 153.232 346.331 154.022 346.019C154.818 345.7 155.738 345.541 156.784 345.541C157.511 345.541 158.207 345.627 158.872 345.797C159.542 345.968 160.136 346.232 160.653 346.59C161.176 346.948 161.588 347.408 161.889 347.97C162.19 348.527 162.34 349.195 162.34 349.973V358.803H158.897V356.987H158.795C158.585 357.396 158.303 357.757 157.951 358.07C157.599 358.377 157.176 358.618 156.681 358.794C156.187 358.965 155.616 359.05 154.968 359.05ZM156.008 356.544C156.542 356.544 157.014 356.439 157.423 356.229C157.832 356.013 158.153 355.723 158.386 355.36C158.619 354.996 158.735 354.584 158.735 354.124V352.735C158.622 352.808 158.465 352.877 158.267 352.939C158.073 352.996 157.855 353.05 157.61 353.101C157.366 353.146 157.122 353.189 156.877 353.229C156.633 353.263 156.411 353.294 156.213 353.323C155.786 353.385 155.414 353.485 155.096 353.621C154.778 353.757 154.531 353.942 154.355 354.175C154.178 354.402 154.09 354.686 154.09 355.027C154.09 355.521 154.269 355.899 154.627 356.161C154.991 356.416 155.451 356.544 156.008 356.544ZM171.717 345.712V348.439H163.637V345.712H171.717ZM165.487 358.803V344.766C165.487 343.817 165.671 343.03 166.041 342.405C166.416 341.78 166.927 341.311 167.575 340.999C168.223 340.686 168.958 340.53 169.782 340.53C170.339 340.53 170.848 340.573 171.308 340.658C171.774 340.743 172.12 340.82 172.348 340.888L171.7 343.615C171.558 343.57 171.382 343.527 171.171 343.487C170.967 343.448 170.757 343.428 170.541 343.428C170.007 343.428 169.635 343.553 169.424 343.803C169.214 344.047 169.109 344.391 169.109 344.834V358.803H165.487ZM180.418 345.712V348.439H172.535V345.712H180.418ZM174.324 342.575H177.955V354.78C177.955 355.115 178.006 355.377 178.108 355.564C178.211 355.746 178.353 355.874 178.535 355.948C178.722 356.021 178.938 356.058 179.182 356.058C179.353 356.058 179.523 356.044 179.694 356.016C179.864 355.982 179.995 355.956 180.086 355.939L180.657 358.641C180.475 358.698 180.219 358.763 179.89 358.837C179.56 358.916 179.16 358.965 178.688 358.982C177.813 359.016 177.046 358.899 176.387 358.632C175.733 358.365 175.225 357.95 174.861 357.388C174.498 356.825 174.319 356.115 174.324 355.257V342.575ZM186.036 359.05C185.201 359.05 184.456 358.905 183.803 358.615C183.15 358.32 182.633 357.885 182.252 357.311C181.877 356.732 181.689 356.01 181.689 355.146C181.689 354.419 181.823 353.808 182.09 353.314C182.357 352.82 182.721 352.422 183.181 352.121C183.641 351.82 184.164 351.593 184.749 351.439C185.34 351.286 185.959 351.178 186.607 351.115C187.368 351.036 187.982 350.962 188.448 350.894C188.914 350.82 189.252 350.712 189.462 350.57C189.672 350.428 189.778 350.218 189.778 349.939V349.888C189.778 349.348 189.607 348.931 189.266 348.635C188.931 348.34 188.454 348.192 187.834 348.192C187.181 348.192 186.661 348.337 186.275 348.627C185.888 348.911 185.633 349.269 185.508 349.7L182.15 349.428C182.32 348.632 182.655 347.945 183.155 347.365C183.655 346.78 184.3 346.331 185.09 346.019C185.885 345.7 186.806 345.541 187.851 345.541C188.579 345.541 189.275 345.627 189.939 345.797C190.61 345.968 191.204 346.232 191.721 346.59C192.243 346.948 192.655 347.408 192.956 347.97C193.258 348.527 193.408 349.195 193.408 349.973V358.803H189.965V356.987H189.863C189.653 357.396 189.371 357.757 189.019 358.07C188.667 358.377 188.243 358.618 187.749 358.794C187.255 358.965 186.684 359.05 186.036 359.05ZM187.076 356.544C187.61 356.544 188.081 356.439 188.491 356.229C188.9 356.013 189.221 355.723 189.454 355.36C189.687 354.996 189.803 354.584 189.803 354.124V352.735C189.689 352.808 189.533 352.877 189.334 352.939C189.141 352.996 188.922 353.05 188.678 353.101C188.434 353.146 188.189 353.189 187.945 353.229C187.701 353.263 187.479 353.294 187.28 353.323C186.854 353.385 186.482 353.485 186.164 353.621C185.846 353.757 185.599 353.942 185.422 354.175C185.246 354.402 185.158 354.686 185.158 355.027C185.158 355.521 185.337 355.899 185.695 356.161C186.059 356.416 186.519 356.544 187.076 356.544ZM195.745 358.803V345.712H199.265V347.996H199.401C199.64 347.183 200.04 346.57 200.603 346.155C201.165 345.735 201.813 345.524 202.546 345.524C202.728 345.524 202.924 345.536 203.134 345.558C203.344 345.581 203.529 345.612 203.688 345.652V348.874C203.518 348.823 203.282 348.777 202.981 348.737C202.68 348.698 202.404 348.678 202.154 348.678C201.62 348.678 201.143 348.794 200.722 349.027C200.307 349.254 199.978 349.573 199.734 349.982C199.495 350.391 199.376 350.862 199.376 351.396V358.803H195.745ZM208.443 359.05C207.608 359.05 206.864 358.905 206.21 358.615C205.557 358.32 205.04 357.885 204.659 357.311C204.284 356.732 204.097 356.01 204.097 355.146C204.097 354.419 204.23 353.808 204.497 353.314C204.764 352.82 205.128 352.422 205.588 352.121C206.048 351.82 206.571 351.593 207.156 351.439C207.747 351.286 208.367 351.178 209.014 351.115C209.776 351.036 210.389 350.962 210.855 350.894C211.321 350.82 211.659 350.712 211.869 350.57C212.08 350.428 212.185 350.218 212.185 349.939V349.888C212.185 349.348 212.014 348.931 211.673 348.635C211.338 348.34 210.861 348.192 210.242 348.192C209.588 348.192 209.068 348.337 208.682 348.627C208.296 348.911 208.04 349.269 207.915 349.7L204.557 349.428C204.727 348.632 205.063 347.945 205.563 347.365C206.063 346.78 206.707 346.331 207.497 346.019C208.293 345.7 209.213 345.541 210.259 345.541C210.986 345.541 211.682 345.627 212.347 345.797C213.017 345.968 213.611 346.232 214.128 346.59C214.651 346.948 215.063 347.408 215.364 347.97C215.665 348.527 215.815 349.195 215.815 349.973V358.803H212.372V356.987H212.27C212.06 357.396 211.778 357.757 211.426 358.07C211.074 358.377 210.651 358.618 210.156 358.794C209.662 358.965 209.091 359.05 208.443 359.05ZM209.483 356.544C210.017 356.544 210.489 356.439 210.898 356.229C211.307 356.013 211.628 355.723 211.861 355.36C212.094 354.996 212.21 354.584 212.21 354.124V352.735C212.097 352.808 211.94 352.877 211.742 352.939C211.548 352.996 211.33 353.05 211.085 353.101C210.841 353.146 210.597 353.189 210.352 353.229C210.108 353.263 209.886 353.294 209.688 353.323C209.261 353.385 208.889 353.485 208.571 353.621C208.253 353.757 208.006 353.942 207.83 354.175C207.653 354.402 207.565 354.686 207.565 355.027C207.565 355.521 207.744 355.899 208.102 356.161C208.466 356.416 208.926 356.544 209.483 356.544ZM221.783 351.235V358.803H218.152V345.712H221.612V348.021H221.766C222.056 347.26 222.541 346.658 223.223 346.215C223.905 345.766 224.732 345.541 225.703 345.541C226.612 345.541 227.405 345.74 228.081 346.138C228.757 346.536 229.283 347.104 229.658 347.843C230.033 348.575 230.22 349.45 230.22 350.468V358.803H226.59V351.115C226.595 350.314 226.391 349.689 225.976 349.24C225.561 348.786 224.99 348.558 224.263 348.558C223.774 348.558 223.342 348.664 222.967 348.874C222.598 349.084 222.308 349.391 222.098 349.794C221.894 350.192 221.789 350.672 221.783 351.235ZM121.789 381.803V364.348H128.778C130.062 364.348 131.133 364.539 131.991 364.919C132.849 365.3 133.494 365.828 133.925 366.504C134.357 367.175 134.573 367.948 134.573 368.823C134.573 369.504 134.437 370.104 134.164 370.621C133.891 371.132 133.516 371.553 133.039 371.882C132.567 372.206 132.028 372.436 131.42 372.573V372.743C132.085 372.771 132.707 372.959 133.286 373.306C133.871 373.652 134.346 374.138 134.71 374.763C135.073 375.382 135.255 376.121 135.255 376.979C135.255 377.905 135.025 378.732 134.565 379.459C134.11 380.181 133.437 380.752 132.545 381.172C131.653 381.593 130.553 381.803 129.246 381.803H121.789ZM125.479 378.786H128.488C129.516 378.786 130.266 378.59 130.738 378.198C131.21 377.8 131.445 377.271 131.445 376.612C131.445 376.129 131.329 375.703 131.096 375.334C130.863 374.965 130.531 374.675 130.099 374.465C129.673 374.254 129.164 374.149 128.573 374.149H125.479V378.786ZM125.479 371.652H128.215C128.721 371.652 129.17 371.564 129.562 371.388C129.96 371.206 130.272 370.95 130.499 370.621C130.732 370.291 130.849 369.896 130.849 369.436C130.849 368.806 130.624 368.297 130.175 367.911C129.732 367.524 129.102 367.331 128.283 367.331H125.479V371.652ZM140.841 382.05C140.006 382.05 139.261 381.905 138.608 381.615C137.955 381.32 137.438 380.885 137.057 380.311C136.682 379.732 136.494 379.01 136.494 378.146C136.494 377.419 136.628 376.808 136.895 376.314C137.162 375.82 137.526 375.422 137.986 375.121C138.446 374.82 138.969 374.593 139.554 374.439C140.145 374.286 140.764 374.178 141.412 374.115C142.173 374.036 142.787 373.962 143.253 373.894C143.719 373.82 144.057 373.712 144.267 373.57C144.477 373.428 144.583 373.218 144.583 372.939V372.888C144.583 372.348 144.412 371.931 144.071 371.635C143.736 371.34 143.259 371.192 142.639 371.192C141.986 371.192 141.466 371.337 141.08 371.627C140.693 371.911 140.438 372.269 140.313 372.7L136.955 372.428C137.125 371.632 137.46 370.945 137.96 370.365C138.46 369.78 139.105 369.331 139.895 369.019C140.69 368.7 141.611 368.541 142.656 368.541C143.384 368.541 144.08 368.627 144.744 368.797C145.415 368.968 146.009 369.232 146.526 369.59C147.048 369.948 147.46 370.408 147.761 370.97C148.063 371.527 148.213 372.195 148.213 372.973V381.803H144.77V379.987H144.668C144.458 380.396 144.176 380.757 143.824 381.07C143.472 381.377 143.048 381.618 142.554 381.794C142.06 381.965 141.489 382.05 140.841 382.05ZM141.881 379.544C142.415 379.544 142.886 379.439 143.296 379.229C143.705 379.013 144.026 378.723 144.259 378.36C144.492 377.996 144.608 377.584 144.608 377.124V375.735C144.494 375.808 144.338 375.877 144.139 375.939C143.946 375.996 143.727 376.05 143.483 376.101C143.239 376.146 142.994 376.189 142.75 376.229C142.506 376.263 142.284 376.294 142.085 376.323C141.659 376.385 141.287 376.485 140.969 376.621C140.651 376.757 140.404 376.942 140.227 377.175C140.051 377.402 139.963 377.686 139.963 378.027C139.963 378.521 140.142 378.899 140.5 379.161C140.864 379.416 141.324 379.544 141.881 379.544ZM157.513 368.712V371.439H149.629V368.712H157.513ZM151.419 365.575H155.05V377.78C155.05 378.115 155.101 378.377 155.203 378.564C155.306 378.746 155.448 378.874 155.629 378.948C155.817 379.021 156.033 379.058 156.277 379.058C156.448 379.058 156.618 379.044 156.789 379.016C156.959 378.982 157.09 378.956 157.181 378.939L157.752 381.641C157.57 381.698 157.314 381.763 156.985 381.837C156.655 381.916 156.254 381.965 155.783 381.982C154.908 382.016 154.141 381.899 153.482 381.632C152.828 381.365 152.32 380.95 151.956 380.388C151.593 379.825 151.414 379.115 151.419 378.257V365.575ZM165.172 382.058C163.831 382.058 162.678 381.774 161.712 381.206C160.752 380.632 160.013 379.837 159.496 378.82C158.985 377.803 158.729 376.632 158.729 375.308C158.729 373.968 158.988 372.791 159.505 371.78C160.027 370.763 160.769 369.97 161.729 369.402C162.689 368.828 163.831 368.541 165.155 368.541C166.297 368.541 167.297 368.749 168.155 369.164C169.013 369.578 169.692 370.161 170.192 370.911C170.692 371.661 170.968 372.541 171.019 373.553H167.593C167.496 372.899 167.24 372.374 166.826 371.976C166.417 371.573 165.88 371.371 165.215 371.371C164.652 371.371 164.161 371.524 163.74 371.831C163.326 372.132 163.002 372.573 162.769 373.152C162.536 373.732 162.419 374.433 162.419 375.257C162.419 376.093 162.533 376.803 162.76 377.388C162.993 377.973 163.32 378.419 163.74 378.726C164.161 379.033 164.652 379.186 165.215 379.186C165.63 379.186 166.002 379.101 166.331 378.931C166.667 378.76 166.942 378.513 167.158 378.189C167.38 377.86 167.525 377.465 167.593 377.004H171.019C170.962 378.004 170.689 378.885 170.201 379.646C169.718 380.402 169.05 380.993 168.198 381.419C167.346 381.845 166.337 382.058 165.172 382.058ZM176.494 374.235V381.803H172.863V364.348H176.392V371.021H176.545C176.841 370.249 177.318 369.644 177.977 369.206C178.636 368.763 179.463 368.541 180.457 368.541C181.366 368.541 182.159 368.74 182.835 369.138C183.517 369.53 184.045 370.095 184.42 370.834C184.801 371.567 184.988 372.445 184.983 373.468V381.803H181.352V374.115C181.358 373.308 181.153 372.681 180.738 372.232C180.329 371.783 179.755 371.558 179.017 371.558C178.522 371.558 178.085 371.664 177.704 371.874C177.329 372.084 177.034 372.391 176.818 372.794C176.608 373.192 176.5 373.672 176.494 374.235ZM199.994 364.348V381.803H196.304V367.851H196.202L192.205 370.357V367.084L196.526 364.348H199.994Z" fill="white"/>
</g>
<path d="M190.781 0.894531L184.412 48.7092L183.997 51.8209L183.422 56.1316L183.415 56.1909L183.368 56.5449L180.896 75.1018L179.599 84.8482L175.638 114.584L175.001 119.373C175.001 119.373 174.999 119.38 174.999 119.384C174.836 120.272 174.712 120.802 174.712 120.802H148.1C148.1 120.802 148.047 120.574 147.965 120.166L147.114 113.735L143.297 84.8482L140.804 65.9966L138.519 48.7092L136.271 31.7053L132.218 1.03353L144.079 1.00573L145.98 1.00017C145.98 1.00017 145.986 1.00017 145.988 1.00017L177.33 0.926037C177.33 0.926037 177.334 0.924184 177.336 0.926037L178.364 0.926037L190.781 0.894531Z" fill="#3D866B"/>
<path d="M161.222 18.0364C161.222 8.568 153.548 0.893555 144.079 0.893555V18.0364C144.079 27.5048 151.754 35.1793 161.222 35.1793C170.69 35.1793 178.365 27.5048 178.365 18.0364V0.893555C168.896 0.893555 161.222 8.568 161.222 18.0364Z" fill="#ED786C"/>
<path d="M175.639 114.583C175.479 116.524 175.209 118.238 175.001 119.372C175.001 119.376 174.999 119.379 174.999 119.383C174.836 120.271 174.712 120.801 174.712 120.801H148.101C148.101 120.801 148.047 120.573 147.966 120.165C147.738 119.046 147.289 116.568 147.115 113.734C146.93 110.714 147.057 107.287 148.101 104.674C149.989 99.9459 156.405 94.0525 156.405 94.0525V89.4805H166.409V94.0507C166.409 94.0507 172.824 99.9459 174.712 104.674C175.856 107.535 175.9 111.37 175.639 114.583Z" fill="#072C3F"/>
<path d="M146.484 57.8938C146.927 61.4391 144.484 64.7584 140.804 65.9964L138.519 48.7089L136.271 31.7051C138.993 32.287 141.2 34.6518 141.586 37.7171C141.664 38.3398 141.66 38.9551 141.586 39.5482C145.702 40.7343 148.917 44.2555 149.481 48.7516C149.909 52.1801 148.702 55.4401 146.465 57.753C146.471 57.7993 146.478 57.8475 146.484 57.8938Z" fill="#9CDADF"/>
<path d="M182.462 56.6238C182.762 56.5831 183.066 56.5553 183.368 56.5442L180.896 75.1011C180.672 75.0306 180.449 74.9509 180.232 74.8638L178.422 79.3506L176.993 78.7743L178.848 74.1744C178.602 74.0262 178.363 73.8649 178.131 73.6944L175.108 77.7086L173.878 76.782L176.965 72.6807C176.776 72.4842 176.593 72.2804 176.42 72.0691L172.334 75.266L171.385 74.0521L175.54 70.8014C175.408 70.5753 175.288 70.3455 175.175 70.1083L170.284 72.1877L169.682 70.7699L174.63 68.6665C174.56 68.4237 174.498 68.1772 174.448 67.9307L169.102 68.685L168.887 67.1579L174.267 66.3999C174.258 66.1534 174.258 65.9051 174.269 65.6549L168.868 64.9951L169.053 63.4643L174.456 64.1259C174.506 63.8813 174.565 63.6404 174.634 63.4013L169.595 61.3701L170.171 59.9412L175.179 61.9613C175.288 61.7315 175.405 61.5072 175.531 61.2886L171.237 58.0564L172.163 56.8258L176.409 60.0209C176.574 59.8189 176.748 59.6243 176.93 59.4371L173.679 55.2802L174.893 54.3313L178.088 58.4178C178.309 58.2547 178.533 58.1009 178.767 57.9582L176.758 53.2323L178.175 52.63L180.142 57.254C180.407 57.1428 180.679 57.0445 180.953 56.9593L180.26 52.0499L181.786 51.835L182.462 56.6238Z" fill="#F3B7BD"/>
<path d="M161.5 114.5C160.394 114.5 159.485 113.66 159.376 112.583C158.538 113.267 157.301 113.219 156.52 112.437C155.738 111.656 155.69 110.419 156.374 109.581C155.297 109.472 154.457 108.563 154.457 107.458C154.457 106.352 155.297 105.443 156.374 105.334C155.69 104.496 155.738 103.259 156.52 102.478C157.301 101.696 158.538 101.648 159.376 102.332C159.485 101.255 160.394 100.415 161.5 100.415C162.605 100.415 163.514 101.255 163.623 102.332C164.461 101.648 165.698 101.696 166.479 102.478C167.261 103.259 167.309 104.496 166.625 105.334C167.702 105.443 168.542 106.352 168.542 107.458C168.542 108.563 167.702 109.472 166.625 109.581C167.309 110.419 167.261 111.656 166.479 112.437C165.698 113.219 164.461 113.267 163.623 112.583C163.514 113.66 162.605 114.5 161.5 114.5Z" fill="#9EC2B5"/>
<path d="M163.724 29.8047H158.905V91.8896H163.724V29.8047Z" fill="#FCF9E6"/>
<defs>
<filter id="filter0_dd_5864_354" x="0" y="64.8018" width="323" height="388" filterUnits="userSpaceOnUse" color-interpolation-filters="sRGB">
<feFlood flood-opacity="0" result="BackgroundImageFix"/>
<feColorMatrix in="SourceAlpha" type="matrix" values="0 0 0 0 0 0 0 0 0 0 0 0 0 0 0 0 0 0 127 0" result="hardAlpha"/>
<feMorphology radius="3" operator="erode" in="SourceAlpha" result="effect1_dropShadow_5864_354"/>
<feOffset dy="10"/>
<feGaussianBlur stdDeviation="7.5"/>
<feComposite in2="hardAlpha" operator="out"/>
<feColorMatrix type="matrix" values="0 0 0 0 0.0627451 0 0 0 0 0.0941176 0 0 0 0 0.156863 0 0 0 0.1 0"/>
<feBlend mode="normal" in2="BackgroundImageFix" result="effect1_dropShadow_5864_354"/>
<feColorMatrix in="SourceAlpha" type="matrix" values="0 0 0 0 0 0 0 0 0 0 0 0 0 0 0 0 0 0 127 0" result="hardAlpha"/>
<feMorphology radius="4" operator="erode" in="SourceAlpha" result="effect2_dropShadow_5864_354"/>
<feOffset dy="4"/>
<feGaussianBlur stdDeviation="3"/>
<feComposite in2="hardAlpha" operator="out"/>
<feColorMatrix type="matrix" values="0 0 0 0 0.0627451 0 0 0 0 0.0941176 0 0 0 0 0.156863 0 0 0 0.1 0"/>
<feBlend mode="normal" in2="effect1_dropShadow_5864_354" result="effect2_dropShadow_5864_354"/>
<feBlend mode="normal" in="SourceGraphic" in2="effect2_dropShadow_5864_354" result="shape"/>
</filter>
</defs>
</svg>
