<svg width="323" height="453" viewBox="0 0 323 453" fill="none" xmlns="http://www.w3.org/2000/svg">
<g filter="url(#filter0_dd_5864_354)">
<rect x="12" y="66.8018" width="299" height="364" rx="32" fill="white"/>
<rect x="15" y="69.8018" width="293" height="358" rx="29" stroke="#5D9A83" stroke-width="6"/>
<path fill-rule="evenodd" clip-rule="evenodd" d="M161.5 155.474C138.992 155.474 120.746 173.72 120.746 196.228C120.746 218.736 138.992 236.983 161.5 236.983C184.008 236.983 202.254 218.736 202.254 196.228C202.254 173.72 184.008 155.474 161.5 155.474ZM105.926 196.228C105.926 165.536 130.807 140.654 161.5 140.654C192.193 140.654 217.074 165.536 217.074 196.228C217.074 226.921 192.193 251.802 161.5 251.802C130.807 251.802 105.926 226.921 105.926 196.228Z" fill="#5D9A83"/>
<path fill-rule="evenodd" clip-rule="evenodd" d="M161.5 181.432C153.328 181.432 146.704 188.056 146.704 196.228C146.704 204.399 153.328 211.024 161.5 211.024C169.671 211.024 176.295 204.399 176.295 196.228C176.295 188.056 169.671 181.432 161.5 181.432ZM131.908 196.228C131.908 179.885 145.157 166.637 161.5 166.637C177.842 166.637 191.091 179.885 191.091 196.228C191.091 212.571 177.842 225.819 161.5 225.819C145.157 225.819 131.908 212.571 131.908 196.228Z" fill="#F3B7BD"/>
<path d="M165.676 196.309L183.797 177.471L184.035 173.213L179.702 173.976L161.581 192.813" fill="#3D866B"/>
<path d="M159.853 197.522L191.083 210.79L195.155 209.644L193.043 205.817L161.813 192.55" fill="#3D866B"/>
<path d="M158.24 192.97L152.438 196.229L158.24 199.488L161.499 205.291L164.758 199.488L170.561 196.229L164.758 192.97L161.499 187.167L158.24 192.97Z" fill="#ED786C"/>
<path d="M60.6765 282.923H53.6565V287.483C53.9632 287.056 54.4165 286.709 55.0165 286.443C55.6165 286.163 56.2632 286.023 56.9565 286.023C58.0632 286.023 58.9632 286.256 59.6565 286.723C60.3498 287.176 60.8432 287.769 61.1365 288.503C61.4432 289.223 61.5965 289.989 61.5965 290.803C61.5965 291.763 61.4165 292.623 61.0565 293.383C60.6965 294.143 60.1432 294.743 59.3965 295.183C58.6632 295.623 57.7498 295.843 56.6565 295.843C55.2565 295.843 54.1232 295.483 53.2565 294.763C52.3898 294.043 51.8632 293.083 51.6765 291.883H53.4565C53.6298 292.643 53.9965 293.236 54.5565 293.663C55.1165 294.089 55.8232 294.303 56.6765 294.303C57.7298 294.303 58.5232 293.989 59.0565 293.363C59.5898 292.723 59.8565 291.883 59.8565 290.843C59.8565 289.803 59.5898 289.003 59.0565 288.443C58.5232 287.869 57.7365 287.583 56.6965 287.583C55.9898 287.583 55.3698 287.756 54.8365 288.103C54.3165 288.436 53.9365 288.896 53.6965 289.483H51.9765V281.323H60.6765V282.923ZM77.2071 292.703H71.1271L70.0071 295.803H68.0871L73.1271 281.943H75.2271L80.2471 295.803H78.3271L77.2071 292.703ZM76.6871 291.223L74.1671 284.183L71.6471 291.223H76.6871ZM86.6237 284.663C87.5703 284.663 88.397 284.869 89.1037 285.283C89.8237 285.696 90.357 286.216 90.7037 286.843V284.843H92.5437V296.043C92.5437 297.043 92.3303 297.929 91.9037 298.703C91.477 299.489 90.8637 300.103 90.0637 300.543C89.277 300.983 88.357 301.203 87.3037 301.203C85.8637 301.203 84.6637 300.863 83.7037 300.183C82.7437 299.503 82.177 298.576 82.0037 297.403H83.8037C84.0037 298.069 84.417 298.603 85.0437 299.003C85.6703 299.416 86.4237 299.623 87.3037 299.623C88.3037 299.623 89.117 299.309 89.7437 298.683C90.3837 298.056 90.7037 297.176 90.7037 296.043V293.743C90.3437 294.383 89.8103 294.916 89.1037 295.343C88.397 295.769 87.5703 295.983 86.6237 295.983C85.6503 295.983 84.7637 295.743 83.9637 295.263C83.177 294.783 82.557 294.109 82.1037 293.243C81.6503 292.376 81.4237 291.389 81.4237 290.283C81.4237 289.163 81.6503 288.183 82.1037 287.343C82.557 286.489 83.177 285.829 83.9637 285.363C84.7637 284.896 85.6503 284.663 86.6237 284.663ZM90.7037 290.303C90.7037 289.476 90.537 288.756 90.2037 288.143C89.8703 287.529 89.417 287.063 88.8437 286.743C88.2837 286.409 87.6637 286.243 86.9837 286.243C86.3037 286.243 85.6837 286.403 85.1237 286.723C84.5637 287.043 84.117 287.509 83.7837 288.123C83.4503 288.736 83.2837 289.456 83.2837 290.283C83.2837 291.123 83.4503 291.856 83.7837 292.483C84.117 293.096 84.5637 293.569 85.1237 293.903C85.6837 294.223 86.3037 294.383 86.9837 294.383C87.6637 294.383 88.2837 294.223 88.8437 293.903C89.417 293.569 89.8703 293.096 90.2037 292.483C90.537 291.856 90.7037 291.129 90.7037 290.303ZM104.999 284.843V295.803H103.179V294.183C102.833 294.743 102.346 295.183 101.719 295.503C101.106 295.809 100.426 295.963 99.6793 295.963C98.826 295.963 98.0593 295.789 97.3793 295.443C96.6993 295.083 96.1593 294.549 95.7593 293.843C95.3726 293.136 95.1793 292.276 95.1793 291.263V284.843H96.9793V291.023C96.9793 292.103 97.2526 292.936 97.7993 293.523C98.346 294.096 99.0926 294.383 100.039 294.383C101.013 294.383 101.779 294.083 102.339 293.483C102.899 292.883 103.179 292.009 103.179 290.863V284.843H104.999ZM111.612 295.983C110.772 295.983 110.019 295.843 109.352 295.563C108.686 295.269 108.159 294.869 107.772 294.363C107.386 293.843 107.172 293.249 107.132 292.583H109.012C109.066 293.129 109.319 293.576 109.772 293.923C110.239 294.269 110.846 294.443 111.592 294.443C112.286 294.443 112.832 294.289 113.232 293.983C113.632 293.676 113.832 293.289 113.832 292.823C113.832 292.343 113.619 291.989 113.192 291.763C112.766 291.523 112.106 291.289 111.212 291.063C110.399 290.849 109.732 290.636 109.212 290.423C108.706 290.196 108.266 289.869 107.892 289.443C107.532 289.003 107.352 288.429 107.352 287.723C107.352 287.163 107.519 286.649 107.852 286.183C108.186 285.716 108.659 285.349 109.272 285.083C109.886 284.803 110.586 284.663 111.372 284.663C112.586 284.663 113.566 284.969 114.312 285.583C115.059 286.196 115.459 287.036 115.512 288.103H113.692C113.652 287.529 113.419 287.069 112.992 286.723C112.579 286.376 112.019 286.203 111.312 286.203C110.659 286.203 110.139 286.343 109.752 286.623C109.366 286.903 109.172 287.269 109.172 287.723C109.172 288.083 109.286 288.383 109.512 288.623C109.752 288.849 110.046 289.036 110.392 289.183C110.752 289.316 111.246 289.469 111.872 289.643C112.659 289.856 113.299 290.069 113.792 290.283C114.286 290.483 114.706 290.789 115.052 291.203C115.412 291.616 115.599 292.156 115.612 292.823C115.612 293.423 115.446 293.963 115.112 294.443C114.779 294.923 114.306 295.303 113.692 295.583C113.092 295.849 112.399 295.983 111.612 295.983ZM120.061 286.343V292.803C120.061 293.336 120.175 293.716 120.401 293.943C120.628 294.156 121.021 294.263 121.581 294.263H122.921V295.803H121.281C120.268 295.803 119.508 295.569 119.001 295.103C118.495 294.636 118.241 293.869 118.241 292.803V286.343H116.821V284.843H118.241V282.083H120.061V284.843H122.921V286.343H120.061ZM134.507 284.843V295.803H132.687V294.183C132.34 294.743 131.853 295.183 131.227 295.503C130.613 295.809 129.933 295.963 129.187 295.963C128.333 295.963 127.567 295.789 126.887 295.443C126.207 295.083 125.667 294.549 125.267 293.843C124.88 293.136 124.687 292.276 124.687 291.263V284.843H126.487V291.023C126.487 292.103 126.76 292.936 127.307 293.523C127.853 294.096 128.6 294.383 129.547 294.383C130.52 294.383 131.287 294.083 131.847 293.483C132.407 292.883 132.687 292.009 132.687 290.863V284.843H134.507ZM141.12 295.983C140.28 295.983 139.526 295.843 138.86 295.563C138.193 295.269 137.666 294.869 137.28 294.363C136.893 293.843 136.68 293.249 136.64 292.583H138.52C138.573 293.129 138.826 293.576 139.28 293.923C139.746 294.269 140.353 294.443 141.1 294.443C141.793 294.443 142.34 294.289 142.74 293.983C143.14 293.676 143.34 293.289 143.34 292.823C143.34 292.343 143.126 291.989 142.7 291.763C142.273 291.523 141.613 291.289 140.72 291.063C139.906 290.849 139.24 290.636 138.72 290.423C138.213 290.196 137.773 289.869 137.4 289.443C137.04 289.003 136.86 288.429 136.86 287.723C136.86 287.163 137.026 286.649 137.36 286.183C137.693 285.716 138.166 285.349 138.78 285.083C139.393 284.803 140.093 284.663 140.88 284.663C142.093 284.663 143.073 284.969 143.82 285.583C144.566 286.196 144.966 287.036 145.02 288.103H143.2C143.16 287.529 142.926 287.069 142.5 286.723C142.086 286.376 141.526 286.203 140.82 286.203C140.166 286.203 139.646 286.343 139.26 286.623C138.873 286.903 138.68 287.269 138.68 287.723C138.68 288.083 138.793 288.383 139.02 288.623C139.26 288.849 139.553 289.036 139.9 289.183C140.26 289.316 140.753 289.469 141.38 289.643C142.166 289.856 142.806 290.069 143.3 290.283C143.793 290.483 144.213 290.789 144.56 291.203C144.92 291.616 145.106 292.156 145.12 292.823C145.12 293.423 144.953 293.963 144.62 294.443C144.286 294.923 143.813 295.303 143.2 295.583C142.6 295.849 141.906 295.983 141.12 295.983ZM159.941 287.703V289.243H151.961V287.703H159.941ZM167.489 294.343C169.182 292.983 170.509 291.869 171.469 291.003C172.429 290.123 173.235 289.209 173.889 288.263C174.555 287.303 174.889 286.363 174.889 285.443C174.889 284.576 174.675 283.896 174.249 283.403C173.835 282.896 173.162 282.643 172.229 282.643C171.322 282.643 170.615 282.929 170.109 283.503C169.615 284.063 169.349 284.816 169.309 285.763H167.549C167.602 284.269 168.055 283.116 168.909 282.303C169.762 281.489 170.862 281.083 172.209 281.083C173.582 281.083 174.669 281.463 175.469 282.223C176.282 282.983 176.689 284.029 176.689 285.363C176.689 286.469 176.355 287.549 175.689 288.603C175.035 289.643 174.289 290.563 173.449 291.363C172.609 292.149 171.535 293.069 170.229 294.123H177.109V295.643H167.489V294.343ZM178.832 284.983C178.926 283.756 179.399 282.796 180.252 282.103C181.106 281.409 182.212 281.063 183.572 281.063C184.479 281.063 185.259 281.229 185.912 281.563C186.579 281.883 187.079 282.323 187.412 282.883C187.759 283.443 187.932 284.076 187.932 284.783C187.932 285.609 187.692 286.323 187.212 286.923C186.746 287.523 186.132 287.909 185.372 288.083V288.183C186.239 288.396 186.926 288.816 187.432 289.443C187.939 290.069 188.192 290.889 188.192 291.903C188.192 292.663 188.019 293.349 187.672 293.963C187.326 294.563 186.806 295.036 186.112 295.383C185.419 295.729 184.586 295.903 183.612 295.903C182.199 295.903 181.039 295.536 180.132 294.803C179.226 294.056 178.719 293.003 178.612 291.643H180.372C180.466 292.443 180.792 293.096 181.352 293.603C181.912 294.109 182.659 294.363 183.592 294.363C184.526 294.363 185.232 294.123 185.712 293.643C186.206 293.149 186.452 292.516 186.452 291.743C186.452 290.743 186.119 290.023 185.452 289.583C184.786 289.143 183.779 288.923 182.432 288.923H181.972V287.403H182.452C183.679 287.389 184.606 287.189 185.232 286.803C185.859 286.403 186.172 285.789 186.172 284.963C186.172 284.256 185.939 283.689 185.472 283.263C185.019 282.836 184.366 282.623 183.512 282.623C182.686 282.623 182.019 282.836 181.512 283.263C181.006 283.689 180.706 284.263 180.612 284.983H178.832ZM203.842 292.703H197.762L196.642 295.803H194.722L199.762 281.943H201.862L206.882 295.803H204.962L203.842 292.703ZM203.322 291.223L200.802 284.183L198.282 291.223H203.322ZM213.258 284.663C214.205 284.663 215.032 284.869 215.738 285.283C216.458 285.696 216.992 286.216 217.338 286.843V284.843H219.178V296.043C219.178 297.043 218.965 297.929 218.538 298.703C218.112 299.489 217.498 300.103 216.698 300.543C215.912 300.983 214.992 301.203 213.938 301.203C212.498 301.203 211.298 300.863 210.338 300.183C209.378 299.503 208.812 298.576 208.638 297.403H210.438C210.638 298.069 211.052 298.603 211.678 299.003C212.305 299.416 213.058 299.623 213.938 299.623C214.938 299.623 215.752 299.309 216.378 298.683C217.018 298.056 217.338 297.176 217.338 296.043V293.743C216.978 294.383 216.445 294.916 215.738 295.343C215.032 295.769 214.205 295.983 213.258 295.983C212.285 295.983 211.398 295.743 210.598 295.263C209.812 294.783 209.192 294.109 208.738 293.243C208.285 292.376 208.058 291.389 208.058 290.283C208.058 289.163 208.285 288.183 208.738 287.343C209.192 286.489 209.812 285.829 210.598 285.363C211.398 284.896 212.285 284.663 213.258 284.663ZM217.338 290.303C217.338 289.476 217.172 288.756 216.838 288.143C216.505 287.529 216.052 287.063 215.478 286.743C214.918 286.409 214.298 286.243 213.618 286.243C212.938 286.243 212.318 286.403 211.758 286.723C211.198 287.043 210.752 287.509 210.418 288.123C210.085 288.736 209.918 289.456 209.918 290.283C209.918 291.123 210.085 291.856 210.418 292.483C210.752 293.096 211.198 293.569 211.758 293.903C212.318 294.223 212.938 294.383 213.618 294.383C214.298 294.383 214.918 294.223 215.478 293.903C216.052 293.569 216.505 293.096 216.838 292.483C217.172 291.856 217.338 291.129 217.338 290.303ZM231.634 284.843V295.803H229.814V294.183C229.467 294.743 228.981 295.183 228.354 295.503C227.741 295.809 227.061 295.963 226.314 295.963C225.461 295.963 224.694 295.789 224.014 295.443C223.334 295.083 222.794 294.549 222.394 293.843C222.007 293.136 221.814 292.276 221.814 291.263V284.843H223.614V291.023C223.614 292.103 223.887 292.936 224.434 293.523C224.981 294.096 225.727 294.383 226.674 294.383C227.647 294.383 228.414 294.083 228.974 293.483C229.534 292.883 229.814 292.009 229.814 290.863V284.843H231.634ZM238.247 295.983C237.407 295.983 236.654 295.843 235.987 295.563C235.32 295.269 234.794 294.869 234.407 294.363C234.02 293.843 233.807 293.249 233.767 292.583H235.647C235.7 293.129 235.954 293.576 236.407 293.923C236.874 294.269 237.48 294.443 238.227 294.443C238.92 294.443 239.467 294.289 239.867 293.983C240.267 293.676 240.467 293.289 240.467 292.823C240.467 292.343 240.254 291.989 239.827 291.763C239.4 291.523 238.74 291.289 237.847 291.063C237.034 290.849 236.367 290.636 235.847 290.423C235.34 290.196 234.9 289.869 234.527 289.443C234.167 289.003 233.987 288.429 233.987 287.723C233.987 287.163 234.154 286.649 234.487 286.183C234.82 285.716 235.294 285.349 235.907 285.083C236.52 284.803 237.22 284.663 238.007 284.663C239.22 284.663 240.2 284.969 240.947 285.583C241.694 286.196 242.094 287.036 242.147 288.103H240.327C240.287 287.529 240.054 287.069 239.627 286.723C239.214 286.376 238.654 286.203 237.947 286.203C237.294 286.203 236.774 286.343 236.387 286.623C236 286.903 235.807 287.269 235.807 287.723C235.807 288.083 235.92 288.383 236.147 288.623C236.387 288.849 236.68 289.036 237.027 289.183C237.387 289.316 237.88 289.469 238.507 289.643C239.294 289.856 239.934 290.069 240.427 290.283C240.92 290.483 241.34 290.789 241.687 291.203C242.047 291.616 242.234 292.156 242.247 292.823C242.247 293.423 242.08 293.963 241.747 294.443C241.414 294.923 240.94 295.303 240.327 295.583C239.727 295.849 239.034 295.983 238.247 295.983ZM246.696 286.343V292.803C246.696 293.336 246.809 293.716 247.036 293.943C247.263 294.156 247.656 294.263 248.216 294.263H249.556V295.803H247.916C246.903 295.803 246.143 295.569 245.636 295.103C245.129 294.636 244.876 293.869 244.876 292.803V286.343H243.456V284.843H244.876V282.083H246.696V284.843H249.556V286.343H246.696ZM261.141 284.843V295.803H259.321V294.183C258.975 294.743 258.488 295.183 257.861 295.503C257.248 295.809 256.568 295.963 255.821 295.963C254.968 295.963 254.201 295.789 253.521 295.443C252.841 295.083 252.301 294.549 251.901 293.843C251.515 293.136 251.321 292.276 251.321 291.263V284.843H253.121V291.023C253.121 292.103 253.395 292.936 253.941 293.523C254.488 294.096 255.235 294.383 256.181 294.383C257.155 294.383 257.921 294.083 258.481 293.483C259.041 292.883 259.321 292.009 259.321 290.863V284.843H261.141ZM267.754 295.983C266.914 295.983 266.161 295.843 265.494 295.563C264.828 295.269 264.301 294.869 263.914 294.363C263.528 293.843 263.314 293.249 263.274 292.583H265.154C265.208 293.129 265.461 293.576 265.914 293.923C266.381 294.269 266.988 294.443 267.734 294.443C268.428 294.443 268.974 294.289 269.374 293.983C269.774 293.676 269.974 293.289 269.974 292.823C269.974 292.343 269.761 291.989 269.334 291.763C268.908 291.523 268.248 291.289 267.354 291.063C266.541 290.849 265.874 290.636 265.354 290.423C264.848 290.196 264.408 289.869 264.034 289.443C263.674 289.003 263.494 288.429 263.494 287.723C263.494 287.163 263.661 286.649 263.994 286.183C264.328 285.716 264.801 285.349 265.414 285.083C266.028 284.803 266.728 284.663 267.514 284.663C268.728 284.663 269.708 284.969 270.454 285.583C271.201 286.196 271.601 287.036 271.654 288.103H269.834C269.794 287.529 269.561 287.069 269.134 286.723C268.721 286.376 268.161 286.203 267.454 286.203C266.801 286.203 266.281 286.343 265.894 286.623C265.508 286.903 265.314 287.269 265.314 287.723C265.314 288.083 265.428 288.383 265.654 288.623C265.894 288.849 266.188 289.036 266.534 289.183C266.894 289.316 267.388 289.469 268.014 289.643C268.801 289.856 269.441 290.069 269.934 290.283C270.428 290.483 270.848 290.789 271.194 291.203C271.554 291.616 271.741 292.156 271.754 292.823C271.754 293.423 271.588 293.963 271.254 294.443C270.921 294.923 270.448 295.303 269.834 295.583C269.234 295.849 268.541 295.983 267.754 295.983Z" fill="#A8A699"/>
<rect x="44" y="324.803" width="235" height="74" rx="24" fill="#5D9A83"/>
<path d="M93.3641 358.803V341.348H100.25C101.574 341.348 102.702 341.601 103.634 342.107C104.566 342.607 105.276 343.303 105.765 344.195C106.259 345.081 106.506 346.104 106.506 347.263C106.506 348.422 106.256 349.445 105.756 350.331C105.256 351.218 104.532 351.908 103.583 352.402C102.64 352.896 101.498 353.144 100.157 353.144H95.7675V350.186H99.5601C100.27 350.186 100.856 350.064 101.316 349.82C101.782 349.57 102.128 349.226 102.356 348.789C102.589 348.345 102.705 347.837 102.705 347.263C102.705 346.683 102.589 346.178 102.356 345.746C102.128 345.308 101.782 344.97 101.316 344.732C100.85 344.487 100.259 344.365 99.5431 344.365H97.0544V358.803H93.3641ZM114.11 359.058C112.763 359.058 111.604 358.786 110.633 358.24C109.667 357.689 108.922 356.911 108.4 355.905C107.877 354.894 107.616 353.698 107.616 352.317C107.616 350.97 107.877 349.789 108.4 348.771C108.922 347.754 109.658 346.962 110.607 346.394C111.562 345.825 112.681 345.541 113.965 345.541C114.829 345.541 115.633 345.681 116.377 345.959C117.127 346.232 117.78 346.644 118.337 347.195C118.9 347.746 119.337 348.439 119.65 349.274C119.962 350.104 120.118 351.075 120.118 352.189V353.186H109.064V350.936H116.701C116.701 350.414 116.587 349.95 116.36 349.547C116.133 349.144 115.817 348.828 115.414 348.601C115.016 348.368 114.553 348.252 114.025 348.252C113.474 348.252 112.985 348.379 112.559 348.635C112.138 348.885 111.809 349.223 111.57 349.649C111.332 350.07 111.209 350.539 111.204 351.056V353.195C111.204 353.843 111.323 354.402 111.562 354.874C111.806 355.345 112.15 355.709 112.593 355.965C113.036 356.22 113.562 356.348 114.17 356.348C114.573 356.348 114.942 356.291 115.278 356.178C115.613 356.064 115.9 355.894 116.138 355.666C116.377 355.439 116.559 355.161 116.684 354.831L120.042 355.053C119.871 355.86 119.522 356.564 118.993 357.166C118.471 357.763 117.795 358.229 116.965 358.564C116.141 358.894 115.189 359.058 114.11 359.058ZM125.638 351.235V358.803H122.008V345.712H125.468V348.021H125.621C125.911 347.26 126.397 346.658 127.079 346.215C127.761 345.766 128.587 345.541 129.559 345.541C130.468 345.541 131.261 345.74 131.937 346.138C132.613 346.536 133.138 347.104 133.513 347.843C133.888 348.575 134.076 349.45 134.076 350.468V358.803H130.445V351.115C130.451 350.314 130.246 349.689 129.832 349.24C129.417 348.786 128.846 348.558 128.119 348.558C127.63 348.558 127.198 348.664 126.823 348.874C126.454 349.084 126.164 349.391 125.954 349.794C125.749 350.192 125.644 350.672 125.638 351.235ZM141.281 359.016C140.287 359.016 139.386 358.76 138.58 358.249C137.778 357.732 137.142 356.973 136.671 355.973C136.205 354.968 135.972 353.735 135.972 352.274C135.972 350.774 136.213 349.527 136.696 348.533C137.179 347.533 137.821 346.786 138.622 346.291C139.429 345.791 140.313 345.541 141.273 345.541C142.006 345.541 142.617 345.666 143.105 345.916C143.599 346.161 143.997 346.468 144.298 346.837C144.605 347.2 144.838 347.558 144.997 347.911H145.108V341.348H148.73V358.803H145.151V356.706H144.997C144.827 357.07 144.585 357.431 144.273 357.789C143.966 358.141 143.565 358.433 143.071 358.666C142.582 358.899 141.986 359.016 141.281 359.016ZM142.432 356.127C143.017 356.127 143.511 355.968 143.915 355.649C144.324 355.325 144.636 354.874 144.852 354.294C145.074 353.715 145.185 353.036 145.185 352.257C145.185 351.479 145.077 350.803 144.861 350.229C144.645 349.655 144.332 349.212 143.923 348.899C143.514 348.587 143.017 348.431 142.432 348.431C141.835 348.431 141.332 348.593 140.923 348.916C140.514 349.24 140.205 349.689 139.994 350.263C139.784 350.837 139.679 351.502 139.679 352.257C139.679 353.019 139.784 353.692 139.994 354.277C140.21 354.857 140.52 355.311 140.923 355.641C141.332 355.965 141.835 356.127 142.432 356.127ZM154.968 359.05C154.133 359.05 153.389 358.905 152.735 358.615C152.082 358.32 151.565 357.885 151.184 357.311C150.809 356.732 150.622 356.01 150.622 355.146C150.622 354.419 150.755 353.808 151.022 353.314C151.289 352.82 151.653 352.422 152.113 352.121C152.573 351.82 153.096 351.593 153.681 351.439C154.272 351.286 154.892 351.178 155.539 351.115C156.301 351.036 156.914 350.962 157.38 350.894C157.846 350.82 158.184 350.712 158.394 350.57C158.605 350.428 158.71 350.218 158.71 349.939V349.888C158.71 349.348 158.539 348.931 158.198 348.635C157.863 348.34 157.386 348.192 156.767 348.192C156.113 348.192 155.593 348.337 155.207 348.627C154.82 348.911 154.565 349.269 154.44 349.7L151.082 349.428C151.252 348.632 151.588 347.945 152.088 347.365C152.588 346.78 153.232 346.331 154.022 346.019C154.818 345.7 155.738 345.541 156.784 345.541C157.511 345.541 158.207 345.627 158.872 345.797C159.542 345.968 160.136 346.232 160.653 346.59C161.176 346.948 161.588 347.408 161.889 347.97C162.19 348.527 162.34 349.195 162.34 349.973V358.803H158.897V356.987H158.795C158.585 357.396 158.303 357.757 157.951 358.07C157.599 358.377 157.176 358.618 156.681 358.794C156.187 358.965 155.616 359.05 154.968 359.05ZM156.008 356.544C156.542 356.544 157.014 356.439 157.423 356.229C157.832 356.013 158.153 355.723 158.386 355.36C158.619 354.996 158.735 354.584 158.735 354.124V352.735C158.622 352.808 158.465 352.877 158.267 352.939C158.073 352.996 157.855 353.05 157.61 353.101C157.366 353.146 157.122 353.189 156.877 353.229C156.633 353.263 156.411 353.294 156.213 353.323C155.786 353.385 155.414 353.485 155.096 353.621C154.778 353.757 154.531 353.942 154.355 354.175C154.178 354.402 154.09 354.686 154.09 355.027C154.09 355.521 154.269 355.899 154.627 356.161C154.991 356.416 155.451 356.544 156.008 356.544ZM171.717 345.712V348.439H163.637V345.712H171.717ZM165.487 358.803V344.766C165.487 343.817 165.671 343.03 166.041 342.405C166.416 341.78 166.927 341.311 167.575 340.999C168.223 340.686 168.958 340.53 169.782 340.53C170.339 340.53 170.848 340.573 171.308 340.658C171.774 340.743 172.12 340.82 172.348 340.888L171.7 343.615C171.558 343.57 171.382 343.527 171.171 343.487C170.967 343.448 170.757 343.428 170.541 343.428C170.007 343.428 169.635 343.553 169.424 343.803C169.214 344.047 169.109 344.391 169.109 344.834V358.803H165.487ZM180.418 345.712V348.439H172.535V345.712H180.418ZM174.324 342.575H177.955V354.78C177.955 355.115 178.006 355.377 178.108 355.564C178.211 355.746 178.353 355.874 178.535 355.948C178.722 356.021 178.938 356.058 179.182 356.058C179.353 356.058 179.523 356.044 179.694 356.016C179.864 355.982 179.995 355.956 180.086 355.939L180.657 358.641C180.475 358.698 180.219 358.763 179.89 358.837C179.56 358.916 179.16 358.965 178.688 358.982C177.813 359.016 177.046 358.899 176.387 358.632C175.733 358.365 175.225 357.95 174.861 357.388C174.498 356.825 174.319 356.115 174.324 355.257V342.575ZM186.036 359.05C185.201 359.05 184.456 358.905 183.803 358.615C183.15 358.32 182.633 357.885 182.252 357.311C181.877 356.732 181.689 356.01 181.689 355.146C181.689 354.419 181.823 353.808 182.09 353.314C182.357 352.82 182.721 352.422 183.181 352.121C183.641 351.82 184.164 351.593 184.749 351.439C185.34 351.286 185.959 351.178 186.607 351.115C187.368 351.036 187.982 350.962 188.448 350.894C188.914 350.82 189.252 350.712 189.462 350.57C189.672 350.428 189.778 350.218 189.778 349.939V349.888C189.778 349.348 189.607 348.931 189.266 348.635C188.931 348.34 188.454 348.192 187.834 348.192C187.181 348.192 186.661 348.337 186.275 348.627C185.888 348.911 185.633 349.269 185.508 349.7L182.15 349.428C182.32 348.632 182.655 347.945 183.155 347.365C183.655 346.78 184.3 346.331 185.09 346.019C185.885 345.7 186.806 345.541 187.851 345.541C188.579 345.541 189.275 345.627 189.939 345.797C190.61 345.968 191.204 346.232 191.721 346.59C192.243 346.948 192.655 347.408 192.956 347.97C193.258 348.527 193.408 349.195 193.408 349.973V358.803H189.965V356.987H189.863C189.653 357.396 189.371 357.757 189.019 358.07C188.667 358.377 188.243 358.618 187.749 358.794C187.255 358.965 186.684 359.05 186.036 359.05ZM187.076 356.544C187.61 356.544 188.081 356.439 188.491 356.229C188.9 356.013 189.221 355.723 189.454 355.36C189.687 354.996 189.803 354.584 189.803 354.124V352.735C189.689 352.808 189.533 352.877 189.334 352.939C189.141 352.996 188.922 353.05 188.678 353.101C188.434 353.146 188.189 353.189 187.945 353.229C187.701 353.263 187.479 353.294 187.28 353.323C186.854 353.385 186.482 353.485 186.164 353.621C185.846 353.757 185.599 353.942 185.422 354.175C185.246 354.402 185.158 354.686 185.158 355.027C185.158 355.521 185.337 355.899 185.695 356.161C186.059 356.416 186.519 356.544 187.076 356.544ZM195.745 358.803V345.712H199.265V347.996H199.401C199.64 347.183 200.04 346.57 200.603 346.155C201.165 345.735 201.813 345.524 202.546 345.524C202.728 345.524 202.924 345.536 203.134 345.558C203.344 345.581 203.529 345.612 203.688 345.652V348.874C203.518 348.823 203.282 348.777 202.981 348.737C202.68 348.698 202.404 348.678 202.154 348.678C201.62 348.678 201.143 348.794 200.722 349.027C200.307 349.254 199.978 349.573 199.734 349.982C199.495 350.391 199.376 350.862 199.376 351.396V358.803H195.745ZM208.443 359.05C207.608 359.05 206.864 358.905 206.21 358.615C205.557 358.32 205.04 357.885 204.659 357.311C204.284 356.732 204.097 356.01 204.097 355.146C204.097 354.419 204.23 353.808 204.497 353.314C204.764 352.82 205.128 352.422 205.588 352.121C206.048 351.82 206.571 351.593 207.156 351.439C207.747 351.286 208.367 351.178 209.014 351.115C209.776 351.036 210.389 350.962 210.855 350.894C211.321 350.82 211.659 350.712 211.869 350.57C212.08 350.428 212.185 350.218 212.185 349.939V349.888C212.185 349.348 212.014 348.931 211.673 348.635C211.338 348.34 210.861 348.192 210.242 348.192C209.588 348.192 209.068 348.337 208.682 348.627C208.296 348.911 208.04 349.269 207.915 349.7L204.557 349.428C204.727 348.632 205.063 347.945 205.563 347.365C206.063 346.78 206.707 346.331 207.497 346.019C208.293 345.7 209.213 345.541 210.259 345.541C210.986 345.541 211.682 345.627 212.347 345.797C213.017 345.968 213.611 346.232 214.128 346.59C214.651 346.948 215.063 347.408 215.364 347.97C215.665 348.527 215.815 349.195 215.815 349.973V358.803H212.372V356.987H212.27C212.06 357.396 211.778 357.757 211.426 358.07C211.074 358.377 210.651 358.618 210.156 358.794C209.662 358.965 209.091 359.05 208.443 359.05ZM209.483 356.544C210.017 356.544 210.489 356.439 210.898 356.229C211.307 356.013 211.628 355.723 211.861 355.36C212.094 354.996 212.21 354.584 212.21 354.124V352.735C212.097 352.808 211.94 352.877 211.742 352.939C211.548 352.996 211.33 353.05 211.085 353.101C210.841 353.146 210.597 353.189 210.352 353.229C210.108 353.263 209.886 353.294 209.688 353.323C209.261 353.385 208.889 353.485 208.571 353.621C208.253 353.757 208.006 353.942 207.83 354.175C207.653 354.402 207.565 354.686 207.565 355.027C207.565 355.521 207.744 355.899 208.102 356.161C208.466 356.416 208.926 356.544 209.483 356.544ZM221.783 351.235V358.803H218.152V345.712H221.612V348.021H221.766C222.056 347.26 222.541 346.658 223.223 346.215C223.905 345.766 224.732 345.541 225.703 345.541C226.612 345.541 227.405 345.74 228.081 346.138C228.757 346.536 229.283 347.104 229.658 347.843C230.033 348.575 230.22 349.45 230.22 350.468V358.803H226.59V351.115C226.595 350.314 226.391 349.689 225.976 349.24C225.561 348.786 224.99 348.558 224.263 348.558C223.774 348.558 223.342 348.664 222.967 348.874C222.598 349.084 222.308 349.391 222.098 349.794C221.894 350.192 221.789 350.672 221.783 351.235ZM120.102 381.803V364.348H127.09C128.374 364.348 129.445 364.539 130.303 364.919C131.161 365.3 131.806 365.828 132.238 366.504C132.67 367.175 132.886 367.948 132.886 368.823C132.886 369.504 132.749 370.104 132.477 370.621C132.204 371.132 131.829 371.553 131.352 371.882C130.88 372.206 130.34 372.436 129.732 372.573V372.743C130.397 372.771 131.019 372.959 131.599 373.306C132.184 373.652 132.658 374.138 133.022 374.763C133.386 375.382 133.567 376.121 133.567 376.979C133.567 377.905 133.337 378.732 132.877 379.459C132.423 380.181 131.749 380.752 130.857 381.172C129.965 381.593 128.866 381.803 127.559 381.803H120.102ZM123.792 378.786H126.8C127.829 378.786 128.579 378.59 129.05 378.198C129.522 377.8 129.758 377.271 129.758 376.612C129.758 376.129 129.641 375.703 129.408 375.334C129.175 374.965 128.843 374.675 128.411 374.465C127.985 374.254 127.477 374.149 126.886 374.149H123.792V378.786ZM123.792 371.652H126.528C127.033 371.652 127.482 371.564 127.874 371.388C128.272 371.206 128.585 370.95 128.812 370.621C129.045 370.291 129.161 369.896 129.161 369.436C129.161 368.806 128.937 368.297 128.488 367.911C128.045 367.524 127.414 367.331 126.596 367.331H123.792V371.652ZM139.154 382.05C138.318 382.05 137.574 381.905 136.921 381.615C136.267 381.32 135.75 380.885 135.369 380.311C134.994 379.732 134.807 379.01 134.807 378.146C134.807 377.419 134.94 376.808 135.208 376.314C135.475 375.82 135.838 375.422 136.298 375.121C136.759 374.82 137.281 374.593 137.867 374.439C138.458 374.286 139.077 374.178 139.725 374.115C140.486 374.036 141.1 373.962 141.565 373.894C142.031 373.82 142.369 373.712 142.58 373.57C142.79 373.428 142.895 373.218 142.895 372.939V372.888C142.895 372.348 142.725 371.931 142.384 371.635C142.048 371.34 141.571 371.192 140.952 371.192C140.298 371.192 139.779 371.337 139.392 371.627C139.006 371.911 138.75 372.269 138.625 372.7L135.267 372.428C135.438 371.632 135.773 370.945 136.273 370.365C136.773 369.78 137.418 369.331 138.208 369.019C139.003 368.7 139.923 368.541 140.969 368.541C141.696 368.541 142.392 368.627 143.057 368.797C143.727 368.968 144.321 369.232 144.838 369.59C145.361 369.948 145.773 370.408 146.074 370.97C146.375 371.527 146.526 372.195 146.526 372.973V381.803H143.083V379.987H142.98C142.77 380.396 142.489 380.757 142.136 381.07C141.784 381.377 141.361 381.618 140.867 381.794C140.372 381.965 139.801 382.05 139.154 382.05ZM140.193 379.544C140.727 379.544 141.199 379.439 141.608 379.229C142.017 379.013 142.338 378.723 142.571 378.36C142.804 377.996 142.921 377.584 142.921 377.124V375.735C142.807 375.808 142.651 375.877 142.452 375.939C142.259 375.996 142.04 376.05 141.796 376.101C141.551 376.146 141.307 376.189 141.063 376.229C140.818 376.263 140.597 376.294 140.398 376.323C139.972 376.385 139.6 376.485 139.281 376.621C138.963 376.757 138.716 376.942 138.54 377.175C138.364 377.402 138.276 377.686 138.276 378.027C138.276 378.521 138.455 378.899 138.813 379.161C139.176 379.416 139.636 379.544 140.193 379.544ZM155.826 368.712V371.439H147.942V368.712H155.826ZM149.732 365.575H153.362V377.78C153.362 378.115 153.414 378.377 153.516 378.564C153.618 378.746 153.76 378.874 153.942 378.948C154.129 379.021 154.345 379.058 154.59 379.058C154.76 379.058 154.931 379.044 155.101 379.016C155.272 378.982 155.402 378.956 155.493 378.939L156.064 381.641C155.882 381.698 155.627 381.763 155.297 381.837C154.968 381.916 154.567 381.965 154.095 381.982C153.22 382.016 152.453 381.899 151.794 381.632C151.141 381.365 150.632 380.95 150.269 380.388C149.905 379.825 149.726 379.115 149.732 378.257V365.575ZM163.485 382.058C162.144 382.058 160.99 381.774 160.025 381.206C159.064 380.632 158.326 379.837 157.809 378.82C157.297 377.803 157.042 376.632 157.042 375.308C157.042 373.968 157.3 372.791 157.817 371.78C158.34 370.763 159.081 369.97 160.042 369.402C161.002 368.828 162.144 368.541 163.468 368.541C164.61 368.541 165.61 368.749 166.468 369.164C167.326 369.578 168.005 370.161 168.505 370.911C169.005 371.661 169.28 372.541 169.331 373.553H165.905C165.809 372.899 165.553 372.374 165.138 371.976C164.729 371.573 164.192 371.371 163.527 371.371C162.965 371.371 162.473 371.524 162.053 371.831C161.638 372.132 161.314 372.573 161.081 373.152C160.848 373.732 160.732 374.433 160.732 375.257C160.732 376.093 160.846 376.803 161.073 377.388C161.306 377.973 161.632 378.419 162.053 378.726C162.473 379.033 162.965 379.186 163.527 379.186C163.942 379.186 164.314 379.101 164.644 378.931C164.979 378.76 165.255 378.513 165.471 378.189C165.692 377.86 165.837 377.465 165.905 377.004H169.331C169.275 378.004 169.002 378.885 168.513 379.646C168.03 380.402 167.363 380.993 166.51 381.419C165.658 381.845 164.65 382.058 163.485 382.058ZM174.807 374.235V381.803H171.176V364.348H174.704V371.021H174.858C175.153 370.249 175.63 369.644 176.29 369.206C176.949 368.763 177.775 368.541 178.77 368.541C179.679 368.541 180.471 368.74 181.147 369.138C181.829 369.53 182.358 370.095 182.733 370.834C183.113 371.567 183.301 372.445 183.295 373.468V381.803H179.665V374.115C179.67 373.308 179.466 372.681 179.051 372.232C178.642 371.783 178.068 371.558 177.329 371.558C176.835 371.558 176.397 371.664 176.017 371.874C175.642 372.084 175.346 372.391 175.13 372.794C174.92 373.192 174.812 373.672 174.807 374.235ZM190.713 381.803V379.144L196.926 373.391C197.455 372.879 197.898 372.419 198.256 372.01C198.619 371.601 198.895 371.2 199.082 370.808C199.27 370.411 199.364 369.982 199.364 369.521C199.364 369.01 199.247 368.57 199.014 368.2C198.781 367.825 198.463 367.539 198.06 367.34C197.656 367.135 197.199 367.033 196.687 367.033C196.153 367.033 195.687 367.141 195.29 367.357C194.892 367.573 194.585 367.882 194.369 368.286C194.153 368.689 194.045 369.169 194.045 369.726H190.543C190.543 368.584 190.801 367.593 191.318 366.752C191.835 365.911 192.56 365.26 193.491 364.8C194.423 364.34 195.497 364.11 196.713 364.11C197.963 364.11 199.051 364.331 199.977 364.774C200.909 365.212 201.634 365.82 202.151 366.598C202.668 367.377 202.926 368.269 202.926 369.274C202.926 369.933 202.795 370.584 202.534 371.226C202.278 371.868 201.821 372.581 201.162 373.365C200.503 374.144 199.574 375.078 198.375 376.169L195.827 378.666V378.786H203.156V381.803H190.713Z" fill="white"/>
</g>
<path d="M190.781 0.894531L184.412 48.7092L183.997 51.8209L183.422 56.1316L183.415 56.1909L183.368 56.5449L180.896 75.1018L179.599 84.8482L175.638 114.584L175.001 119.373C175.001 119.373 174.999 119.38 174.999 119.384C174.836 120.272 174.712 120.802 174.712 120.802H148.1C148.1 120.802 148.047 120.574 147.965 120.166L147.114 113.735L143.297 84.8482L140.804 65.9966L138.519 48.7092L136.271 31.7053L132.218 1.03353L144.079 1.00573L145.98 1.00017C145.98 1.00017 145.986 1.00017 145.988 1.00017L177.33 0.926037C177.33 0.926037 177.334 0.924184 177.336 0.926037L178.364 0.926037L190.781 0.894531Z" fill="#3D866B"/>
<path d="M161.222 18.0364C161.222 8.568 153.548 0.893555 144.079 0.893555V18.0364C144.079 27.5048 151.754 35.1793 161.222 35.1793C170.69 35.1793 178.365 27.5048 178.365 18.0364V0.893555C168.896 0.893555 161.222 8.568 161.222 18.0364Z" fill="#ED786C"/>
<path d="M175.639 114.583C175.479 116.524 175.209 118.238 175.001 119.372C175.001 119.376 174.999 119.379 174.999 119.383C174.836 120.271 174.712 120.801 174.712 120.801H148.101C148.101 120.801 148.047 120.573 147.966 120.165C147.738 119.046 147.289 116.568 147.115 113.734C146.93 110.714 147.057 107.287 148.101 104.674C149.989 99.9459 156.405 94.0525 156.405 94.0525V89.4805H166.409V94.0507C166.409 94.0507 172.824 99.9459 174.712 104.674C175.856 107.535 175.9 111.37 175.639 114.583Z" fill="#072C3F"/>
<path d="M146.484 57.8938C146.927 61.4391 144.484 64.7584 140.804 65.9964L138.519 48.7089L136.271 31.7051C138.993 32.287 141.2 34.6518 141.586 37.7171C141.664 38.3398 141.66 38.9551 141.586 39.5482C145.702 40.7343 148.917 44.2555 149.481 48.7516C149.909 52.1801 148.702 55.4401 146.465 57.753C146.471 57.7993 146.478 57.8475 146.484 57.8938Z" fill="#9CDADF"/>
<path d="M182.462 56.6238C182.762 56.5831 183.066 56.5553 183.368 56.5442L180.896 75.1011C180.672 75.0306 180.449 74.9509 180.232 74.8638L178.422 79.3506L176.993 78.7743L178.848 74.1744C178.602 74.0262 178.363 73.8649 178.131 73.6944L175.108 77.7086L173.878 76.782L176.965 72.6807C176.776 72.4842 176.593 72.2804 176.42 72.0691L172.334 75.266L171.385 74.0521L175.54 70.8014C175.408 70.5753 175.288 70.3455 175.175 70.1083L170.284 72.1877L169.682 70.7699L174.63 68.6665C174.56 68.4237 174.498 68.1772 174.448 67.9307L169.102 68.685L168.887 67.1579L174.267 66.3999C174.258 66.1534 174.258 65.9051 174.269 65.6549L168.868 64.9951L169.053 63.4643L174.456 64.1259C174.506 63.8813 174.565 63.6404 174.634 63.4013L169.595 61.3701L170.171 59.9412L175.179 61.9613C175.288 61.7315 175.405 61.5072 175.531 61.2886L171.237 58.0564L172.163 56.8258L176.409 60.0209C176.574 59.8189 176.748 59.6243 176.93 59.4371L173.679 55.2802L174.893 54.3313L178.088 58.4178C178.309 58.2547 178.533 58.1009 178.767 57.9582L176.758 53.2323L178.175 52.63L180.142 57.254C180.407 57.1428 180.679 57.0445 180.953 56.9593L180.26 52.0499L181.786 51.835L182.462 56.6238Z" fill="#F3B7BD"/>
<path d="M161.5 114.5C160.394 114.5 159.485 113.66 159.376 112.583C158.538 113.267 157.301 113.219 156.52 112.437C155.738 111.656 155.69 110.419 156.374 109.581C155.297 109.472 154.457 108.563 154.457 107.458C154.457 106.352 155.297 105.443 156.374 105.334C155.69 104.496 155.738 103.259 156.52 102.478C157.301 101.696 158.538 101.648 159.376 102.332C159.485 101.255 160.394 100.415 161.5 100.415C162.605 100.415 163.514 101.255 163.623 102.332C164.461 101.648 165.698 101.696 166.479 102.478C167.261 103.259 167.309 104.496 166.625 105.334C167.702 105.443 168.542 106.352 168.542 107.458C168.542 108.563 167.702 109.472 166.625 109.581C167.309 110.419 167.261 111.656 166.479 112.437C165.698 113.219 164.461 113.267 163.623 112.583C163.514 113.66 162.605 114.5 161.5 114.5Z" fill="#9EC2B5"/>
<path d="M163.724 29.8047H158.905V91.8896H163.724V29.8047Z" fill="#FCF9E6"/>
<defs>
<filter id="filter0_dd_5864_354" x="0" y="64.8018" width="323" height="388" filterUnits="userSpaceOnUse" color-interpolation-filters="sRGB">
<feFlood flood-opacity="0" result="BackgroundImageFix"/>
<feColorMatrix in="SourceAlpha" type="matrix" values="0 0 0 0 0 0 0 0 0 0 0 0 0 0 0 0 0 0 127 0" result="hardAlpha"/>
<feMorphology radius="3" operator="erode" in="SourceAlpha" result="effect1_dropShadow_5864_354"/>
<feOffset dy="10"/>
<feGaussianBlur stdDeviation="7.5"/>
<feComposite in2="hardAlpha" operator="out"/>
<feColorMatrix type="matrix" values="0 0 0 0 0.0627451 0 0 0 0 0.0941176 0 0 0 0 0.156863 0 0 0 0.1 0"/>
<feBlend mode="normal" in2="BackgroundImageFix" result="effect1_dropShadow_5864_354"/>
<feColorMatrix in="SourceAlpha" type="matrix" values="0 0 0 0 0 0 0 0 0 0 0 0 0 0 0 0 0 0 127 0" result="hardAlpha"/>
<feMorphology radius="4" operator="erode" in="SourceAlpha" result="effect2_dropShadow_5864_354"/>
<feOffset dy="4"/>
<feGaussianBlur stdDeviation="3"/>
<feComposite in2="hardAlpha" operator="out"/>
<feColorMatrix type="matrix" values="0 0 0 0 0.0627451 0 0 0 0 0.0941176 0 0 0 0 0.156863 0 0 0 0.1 0"/>
<feBlend mode="normal" in2="effect1_dropShadow_5864_354" result="effect2_dropShadow_5864_354"/>
<feBlend mode="normal" in="SourceGraphic" in2="effect2_dropShadow_5864_354" result="shape"/>
</filter>
</defs>
</svg>
