<svg width="323" height="453" viewBox="0 0 323 453" fill="none" xmlns="http://www.w3.org/2000/svg">
<g filter="url(#filter0_dd_5864_354)">
<rect x="12" y="66.8018" width="299" height="364" rx="32" fill="white"/>
<rect x="15" y="69.8018" width="293" height="358" rx="29" stroke="#5D9A83" stroke-width="6"/>
<path fill-rule="evenodd" clip-rule="evenodd" d="M161.5 178.474C138.992 178.474 120.746 196.72 120.746 219.228C120.746 241.736 138.992 259.983 161.5 259.983C184.008 259.983 202.254 241.736 202.254 219.228C202.254 196.72 184.008 178.474 161.5 178.474ZM105.926 219.228C105.926 188.536 130.807 163.654 161.5 163.654C192.193 163.654 217.074 188.536 217.074 219.228C217.074 249.921 192.193 274.802 161.5 274.802C130.807 274.802 105.926 249.921 105.926 219.228Z" fill="#5D9A83"/>
<path fill-rule="evenodd" clip-rule="evenodd" d="M161.5 204.432C153.328 204.432 146.704 211.056 146.704 219.228C146.704 227.399 153.328 234.024 161.5 234.024C169.671 234.024 176.295 227.399 176.295 219.228C176.295 211.056 169.671 204.432 161.5 204.432ZM131.908 219.228C131.908 202.885 145.157 189.637 161.5 189.637C177.842 189.637 191.091 202.885 191.091 219.228C191.091 235.571 177.842 248.819 161.5 248.819C145.157 248.819 131.908 235.571 131.908 219.228Z" fill="#F3B7BD"/>
<path d="M165.676 219.309L183.797 200.471L184.035 196.213L179.702 196.976L161.581 215.813" fill="#3D866B"/>
<path d="M159.853 220.522L191.083 233.79L195.155 232.644L193.043 228.817L161.813 215.55" fill="#3D866B"/>
<path d="M158.24 215.97L152.438 219.229L158.24 222.488L161.499 228.291L164.758 222.488L170.561 219.229L164.758 215.97L161.499 210.167L158.24 215.97Z" fill="#ED786C"/>
<path d="M97.1048 317.343C98.7982 315.983 100.125 314.869 101.085 314.003C102.045 313.123 102.852 312.209 103.505 311.263C104.172 310.303 104.505 309.363 104.505 308.443C104.505 307.576 104.292 306.896 103.865 306.403C103.452 305.896 102.778 305.643 101.845 305.643C100.938 305.643 100.232 305.929 99.7248 306.503C99.2315 307.063 98.9648 307.816 98.9248 308.763H97.1648C97.2182 307.269 97.6715 306.116 98.5248 305.303C99.3782 304.489 100.478 304.083 101.825 304.083C103.198 304.083 104.285 304.463 105.085 305.223C105.898 305.983 106.305 307.029 106.305 308.363C106.305 309.469 105.972 310.549 105.305 311.603C104.652 312.643 103.905 313.563 103.065 314.363C102.225 315.149 101.152 316.069 99.8448 317.123H106.725V318.643H97.1048V317.343ZM108.009 306.003V304.343H111.769V318.803H109.929V306.003H108.009ZM124.267 318.943C123.347 318.943 122.52 318.783 121.787 318.463C121.067 318.129 120.5 317.676 120.087 317.103C119.674 316.516 119.46 315.843 119.447 315.083H121.387C121.454 315.736 121.72 316.289 122.187 316.743C122.667 317.183 123.36 317.403 124.267 317.403C125.134 317.403 125.814 317.189 126.307 316.763C126.814 316.323 127.067 315.763 127.067 315.083C127.067 314.549 126.92 314.116 126.627 313.783C126.334 313.449 125.967 313.196 125.527 313.023C125.087 312.849 124.494 312.663 123.747 312.463C122.827 312.223 122.087 311.983 121.527 311.743C120.98 311.503 120.507 311.129 120.107 310.623C119.72 310.103 119.527 309.409 119.527 308.543C119.527 307.783 119.72 307.109 120.107 306.523C120.494 305.936 121.034 305.483 121.727 305.163C122.434 304.843 123.24 304.683 124.147 304.683C125.454 304.683 126.52 305.009 127.347 305.663C128.187 306.316 128.66 307.183 128.767 308.263H126.767C126.7 307.729 126.42 307.263 125.927 306.863C125.434 306.449 124.78 306.243 123.967 306.243C123.207 306.243 122.587 306.443 122.107 306.843C121.627 307.229 121.387 307.776 121.387 308.483C121.387 308.989 121.527 309.403 121.807 309.723C122.1 310.043 122.454 310.289 122.867 310.463C123.294 310.623 123.887 310.809 124.647 311.023C125.567 311.276 126.307 311.529 126.867 311.783C127.427 312.023 127.907 312.403 128.307 312.923C128.707 313.429 128.907 314.123 128.907 315.003C128.907 315.683 128.727 316.323 128.367 316.923C128.007 317.523 127.474 318.009 126.767 318.383C126.06 318.756 125.227 318.943 124.267 318.943ZM141.245 312.903C141.245 313.249 141.225 313.616 141.185 314.003H132.425C132.492 315.083 132.859 315.929 133.525 316.543C134.205 317.143 135.025 317.443 135.985 317.443C136.772 317.443 137.425 317.263 137.945 316.903C138.479 316.529 138.852 316.036 139.065 315.423H141.025C140.732 316.476 140.145 317.336 139.265 318.003C138.385 318.656 137.292 318.983 135.985 318.983C134.945 318.983 134.012 318.749 133.185 318.283C132.372 317.816 131.732 317.156 131.265 316.303C130.799 315.436 130.565 314.436 130.565 313.303C130.565 312.169 130.792 311.176 131.245 310.323C131.699 309.469 132.332 308.816 133.145 308.363C133.972 307.896 134.919 307.663 135.985 307.663C137.025 307.663 137.945 307.889 138.745 308.343C139.545 308.796 140.159 309.423 140.585 310.223C141.025 311.009 141.245 311.903 141.245 312.903ZM139.365 312.523C139.365 311.829 139.212 311.236 138.905 310.743C138.599 310.236 138.179 309.856 137.645 309.603C137.125 309.336 136.545 309.203 135.905 309.203C134.985 309.203 134.199 309.496 133.545 310.083C132.905 310.669 132.539 311.483 132.445 312.523H139.365ZM145.128 309.863C145.488 309.236 146.021 308.716 146.728 308.303C147.448 307.876 148.281 307.663 149.228 307.663C150.201 307.663 151.081 307.896 151.868 308.363C152.668 308.829 153.294 309.489 153.748 310.343C154.201 311.183 154.428 312.163 154.428 313.283C154.428 314.389 154.201 315.376 153.748 316.243C153.294 317.109 152.668 317.783 151.868 318.263C151.081 318.743 150.201 318.983 149.228 318.983C148.294 318.983 147.468 318.776 146.748 318.363C146.041 317.936 145.501 317.409 145.128 316.783V324.003H143.308V307.843H145.128V309.863ZM152.568 313.283C152.568 312.456 152.401 311.736 152.068 311.123C151.734 310.509 151.281 310.043 150.708 309.723C150.148 309.403 149.528 309.243 148.848 309.243C148.181 309.243 147.561 309.409 146.988 309.743C146.428 310.063 145.974 310.536 145.628 311.163C145.294 311.776 145.128 312.489 145.128 313.303C145.128 314.129 145.294 314.856 145.628 315.483C145.974 316.096 146.428 316.569 146.988 316.903C147.561 317.223 148.181 317.383 148.848 317.383C149.528 317.383 150.148 317.223 150.708 316.903C151.281 316.569 151.734 316.096 152.068 315.483C152.401 314.856 152.568 314.123 152.568 313.283ZM158.703 309.343V315.803C158.703 316.336 158.817 316.716 159.043 316.943C159.27 317.156 159.663 317.263 160.223 317.263H161.563V318.803H159.923C158.91 318.803 158.15 318.569 157.643 318.103C157.137 317.636 156.883 316.869 156.883 315.803V309.343H155.463V307.843H156.883V305.083H158.703V307.843H161.563V309.343H158.703ZM173.428 312.903C173.428 313.249 173.408 313.616 173.368 314.003H164.608C164.675 315.083 165.042 315.929 165.708 316.543C166.388 317.143 167.208 317.443 168.168 317.443C168.955 317.443 169.608 317.263 170.128 316.903C170.662 316.529 171.035 316.036 171.248 315.423H173.208C172.915 316.476 172.328 317.336 171.448 318.003C170.568 318.656 169.475 318.983 168.168 318.983C167.128 318.983 166.195 318.749 165.368 318.283C164.555 317.816 163.915 317.156 163.448 316.303C162.982 315.436 162.748 314.436 162.748 313.303C162.748 312.169 162.975 311.176 163.428 310.323C163.882 309.469 164.515 308.816 165.328 308.363C166.155 307.896 167.102 307.663 168.168 307.663C169.208 307.663 170.128 307.889 170.928 308.343C171.728 308.796 172.342 309.423 172.768 310.223C173.208 311.009 173.428 311.903 173.428 312.903ZM171.548 312.523C171.548 311.829 171.395 311.236 171.088 310.743C170.782 310.236 170.362 309.856 169.828 309.603C169.308 309.336 168.728 309.203 168.088 309.203C167.168 309.203 166.382 309.496 165.728 310.083C165.088 310.669 164.722 311.483 164.628 312.523H171.548ZM188.671 307.643C189.524 307.643 190.284 307.823 190.951 308.183C191.617 308.529 192.144 309.056 192.531 309.763C192.917 310.469 193.111 311.329 193.111 312.343V318.803H191.311V312.603C191.311 311.509 191.037 310.676 190.491 310.103C189.957 309.516 189.231 309.223 188.311 309.223C187.364 309.223 186.611 309.529 186.051 310.143C185.491 310.743 185.211 311.616 185.211 312.763V318.803H183.411V312.603C183.411 311.509 183.137 310.676 182.591 310.103C182.057 309.516 181.331 309.223 180.411 309.223C179.464 309.223 178.711 309.529 178.151 310.143C177.591 310.743 177.311 311.616 177.311 312.763V318.803H175.491V307.843H177.311V309.423C177.671 308.849 178.151 308.409 178.751 308.103C179.364 307.796 180.037 307.643 180.771 307.643C181.691 307.643 182.504 307.849 183.211 308.263C183.917 308.676 184.444 309.283 184.791 310.083C185.097 309.309 185.604 308.709 186.311 308.283C187.017 307.856 187.804 307.643 188.671 307.643ZM197.576 309.883C197.95 309.229 198.496 308.696 199.216 308.283C199.936 307.869 200.756 307.663 201.676 307.663C202.663 307.663 203.55 307.896 204.336 308.363C205.123 308.829 205.743 309.489 206.196 310.343C206.65 311.183 206.876 312.163 206.876 313.283C206.876 314.389 206.65 315.376 206.196 316.243C205.743 317.109 205.116 317.783 204.316 318.263C203.53 318.743 202.65 318.983 201.676 318.983C200.73 318.983 199.896 318.776 199.176 318.363C198.47 317.949 197.936 317.423 197.576 316.783V318.803H195.756V304.003H197.576V309.883ZM205.016 313.283C205.016 312.456 204.85 311.736 204.516 311.123C204.183 310.509 203.73 310.043 203.156 309.723C202.596 309.403 201.976 309.243 201.296 309.243C200.63 309.243 200.01 309.409 199.436 309.743C198.876 310.063 198.423 310.536 198.076 311.163C197.743 311.776 197.576 312.489 197.576 313.303C197.576 314.129 197.743 314.856 198.076 315.483C198.423 316.096 198.876 316.569 199.436 316.903C200.01 317.223 200.63 317.383 201.296 317.383C201.976 317.383 202.596 317.223 203.156 316.903C203.73 316.569 204.183 316.096 204.516 315.483C204.85 314.856 205.016 314.123 205.016 313.283ZM218.932 312.903C218.932 313.249 218.912 313.616 218.872 314.003H210.112C210.179 315.083 210.545 315.929 211.212 316.543C211.892 317.143 212.712 317.443 213.672 317.443C214.459 317.443 215.112 317.263 215.632 316.903C216.165 316.529 216.539 316.036 216.752 315.423H218.712C218.419 316.476 217.832 317.336 216.952 318.003C216.072 318.656 214.979 318.983 213.672 318.983C212.632 318.983 211.699 318.749 210.872 318.283C210.059 317.816 209.419 317.156 208.952 316.303C208.485 315.436 208.252 314.436 208.252 313.303C208.252 312.169 208.479 311.176 208.932 310.323C209.385 309.469 210.019 308.816 210.832 308.363C211.659 307.896 212.605 307.663 213.672 307.663C214.712 307.663 215.632 307.889 216.432 308.343C217.232 308.796 217.845 309.423 218.272 310.223C218.712 311.009 218.932 311.903 218.932 312.903ZM217.052 312.523C217.052 311.829 216.899 311.236 216.592 310.743C216.285 310.236 215.865 309.856 215.332 309.603C214.812 309.336 214.232 309.203 213.592 309.203C212.672 309.203 211.885 309.496 211.232 310.083C210.592 310.669 210.225 311.483 210.132 312.523H217.052ZM222.814 309.623C223.134 308.996 223.588 308.509 224.174 308.163C224.774 307.816 225.501 307.643 226.354 307.643V309.523H225.874C223.834 309.523 222.814 310.629 222.814 312.843V318.803H220.994V307.843H222.814V309.623Z" fill="#A8A699"/>
<rect x="44" y="347.803" width="235" height="51" rx="24" fill="#5D9A83"/>
<path d="M64.828 381.803V364.348H76.3848V367.391H68.5183V371.55H75.6178V374.593H68.5183V381.803H64.828ZM78.3189 381.803V368.712H81.9495V381.803H78.3189ZM80.1427 367.024C79.603 367.024 79.1399 366.845 78.7535 366.487C78.3728 366.124 78.1825 365.689 78.1825 365.183C78.1825 364.683 78.3728 364.254 78.7535 363.896C79.1399 363.533 79.603 363.351 80.1427 363.351C80.6825 363.351 81.1427 363.533 81.5234 363.896C81.9098 364.254 82.103 364.683 82.103 365.183C82.103 365.689 81.9098 366.124 81.5234 366.487C81.1427 366.845 80.6825 367.024 80.1427 367.024ZM88.0086 374.235V381.803H84.3779V368.712H87.8382V371.021H87.9916C88.2813 370.26 88.7671 369.658 89.4489 369.215C90.1308 368.766 90.9575 368.541 91.9291 368.541C92.8382 368.541 93.6308 368.74 94.3069 369.138C94.983 369.536 95.5086 370.104 95.8836 370.843C96.2586 371.575 96.4461 372.45 96.4461 373.468V381.803H92.8154V374.115C92.8211 373.314 92.6166 372.689 92.2018 372.24C91.787 371.786 91.216 371.558 90.4887 371.558C90.0001 371.558 89.5683 371.664 89.1933 371.874C88.8239 372.084 88.5342 372.391 88.3239 372.794C88.1194 373.192 88.0143 373.672 88.0086 374.235ZM102.561 382.05C101.725 382.05 100.981 381.905 100.328 381.615C99.6742 381.32 99.1572 380.885 98.7765 380.311C98.4015 379.732 98.214 379.01 98.214 378.146C98.214 377.419 98.3475 376.808 98.6145 376.314C98.8816 375.82 99.2452 375.422 99.7055 375.121C100.166 374.82 100.688 374.593 101.274 374.439C101.865 374.286 102.484 374.178 103.132 374.115C103.893 374.036 104.507 373.962 104.972 373.894C105.438 373.82 105.776 373.712 105.987 373.57C106.197 373.428 106.302 373.218 106.302 372.939V372.888C106.302 372.348 106.132 371.931 105.791 371.635C105.455 371.34 104.978 371.192 104.359 371.192C103.705 371.192 103.186 371.337 102.799 371.627C102.413 371.911 102.157 372.269 102.032 372.7L98.6742 372.428C98.8447 371.632 99.1799 370.945 99.6799 370.365C100.18 369.78 100.825 369.331 101.615 369.019C102.41 368.7 103.33 368.541 104.376 368.541C105.103 368.541 105.799 368.627 106.464 368.797C107.134 368.968 107.728 369.232 108.245 369.59C108.768 369.948 109.18 370.408 109.481 370.97C109.782 371.527 109.933 372.195 109.933 372.973V381.803H106.49V379.987H106.387C106.177 380.396 105.896 380.757 105.544 381.07C105.191 381.377 104.768 381.618 104.274 381.794C103.779 381.965 103.208 382.05 102.561 382.05ZM103.6 379.544C104.134 379.544 104.606 379.439 105.015 379.229C105.424 379.013 105.745 378.723 105.978 378.36C106.211 377.996 106.328 377.584 106.328 377.124V375.735C106.214 375.808 106.058 375.877 105.859 375.939C105.666 375.996 105.447 376.05 105.203 376.101C104.958 376.146 104.714 376.189 104.47 376.229C104.225 376.263 104.004 376.294 103.805 376.323C103.379 376.385 103.007 376.485 102.688 376.621C102.37 376.757 102.123 376.942 101.947 377.175C101.771 377.402 101.683 377.686 101.683 378.027C101.683 378.521 101.862 378.899 102.22 379.161C102.583 379.416 103.044 379.544 103.6 379.544ZM115.9 364.348V381.803H112.269V364.348H115.9ZM128.756 382.058C127.551 382.058 126.511 381.843 125.636 381.411C124.761 380.979 124.088 380.394 123.616 379.655C123.15 378.911 122.917 378.081 122.917 377.166C122.917 376.485 123.054 375.879 123.327 375.351C123.599 374.823 123.98 374.337 124.469 373.894C124.957 373.445 125.525 372.999 126.173 372.556L129.557 370.331C129.994 370.053 130.315 369.76 130.52 369.453C130.724 369.141 130.827 368.803 130.827 368.439C130.827 368.093 130.687 367.771 130.409 367.476C130.131 367.181 129.736 367.036 129.224 367.041C128.883 367.041 128.588 367.118 128.338 367.271C128.088 367.419 127.892 367.615 127.75 367.86C127.613 368.098 127.545 368.365 127.545 368.661C127.545 369.024 127.648 369.394 127.852 369.769C128.057 370.144 128.329 370.541 128.67 370.962C129.011 371.377 129.383 371.825 129.787 372.308L138.062 381.803H134.278L127.375 374.115C126.92 373.598 126.466 373.058 126.011 372.496C125.562 371.928 125.187 371.325 124.886 370.689C124.585 370.047 124.434 369.351 124.434 368.601C124.434 367.754 124.631 366.993 125.023 366.317C125.42 365.641 125.977 365.107 126.693 364.715C127.409 364.317 128.244 364.118 129.199 364.118C130.131 364.118 130.934 364.308 131.611 364.689C132.292 365.064 132.815 365.564 133.179 366.189C133.548 366.808 133.733 367.49 133.733 368.235C133.733 369.058 133.528 369.806 133.119 370.476C132.716 371.141 132.148 371.737 131.415 372.266L127.852 374.831C127.369 375.183 127.011 375.544 126.778 375.914C126.551 376.277 126.437 376.627 126.437 376.962C126.437 377.377 126.54 377.749 126.744 378.078C126.949 378.408 127.238 378.669 127.613 378.862C127.988 379.05 128.429 379.144 128.934 379.144C129.548 379.144 130.153 379.004 130.75 378.726C131.352 378.442 131.898 378.041 132.386 377.524C132.881 377.002 133.275 376.382 133.571 375.666C133.866 374.95 134.014 374.158 134.014 373.289H137.023C137.023 374.357 136.906 375.32 136.673 376.178C136.44 377.03 136.116 377.774 135.702 378.411C135.287 379.041 134.812 379.558 134.278 379.962C134.108 380.07 133.943 380.172 133.784 380.269C133.625 380.365 133.46 380.468 133.29 380.575C132.642 381.098 131.917 381.476 131.116 381.709C130.321 381.942 129.534 382.058 128.756 382.058ZM148.167 381.803L143.173 364.348H147.204L150.093 376.476H150.238L153.425 364.348H156.877L160.056 376.502H160.21L163.099 364.348H167.13L162.136 381.803H158.539L155.215 370.391H155.079L151.764 381.803H148.167ZM173.066 382.058C171.742 382.058 170.597 381.777 169.631 381.215C168.671 380.646 167.929 379.857 167.406 378.845C166.884 377.828 166.622 376.649 166.622 375.308C166.622 373.956 166.884 372.774 167.406 371.763C167.929 370.746 168.671 369.956 169.631 369.394C170.597 368.825 171.742 368.541 173.066 368.541C174.389 368.541 175.531 368.825 176.492 369.394C177.458 369.956 178.202 370.746 178.725 371.763C179.247 372.774 179.509 373.956 179.509 375.308C179.509 376.649 179.247 377.828 178.725 378.845C178.202 379.857 177.458 380.646 176.492 381.215C175.531 381.777 174.389 382.058 173.066 382.058ZM173.083 379.246C173.685 379.246 174.188 379.075 174.591 378.735C174.994 378.388 175.298 377.916 175.503 377.32C175.713 376.723 175.818 376.044 175.818 375.283C175.818 374.521 175.713 373.843 175.503 373.246C175.298 372.649 174.994 372.178 174.591 371.831C174.188 371.485 173.685 371.311 173.083 371.311C172.475 371.311 171.963 371.485 171.548 371.831C171.139 372.178 170.83 372.649 170.619 373.246C170.415 373.843 170.313 374.521 170.313 375.283C170.313 376.044 170.415 376.723 170.619 377.32C170.83 377.916 171.139 378.388 171.548 378.735C171.963 379.075 172.475 379.246 173.083 379.246ZM181.389 381.803V368.712H184.909V370.996H185.046C185.284 370.183 185.685 369.57 186.247 369.155C186.81 368.735 187.458 368.524 188.191 368.524C188.372 368.524 188.568 368.536 188.779 368.558C188.989 368.581 189.174 368.612 189.333 368.652V371.874C189.162 371.823 188.926 371.777 188.625 371.737C188.324 371.698 188.049 371.678 187.799 371.678C187.264 371.678 186.787 371.794 186.367 372.027C185.952 372.254 185.622 372.573 185.378 372.982C185.139 373.391 185.02 373.862 185.02 374.396V381.803H181.389ZM194.02 378.036L194.028 373.681H194.557L198.75 368.712H202.917L197.284 375.291H196.423L194.02 378.036ZM190.73 381.803V364.348H194.36V381.803H190.73ZM198.912 381.803L195.059 376.101L197.48 373.536L203.164 381.803H198.912ZM215.111 372.445L211.787 372.649C211.73 372.365 211.608 372.11 211.42 371.882C211.233 371.649 210.986 371.465 210.679 371.328C210.378 371.186 210.017 371.115 209.596 371.115C209.034 371.115 208.559 371.235 208.173 371.473C207.787 371.706 207.594 372.019 207.594 372.411C207.594 372.723 207.719 372.987 207.969 373.203C208.219 373.419 208.648 373.593 209.255 373.723L211.625 374.2C212.898 374.462 213.846 374.882 214.471 375.462C215.096 376.041 215.409 376.803 215.409 377.746C215.409 378.604 215.156 379.357 214.65 380.004C214.15 380.652 213.463 381.158 212.588 381.521C211.719 381.879 210.716 382.058 209.579 382.058C207.846 382.058 206.466 381.698 205.437 380.976C204.415 380.249 203.815 379.26 203.639 378.01L207.21 377.823C207.318 378.351 207.579 378.754 207.994 379.033C208.409 379.306 208.94 379.442 209.588 379.442C210.224 379.442 210.736 379.32 211.122 379.075C211.514 378.825 211.713 378.504 211.719 378.112C211.713 377.783 211.574 377.513 211.301 377.303C211.028 377.087 210.608 376.922 210.04 376.808L207.773 376.357C206.494 376.101 205.542 375.658 204.917 375.027C204.298 374.396 203.988 373.593 203.988 372.615C203.988 371.774 204.216 371.05 204.67 370.442C205.13 369.834 205.775 369.365 206.605 369.036C207.44 368.706 208.417 368.541 209.537 368.541C211.19 368.541 212.491 368.891 213.44 369.59C214.395 370.289 214.952 371.24 215.111 372.445ZM220.846 374.235V381.803H217.215V364.348H220.744V371.021H220.897C221.192 370.249 221.67 369.644 222.329 369.206C222.988 368.763 223.815 368.541 224.809 368.541C225.718 368.541 226.511 368.74 227.187 369.138C227.869 369.53 228.397 370.095 228.772 370.834C229.153 371.567 229.34 372.445 229.334 373.468V381.803H225.704V374.115C225.709 373.308 225.505 372.681 225.09 372.232C224.681 371.783 224.107 371.558 223.369 371.558C222.874 371.558 222.437 371.664 222.056 371.874C221.681 372.084 221.386 372.391 221.17 372.794C220.959 373.192 220.851 373.672 220.846 374.235ZM237.626 382.058C236.303 382.058 235.158 381.777 234.192 381.215C233.232 380.646 232.49 379.857 231.967 378.845C231.445 377.828 231.183 376.649 231.183 375.308C231.183 373.956 231.445 372.774 231.967 371.763C232.49 370.746 233.232 369.956 234.192 369.394C235.158 368.825 236.303 368.541 237.626 368.541C238.95 368.541 240.092 368.825 241.053 369.394C242.018 369.956 242.763 370.746 243.286 371.763C243.808 372.774 244.07 373.956 244.07 375.308C244.07 376.649 243.808 377.828 243.286 378.845C242.763 379.857 242.018 380.646 241.053 381.215C240.092 381.777 238.95 382.058 237.626 382.058ZM237.643 379.246C238.246 379.246 238.749 379.075 239.152 378.735C239.555 378.388 239.859 377.916 240.064 377.32C240.274 376.723 240.379 376.044 240.379 375.283C240.379 374.521 240.274 373.843 240.064 373.246C239.859 372.649 239.555 372.178 239.152 371.831C238.749 371.485 238.246 371.311 237.643 371.311C237.036 371.311 236.524 371.485 236.109 371.831C235.7 372.178 235.391 372.649 235.18 373.246C234.976 373.843 234.874 374.521 234.874 375.283C234.874 376.044 234.976 376.723 235.18 377.32C235.391 377.916 235.7 378.388 236.109 378.735C236.524 379.075 237.036 379.246 237.643 379.246ZM245.95 386.712V368.712H249.53V370.911H249.692C249.851 370.558 250.081 370.2 250.382 369.837C250.689 369.468 251.087 369.161 251.575 368.916C252.07 368.666 252.683 368.541 253.416 368.541C254.371 368.541 255.252 368.791 256.058 369.291C256.865 369.786 257.51 370.533 257.993 371.533C258.476 372.527 258.717 373.774 258.717 375.274C258.717 376.735 258.482 377.968 258.01 378.973C257.544 379.973 256.908 380.732 256.101 381.249C255.3 381.76 254.402 382.016 253.408 382.016C252.703 382.016 252.104 381.899 251.61 381.666C251.121 381.433 250.72 381.141 250.408 380.789C250.095 380.431 249.857 380.07 249.692 379.706H249.581V386.712H245.95ZM249.504 375.257C249.504 376.036 249.612 376.715 249.828 377.294C250.044 377.874 250.357 378.325 250.766 378.649C251.175 378.968 251.672 379.127 252.257 379.127C252.848 379.127 253.348 378.965 253.757 378.641C254.166 378.311 254.476 377.857 254.686 377.277C254.902 376.692 255.01 376.019 255.01 375.257C255.01 374.502 254.905 373.837 254.695 373.263C254.485 372.689 254.175 372.24 253.766 371.916C253.357 371.593 252.854 371.431 252.257 371.431C251.666 371.431 251.166 371.587 250.757 371.899C250.354 372.212 250.044 372.655 249.828 373.229C249.612 373.803 249.504 374.479 249.504 375.257Z" fill="white"/>
</g>
<path d="M190.781 0.894531L184.412 48.7092L183.997 51.8209L183.422 56.1316L183.415 56.1909L183.368 56.5449L180.896 75.1018L179.599 84.8482L175.638 114.584L175.001 119.373C175.001 119.373 174.999 119.38 174.999 119.384C174.836 120.272 174.712 120.802 174.712 120.802H148.1C148.1 120.802 148.047 120.574 147.965 120.166L147.114 113.735L143.297 84.8482L140.804 65.9966L138.519 48.7092L136.271 31.7053L132.218 1.03353L144.079 1.00573L145.98 1.00017C145.98 1.00017 145.986 1.00017 145.988 1.00017L177.33 0.926037C177.33 0.926037 177.334 0.924184 177.336 0.926037L178.364 0.926037L190.781 0.894531Z" fill="#3D866B"/>
<path d="M161.222 18.0364C161.222 8.568 153.548 0.893555 144.079 0.893555V18.0364C144.079 27.5048 151.754 35.1793 161.222 35.1793C170.69 35.1793 178.365 27.5048 178.365 18.0364V0.893555C168.896 0.893555 161.222 8.568 161.222 18.0364Z" fill="#ED786C"/>
<path d="M175.639 114.583C175.479 116.524 175.209 118.238 175.001 119.372C175.001 119.376 174.999 119.379 174.999 119.383C174.836 120.271 174.712 120.801 174.712 120.801H148.101C148.101 120.801 148.047 120.573 147.966 120.165C147.738 119.046 147.289 116.568 147.115 113.734C146.93 110.714 147.057 107.287 148.101 104.674C149.989 99.9459 156.405 94.0525 156.405 94.0525V89.4805H166.409V94.0507C166.409 94.0507 172.824 99.9459 174.712 104.674C175.856 107.535 175.9 111.37 175.639 114.583Z" fill="#072C3F"/>
<path d="M146.484 57.8938C146.927 61.4391 144.484 64.7584 140.804 65.9964L138.519 48.7089L136.271 31.7051C138.993 32.287 141.2 34.6518 141.586 37.7171C141.664 38.3398 141.66 38.9551 141.586 39.5482C145.702 40.7343 148.917 44.2555 149.481 48.7516C149.909 52.1801 148.702 55.4401 146.465 57.753C146.471 57.7993 146.478 57.8475 146.484 57.8938Z" fill="#9CDADF"/>
<path d="M182.462 56.6238C182.762 56.5831 183.066 56.5553 183.368 56.5442L180.896 75.1011C180.672 75.0306 180.449 74.9509 180.232 74.8638L178.422 79.3506L176.993 78.7743L178.848 74.1744C178.602 74.0262 178.363 73.8649 178.131 73.6944L175.108 77.7086L173.878 76.782L176.965 72.6807C176.776 72.4842 176.593 72.2804 176.42 72.0691L172.334 75.266L171.385 74.0521L175.54 70.8014C175.408 70.5753 175.288 70.3455 175.175 70.1083L170.284 72.1877L169.682 70.7699L174.63 68.6665C174.56 68.4237 174.498 68.1772 174.448 67.9307L169.102 68.685L168.887 67.1579L174.267 66.3999C174.258 66.1534 174.258 65.9051 174.269 65.6549L168.868 64.9951L169.053 63.4643L174.456 64.1259C174.506 63.8813 174.565 63.6404 174.634 63.4013L169.595 61.3701L170.171 59.9412L175.179 61.9613C175.288 61.7315 175.405 61.5072 175.531 61.2886L171.237 58.0564L172.163 56.8258L176.409 60.0209C176.574 59.8189 176.748 59.6243 176.93 59.4371L173.679 55.2802L174.893 54.3313L178.088 58.4178C178.309 58.2547 178.533 58.1009 178.767 57.9582L176.758 53.2323L178.175 52.63L180.142 57.254C180.407 57.1428 180.679 57.0445 180.953 56.9593L180.26 52.0499L181.786 51.835L182.462 56.6238Z" fill="#F3B7BD"/>
<path d="M161.5 114.5C160.394 114.5 159.485 113.66 159.376 112.583C158.538 113.267 157.301 113.219 156.52 112.437C155.738 111.656 155.69 110.419 156.374 109.581C155.297 109.472 154.457 108.563 154.457 107.458C154.457 106.352 155.297 105.443 156.374 105.334C155.69 104.496 155.738 103.259 156.52 102.478C157.301 101.696 158.538 101.648 159.376 102.332C159.485 101.255 160.394 100.415 161.5 100.415C162.605 100.415 163.514 101.255 163.623 102.332C164.461 101.648 165.698 101.696 166.479 102.478C167.261 103.259 167.309 104.496 166.625 105.334C167.702 105.443 168.542 106.352 168.542 107.458C168.542 108.563 167.702 109.472 166.625 109.581C167.309 110.419 167.261 111.656 166.479 112.437C165.698 113.219 164.461 113.267 163.623 112.583C163.514 113.66 162.605 114.5 161.5 114.5Z" fill="#9EC2B5"/>
<path d="M163.724 29.8047H158.905V91.8896H163.724V29.8047Z" fill="#FCF9E6"/>
<defs>
<filter id="filter0_dd_5864_354" x="0" y="64.8018" width="323" height="388" filterUnits="userSpaceOnUse" color-interpolation-filters="sRGB">
<feFlood flood-opacity="0" result="BackgroundImageFix"/>
<feColorMatrix in="SourceAlpha" type="matrix" values="0 0 0 0 0 0 0 0 0 0 0 0 0 0 0 0 0 0 127 0" result="hardAlpha"/>
<feMorphology radius="3" operator="erode" in="SourceAlpha" result="effect1_dropShadow_5864_354"/>
<feOffset dy="10"/>
<feGaussianBlur stdDeviation="7.5"/>
<feComposite in2="hardAlpha" operator="out"/>
<feColorMatrix type="matrix" values="0 0 0 0 0.0627451 0 0 0 0 0.0941176 0 0 0 0 0.156863 0 0 0 0.1 0"/>
<feBlend mode="normal" in2="BackgroundImageFix" result="effect1_dropShadow_5864_354"/>
<feColorMatrix in="SourceAlpha" type="matrix" values="0 0 0 0 0 0 0 0 0 0 0 0 0 0 0 0 0 0 127 0" result="hardAlpha"/>
<feMorphology radius="4" operator="erode" in="SourceAlpha" result="effect2_dropShadow_5864_354"/>
<feOffset dy="4"/>
<feGaussianBlur stdDeviation="3"/>
<feComposite in2="hardAlpha" operator="out"/>
<feColorMatrix type="matrix" values="0 0 0 0 0.0627451 0 0 0 0 0.0941176 0 0 0 0 0.156863 0 0 0 0.1 0"/>
<feBlend mode="normal" in2="effect1_dropShadow_5864_354" result="effect2_dropShadow_5864_354"/>
<feBlend mode="normal" in="SourceGraphic" in2="effect2_dropShadow_5864_354" result="shape"/>
</filter>
</defs>
</svg>
