<svg width="323" height="453" viewBox="0 0 323 453" fill="none" xmlns="http://www.w3.org/2000/svg">
<g filter="url(#filter0_dd_5864_354)">
<rect x="12" y="66.8018" width="299" height="364" rx="32" fill="white"/>
<rect x="15" y="69.8018" width="293" height="358" rx="29" stroke="#5D9A83" stroke-width="6"/>
<path fill-rule="evenodd" clip-rule="evenodd" d="M161.5 178.474C138.992 178.474 120.746 196.72 120.746 219.228C120.746 241.736 138.992 259.983 161.5 259.983C184.008 259.983 202.254 241.736 202.254 219.228C202.254 196.72 184.008 178.474 161.5 178.474ZM105.926 219.228C105.926 188.536 130.807 163.654 161.5 163.654C192.193 163.654 217.074 188.536 217.074 219.228C217.074 249.921 192.193 274.802 161.5 274.802C130.807 274.802 105.926 249.921 105.926 219.228Z" fill="#5D9A83"/>
<path fill-rule="evenodd" clip-rule="evenodd" d="M161.5 204.432C153.328 204.432 146.704 211.056 146.704 219.228C146.704 227.399 153.328 234.024 161.5 234.024C169.671 234.024 176.295 227.399 176.295 219.228C176.295 211.056 169.671 204.432 161.5 204.432ZM131.908 219.228C131.908 202.885 145.157 189.637 161.5 189.637C177.842 189.637 191.091 202.885 191.091 219.228C191.091 235.571 177.842 248.819 161.5 248.819C145.157 248.819 131.908 235.571 131.908 219.228Z" fill="#F3B7BD"/>
<path d="M165.676 219.309L183.797 200.471L184.035 196.213L179.702 196.976L161.581 215.813" fill="#3D866B"/>
<path d="M159.853 220.522L191.083 233.79L195.155 232.644L193.043 228.817L161.813 215.55" fill="#3D866B"/>
<path d="M158.24 215.97L152.438 219.229L158.24 222.488L161.499 228.291L164.758 222.488L170.561 219.229L164.758 215.97L161.499 210.167L158.24 215.97Z" fill="#ED786C"/>
<path d="M109.551 305.763L103.991 318.803H102.151L107.791 305.943H100.071V304.383H109.551V305.763ZM120.941 318.943C120.021 318.943 119.194 318.783 118.461 318.463C117.741 318.129 117.174 317.676 116.761 317.103C116.348 316.516 116.134 315.843 116.121 315.083H118.061C118.128 315.736 118.394 316.289 118.861 316.743C119.341 317.183 120.034 317.403 120.941 317.403C121.808 317.403 122.488 317.189 122.981 316.763C123.488 316.323 123.741 315.763 123.741 315.083C123.741 314.549 123.594 314.116 123.301 313.783C123.008 313.449 122.641 313.196 122.201 313.023C121.761 312.849 121.168 312.663 120.421 312.463C119.501 312.223 118.761 311.983 118.201 311.743C117.654 311.503 117.181 311.129 116.781 310.623C116.394 310.103 116.201 309.409 116.201 308.543C116.201 307.783 116.394 307.109 116.781 306.523C117.168 305.936 117.708 305.483 118.401 305.163C119.108 304.843 119.914 304.683 120.821 304.683C122.128 304.683 123.194 305.009 124.021 305.663C124.861 306.316 125.334 307.183 125.441 308.263H123.441C123.374 307.729 123.094 307.263 122.601 306.863C122.108 306.449 121.454 306.243 120.641 306.243C119.881 306.243 119.261 306.443 118.781 306.843C118.301 307.229 118.061 307.776 118.061 308.483C118.061 308.989 118.201 309.403 118.481 309.723C118.774 310.043 119.128 310.289 119.541 310.463C119.968 310.623 120.561 310.809 121.321 311.023C122.241 311.276 122.981 311.529 123.541 311.783C124.101 312.023 124.581 312.403 124.981 312.923C125.381 313.429 125.581 314.123 125.581 315.003C125.581 315.683 125.401 316.323 125.041 316.923C124.681 317.523 124.148 318.009 123.441 318.383C122.734 318.756 121.901 318.943 120.941 318.943ZM137.919 312.903C137.919 313.249 137.899 313.616 137.859 314.003H129.099C129.166 315.083 129.533 315.929 130.199 316.543C130.879 317.143 131.699 317.443 132.659 317.443C133.446 317.443 134.099 317.263 134.619 316.903C135.153 316.529 135.526 316.036 135.739 315.423H137.699C137.406 316.476 136.819 317.336 135.939 318.003C135.059 318.656 133.966 318.983 132.659 318.983C131.619 318.983 130.686 318.749 129.859 318.283C129.046 317.816 128.406 317.156 127.939 316.303C127.473 315.436 127.239 314.436 127.239 313.303C127.239 312.169 127.466 311.176 127.919 310.323C128.373 309.469 129.006 308.816 129.819 308.363C130.646 307.896 131.593 307.663 132.659 307.663C133.699 307.663 134.619 307.889 135.419 308.343C136.219 308.796 136.833 309.423 137.259 310.223C137.699 311.009 137.919 311.903 137.919 312.903ZM136.039 312.523C136.039 311.829 135.886 311.236 135.579 310.743C135.273 310.236 134.853 309.856 134.319 309.603C133.799 309.336 133.219 309.203 132.579 309.203C131.659 309.203 130.873 309.496 130.219 310.083C129.579 310.669 129.213 311.483 129.119 312.523H136.039ZM141.802 309.863C142.162 309.236 142.695 308.716 143.402 308.303C144.122 307.876 144.955 307.663 145.902 307.663C146.875 307.663 147.755 307.896 148.542 308.363C149.342 308.829 149.968 309.489 150.422 310.343C150.875 311.183 151.102 312.163 151.102 313.283C151.102 314.389 150.875 315.376 150.422 316.243C149.968 317.109 149.342 317.783 148.542 318.263C147.755 318.743 146.875 318.983 145.902 318.983C144.968 318.983 144.142 318.776 143.422 318.363C142.715 317.936 142.175 317.409 141.802 316.783V324.003H139.982V307.843H141.802V309.863ZM149.242 313.283C149.242 312.456 149.075 311.736 148.742 311.123C148.408 310.509 147.955 310.043 147.382 309.723C146.822 309.403 146.202 309.243 145.522 309.243C144.855 309.243 144.235 309.409 143.662 309.743C143.102 310.063 142.648 310.536 142.302 311.163C141.968 311.776 141.802 312.489 141.802 313.303C141.802 314.129 141.968 314.856 142.302 315.483C142.648 316.096 143.102 316.569 143.662 316.903C144.235 317.223 144.855 317.383 145.522 317.383C146.202 317.383 146.822 317.223 147.382 316.903C147.955 316.569 148.408 316.096 148.742 315.483C149.075 314.856 149.242 314.123 149.242 313.283ZM155.377 309.343V315.803C155.377 316.336 155.491 316.716 155.717 316.943C155.944 317.156 156.337 317.263 156.897 317.263H158.237V318.803H156.597C155.584 318.803 154.824 318.569 154.317 318.103C153.811 317.636 153.557 316.869 153.557 315.803V309.343H152.137V307.843H153.557V305.083H155.377V307.843H158.237V309.343H155.377ZM170.102 312.903C170.102 313.249 170.082 313.616 170.042 314.003H161.282C161.349 315.083 161.716 315.929 162.382 316.543C163.062 317.143 163.882 317.443 164.842 317.443C165.629 317.443 166.282 317.263 166.802 316.903C167.336 316.529 167.709 316.036 167.922 315.423H169.882C169.589 316.476 169.002 317.336 168.122 318.003C167.242 318.656 166.149 318.983 164.842 318.983C163.802 318.983 162.869 318.749 162.042 318.283C161.229 317.816 160.589 317.156 160.122 316.303C159.656 315.436 159.422 314.436 159.422 313.303C159.422 312.169 159.649 311.176 160.102 310.323C160.556 309.469 161.189 308.816 162.002 308.363C162.829 307.896 163.776 307.663 164.842 307.663C165.882 307.663 166.802 307.889 167.602 308.343C168.402 308.796 169.016 309.423 169.442 310.223C169.882 311.009 170.102 311.903 170.102 312.903ZM168.222 312.523C168.222 311.829 168.069 311.236 167.762 310.743C167.456 310.236 167.036 309.856 166.502 309.603C165.982 309.336 165.402 309.203 164.762 309.203C163.842 309.203 163.056 309.496 162.402 310.083C161.762 310.669 161.396 311.483 161.302 312.523H168.222ZM185.345 307.643C186.198 307.643 186.958 307.823 187.625 308.183C188.291 308.529 188.818 309.056 189.205 309.763C189.591 310.469 189.785 311.329 189.785 312.343V318.803H187.985V312.603C187.985 311.509 187.711 310.676 187.165 310.103C186.631 309.516 185.905 309.223 184.985 309.223C184.038 309.223 183.285 309.529 182.725 310.143C182.165 310.743 181.885 311.616 181.885 312.763V318.803H180.085V312.603C180.085 311.509 179.811 310.676 179.265 310.103C178.731 309.516 178.005 309.223 177.085 309.223C176.138 309.223 175.385 309.529 174.825 310.143C174.265 310.743 173.985 311.616 173.985 312.763V318.803H172.165V307.843H173.985V309.423C174.345 308.849 174.825 308.409 175.425 308.103C176.038 307.796 176.711 307.643 177.445 307.643C178.365 307.643 179.178 307.849 179.885 308.263C180.591 308.676 181.118 309.283 181.465 310.083C181.771 309.309 182.278 308.709 182.985 308.283C183.691 307.856 184.478 307.643 185.345 307.643ZM194.25 309.883C194.623 309.229 195.17 308.696 195.89 308.283C196.61 307.869 197.43 307.663 198.35 307.663C199.337 307.663 200.223 307.896 201.01 308.363C201.797 308.829 202.417 309.489 202.87 310.343C203.323 311.183 203.55 312.163 203.55 313.283C203.55 314.389 203.323 315.376 202.87 316.243C202.417 317.109 201.79 317.783 200.99 318.263C200.203 318.743 199.323 318.983 198.35 318.983C197.403 318.983 196.57 318.776 195.85 318.363C195.143 317.949 194.61 317.423 194.25 316.783V318.803H192.43V304.003H194.25V309.883ZM201.69 313.283C201.69 312.456 201.523 311.736 201.19 311.123C200.857 310.509 200.403 310.043 199.83 309.723C199.27 309.403 198.65 309.243 197.97 309.243C197.303 309.243 196.683 309.409 196.11 309.743C195.55 310.063 195.097 310.536 194.75 311.163C194.417 311.776 194.25 312.489 194.25 313.303C194.25 314.129 194.417 314.856 194.75 315.483C195.097 316.096 195.55 316.569 196.11 316.903C196.683 317.223 197.303 317.383 197.97 317.383C198.65 317.383 199.27 317.223 199.83 316.903C200.403 316.569 200.857 316.096 201.19 315.483C201.523 314.856 201.69 314.123 201.69 313.283ZM215.606 312.903C215.606 313.249 215.586 313.616 215.546 314.003H206.786C206.852 315.083 207.219 315.929 207.886 316.543C208.566 317.143 209.386 317.443 210.346 317.443C211.132 317.443 211.786 317.263 212.306 316.903C212.839 316.529 213.212 316.036 213.426 315.423H215.386C215.092 316.476 214.506 317.336 213.626 318.003C212.746 318.656 211.652 318.983 210.346 318.983C209.306 318.983 208.372 318.749 207.546 318.283C206.732 317.816 206.092 317.156 205.626 316.303C205.159 315.436 204.926 314.436 204.926 313.303C204.926 312.169 205.152 311.176 205.606 310.323C206.059 309.469 206.692 308.816 207.506 308.363C208.332 307.896 209.279 307.663 210.346 307.663C211.386 307.663 212.306 307.889 213.106 308.343C213.906 308.796 214.519 309.423 214.946 310.223C215.386 311.009 215.606 311.903 215.606 312.903ZM213.726 312.523C213.726 311.829 213.572 311.236 213.266 310.743C212.959 310.236 212.539 309.856 212.006 309.603C211.486 309.336 210.906 309.203 210.266 309.203C209.346 309.203 208.559 309.496 207.906 310.083C207.266 310.669 206.899 311.483 206.806 312.523H213.726ZM219.488 309.623C219.808 308.996 220.261 308.509 220.848 308.163C221.448 307.816 222.175 307.643 223.028 307.643V309.523H222.548C220.508 309.523 219.488 310.629 219.488 312.843V318.803H217.668V307.843H219.488V309.623Z" fill="#A8A699"/>
<rect x="44" y="347.803" width="235" height="51" rx="24" fill="#5D9A83"/>
<path d="M74.848 381.803V364.348H81.7343C83.0582 364.348 84.1861 364.601 85.1179 365.107C86.0497 365.607 86.7599 366.303 87.2486 367.195C87.7429 368.081 87.99 369.104 87.99 370.263C87.99 371.422 87.74 372.445 87.24 373.331C86.74 374.218 86.0156 374.908 85.0667 375.402C84.1236 375.896 82.9815 376.144 81.6406 376.144H77.2514V373.186H81.044C81.7542 373.186 82.3395 373.064 82.7997 372.82C83.2656 372.57 83.6122 372.226 83.8395 371.789C84.0724 371.345 84.1889 370.837 84.1889 370.263C84.1889 369.683 84.0724 369.178 83.8395 368.746C83.6122 368.308 83.2656 367.97 82.7997 367.732C82.3338 367.487 81.7429 367.365 81.027 367.365H78.5383V381.803H74.848ZM95.5938 382.058C94.2472 382.058 93.0882 381.786 92.1166 381.24C91.1507 380.689 90.4063 379.911 89.8836 378.905C89.3609 377.894 89.0995 376.698 89.0995 375.317C89.0995 373.97 89.3609 372.789 89.8836 371.771C90.4063 370.754 91.1421 369.962 92.091 369.394C93.0455 368.825 94.1649 368.541 95.449 368.541C96.3126 368.541 97.1166 368.681 97.8609 368.959C98.6109 369.232 99.2643 369.644 99.8211 370.195C100.384 370.746 100.821 371.439 101.134 372.274C101.446 373.104 101.602 374.075 101.602 375.189V376.186H90.5484V373.936H98.1847C98.1847 373.414 98.0711 372.95 97.8438 372.547C97.6166 372.144 97.3012 371.828 96.8978 371.601C96.5001 371.368 96.037 371.252 95.5086 371.252C94.9575 371.252 94.4688 371.379 94.0427 371.635C93.6222 371.885 93.2927 372.223 93.0541 372.649C92.8154 373.07 92.6933 373.539 92.6876 374.056V376.195C92.6876 376.843 92.8069 377.402 93.0455 377.874C93.2899 378.345 93.6336 378.709 94.0768 378.965C94.52 379.22 95.0455 379.348 95.6535 379.348C96.0569 379.348 96.4262 379.291 96.7615 379.178C97.0967 379.064 97.3836 378.894 97.6222 378.666C97.8609 378.439 98.0427 378.161 98.1677 377.831L101.526 378.053C101.355 378.86 101.006 379.564 100.477 380.166C99.9546 380.763 99.2785 381.229 98.449 381.564C97.6251 381.894 96.6734 382.058 95.5938 382.058ZM107.122 374.235V381.803H103.492V368.712H106.952V371.021H107.105C107.395 370.26 107.881 369.658 108.563 369.215C109.245 368.766 110.071 368.541 111.043 368.541C111.952 368.541 112.745 368.74 113.421 369.138C114.097 369.536 114.622 370.104 114.997 370.843C115.372 371.575 115.56 372.45 115.56 373.468V381.803H111.929V374.115C111.935 373.314 111.73 372.689 111.316 372.24C110.901 371.786 110.33 371.558 109.602 371.558C109.114 371.558 108.682 371.664 108.307 371.874C107.938 372.084 107.648 372.391 107.438 372.794C107.233 373.192 107.128 373.672 107.122 374.235ZM119.714 386.712C119.254 386.712 118.822 386.675 118.419 386.601C118.021 386.533 117.691 386.445 117.43 386.337L118.248 383.627C118.674 383.757 119.058 383.828 119.399 383.84C119.745 383.851 120.044 383.771 120.294 383.601C120.549 383.431 120.757 383.141 120.916 382.732L121.129 382.178L116.433 368.712H120.251L122.961 378.325H123.098L125.833 368.712H129.677L124.589 383.218C124.345 383.922 124.012 384.536 123.592 385.058C123.177 385.587 122.652 385.993 122.015 386.277C121.379 386.567 120.612 386.712 119.714 386.712ZM131.055 381.803V368.712H134.686V381.803H131.055ZM132.879 367.024C132.339 367.024 131.876 366.845 131.49 366.487C131.109 366.124 130.919 365.689 130.919 365.183C130.919 364.683 131.109 364.254 131.49 363.896C131.876 363.533 132.339 363.351 132.879 363.351C133.419 363.351 133.879 363.533 134.26 363.896C134.646 364.254 134.839 364.683 134.839 365.183C134.839 365.689 134.646 366.124 134.26 366.487C133.879 366.845 133.419 367.024 132.879 367.024ZM148.006 372.445L144.682 372.649C144.626 372.365 144.503 372.11 144.316 371.882C144.128 371.649 143.881 371.465 143.574 371.328C143.273 371.186 142.912 371.115 142.492 371.115C141.93 371.115 141.455 371.235 141.069 371.473C140.682 371.706 140.489 372.019 140.489 372.411C140.489 372.723 140.614 372.987 140.864 373.203C141.114 373.419 141.543 373.593 142.151 373.723L144.52 374.2C145.793 374.462 146.742 374.882 147.367 375.462C147.992 376.041 148.305 376.803 148.305 377.746C148.305 378.604 148.052 379.357 147.546 380.004C147.046 380.652 146.358 381.158 145.483 381.521C144.614 381.879 143.611 382.058 142.475 382.058C140.742 382.058 139.361 381.698 138.333 380.976C137.31 380.249 136.711 379.26 136.535 378.01L140.106 377.823C140.214 378.351 140.475 378.754 140.89 379.033C141.305 379.306 141.836 379.442 142.483 379.442C143.12 379.442 143.631 379.32 144.018 379.075C144.41 378.825 144.608 378.504 144.614 378.112C144.608 377.783 144.469 377.513 144.197 377.303C143.924 377.087 143.503 376.922 142.935 376.808L140.668 376.357C139.39 376.101 138.438 375.658 137.813 375.027C137.194 374.396 136.884 373.593 136.884 372.615C136.884 371.774 137.111 371.05 137.566 370.442C138.026 369.834 138.671 369.365 139.501 369.036C140.336 368.706 141.313 368.541 142.432 368.541C144.086 368.541 145.387 368.891 146.336 369.59C147.29 370.289 147.847 371.24 148.006 372.445ZM150.111 381.803V368.712H153.741V381.803H150.111ZM151.935 367.024C151.395 367.024 150.932 366.845 150.545 366.487C150.165 366.124 149.974 365.689 149.974 365.183C149.974 364.683 150.165 364.254 150.545 363.896C150.932 363.533 151.395 363.351 151.935 363.351C152.474 363.351 152.935 363.533 153.315 363.896C153.702 364.254 153.895 364.683 153.895 365.183C153.895 365.689 153.702 366.124 153.315 366.487C152.935 366.845 152.474 367.024 151.935 367.024ZM159.8 374.235V381.803H156.17V364.348H159.698V371.021H159.852C160.147 370.249 160.624 369.644 161.283 369.206C161.943 368.763 162.769 368.541 163.764 368.541C164.673 368.541 165.465 368.74 166.141 369.138C166.823 369.53 167.352 370.095 167.727 370.834C168.107 371.567 168.295 372.445 168.289 373.468V381.803H164.658V374.115C164.664 373.308 164.46 372.681 164.045 372.232C163.636 371.783 163.062 371.558 162.323 371.558C161.829 371.558 161.391 371.664 161.011 371.874C160.636 372.084 160.34 372.391 160.124 372.794C159.914 373.192 159.806 373.672 159.8 374.235ZM174.399 382.05C173.564 382.05 172.82 381.905 172.166 381.615C171.513 381.32 170.996 380.885 170.615 380.311C170.24 379.732 170.053 379.01 170.053 378.146C170.053 377.419 170.186 376.808 170.453 376.314C170.72 375.82 171.084 375.422 171.544 375.121C172.004 374.82 172.527 374.593 173.112 374.439C173.703 374.286 174.323 374.178 174.97 374.115C175.732 374.036 176.345 373.962 176.811 373.894C177.277 373.82 177.615 373.712 177.825 373.57C178.036 373.428 178.141 373.218 178.141 372.939V372.888C178.141 372.348 177.97 371.931 177.629 371.635C177.294 371.34 176.817 371.192 176.198 371.192C175.544 371.192 175.024 371.337 174.638 371.627C174.252 371.911 173.996 372.269 173.871 372.7L170.513 372.428C170.683 371.632 171.019 370.945 171.519 370.365C172.019 369.78 172.664 369.331 173.453 369.019C174.249 368.7 175.169 368.541 176.215 368.541C176.942 368.541 177.638 368.627 178.303 368.797C178.973 368.968 179.567 369.232 180.084 369.59C180.607 369.948 181.019 370.408 181.32 370.97C181.621 371.527 181.771 372.195 181.771 372.973V381.803H178.328V379.987H178.226C178.016 380.396 177.735 380.757 177.382 381.07C177.03 381.377 176.607 381.618 176.112 381.794C175.618 381.965 175.047 382.05 174.399 382.05ZM175.439 379.544C175.973 379.544 176.445 379.439 176.854 379.229C177.263 379.013 177.584 378.723 177.817 378.36C178.05 377.996 178.166 377.584 178.166 377.124V375.735C178.053 375.808 177.896 375.877 177.698 375.939C177.504 375.996 177.286 376.05 177.041 376.101C176.797 376.146 176.553 376.189 176.308 376.229C176.064 376.263 175.843 376.294 175.644 376.323C175.218 376.385 174.845 376.485 174.527 376.621C174.209 376.757 173.962 376.942 173.786 377.175C173.61 377.402 173.521 377.686 173.521 378.027C173.521 378.521 173.7 378.899 174.058 379.161C174.422 379.416 174.882 379.544 175.439 379.544ZM187.739 374.235V381.803H184.108V368.712H187.568V371.021H187.722C188.012 370.26 188.497 369.658 189.179 369.215C189.861 368.766 190.688 368.541 191.659 368.541C192.568 368.541 193.361 368.74 194.037 369.138C194.713 369.536 195.239 370.104 195.614 370.843C195.989 371.575 196.176 372.45 196.176 373.468V381.803H192.546V374.115C192.551 373.314 192.347 372.689 191.932 372.24C191.517 371.786 190.946 371.558 190.219 371.558C189.73 371.558 189.299 371.664 188.924 371.874C188.554 372.084 188.264 372.391 188.054 372.794C187.85 373.192 187.745 373.672 187.739 374.235ZM209.888 381.803H203.701V364.348H209.939C211.695 364.348 213.206 364.698 214.474 365.396C215.741 366.09 216.715 367.087 217.397 368.388C218.084 369.689 218.428 371.246 218.428 373.058C218.428 374.877 218.084 376.439 217.397 377.746C216.715 379.053 215.735 380.056 214.456 380.754C213.184 381.453 211.661 381.803 209.888 381.803ZM207.391 378.641H209.735C210.826 378.641 211.743 378.448 212.488 378.061C213.238 377.669 213.8 377.064 214.175 376.246C214.556 375.422 214.746 374.36 214.746 373.058C214.746 371.769 214.556 370.715 214.175 369.896C213.8 369.078 213.241 368.476 212.496 368.09C211.752 367.703 210.834 367.51 209.743 367.51H207.391V378.641ZM220.682 381.803V364.348H224.372V378.76H231.855V381.803H220.682ZM248.54 370.459H244.807C244.739 369.976 244.599 369.547 244.389 369.172C244.179 368.791 243.909 368.468 243.58 368.2C243.25 367.933 242.869 367.729 242.438 367.587C242.011 367.445 241.548 367.374 241.048 367.374C240.145 367.374 239.358 367.598 238.688 368.047C238.017 368.49 237.497 369.138 237.128 369.99C236.759 370.837 236.574 371.865 236.574 373.075C236.574 374.32 236.759 375.365 237.128 376.212C237.503 377.058 238.026 377.698 238.696 378.129C239.367 378.561 240.142 378.777 241.023 378.777C241.517 378.777 241.974 378.712 242.395 378.581C242.821 378.45 243.199 378.26 243.528 378.01C243.858 377.754 244.131 377.445 244.347 377.081C244.568 376.718 244.722 376.303 244.807 375.837L248.54 375.854C248.443 376.655 248.202 377.428 247.815 378.172C247.435 378.911 246.92 379.573 246.273 380.158C245.631 380.737 244.864 381.198 243.972 381.539C243.085 381.874 242.082 382.041 240.963 382.041C239.406 382.041 238.014 381.689 236.787 380.985C235.565 380.28 234.599 379.26 233.889 377.925C233.185 376.59 232.832 374.973 232.832 373.075C232.832 371.172 233.19 369.553 233.906 368.218C234.622 366.882 235.594 365.865 236.821 365.166C238.048 364.462 239.429 364.11 240.963 364.11C241.974 364.11 242.912 364.252 243.776 364.536C244.645 364.82 245.415 365.235 246.085 365.78C246.756 366.32 247.301 366.982 247.722 367.766C248.148 368.55 248.42 369.448 248.54 370.459Z" fill="white"/>
</g>
<path d="M190.781 0.894531L184.412 48.7092L183.997 51.8209L183.422 56.1316L183.415 56.1909L183.368 56.5449L180.896 75.1018L179.599 84.8482L175.638 114.584L175.001 119.373C175.001 119.373 174.999 119.38 174.999 119.384C174.836 120.272 174.712 120.802 174.712 120.802H148.1C148.1 120.802 148.047 120.574 147.965 120.166L147.114 113.735L143.297 84.8482L140.804 65.9966L138.519 48.7092L136.271 31.7053L132.218 1.03353L144.079 1.00573L145.98 1.00017C145.98 1.00017 145.986 1.00017 145.988 1.00017L177.33 0.926037C177.33 0.926037 177.334 0.924184 177.336 0.926037L178.364 0.926037L190.781 0.894531Z" fill="#3D866B"/>
<path d="M161.222 18.0364C161.222 8.568 153.548 0.893555 144.079 0.893555V18.0364C144.079 27.5048 151.754 35.1793 161.222 35.1793C170.69 35.1793 178.365 27.5048 178.365 18.0364V0.893555C168.896 0.893555 161.222 8.568 161.222 18.0364Z" fill="#ED786C"/>
<path d="M175.639 114.583C175.479 116.524 175.209 118.238 175.001 119.372C175.001 119.376 174.999 119.379 174.999 119.383C174.836 120.271 174.712 120.801 174.712 120.801H148.101C148.101 120.801 148.047 120.573 147.966 120.165C147.738 119.046 147.289 116.568 147.115 113.734C146.93 110.714 147.057 107.287 148.101 104.674C149.989 99.9459 156.405 94.0525 156.405 94.0525V89.4805H166.409V94.0507C166.409 94.0507 172.824 99.9459 174.712 104.674C175.856 107.535 175.9 111.37 175.639 114.583Z" fill="#072C3F"/>
<path d="M146.484 57.8938C146.927 61.4391 144.484 64.7584 140.804 65.9964L138.519 48.7089L136.271 31.7051C138.993 32.287 141.2 34.6518 141.586 37.7171C141.664 38.3398 141.66 38.9551 141.586 39.5482C145.702 40.7343 148.917 44.2555 149.481 48.7516C149.909 52.1801 148.702 55.4401 146.465 57.753C146.471 57.7993 146.478 57.8475 146.484 57.8938Z" fill="#9CDADF"/>
<path d="M182.462 56.6238C182.762 56.5831 183.066 56.5553 183.368 56.5442L180.896 75.1011C180.672 75.0306 180.449 74.9509 180.232 74.8638L178.422 79.3506L176.993 78.7743L178.848 74.1744C178.602 74.0262 178.363 73.8649 178.131 73.6944L175.108 77.7086L173.878 76.782L176.965 72.6807C176.776 72.4842 176.593 72.2804 176.42 72.0691L172.334 75.266L171.385 74.0521L175.54 70.8014C175.408 70.5753 175.288 70.3455 175.175 70.1083L170.284 72.1877L169.682 70.7699L174.63 68.6665C174.56 68.4237 174.498 68.1772 174.448 67.9307L169.102 68.685L168.887 67.1579L174.267 66.3999C174.258 66.1534 174.258 65.9051 174.269 65.6549L168.868 64.9951L169.053 63.4643L174.456 64.1259C174.506 63.8813 174.565 63.6404 174.634 63.4013L169.595 61.3701L170.171 59.9412L175.179 61.9613C175.288 61.7315 175.405 61.5072 175.531 61.2886L171.237 58.0564L172.163 56.8258L176.409 60.0209C176.574 59.8189 176.748 59.6243 176.93 59.4371L173.679 55.2802L174.893 54.3313L178.088 58.4178C178.309 58.2547 178.533 58.1009 178.767 57.9582L176.758 53.2323L178.175 52.63L180.142 57.254C180.407 57.1428 180.679 57.0445 180.953 56.9593L180.26 52.0499L181.786 51.835L182.462 56.6238Z" fill="#F3B7BD"/>
<path d="M161.5 114.5C160.394 114.5 159.485 113.66 159.376 112.583C158.538 113.267 157.301 113.219 156.52 112.437C155.738 111.656 155.69 110.419 156.374 109.581C155.297 109.472 154.457 108.563 154.457 107.458C154.457 106.352 155.297 105.443 156.374 105.334C155.69 104.496 155.738 103.259 156.52 102.478C157.301 101.696 158.538 101.648 159.376 102.332C159.485 101.255 160.394 100.415 161.5 100.415C162.605 100.415 163.514 101.255 163.623 102.332C164.461 101.648 165.698 101.696 166.479 102.478C167.261 103.259 167.309 104.496 166.625 105.334C167.702 105.443 168.542 106.352 168.542 107.458C168.542 108.563 167.702 109.472 166.625 109.581C167.309 110.419 167.261 111.656 166.479 112.437C165.698 113.219 164.461 113.267 163.623 112.583C163.514 113.66 162.605 114.5 161.5 114.5Z" fill="#9EC2B5"/>
<path d="M163.724 29.8047H158.905V91.8896H163.724V29.8047Z" fill="#FCF9E6"/>
<defs>
<filter id="filter0_dd_5864_354" x="0" y="64.8018" width="323" height="388" filterUnits="userSpaceOnUse" color-interpolation-filters="sRGB">
<feFlood flood-opacity="0" result="BackgroundImageFix"/>
<feColorMatrix in="SourceAlpha" type="matrix" values="0 0 0 0 0 0 0 0 0 0 0 0 0 0 0 0 0 0 127 0" result="hardAlpha"/>
<feMorphology radius="3" operator="erode" in="SourceAlpha" result="effect1_dropShadow_5864_354"/>
<feOffset dy="10"/>
<feGaussianBlur stdDeviation="7.5"/>
<feComposite in2="hardAlpha" operator="out"/>
<feColorMatrix type="matrix" values="0 0 0 0 0.0627451 0 0 0 0 0.0941176 0 0 0 0 0.156863 0 0 0 0.1 0"/>
<feBlend mode="normal" in2="BackgroundImageFix" result="effect1_dropShadow_5864_354"/>
<feColorMatrix in="SourceAlpha" type="matrix" values="0 0 0 0 0 0 0 0 0 0 0 0 0 0 0 0 0 0 127 0" result="hardAlpha"/>
<feMorphology radius="4" operator="erode" in="SourceAlpha" result="effect2_dropShadow_5864_354"/>
<feOffset dy="4"/>
<feGaussianBlur stdDeviation="3"/>
<feComposite in2="hardAlpha" operator="out"/>
<feColorMatrix type="matrix" values="0 0 0 0 0.0627451 0 0 0 0 0.0941176 0 0 0 0 0.156863 0 0 0 0.1 0"/>
<feBlend mode="normal" in2="effect1_dropShadow_5864_354" result="effect2_dropShadow_5864_354"/>
<feBlend mode="normal" in="SourceGraphic" in2="effect2_dropShadow_5864_354" result="shape"/>
</filter>
</defs>
</svg>
