<svg width="323" height="453" viewBox="0 0 323 453" fill="none" xmlns="http://www.w3.org/2000/svg">
<g filter="url(#filter0_dd_5864_354)">
<rect x="12" y="66.8018" width="299" height="364" rx="32" fill="white"/>
<rect x="15" y="69.8018" width="293" height="358" rx="29" stroke="#5D9A83" stroke-width="6"/>
<path fill-rule="evenodd" clip-rule="evenodd" d="M161.5 132.474C138.992 132.474 120.746 150.72 120.746 173.228C120.746 195.736 138.992 213.983 161.5 213.983C184.008 213.983 202.254 195.736 202.254 173.228C202.254 150.72 184.008 132.474 161.5 132.474ZM105.926 173.228C105.926 142.536 130.807 117.654 161.5 117.654C192.193 117.654 217.074 142.536 217.074 173.228C217.074 203.921 192.193 228.802 161.5 228.802C130.807 228.802 105.926 203.921 105.926 173.228Z" fill="#5D9A83"/>
<path fill-rule="evenodd" clip-rule="evenodd" d="M161.5 158.432C153.328 158.432 146.704 165.056 146.704 173.228C146.704 181.399 153.328 188.024 161.5 188.024C169.671 188.024 176.295 181.399 176.295 173.228C176.295 165.056 169.671 158.432 161.5 158.432ZM131.908 173.228C131.908 156.885 145.157 143.637 161.5 143.637C177.842 143.637 191.091 156.885 191.091 173.228C191.091 189.571 177.842 202.819 161.5 202.819C145.157 202.819 131.908 189.571 131.908 173.228Z" fill="#F3B7BD"/>
<path d="M165.676 173.309L183.797 154.471L184.035 150.213L179.702 150.976L161.581 169.813" fill="#3D866B"/>
<path d="M159.853 174.522L191.083 187.79L195.155 186.644L193.043 182.817L161.813 169.55" fill="#3D866B"/>
<path d="M158.24 169.97L152.438 173.229L158.24 176.488L161.499 182.291L164.758 176.488L170.561 173.229L164.758 169.97L161.499 164.167L158.24 169.97Z" fill="#ED786C"/>
<path d="M109.015 261.983C109.108 260.756 109.582 259.796 110.435 259.103C111.288 258.409 112.395 258.063 113.755 258.063C114.662 258.063 115.442 258.229 116.095 258.563C116.762 258.883 117.262 259.323 117.595 259.883C117.942 260.443 118.115 261.076 118.115 261.783C118.115 262.609 117.875 263.323 117.395 263.923C116.928 264.523 116.315 264.909 115.555 265.083V265.183C116.422 265.396 117.108 265.816 117.615 266.443C118.122 267.069 118.375 267.889 118.375 268.903C118.375 269.663 118.202 270.349 117.855 270.963C117.508 271.563 116.988 272.036 116.295 272.383C115.602 272.729 114.768 272.903 113.795 272.903C112.382 272.903 111.222 272.536 110.315 271.803C109.408 271.056 108.902 270.003 108.795 268.643H110.555C110.648 269.443 110.975 270.096 111.535 270.603C112.095 271.109 112.842 271.363 113.775 271.363C114.708 271.363 115.415 271.123 115.895 270.643C116.388 270.149 116.635 269.516 116.635 268.743C116.635 267.743 116.302 267.023 115.635 266.583C114.968 266.143 113.962 265.923 112.615 265.923H112.155V264.403H112.635C113.862 264.389 114.788 264.189 115.415 263.803C116.042 263.403 116.355 262.789 116.355 261.963C116.355 261.256 116.122 260.689 115.655 260.263C115.202 259.836 114.548 259.623 113.695 259.623C112.868 259.623 112.202 259.836 111.695 260.263C111.188 260.689 110.888 261.263 110.795 261.983H109.015ZM120.493 265.423C120.493 263.129 120.866 261.343 121.613 260.063C122.359 258.769 123.666 258.123 125.533 258.123C127.386 258.123 128.686 258.769 129.433 260.063C130.179 261.343 130.553 263.129 130.553 265.423C130.553 267.756 130.179 269.569 129.433 270.863C128.686 272.156 127.386 272.803 125.533 272.803C123.666 272.803 122.359 272.156 121.613 270.863C120.866 269.569 120.493 267.756 120.493 265.423ZM128.753 265.423C128.753 264.263 128.673 263.283 128.513 262.483C128.366 261.669 128.053 261.016 127.573 260.523C127.106 260.029 126.426 259.783 125.533 259.783C124.626 259.783 123.933 260.029 123.453 260.523C122.986 261.016 122.673 261.669 122.513 262.483C122.366 263.283 122.293 264.263 122.293 265.423C122.293 266.623 122.366 267.629 122.513 268.443C122.673 269.256 122.986 269.909 123.453 270.403C123.933 270.896 124.626 271.143 125.533 271.143C126.426 271.143 127.106 270.896 127.573 270.403C128.053 269.909 128.366 269.256 128.513 268.443C128.673 267.629 128.753 266.623 128.753 265.423ZM146.243 269.703H140.163L139.043 272.803H137.123L142.163 258.943H144.263L149.283 272.803H147.363L146.243 269.703ZM145.723 268.223L143.203 261.183L140.683 268.223H145.723ZM155.66 261.663C156.606 261.663 157.433 261.869 158.14 262.283C158.86 262.696 159.393 263.216 159.74 263.843V261.843H161.58V273.043C161.58 274.043 161.366 274.929 160.94 275.703C160.513 276.489 159.9 277.103 159.1 277.543C158.313 277.983 157.393 278.203 156.34 278.203C154.9 278.203 153.7 277.863 152.74 277.183C151.78 276.503 151.213 275.576 151.04 274.403H152.84C153.04 275.069 153.453 275.603 154.08 276.003C154.706 276.416 155.46 276.623 156.34 276.623C157.34 276.623 158.153 276.309 158.78 275.683C159.42 275.056 159.74 274.176 159.74 273.043V270.743C159.38 271.383 158.846 271.916 158.14 272.343C157.433 272.769 156.606 272.983 155.66 272.983C154.686 272.983 153.8 272.743 153 272.263C152.213 271.783 151.593 271.109 151.14 270.243C150.686 269.376 150.46 268.389 150.46 267.283C150.46 266.163 150.686 265.183 151.14 264.343C151.593 263.489 152.213 262.829 153 262.363C153.8 261.896 154.686 261.663 155.66 261.663ZM159.74 267.303C159.74 266.476 159.573 265.756 159.24 265.143C158.906 264.529 158.453 264.063 157.88 263.743C157.32 263.409 156.7 263.243 156.02 263.243C155.34 263.243 154.72 263.403 154.16 263.723C153.6 264.043 153.153 264.509 152.82 265.123C152.486 265.736 152.32 266.456 152.32 267.283C152.32 268.123 152.486 268.856 152.82 269.483C153.153 270.096 153.6 270.569 154.16 270.903C154.72 271.223 155.34 271.383 156.02 271.383C156.7 271.383 157.32 271.223 157.88 270.903C158.453 270.569 158.906 270.096 159.24 269.483C159.573 268.856 159.74 268.129 159.74 267.303ZM174.035 261.843V272.803H172.215V271.183C171.869 271.743 171.382 272.183 170.755 272.503C170.142 272.809 169.462 272.963 168.715 272.963C167.862 272.963 167.095 272.789 166.415 272.443C165.735 272.083 165.195 271.549 164.795 270.843C164.409 270.136 164.215 269.276 164.215 268.263V261.843H166.015V268.023C166.015 269.103 166.289 269.936 166.835 270.523C167.382 271.096 168.129 271.383 169.075 271.383C170.049 271.383 170.815 271.083 171.375 270.483C171.935 269.883 172.215 269.009 172.215 267.863V261.843H174.035ZM180.648 272.983C179.808 272.983 179.055 272.843 178.388 272.563C177.722 272.269 177.195 271.869 176.808 271.363C176.422 270.843 176.208 270.249 176.168 269.583H178.048C178.102 270.129 178.355 270.576 178.808 270.923C179.275 271.269 179.882 271.443 180.628 271.443C181.322 271.443 181.868 271.289 182.268 270.983C182.668 270.676 182.868 270.289 182.868 269.823C182.868 269.343 182.655 268.989 182.228 268.763C181.802 268.523 181.142 268.289 180.248 268.063C179.435 267.849 178.768 267.636 178.248 267.423C177.742 267.196 177.302 266.869 176.928 266.443C176.568 266.003 176.388 265.429 176.388 264.723C176.388 264.163 176.555 263.649 176.888 263.183C177.222 262.716 177.695 262.349 178.308 262.083C178.922 261.803 179.622 261.663 180.408 261.663C181.622 261.663 182.602 261.969 183.348 262.583C184.095 263.196 184.495 264.036 184.548 265.103H182.728C182.688 264.529 182.455 264.069 182.028 263.723C181.615 263.376 181.055 263.203 180.348 263.203C179.695 263.203 179.175 263.343 178.788 263.623C178.402 263.903 178.208 264.269 178.208 264.723C178.208 265.083 178.322 265.383 178.548 265.623C178.788 265.849 179.082 266.036 179.428 266.183C179.788 266.316 180.282 266.469 180.908 266.643C181.695 266.856 182.335 267.069 182.828 267.283C183.322 267.483 183.742 267.789 184.088 268.203C184.448 268.616 184.635 269.156 184.648 269.823C184.648 270.423 184.482 270.963 184.148 271.443C183.815 271.923 183.342 272.303 182.728 272.583C182.128 272.849 181.435 272.983 180.648 272.983ZM189.097 263.343V269.803C189.097 270.336 189.211 270.716 189.437 270.943C189.664 271.156 190.057 271.263 190.617 271.263H191.957V272.803H190.317C189.304 272.803 188.544 272.569 188.037 272.103C187.531 271.636 187.277 270.869 187.277 269.803V263.343H185.857V261.843H187.277V259.083H189.097V261.843H191.957V263.343H189.097ZM203.543 261.843V272.803H201.723V271.183C201.376 271.743 200.889 272.183 200.263 272.503C199.649 272.809 198.969 272.963 198.223 272.963C197.369 272.963 196.603 272.789 195.923 272.443C195.243 272.083 194.703 271.549 194.303 270.843C193.916 270.136 193.723 269.276 193.723 268.263V261.843H195.523V268.023C195.523 269.103 195.796 269.936 196.343 270.523C196.889 271.096 197.636 271.383 198.583 271.383C199.556 271.383 200.323 271.083 200.883 270.483C201.443 269.883 201.723 269.009 201.723 267.863V261.843H203.543ZM210.156 272.983C209.316 272.983 208.562 272.843 207.896 272.563C207.229 272.269 206.702 271.869 206.316 271.363C205.929 270.843 205.716 270.249 205.676 269.583H207.556C207.609 270.129 207.862 270.576 208.316 270.923C208.782 271.269 209.389 271.443 210.136 271.443C210.829 271.443 211.376 271.289 211.776 270.983C212.176 270.676 212.376 270.289 212.376 269.823C212.376 269.343 212.162 268.989 211.736 268.763C211.309 268.523 210.649 268.289 209.756 268.063C208.942 267.849 208.276 267.636 207.756 267.423C207.249 267.196 206.809 266.869 206.436 266.443C206.076 266.003 205.896 265.429 205.896 264.723C205.896 264.163 206.062 263.649 206.396 263.183C206.729 262.716 207.202 262.349 207.816 262.083C208.429 261.803 209.129 261.663 209.916 261.663C211.129 261.663 212.109 261.969 212.856 262.583C213.602 263.196 214.002 264.036 214.056 265.103H212.236C212.196 264.529 211.962 264.069 211.536 263.723C211.122 263.376 210.562 263.203 209.856 263.203C209.202 263.203 208.682 263.343 208.296 263.623C207.909 263.903 207.716 264.269 207.716 264.723C207.716 265.083 207.829 265.383 208.056 265.623C208.296 265.849 208.589 266.036 208.936 266.183C209.296 266.316 209.789 266.469 210.416 266.643C211.202 266.856 211.842 267.069 212.336 267.283C212.829 267.483 213.249 267.789 213.596 268.203C213.956 268.616 214.142 269.156 214.156 269.823C214.156 270.423 213.989 270.963 213.656 271.443C213.322 271.923 212.849 272.303 212.236 272.583C211.636 272.849 210.942 272.983 210.156 272.983Z" fill="#A8A699"/>
<rect x="44" y="301.803" width="235" height="97" rx="24" fill="#5D9A83"/>
<path d="M130.959 335.803V318.348H137.948C139.232 318.348 140.303 318.539 141.161 318.919C142.019 319.3 142.664 319.828 143.096 320.504C143.527 321.175 143.743 321.948 143.743 322.823C143.743 323.504 143.607 324.104 143.334 324.621C143.062 325.132 142.687 325.553 142.209 325.882C141.738 326.206 141.198 326.436 140.59 326.573V326.743C141.255 326.771 141.877 326.959 142.456 327.306C143.042 327.652 143.516 328.138 143.88 328.763C144.243 329.382 144.425 330.121 144.425 330.979C144.425 331.905 144.195 332.732 143.735 333.459C143.28 334.181 142.607 334.752 141.715 335.172C140.823 335.593 139.723 335.803 138.417 335.803H130.959ZM134.65 332.786H137.658C138.687 332.786 139.437 332.59 139.908 332.198C140.38 331.8 140.615 331.271 140.615 330.612C140.615 330.129 140.499 329.703 140.266 329.334C140.033 328.965 139.701 328.675 139.269 328.465C138.843 328.254 138.334 328.149 137.743 328.149H134.65V332.786ZM134.65 325.652H137.385C137.891 325.652 138.34 325.564 138.732 325.388C139.13 325.206 139.442 324.95 139.669 324.621C139.902 324.291 140.019 323.896 140.019 323.436C140.019 322.806 139.794 322.297 139.346 321.911C138.902 321.524 138.272 321.331 137.454 321.331H134.65V325.652ZM150.011 336.05C149.176 336.05 148.432 335.905 147.778 335.615C147.125 335.32 146.608 334.885 146.227 334.311C145.852 333.732 145.665 333.01 145.665 332.146C145.665 331.419 145.798 330.808 146.065 330.314C146.332 329.82 146.696 329.422 147.156 329.121C147.616 328.82 148.139 328.593 148.724 328.439C149.315 328.286 149.934 328.178 150.582 328.115C151.344 328.036 151.957 327.962 152.423 327.894C152.889 327.82 153.227 327.712 153.437 327.57C153.648 327.428 153.753 327.218 153.753 326.939V326.888C153.753 326.348 153.582 325.931 153.241 325.635C152.906 325.34 152.429 325.192 151.809 325.192C151.156 325.192 150.636 325.337 150.25 325.627C149.863 325.911 149.608 326.269 149.483 326.7L146.125 326.428C146.295 325.632 146.631 324.945 147.131 324.365C147.631 323.78 148.275 323.331 149.065 323.019C149.861 322.7 150.781 322.541 151.827 322.541C152.554 322.541 153.25 322.627 153.915 322.797C154.585 322.968 155.179 323.232 155.696 323.59C156.219 323.948 156.631 324.408 156.932 324.97C157.233 325.527 157.383 326.195 157.383 326.973V335.803H153.94V333.987H153.838C153.628 334.396 153.346 334.757 152.994 335.07C152.642 335.377 152.219 335.618 151.724 335.794C151.23 335.965 150.659 336.05 150.011 336.05ZM151.051 333.544C151.585 333.544 152.057 333.439 152.466 333.229C152.875 333.013 153.196 332.723 153.429 332.36C153.662 331.996 153.778 331.584 153.778 331.124V329.735C153.665 329.808 153.508 329.877 153.309 329.939C153.116 329.996 152.898 330.05 152.653 330.101C152.409 330.146 152.165 330.189 151.92 330.229C151.676 330.263 151.454 330.294 151.256 330.323C150.829 330.385 150.457 330.485 150.139 330.621C149.821 330.757 149.574 330.942 149.398 331.175C149.221 331.402 149.133 331.686 149.133 332.027C149.133 332.521 149.312 332.899 149.67 333.161C150.034 333.416 150.494 333.544 151.051 333.544ZM166.683 322.712V325.439H158.8V322.712H166.683ZM160.589 319.575H164.22V331.78C164.22 332.115 164.271 332.377 164.374 332.564C164.476 332.746 164.618 332.874 164.8 332.948C164.987 333.021 165.203 333.058 165.447 333.058C165.618 333.058 165.788 333.044 165.959 333.016C166.129 332.982 166.26 332.956 166.351 332.939L166.922 335.641C166.74 335.698 166.484 335.763 166.155 335.837C165.825 335.916 165.425 335.965 164.953 335.982C164.078 336.016 163.311 335.899 162.652 335.632C161.999 335.365 161.49 334.95 161.126 334.388C160.763 333.825 160.584 333.115 160.589 332.257V319.575ZM172.301 336.05C171.466 336.05 170.722 335.905 170.068 335.615C169.415 335.32 168.898 334.885 168.517 334.311C168.142 333.732 167.955 333.01 167.955 332.146C167.955 331.419 168.088 330.808 168.355 330.314C168.622 329.82 168.986 329.422 169.446 329.121C169.906 328.82 170.429 328.593 171.014 328.439C171.605 328.286 172.224 328.178 172.872 328.115C173.634 328.036 174.247 327.962 174.713 327.894C175.179 327.82 175.517 327.712 175.727 327.57C175.938 327.428 176.043 327.218 176.043 326.939V326.888C176.043 326.348 175.872 325.931 175.531 325.635C175.196 325.34 174.719 325.192 174.099 325.192C173.446 325.192 172.926 325.337 172.54 325.627C172.153 325.911 171.898 326.269 171.773 326.7L168.415 326.428C168.585 325.632 168.921 324.945 169.421 324.365C169.921 323.78 170.565 323.331 171.355 323.019C172.151 322.7 173.071 322.541 174.117 322.541C174.844 322.541 175.54 322.627 176.205 322.797C176.875 322.968 177.469 323.232 177.986 323.59C178.509 323.948 178.921 324.408 179.222 324.97C179.523 325.527 179.673 326.195 179.673 326.973V335.803H176.23V333.987H176.128C175.918 334.396 175.636 334.757 175.284 335.07C174.932 335.377 174.509 335.618 174.014 335.794C173.52 335.965 172.949 336.05 172.301 336.05ZM173.341 333.544C173.875 333.544 174.347 333.439 174.756 333.229C175.165 333.013 175.486 332.723 175.719 332.36C175.952 331.996 176.068 331.584 176.068 331.124V329.735C175.955 329.808 175.798 329.877 175.599 329.939C175.406 329.996 175.188 330.05 174.943 330.101C174.699 330.146 174.455 330.189 174.21 330.229C173.966 330.263 173.744 330.294 173.546 330.323C173.119 330.385 172.747 330.485 172.429 330.621C172.111 330.757 171.864 330.942 171.688 331.175C171.511 331.402 171.423 331.686 171.423 332.027C171.423 332.521 171.602 332.899 171.96 333.161C172.324 333.416 172.784 333.544 173.341 333.544ZM192.902 326.445L189.578 326.649C189.521 326.365 189.399 326.11 189.212 325.882C189.024 325.649 188.777 325.465 188.47 325.328C188.169 325.186 187.808 325.115 187.388 325.115C186.825 325.115 186.351 325.235 185.965 325.473C185.578 325.706 185.385 326.019 185.385 326.411C185.385 326.723 185.51 326.987 185.76 327.203C186.01 327.419 186.439 327.593 187.047 327.723L189.416 328.2C190.689 328.462 191.638 328.882 192.263 329.462C192.888 330.041 193.2 330.803 193.2 331.746C193.2 332.604 192.948 333.357 192.442 334.004C191.942 334.652 191.254 335.158 190.379 335.521C189.51 335.879 188.507 336.058 187.371 336.058C185.638 336.058 184.257 335.698 183.229 334.976C182.206 334.249 181.607 333.26 181.431 332.01L185.002 331.823C185.11 332.351 185.371 332.754 185.786 333.033C186.2 333.306 186.732 333.442 187.379 333.442C188.016 333.442 188.527 333.32 188.914 333.075C189.306 332.825 189.504 332.504 189.51 332.112C189.504 331.783 189.365 331.513 189.092 331.303C188.82 331.087 188.399 330.922 187.831 330.808L185.564 330.357C184.286 330.101 183.334 329.658 182.709 329.027C182.09 328.396 181.78 327.593 181.78 326.615C181.78 325.774 182.007 325.05 182.462 324.442C182.922 323.834 183.567 323.365 184.396 323.036C185.232 322.706 186.209 322.541 187.328 322.541C188.982 322.541 190.283 322.891 191.232 323.59C192.186 324.289 192.743 325.24 192.902 326.445ZM84.5985 358.803V341.348H91.4848C92.8087 341.348 93.9365 341.601 94.8683 342.107C95.8002 342.607 96.5104 343.303 96.999 344.195C97.4933 345.081 97.7405 346.104 97.7405 347.263C97.7405 348.422 97.4905 349.445 96.9905 350.331C96.4905 351.218 95.7661 351.908 94.8172 352.402C93.874 352.896 92.732 353.144 91.3911 353.144H87.0019V350.186H90.7945C91.5047 350.186 92.0899 350.064 92.5502 349.82C93.0161 349.57 93.3627 349.226 93.5899 348.789C93.8229 348.345 93.9394 347.837 93.9394 347.263C93.9394 346.683 93.8229 346.178 93.5899 345.746C93.3627 345.308 93.0161 344.97 92.5502 344.732C92.0842 344.487 91.4933 344.365 90.7774 344.365H88.2888V358.803H84.5985ZM105.344 359.058C103.998 359.058 102.839 358.786 101.867 358.24C100.901 357.689 100.157 356.911 99.6341 355.905C99.1113 354.894 98.85 353.698 98.85 352.317C98.85 350.97 99.1113 349.789 99.6341 348.771C100.157 347.754 100.893 346.962 101.841 346.394C102.796 345.825 103.915 345.541 105.199 345.541C106.063 345.541 106.867 345.681 107.611 345.959C108.361 346.232 109.015 346.644 109.572 347.195C110.134 347.746 110.572 348.439 110.884 349.274C111.197 350.104 111.353 351.075 111.353 352.189V353.186H100.299V350.936H107.935C107.935 350.414 107.822 349.95 107.594 349.547C107.367 349.144 107.052 348.828 106.648 348.601C106.251 348.368 105.787 348.252 105.259 348.252C104.708 348.252 104.219 348.379 103.793 348.635C103.373 348.885 103.043 349.223 102.805 349.649C102.566 350.07 102.444 350.539 102.438 351.056V353.195C102.438 353.843 102.557 354.402 102.796 354.874C103.04 355.345 103.384 355.709 103.827 355.965C104.27 356.22 104.796 356.348 105.404 356.348C105.807 356.348 106.177 356.291 106.512 356.178C106.847 356.064 107.134 355.894 107.373 355.666C107.611 355.439 107.793 355.161 107.918 354.831L111.276 355.053C111.106 355.86 110.756 356.564 110.228 357.166C109.705 357.763 109.029 358.229 108.199 358.564C107.376 358.894 106.424 359.058 105.344 359.058ZM116.873 351.235V358.803H113.242V345.712H116.702V348.021H116.856C117.146 347.26 117.631 346.658 118.313 346.215C118.995 345.766 119.822 345.541 120.793 345.541C121.702 345.541 122.495 345.74 123.171 346.138C123.847 346.536 124.373 347.104 124.748 347.843C125.123 348.575 125.31 349.45 125.31 350.468L125.31 358.803H121.68V351.115C121.685 350.314 121.481 349.689 121.066 349.24C120.651 348.786 120.08 348.558 119.353 348.558C118.864 348.558 118.432 348.664 118.057 348.874C117.688 349.084 117.398 349.391 117.188 349.794C116.984 350.192 116.879 350.672 116.873 351.235ZM133.59 363.985C132.413 363.985 131.405 363.823 130.564 363.499C129.729 363.181 129.064 362.746 128.57 362.195C128.075 361.644 127.754 361.024 127.607 360.337L130.965 359.885C131.067 360.146 131.229 360.391 131.45 360.618C131.672 360.845 131.965 361.027 132.328 361.164C132.698 361.306 133.146 361.377 133.675 361.377C134.465 361.377 135.115 361.183 135.626 360.797C136.144 360.416 136.402 359.777 136.402 358.879V356.485H136.249C136.09 356.848 135.851 357.192 135.533 357.516C135.215 357.84 134.805 358.104 134.305 358.308C133.805 358.513 133.209 358.615 132.516 358.615C131.533 358.615 130.638 358.388 129.831 357.933C129.03 357.473 128.391 356.771 127.913 355.828C127.442 354.879 127.206 353.681 127.206 352.232C127.206 350.749 127.448 349.51 127.93 348.516C128.413 347.521 129.055 346.777 129.857 346.283C130.663 345.789 131.547 345.541 132.507 345.541C133.24 345.541 133.854 345.666 134.348 345.916C134.842 346.161 135.24 346.468 135.541 346.837C135.848 347.2 136.084 347.558 136.249 347.911H136.385V345.712H139.99V358.931C139.99 360.044 139.717 360.976 139.172 361.726C138.626 362.476 137.871 363.039 136.905 363.414C135.945 363.794 134.84 363.985 133.59 363.985ZM133.666 355.888C134.251 355.888 134.746 355.743 135.149 355.453C135.558 355.158 135.871 354.737 136.087 354.192C136.308 353.641 136.419 352.982 136.419 352.215C136.419 351.448 136.311 350.783 136.095 350.22C135.879 349.652 135.567 349.212 135.158 348.899C134.749 348.587 134.251 348.431 133.666 348.431C133.07 348.431 132.567 348.593 132.158 348.916C131.749 349.235 131.439 349.678 131.229 350.246C131.019 350.814 130.913 351.47 130.913 352.215C130.913 352.97 131.019 353.624 131.229 354.175C131.445 354.72 131.754 355.144 132.158 355.445C132.567 355.74 133.07 355.888 133.666 355.888ZM150.794 353.229V345.712H154.425V358.803H150.939V356.425H150.803C150.507 357.192 150.016 357.808 149.328 358.274C148.646 358.74 147.814 358.973 146.831 358.973C145.956 358.973 145.186 358.774 144.521 358.377C143.857 357.979 143.337 357.414 142.962 356.681C142.593 355.948 142.405 355.07 142.399 354.047V345.712H146.03V353.399C146.036 354.172 146.243 354.783 146.652 355.232C147.061 355.681 147.61 355.905 148.297 355.905C148.735 355.905 149.144 355.806 149.524 355.607C149.905 355.402 150.212 355.101 150.445 354.703C150.683 354.306 150.8 353.814 150.794 353.229ZM156.849 358.803V345.712H160.309V348.021H160.463C160.735 347.254 161.19 346.649 161.826 346.206C162.463 345.763 163.224 345.541 164.11 345.541C165.008 345.541 165.772 345.766 166.403 346.215C167.034 346.658 167.454 347.26 167.664 348.021H167.801C168.068 347.271 168.551 346.672 169.25 346.223C169.954 345.769 170.787 345.541 171.747 345.541C172.968 345.541 173.96 345.931 174.721 346.709C175.488 347.482 175.872 348.578 175.872 349.999V358.803H172.25V350.715C172.25 349.987 172.056 349.442 171.67 349.078C171.284 348.715 170.801 348.533 170.221 348.533C169.562 348.533 169.048 348.743 168.679 349.164C168.309 349.578 168.125 350.127 168.125 350.808V358.803H164.605V350.638C164.605 349.996 164.42 349.485 164.051 349.104C163.687 348.723 163.207 348.533 162.61 348.533C162.207 348.533 161.843 348.635 161.519 348.84C161.201 349.039 160.948 349.32 160.761 349.683C160.573 350.041 160.48 350.462 160.48 350.945V358.803H156.849ZM178.26 363.712V345.712H181.839V347.911H182.001C182.16 347.558 182.39 347.2 182.691 346.837C182.998 346.468 183.396 346.161 183.885 345.916C184.379 345.666 184.993 345.541 185.726 345.541C186.68 345.541 187.561 345.791 188.368 346.291C189.174 346.786 189.819 347.533 190.302 348.533C190.785 349.527 191.027 350.774 191.027 352.274C191.027 353.735 190.791 354.968 190.319 355.973C189.853 356.973 189.217 357.732 188.41 358.249C187.609 358.76 186.711 359.016 185.717 359.016C185.012 359.016 184.413 358.899 183.919 358.666C183.43 358.433 183.03 358.141 182.717 357.789C182.405 357.431 182.166 357.07 182.001 356.706H181.89V363.712H178.26ZM181.814 352.257C181.814 353.036 181.922 353.715 182.137 354.294C182.353 354.874 182.666 355.325 183.075 355.649C183.484 355.968 183.981 356.127 184.566 356.127C185.157 356.127 185.657 355.965 186.066 355.641C186.476 355.311 186.785 354.857 186.995 354.277C187.211 353.692 187.319 353.019 187.319 352.257C187.319 351.502 187.214 350.837 187.004 350.263C186.794 349.689 186.484 349.24 186.075 348.916C185.666 348.593 185.163 348.431 184.566 348.431C183.976 348.431 183.476 348.587 183.066 348.899C182.663 349.212 182.353 349.655 182.137 350.229C181.922 350.803 181.814 351.479 181.814 352.257ZM201.362 353.229V345.712H204.993V358.803H201.507V356.425H201.371C201.075 357.192 200.584 357.808 199.896 358.274C199.214 358.74 198.382 358.973 197.399 358.973C196.524 358.973 195.754 358.774 195.089 358.377C194.425 357.979 193.905 357.414 193.53 356.681C193.16 355.948 192.973 355.07 192.967 354.047V345.712H196.598V353.399C196.604 354.172 196.811 354.783 197.22 355.232C197.629 355.681 198.177 355.905 198.865 355.905C199.302 355.905 199.711 355.806 200.092 355.607C200.473 355.402 200.78 355.101 201.013 354.703C201.251 354.306 201.368 353.814 201.362 353.229ZM211.048 341.348V358.803H207.417V341.348H211.048ZM217.209 359.05C216.374 359.05 215.629 358.905 214.976 358.615C214.322 358.32 213.805 357.885 213.425 357.311C213.05 356.732 212.862 356.01 212.862 355.146C212.862 354.419 212.996 353.808 213.263 353.314C213.53 352.82 213.894 352.422 214.354 352.121C214.814 351.82 215.337 351.593 215.922 351.439C216.513 351.286 217.132 351.178 217.78 351.115C218.541 351.036 219.155 350.962 219.621 350.894C220.087 350.82 220.425 350.712 220.635 350.57C220.845 350.428 220.95 350.218 220.95 349.939V349.888C220.95 349.348 220.78 348.931 220.439 348.635C220.104 348.34 219.626 348.192 219.007 348.192C218.354 348.192 217.834 348.337 217.447 348.627C217.061 348.911 216.805 349.269 216.68 349.7L213.322 349.428C213.493 348.632 213.828 347.945 214.328 347.365C214.828 346.78 215.473 346.331 216.263 346.019C217.058 345.7 217.979 345.541 219.024 345.541C219.751 345.541 220.447 345.627 221.112 345.797C221.783 345.968 222.376 346.232 222.894 346.59C223.416 346.948 223.828 347.408 224.129 347.97C224.43 348.527 224.581 349.195 224.581 349.973V358.803H221.138V356.987H221.036C220.825 357.396 220.544 357.757 220.192 358.07C219.84 358.377 219.416 358.618 218.922 358.794C218.428 358.965 217.857 359.05 217.209 359.05ZM218.249 356.544C218.783 356.544 219.254 356.439 219.663 356.229C220.072 356.013 220.394 355.723 220.626 355.36C220.859 354.996 220.976 354.584 220.976 354.124V352.735C220.862 352.808 220.706 352.877 220.507 352.939C220.314 352.996 220.095 353.05 219.851 353.101C219.607 353.146 219.362 353.189 219.118 353.229C218.874 353.263 218.652 353.294 218.453 353.323C218.027 353.385 217.655 353.485 217.337 353.621C217.019 353.757 216.771 353.942 216.595 354.175C216.419 354.402 216.331 354.686 216.331 355.027C216.331 355.521 216.51 355.899 216.868 356.161C217.232 356.416 217.692 356.544 218.249 356.544ZM230.548 351.235V358.803H226.918V345.712H230.378V348.021H230.531C230.821 347.26 231.307 346.658 231.989 346.215C232.671 345.766 233.497 345.541 234.469 345.541C235.378 345.541 236.171 345.74 236.847 346.138C237.523 346.536 238.048 347.104 238.423 347.843C238.798 348.575 238.986 349.45 238.986 350.468V358.803H235.355V351.115C235.361 350.314 235.156 349.689 234.742 349.24C234.327 348.786 233.756 348.558 233.029 348.558C232.54 348.558 232.108 348.664 231.733 348.874C231.364 349.084 231.074 349.391 230.864 349.794C230.659 350.192 230.554 350.672 230.548 351.235ZM101.492 381.803L101.492 364.348H105.182V372.044H105.412L111.693 364.348H116.117L109.639 372.164L116.193 381.803H111.779L106.997 374.627L105.182 376.843L105.182 381.803H101.492ZM121.223 382.05C120.388 382.05 119.644 381.905 118.99 381.615C118.337 381.32 117.82 380.885 117.439 380.311C117.064 379.732 116.877 379.01 116.877 378.146C116.877 377.419 117.01 376.808 117.277 376.314C117.544 375.82 117.908 375.422 118.368 375.121C118.828 374.82 119.351 374.593 119.936 374.439C120.527 374.286 121.147 374.178 121.794 374.115C122.556 374.036 123.169 373.962 123.635 373.894C124.101 373.82 124.439 373.712 124.65 373.57C124.86 373.428 124.965 373.218 124.965 372.939V372.888C124.965 372.348 124.794 371.931 124.453 371.635C124.118 371.34 123.641 371.192 123.022 371.192C122.368 371.192 121.848 371.337 121.462 371.627C121.076 371.911 120.82 372.269 120.695 372.7L117.337 372.428C117.507 371.632 117.843 370.945 118.343 370.365C118.843 369.78 119.488 369.331 120.277 369.019C121.073 368.7 121.993 368.541 123.039 368.541C123.766 368.541 124.462 368.627 125.127 368.797C125.797 368.968 126.391 369.232 126.908 369.59C127.431 369.948 127.843 370.408 128.144 370.97C128.445 371.527 128.596 372.195 128.596 372.973V381.803H125.152V379.987H125.05C124.84 380.396 124.559 380.757 124.206 381.07C123.854 381.377 123.431 381.618 122.936 381.794C122.442 381.965 121.871 382.05 121.223 382.05ZM122.263 379.544C122.797 379.544 123.269 379.439 123.678 379.229C124.087 379.013 124.408 378.723 124.641 378.36C124.874 377.996 124.99 377.584 124.99 377.124V375.735C124.877 375.808 124.721 375.877 124.522 375.939C124.328 375.996 124.11 376.05 123.865 376.101C123.621 376.146 123.377 376.189 123.132 376.229C122.888 376.263 122.667 376.294 122.468 376.323C122.042 376.385 121.669 376.485 121.351 376.621C121.033 376.757 120.786 376.942 120.61 377.175C120.434 377.402 120.346 377.686 120.346 378.027C120.346 378.521 120.525 378.899 120.882 379.161C121.246 379.416 121.706 379.544 122.263 379.544ZM130.932 381.803V368.712H134.452V370.996H134.589C134.827 370.183 135.228 369.57 135.79 369.155C136.353 368.735 137 368.524 137.733 368.524C137.915 368.524 138.111 368.536 138.322 368.558C138.532 368.581 138.716 368.612 138.875 368.652V371.874C138.705 371.823 138.469 371.777 138.168 371.737C137.867 371.698 137.591 371.678 137.341 371.678C136.807 371.678 136.33 371.794 135.91 372.027C135.495 372.254 135.165 372.573 134.921 372.982C134.682 373.391 134.563 373.862 134.563 374.396V381.803H130.932ZM142.913 386.712C142.452 386.712 142.02 386.675 141.617 386.601C141.219 386.533 140.89 386.445 140.628 386.337L141.447 383.627C141.873 383.757 142.256 383.828 142.597 383.84C142.944 383.851 143.242 383.771 143.492 383.601C143.748 383.431 143.955 383.141 144.114 382.732L144.327 382.178L139.631 368.712H143.449L146.16 378.325H146.296L149.032 368.712H152.876L147.788 383.218C147.543 383.922 147.211 384.536 146.79 385.058C146.376 385.587 145.85 385.993 145.214 386.277C144.577 386.567 143.81 386.712 142.913 386.712ZM157.635 382.05C156.8 382.05 156.055 381.905 155.402 381.615C154.749 381.32 154.232 380.885 153.851 380.311C153.476 379.732 153.288 379.01 153.288 378.146C153.288 377.419 153.422 376.808 153.689 376.314C153.956 375.82 154.32 375.422 154.78 375.121C155.24 374.82 155.763 374.593 156.348 374.439C156.939 374.286 157.558 374.178 158.206 374.115C158.967 374.036 159.581 373.962 160.047 373.894C160.513 373.82 160.851 373.712 161.061 373.57C161.271 373.428 161.376 373.218 161.376 372.939V372.888C161.376 372.348 161.206 371.931 160.865 371.635C160.53 371.34 160.053 371.192 159.433 371.192C158.78 371.192 158.26 371.337 157.874 371.627C157.487 371.911 157.232 372.269 157.107 372.7L153.749 372.428C153.919 371.632 154.254 370.945 154.754 370.365C155.254 369.78 155.899 369.331 156.689 369.019C157.484 368.7 158.405 368.541 159.45 368.541C160.178 368.541 160.874 368.627 161.538 368.797C162.209 368.968 162.803 369.232 163.32 369.59C163.842 369.948 164.254 370.408 164.555 370.97C164.857 371.527 165.007 372.195 165.007 372.973V381.803H161.564V379.987H161.462C161.251 380.396 160.97 380.757 160.618 381.07C160.266 381.377 159.842 381.618 159.348 381.794C158.854 381.965 158.283 382.05 157.635 382.05ZM158.675 379.544C159.209 379.544 159.68 379.439 160.089 379.229C160.499 379.013 160.82 378.723 161.053 378.36C161.286 377.996 161.402 377.584 161.402 377.124V375.735C161.288 375.808 161.132 375.877 160.933 375.939C160.74 375.996 160.521 376.05 160.277 376.101C160.033 376.146 159.788 376.189 159.544 376.229C159.3 376.263 159.078 376.294 158.879 376.323C158.453 376.385 158.081 376.485 157.763 376.621C157.445 376.757 157.197 376.942 157.021 377.175C156.845 377.402 156.757 377.686 156.757 378.027C156.757 378.521 156.936 378.899 157.294 379.161C157.658 379.416 158.118 379.544 158.675 379.544ZM178.674 381.803H172.487V364.348H178.725C180.481 364.348 181.992 364.698 183.259 365.396C184.527 366.09 185.501 367.087 186.183 368.388C186.87 369.689 187.214 371.246 187.214 373.058C187.214 374.877 186.87 376.439 186.183 377.746C185.501 379.053 184.521 380.056 183.242 380.754C181.97 381.453 180.447 381.803 178.674 381.803ZM176.177 378.641H178.521C179.612 378.641 180.529 378.448 181.274 378.061C182.024 377.669 182.586 377.064 182.961 376.246C183.342 375.422 183.532 374.36 183.532 373.058C183.532 371.769 183.342 370.715 182.961 369.896C182.586 369.078 182.027 368.476 181.282 368.09C180.538 367.703 179.62 367.51 178.529 367.51H176.177V378.641ZM200.249 364.348H203.939V375.683C203.939 376.956 203.635 378.07 203.027 379.024C202.425 379.979 201.581 380.723 200.496 381.257C199.411 381.786 198.147 382.05 196.703 382.05C195.255 382.05 193.988 381.786 192.902 381.257C191.817 380.723 190.973 379.979 190.371 379.024C189.769 378.07 189.468 376.956 189.468 375.683V364.348H193.158V375.368C193.158 376.033 193.303 376.624 193.593 377.141C193.888 377.658 194.303 378.064 194.837 378.36C195.371 378.655 195.993 378.803 196.703 378.803C197.419 378.803 198.042 378.655 198.57 378.36C199.104 378.064 199.516 377.658 199.806 377.141C200.101 376.624 200.249 376.033 200.249 375.368V364.348ZM221.896 370.459H218.163C218.095 369.976 217.956 369.547 217.745 369.172C217.535 368.791 217.265 368.468 216.936 368.2C216.606 367.933 216.226 367.729 215.794 367.587C215.368 367.445 214.905 367.374 214.405 367.374C213.501 367.374 212.714 367.598 212.044 368.047C211.373 368.49 210.853 369.138 210.484 369.99C210.115 370.837 209.93 371.865 209.93 373.075C209.93 374.32 210.115 375.365 210.484 376.212C210.859 377.058 211.382 377.698 212.052 378.129C212.723 378.561 213.498 378.777 214.379 378.777C214.873 378.777 215.331 378.712 215.751 378.581C216.177 378.45 216.555 378.26 216.885 378.01C217.214 377.754 217.487 377.445 217.703 377.081C217.924 376.718 218.078 376.303 218.163 375.837L221.896 375.854C221.799 376.655 221.558 377.428 221.172 378.172C220.791 378.911 220.277 379.573 219.629 380.158C218.987 380.737 218.22 381.198 217.328 381.539C216.442 381.874 215.439 382.041 214.319 382.041C212.763 382.041 211.37 381.689 210.143 380.985C208.922 380.28 207.956 379.26 207.245 377.925C206.541 376.59 206.189 374.973 206.189 373.075C206.189 371.172 206.547 369.553 207.263 368.218C207.978 366.882 208.95 365.865 210.177 365.166C211.405 364.462 212.785 364.11 214.319 364.11C215.331 364.11 216.268 364.252 217.132 364.536C218.001 364.82 218.771 365.235 219.442 365.78C220.112 366.32 220.657 366.982 221.078 367.766C221.504 368.55 221.777 369.448 221.896 370.459Z" fill="white"/>
</g>
<path d="M190.781 0.894531L184.412 48.7092L183.997 51.8209L183.422 56.1316L183.415 56.1909L183.368 56.5449L180.896 75.1018L179.599 84.8482L175.638 114.584L175.001 119.373C175.001 119.373 174.999 119.38 174.999 119.384C174.836 120.272 174.712 120.802 174.712 120.802H148.1C148.1 120.802 148.047 120.574 147.965 120.166L147.114 113.735L143.297 84.8482L140.804 65.9966L138.519 48.7092L136.271 31.7053L132.218 1.03353L144.079 1.00573L145.98 1.00017C145.98 1.00017 145.986 1.00017 145.988 1.00017L177.33 0.926037C177.33 0.926037 177.334 0.924184 177.336 0.926037L178.364 0.926037L190.781 0.894531Z" fill="#3D866B"/>
<path d="M161.222 18.0364C161.222 8.568 153.548 0.893555 144.079 0.893555V18.0364C144.079 27.5048 151.754 35.1793 161.222 35.1793C170.69 35.1793 178.365 27.5048 178.365 18.0364V0.893555C168.896 0.893555 161.222 8.568 161.222 18.0364Z" fill="#ED786C"/>
<path d="M175.639 114.583C175.479 116.524 175.209 118.238 175.001 119.372C175.001 119.376 174.999 119.379 174.999 119.383C174.836 120.271 174.712 120.801 174.712 120.801H148.101C148.101 120.801 148.047 120.573 147.966 120.165C147.738 119.046 147.289 116.568 147.115 113.734C146.93 110.714 147.057 107.287 148.101 104.674C149.989 99.9459 156.405 94.0525 156.405 94.0525V89.4805H166.409V94.0507C166.409 94.0507 172.824 99.9459 174.712 104.674C175.856 107.535 175.9 111.37 175.639 114.583Z" fill="#072C3F"/>
<path d="M146.484 57.8938C146.927 61.4391 144.484 64.7584 140.804 65.9964L138.519 48.7089L136.271 31.7051C138.993 32.287 141.2 34.6518 141.586 37.7171C141.664 38.3398 141.66 38.9551 141.586 39.5482C145.702 40.7343 148.917 44.2555 149.481 48.7516C149.909 52.1801 148.702 55.4401 146.465 57.753C146.471 57.7993 146.478 57.8475 146.484 57.8938Z" fill="#9CDADF"/>
<path d="M182.462 56.6238C182.762 56.5831 183.066 56.5553 183.368 56.5442L180.896 75.1011C180.672 75.0306 180.449 74.9509 180.232 74.8638L178.422 79.3506L176.993 78.7743L178.848 74.1744C178.602 74.0262 178.363 73.8649 178.131 73.6944L175.108 77.7086L173.878 76.782L176.965 72.6807C176.776 72.4842 176.593 72.2804 176.42 72.0691L172.334 75.266L171.385 74.0521L175.54 70.8014C175.408 70.5753 175.288 70.3455 175.175 70.1083L170.284 72.1877L169.682 70.7699L174.63 68.6665C174.56 68.4237 174.498 68.1772 174.448 67.9307L169.102 68.685L168.887 67.1579L174.267 66.3999C174.258 66.1534 174.258 65.9051 174.269 65.6549L168.868 64.9951L169.053 63.4643L174.456 64.1259C174.506 63.8813 174.565 63.6404 174.634 63.4013L169.595 61.3701L170.171 59.9412L175.179 61.9613C175.288 61.7315 175.405 61.5072 175.531 61.2886L171.237 58.0564L172.163 56.8258L176.409 60.0209C176.574 59.8189 176.748 59.6243 176.93 59.4371L173.679 55.2802L174.893 54.3313L178.088 58.4178C178.309 58.2547 178.533 58.1009 178.767 57.9582L176.758 53.2323L178.175 52.63L180.142 57.254C180.407 57.1428 180.679 57.0445 180.953 56.9593L180.26 52.0499L181.786 51.835L182.462 56.6238Z" fill="#F3B7BD"/>
<path d="M161.5 114.5C160.394 114.5 159.485 113.66 159.376 112.583C158.538 113.267 157.301 113.219 156.52 112.437C155.738 111.656 155.69 110.419 156.374 109.581C155.297 109.472 154.457 108.563 154.457 107.458C154.457 106.352 155.297 105.443 156.374 105.334C155.69 104.496 155.738 103.259 156.52 102.478C157.301 101.696 158.538 101.648 159.376 102.332C159.485 101.255 160.394 100.415 161.5 100.415C162.605 100.415 163.514 101.255 163.623 102.332C164.461 101.648 165.698 101.696 166.479 102.478C167.261 103.259 167.309 104.496 166.625 105.334C167.702 105.443 168.542 106.352 168.542 107.458C168.542 108.563 167.702 109.472 166.625 109.581C167.309 110.419 167.261 111.656 166.479 112.437C165.698 113.219 164.461 113.267 163.623 112.583C163.514 113.66 162.605 114.5 161.5 114.5Z" fill="#9EC2B5"/>
<path d="M163.724 29.8047H158.905V91.8896H163.724V29.8047Z" fill="#FCF9E6"/>
<defs>
<filter id="filter0_dd_5864_354" x="0" y="64.8018" width="323" height="388" filterUnits="userSpaceOnUse" color-interpolation-filters="sRGB">
<feFlood flood-opacity="0" result="BackgroundImageFix"/>
<feColorMatrix in="SourceAlpha" type="matrix" values="0 0 0 0 0 0 0 0 0 0 0 0 0 0 0 0 0 0 127 0" result="hardAlpha"/>
<feMorphology radius="3" operator="erode" in="SourceAlpha" result="effect1_dropShadow_5864_354"/>
<feOffset dy="10"/>
<feGaussianBlur stdDeviation="7.5"/>
<feComposite in2="hardAlpha" operator="out"/>
<feColorMatrix type="matrix" values="0 0 0 0 0.0627451 0 0 0 0 0.0941176 0 0 0 0 0.156863 0 0 0 0.1 0"/>
<feBlend mode="normal" in2="BackgroundImageFix" result="effect1_dropShadow_5864_354"/>
<feColorMatrix in="SourceAlpha" type="matrix" values="0 0 0 0 0 0 0 0 0 0 0 0 0 0 0 0 0 0 127 0" result="hardAlpha"/>
<feMorphology radius="4" operator="erode" in="SourceAlpha" result="effect2_dropShadow_5864_354"/>
<feOffset dy="4"/>
<feGaussianBlur stdDeviation="3"/>
<feComposite in2="hardAlpha" operator="out"/>
<feColorMatrix type="matrix" values="0 0 0 0 0.0627451 0 0 0 0 0.0941176 0 0 0 0 0.156863 0 0 0 0.1 0"/>
<feBlend mode="normal" in2="effect1_dropShadow_5864_354" result="effect2_dropShadow_5864_354"/>
<feBlend mode="normal" in="SourceGraphic" in2="effect2_dropShadow_5864_354" result="shape"/>
</filter>
</defs>
</svg>
