<svg width="323" height="453" viewBox="0 0 323 453" fill="none" xmlns="http://www.w3.org/2000/svg">
<g filter="url(#filter0_dd_5864_354)">
<rect x="12" y="66.8018" width="299" height="364" rx="32" fill="white"/>
<rect x="15" y="69.8018" width="293" height="358" rx="29" stroke="#5D9A83" stroke-width="6"/>
<path fill-rule="evenodd" clip-rule="evenodd" d="M161.5 155.474C138.992 155.474 120.746 173.72 120.746 196.228C120.746 218.736 138.992 236.983 161.5 236.983C184.008 236.983 202.254 218.736 202.254 196.228C202.254 173.72 184.008 155.474 161.5 155.474ZM105.926 196.228C105.926 165.536 130.807 140.654 161.5 140.654C192.193 140.654 217.074 165.536 217.074 196.228C217.074 226.921 192.193 251.802 161.5 251.802C130.807 251.802 105.926 226.921 105.926 196.228Z" fill="#5D9A83"/>
<path fill-rule="evenodd" clip-rule="evenodd" d="M161.5 181.432C153.328 181.432 146.704 188.056 146.704 196.228C146.704 204.399 153.328 211.024 161.5 211.024C169.671 211.024 176.295 204.399 176.295 196.228C176.295 188.056 169.671 181.432 161.5 181.432ZM131.908 196.228C131.908 179.885 145.157 166.637 161.5 166.637C177.842 166.637 191.091 179.885 191.091 196.228C191.091 212.571 177.842 225.819 161.5 225.819C145.157 225.819 131.908 212.571 131.908 196.228Z" fill="#F3B7BD"/>
<path d="M165.676 196.309L183.797 177.471L184.035 173.213L179.702 173.976L161.581 192.813" fill="#3D866B"/>
<path d="M159.853 197.522L191.083 210.79L195.155 209.644L193.043 205.817L161.813 192.55" fill="#3D866B"/>
<path d="M158.24 192.97L152.438 196.229L158.24 199.488L161.499 205.291L164.758 199.488L170.561 196.229L164.758 192.97L161.499 187.167L158.24 192.97Z" fill="#ED786C"/>
<path d="M102.441 288.283C101.695 287.989 101.121 287.563 100.721 287.003C100.321 286.443 100.121 285.763 100.121 284.963C100.121 284.243 100.301 283.596 100.661 283.023C101.021 282.436 101.555 281.976 102.261 281.643C102.981 281.296 103.848 281.123 104.861 281.123C105.875 281.123 106.735 281.296 107.441 281.643C108.161 281.976 108.701 282.436 109.061 283.023C109.435 283.596 109.621 284.243 109.621 284.963C109.621 285.736 109.415 286.416 109.001 287.003C108.588 287.576 108.021 288.003 107.301 288.283C108.128 288.536 108.781 288.983 109.261 289.623C109.755 290.249 110.001 291.009 110.001 291.903C110.001 292.769 109.788 293.529 109.361 294.183C108.935 294.823 108.328 295.323 107.541 295.683C106.768 296.029 105.875 296.203 104.861 296.203C103.848 296.203 102.955 296.029 102.181 295.683C101.421 295.323 100.828 294.823 100.401 294.183C99.9747 293.529 99.7613 292.769 99.7613 291.903C99.7613 291.009 100.001 290.243 100.481 289.603C100.961 288.963 101.615 288.523 102.441 288.283ZM107.861 285.183C107.861 284.369 107.595 283.743 107.061 283.303C106.528 282.863 105.795 282.643 104.861 282.643C103.941 282.643 103.215 282.863 102.681 283.303C102.148 283.743 101.881 284.376 101.881 285.203C101.881 285.949 102.155 286.549 102.701 287.003C103.261 287.456 103.981 287.683 104.861 287.683C105.755 287.683 106.475 287.456 107.021 287.003C107.581 286.536 107.861 285.929 107.861 285.183ZM104.861 289.083C103.875 289.083 103.068 289.316 102.441 289.783C101.815 290.236 101.501 290.923 101.501 291.843C101.501 292.696 101.801 293.383 102.401 293.903C103.015 294.423 103.835 294.683 104.861 294.683C105.888 294.683 106.701 294.423 107.301 293.903C107.901 293.383 108.201 292.696 108.201 291.843C108.201 290.949 107.895 290.269 107.281 289.803C106.668 289.323 105.861 289.083 104.861 289.083ZM121.791 295.943C120.871 295.943 120.044 295.783 119.311 295.463C118.591 295.129 118.024 294.676 117.611 294.103C117.197 293.516 116.984 292.843 116.971 292.083H118.911C118.977 292.736 119.244 293.289 119.711 293.743C120.191 294.183 120.884 294.403 121.791 294.403C122.657 294.403 123.337 294.189 123.831 293.763C124.337 293.323 124.591 292.763 124.591 292.083C124.591 291.549 124.444 291.116 124.151 290.783C123.857 290.449 123.491 290.196 123.051 290.023C122.611 289.849 122.017 289.663 121.271 289.463C120.351 289.223 119.611 288.983 119.051 288.743C118.504 288.503 118.031 288.129 117.631 287.623C117.244 287.103 117.051 286.409 117.051 285.543C117.051 284.783 117.244 284.109 117.631 283.523C118.017 282.936 118.557 282.483 119.251 282.163C119.957 281.843 120.764 281.683 121.671 281.683C122.977 281.683 124.044 282.009 124.871 282.663C125.711 283.316 126.184 284.183 126.291 285.263H124.291C124.224 284.729 123.944 284.263 123.451 283.863C122.957 283.449 122.304 283.243 121.491 283.243C120.731 283.243 120.111 283.443 119.631 283.843C119.151 284.229 118.911 284.776 118.911 285.483C118.911 285.989 119.051 286.403 119.331 286.723C119.624 287.043 119.977 287.289 120.391 287.463C120.817 287.623 121.411 287.809 122.171 288.023C123.091 288.276 123.831 288.529 124.391 288.783C124.951 289.023 125.431 289.403 125.831 289.923C126.231 290.429 126.431 291.123 126.431 292.003C126.431 292.683 126.251 293.323 125.891 293.923C125.531 294.523 124.997 295.009 124.291 295.383C123.584 295.756 122.751 295.943 121.791 295.943ZM138.769 289.903C138.769 290.249 138.749 290.616 138.709 291.003H129.949C130.015 292.083 130.382 292.929 131.049 293.543C131.729 294.143 132.549 294.443 133.509 294.443C134.295 294.443 134.949 294.263 135.469 293.903C136.002 293.529 136.375 293.036 136.589 292.423H138.549C138.255 293.476 137.669 294.336 136.789 295.003C135.909 295.656 134.815 295.983 133.509 295.983C132.469 295.983 131.535 295.749 130.709 295.283C129.895 294.816 129.255 294.156 128.789 293.303C128.322 292.436 128.089 291.436 128.089 290.303C128.089 289.169 128.315 288.176 128.769 287.323C129.222 286.469 129.855 285.816 130.669 285.363C131.495 284.896 132.442 284.663 133.509 284.663C134.549 284.663 135.469 284.889 136.269 285.343C137.069 285.796 137.682 286.423 138.109 287.223C138.549 288.009 138.769 288.903 138.769 289.903ZM136.889 289.523C136.889 288.829 136.735 288.236 136.429 287.743C136.122 287.236 135.702 286.856 135.169 286.603C134.649 286.336 134.069 286.203 133.429 286.203C132.509 286.203 131.722 286.496 131.069 287.083C130.429 287.669 130.062 288.483 129.969 289.523H136.889ZM142.651 286.863C143.011 286.236 143.545 285.716 144.251 285.303C144.971 284.876 145.805 284.663 146.751 284.663C147.725 284.663 148.605 284.896 149.391 285.363C150.191 285.829 150.818 286.489 151.271 287.343C151.725 288.183 151.951 289.163 151.951 290.283C151.951 291.389 151.725 292.376 151.271 293.243C150.818 294.109 150.191 294.783 149.391 295.263C148.605 295.743 147.725 295.983 146.751 295.983C145.818 295.983 144.991 295.776 144.271 295.363C143.565 294.936 143.025 294.409 142.651 293.783V301.003H140.831V284.843H142.651V286.863ZM150.091 290.283C150.091 289.456 149.925 288.736 149.591 288.123C149.258 287.509 148.805 287.043 148.231 286.723C147.671 286.403 147.051 286.243 146.371 286.243C145.705 286.243 145.085 286.409 144.511 286.743C143.951 287.063 143.498 287.536 143.151 288.163C142.818 288.776 142.651 289.489 142.651 290.303C142.651 291.129 142.818 291.856 143.151 292.483C143.498 293.096 143.951 293.569 144.511 293.903C145.085 294.223 145.705 294.383 146.371 294.383C147.051 294.383 147.671 294.223 148.231 293.903C148.805 293.569 149.258 293.096 149.591 292.483C149.925 291.856 150.091 291.123 150.091 290.283ZM156.227 286.343V292.803C156.227 293.336 156.34 293.716 156.567 293.943C156.793 294.156 157.187 294.263 157.747 294.263H159.087V295.803H157.447C156.433 295.803 155.673 295.569 155.167 295.103C154.66 294.636 154.407 293.869 154.407 292.803V286.343H152.987V284.843H154.407V282.083H156.227V284.843H159.087V286.343H156.227ZM170.952 289.903C170.952 290.249 170.932 290.616 170.892 291.003H162.132C162.199 292.083 162.565 292.929 163.232 293.543C163.912 294.143 164.732 294.443 165.692 294.443C166.479 294.443 167.132 294.263 167.652 293.903C168.185 293.529 168.559 293.036 168.772 292.423H170.732C170.439 293.476 169.852 294.336 168.972 295.003C168.092 295.656 166.999 295.983 165.692 295.983C164.652 295.983 163.719 295.749 162.892 295.283C162.079 294.816 161.439 294.156 160.972 293.303C160.505 292.436 160.272 291.436 160.272 290.303C160.272 289.169 160.499 288.176 160.952 287.323C161.405 286.469 162.039 285.816 162.852 285.363C163.679 284.896 164.625 284.663 165.692 284.663C166.732 284.663 167.652 284.889 168.452 285.343C169.252 285.796 169.865 286.423 170.292 287.223C170.732 288.009 170.952 288.903 170.952 289.903ZM169.072 289.523C169.072 288.829 168.919 288.236 168.612 287.743C168.305 287.236 167.885 286.856 167.352 286.603C166.832 286.336 166.252 286.203 165.612 286.203C164.692 286.203 163.905 286.496 163.252 287.083C162.612 287.669 162.245 288.483 162.152 289.523H169.072ZM186.194 284.643C187.048 284.643 187.808 284.823 188.474 285.183C189.141 285.529 189.668 286.056 190.054 286.763C190.441 287.469 190.634 288.329 190.634 289.343V295.803H188.834V289.603C188.834 288.509 188.561 287.676 188.014 287.103C187.481 286.516 186.754 286.223 185.834 286.223C184.888 286.223 184.134 286.529 183.574 287.143C183.014 287.743 182.734 288.616 182.734 289.763V295.803H180.934V289.603C180.934 288.509 180.661 287.676 180.114 287.103C179.581 286.516 178.854 286.223 177.934 286.223C176.988 286.223 176.234 286.529 175.674 287.143C175.114 287.743 174.834 288.616 174.834 289.763V295.803H173.014V284.843H174.834V286.423C175.194 285.849 175.674 285.409 176.274 285.103C176.888 284.796 177.561 284.643 178.294 284.643C179.214 284.643 180.028 284.849 180.734 285.263C181.441 285.676 181.968 286.283 182.314 287.083C182.621 286.309 183.128 285.709 183.834 285.283C184.541 284.856 185.328 284.643 186.194 284.643ZM195.1 286.883C195.473 286.229 196.02 285.696 196.74 285.283C197.46 284.869 198.28 284.663 199.2 284.663C200.186 284.663 201.073 284.896 201.86 285.363C202.646 285.829 203.266 286.489 203.72 287.343C204.173 288.183 204.4 289.163 204.4 290.283C204.4 291.389 204.173 292.376 203.72 293.243C203.266 294.109 202.64 294.783 201.84 295.263C201.053 295.743 200.173 295.983 199.2 295.983C198.253 295.983 197.42 295.776 196.7 295.363C195.993 294.949 195.46 294.423 195.1 293.783V295.803H193.28V281.003H195.1V286.883ZM202.54 290.283C202.54 289.456 202.373 288.736 202.04 288.123C201.706 287.509 201.253 287.043 200.68 286.723C200.12 286.403 199.5 286.243 198.82 286.243C198.153 286.243 197.533 286.409 196.96 286.743C196.4 287.063 195.946 287.536 195.6 288.163C195.266 288.776 195.1 289.489 195.1 290.303C195.1 291.129 195.266 291.856 195.6 292.483C195.946 293.096 196.4 293.569 196.96 293.903C197.533 294.223 198.153 294.383 198.82 294.383C199.5 294.383 200.12 294.223 200.68 293.903C201.253 293.569 201.706 293.096 202.04 292.483C202.373 291.856 202.54 291.123 202.54 290.283ZM216.455 289.903C216.455 290.249 216.435 290.616 216.395 291.003H207.635C207.702 292.083 208.069 292.929 208.735 293.543C209.415 294.143 210.235 294.443 211.195 294.443C211.982 294.443 212.635 294.263 213.155 293.903C213.689 293.529 214.062 293.036 214.275 292.423H216.235C215.942 293.476 215.355 294.336 214.475 295.003C213.595 295.656 212.502 295.983 211.195 295.983C210.155 295.983 209.222 295.749 208.395 295.283C207.582 294.816 206.942 294.156 206.475 293.303C206.009 292.436 205.775 291.436 205.775 290.303C205.775 289.169 206.002 288.176 206.455 287.323C206.909 286.469 207.542 285.816 208.355 285.363C209.182 284.896 210.129 284.663 211.195 284.663C212.235 284.663 213.155 284.889 213.955 285.343C214.755 285.796 215.369 286.423 215.795 287.223C216.235 288.009 216.455 288.903 216.455 289.903ZM214.575 289.523C214.575 288.829 214.422 288.236 214.115 287.743C213.809 287.236 213.389 286.856 212.855 286.603C212.335 286.336 211.755 286.203 211.115 286.203C210.195 286.203 209.409 286.496 208.755 287.083C208.115 287.669 207.749 288.483 207.655 289.523H214.575ZM220.338 286.623C220.658 285.996 221.111 285.509 221.698 285.163C222.298 284.816 223.024 284.643 223.878 284.643V286.523H223.398C221.358 286.523 220.338 287.629 220.338 289.843V295.803H218.518V284.843H220.338V286.623Z" fill="#A8A699"/>
<rect x="44" y="324.803" width="235" height="74" rx="24" fill="#5D9A83"/>
<path d="M84.2764 358.803V341.348H91.1628C92.4866 341.348 93.6145 341.601 94.5463 342.107C95.4781 342.607 96.1884 343.303 96.677 344.195C97.1713 345.081 97.4185 346.104 97.4185 347.263C97.4185 348.422 97.1685 349.445 96.6685 350.331C96.1685 351.218 95.444 351.908 94.4952 352.402C93.552 352.896 92.4099 353.144 91.069 353.144H86.6798V350.186H90.4724C91.1827 350.186 91.7679 350.064 92.2281 349.82C92.694 349.57 93.0406 349.226 93.2679 348.789C93.5009 348.345 93.6173 347.837 93.6173 347.263C93.6173 346.683 93.5009 346.178 93.2679 345.746C93.0406 345.308 92.694 344.97 92.2281 344.732C91.7622 344.487 91.1713 344.365 90.4554 344.365H87.9668V358.803H84.2764ZM105.022 359.058C103.676 359.058 102.517 358.786 101.545 358.24C100.579 357.689 99.8348 356.911 99.312 355.905C98.7893 354.894 98.528 353.698 98.528 352.317C98.528 350.97 98.7893 349.789 99.312 348.771C99.8348 347.754 100.571 346.962 101.519 346.394C102.474 345.825 103.593 345.541 104.877 345.541C105.741 345.541 106.545 345.681 107.289 345.959C108.039 346.232 108.693 346.644 109.25 347.195C109.812 347.746 110.25 348.439 110.562 349.274C110.875 350.104 111.031 351.075 111.031 352.189V353.186H99.9768V350.936H107.613C107.613 350.414 107.5 349.95 107.272 349.547C107.045 349.144 106.73 348.828 106.326 348.601C105.929 348.368 105.465 348.252 104.937 348.252C104.386 348.252 103.897 348.379 103.471 348.635C103.051 348.885 102.721 349.223 102.483 349.649C102.244 350.07 102.122 350.539 102.116 351.056V353.195C102.116 353.843 102.235 354.402 102.474 354.874C102.718 355.345 103.062 355.709 103.505 355.965C103.948 356.22 104.474 356.348 105.082 356.348C105.485 356.348 105.855 356.291 106.19 356.178C106.525 356.064 106.812 355.894 107.051 355.666C107.289 355.439 107.471 355.161 107.596 354.831L110.954 355.053C110.784 355.86 110.434 356.564 109.906 357.166C109.383 357.763 108.707 358.229 107.877 358.564C107.054 358.894 106.102 359.058 105.022 359.058ZM116.551 351.235V358.803H112.92V345.712H116.38V348.021H116.534C116.824 347.26 117.309 346.658 117.991 346.215C118.673 345.766 119.5 345.541 120.471 345.541C121.38 345.541 122.173 345.74 122.849 346.138C123.525 346.536 124.051 347.104 124.426 347.843C124.801 348.575 124.988 349.45 124.988 350.468V358.803H121.358V351.115C121.363 350.314 121.159 349.689 120.744 349.24C120.329 348.786 119.758 348.558 119.031 348.558C118.542 348.558 118.11 348.664 117.735 348.874C117.366 349.084 117.076 349.391 116.866 349.794C116.662 350.192 116.556 350.672 116.551 351.235ZM133.268 363.985C132.091 363.985 131.083 363.823 130.242 363.499C129.407 363.181 128.742 362.746 128.248 362.195C127.753 361.644 127.432 361.024 127.285 360.337L130.643 359.885C130.745 360.146 130.907 360.391 131.128 360.618C131.35 360.845 131.643 361.027 132.006 361.164C132.375 361.306 132.824 361.377 133.353 361.377C134.143 361.377 134.793 361.183 135.304 360.797C135.822 360.416 136.08 359.777 136.08 358.879V356.485H135.927C135.768 356.848 135.529 357.192 135.211 357.516C134.893 357.84 134.483 358.104 133.983 358.308C133.483 358.513 132.887 358.615 132.194 358.615C131.211 358.615 130.316 358.388 129.509 357.933C128.708 357.473 128.069 356.771 127.591 355.828C127.12 354.879 126.884 353.681 126.884 352.232C126.884 350.749 127.125 349.51 127.608 348.516C128.091 347.521 128.733 346.777 129.535 346.283C130.341 345.789 131.225 345.541 132.185 345.541C132.918 345.541 133.532 345.666 134.026 345.916C134.52 346.161 134.918 346.468 135.219 346.837C135.526 347.2 135.762 347.558 135.927 347.911H136.063V345.712H139.668V358.931C139.668 360.044 139.395 360.976 138.85 361.726C138.304 362.476 137.549 363.039 136.583 363.414C135.623 363.794 134.518 363.985 133.268 363.985ZM133.344 355.888C133.929 355.888 134.424 355.743 134.827 355.453C135.236 355.158 135.549 354.737 135.765 354.192C135.986 353.641 136.097 352.982 136.097 352.215C136.097 351.448 135.989 350.783 135.773 350.22C135.557 349.652 135.245 349.212 134.836 348.899C134.427 348.587 133.929 348.431 133.344 348.431C132.748 348.431 132.245 348.593 131.836 348.916C131.427 349.235 131.117 349.678 130.907 350.246C130.697 350.814 130.591 351.47 130.591 352.215C130.591 352.97 130.697 353.624 130.907 354.175C131.123 354.72 131.432 355.144 131.836 355.445C132.245 355.74 132.748 355.888 133.344 355.888ZM150.472 353.229V345.712H154.103V358.803H150.617V356.425H150.481C150.185 357.192 149.694 357.808 149.006 358.274C148.324 358.74 147.492 358.973 146.509 358.973C145.634 358.973 144.864 358.774 144.199 358.377C143.535 357.979 143.015 357.414 142.64 356.681C142.27 355.948 142.083 355.07 142.077 354.047V345.712H145.708V353.399C145.714 354.172 145.921 354.783 146.33 355.232C146.739 355.681 147.288 355.905 147.975 355.905C148.413 355.905 148.822 355.806 149.202 355.607C149.583 355.402 149.89 355.101 150.123 354.703C150.361 354.306 150.478 353.814 150.472 353.229ZM156.527 358.803V345.712H159.987V348.021H160.141C160.413 347.254 160.868 346.649 161.504 346.206C162.141 345.763 162.902 345.541 163.788 345.541C164.686 345.541 165.45 345.766 166.081 346.215C166.712 346.658 167.132 347.26 167.342 348.021H167.479C167.746 347.271 168.229 346.672 168.928 346.223C169.632 345.769 170.464 345.541 171.425 345.541C172.646 345.541 173.638 345.931 174.399 346.709C175.166 347.482 175.55 348.578 175.55 349.999V358.803H171.928V350.715C171.928 349.987 171.734 349.442 171.348 349.078C170.962 348.715 170.479 348.533 169.899 348.533C169.24 348.533 168.726 348.743 168.357 349.164C167.987 349.578 167.803 350.127 167.803 350.808V358.803H164.283V350.638C164.283 349.996 164.098 349.485 163.729 349.104C163.365 348.723 162.885 348.533 162.288 348.533C161.885 348.533 161.521 348.635 161.197 348.84C160.879 349.039 160.626 349.32 160.439 349.683C160.251 350.041 160.158 350.462 160.158 350.945V358.803H156.527ZM186.333 353.229V345.712H189.963V358.803H186.477V356.425H186.341C186.046 357.192 185.554 357.808 184.867 358.274C184.185 358.74 183.352 358.973 182.369 358.973C181.494 358.973 180.725 358.774 180.06 358.377C179.395 357.979 178.875 357.414 178.5 356.681C178.131 355.948 177.943 355.07 177.938 354.047V345.712H181.568V353.399C181.574 354.172 181.781 354.783 182.19 355.232C182.6 355.681 183.148 355.905 183.835 355.905C184.273 355.905 184.682 355.806 185.063 355.607C185.443 355.402 185.75 355.101 185.983 354.703C186.222 354.306 186.338 353.814 186.333 353.229ZM192.387 358.803V345.712H195.848V348.021H196.001C196.274 347.254 196.728 346.649 197.365 346.206C198.001 345.763 198.762 345.541 199.649 345.541C200.546 345.541 201.311 345.766 201.941 346.215C202.572 346.658 202.992 347.26 203.203 348.021H203.339C203.606 347.271 204.089 346.672 204.788 346.223C205.492 345.769 206.325 345.541 207.285 345.541C208.507 345.541 209.498 345.931 210.259 346.709C211.027 347.482 211.41 348.578 211.41 349.999V358.803H207.788V350.715C207.788 349.987 207.595 349.442 207.208 349.078C206.822 348.715 206.339 348.533 205.759 348.533C205.1 348.533 204.586 348.743 204.217 349.164C203.848 349.578 203.663 350.127 203.663 350.808V358.803H200.143V350.638C200.143 349.996 199.958 349.485 199.589 349.104C199.225 348.723 198.745 348.533 198.149 348.533C197.745 348.533 197.382 348.635 197.058 348.84C196.74 349.039 196.487 349.32 196.299 349.683C196.112 350.041 196.018 350.462 196.018 350.945V358.803H192.387ZM217.531 359.05C216.696 359.05 215.951 358.905 215.298 358.615C214.645 358.32 214.127 357.885 213.747 357.311C213.372 356.732 213.184 356.01 213.184 355.146C213.184 354.419 213.318 353.808 213.585 353.314C213.852 352.82 214.216 352.422 214.676 352.121C215.136 351.82 215.659 351.593 216.244 351.439C216.835 351.286 217.454 351.178 218.102 351.115C218.863 351.036 219.477 350.962 219.943 350.894C220.409 350.82 220.747 350.712 220.957 350.57C221.167 350.428 221.272 350.218 221.272 349.939V349.888C221.272 349.348 221.102 348.931 220.761 348.635C220.426 348.34 219.948 348.192 219.329 348.192C218.676 348.192 218.156 348.337 217.77 348.627C217.383 348.911 217.127 349.269 217.002 349.7L213.645 349.428C213.815 348.632 214.15 347.945 214.65 347.365C215.15 346.78 215.795 346.331 216.585 346.019C217.38 345.7 218.301 345.541 219.346 345.541C220.073 345.541 220.77 345.627 221.434 345.797C222.105 345.968 222.698 346.232 223.216 346.59C223.738 346.948 224.15 347.408 224.451 347.97C224.752 348.527 224.903 349.195 224.903 349.973V358.803H221.46V356.987H221.358C221.147 357.396 220.866 357.757 220.514 358.07C220.162 358.377 219.738 358.618 219.244 358.794C218.75 358.965 218.179 359.05 217.531 359.05ZM218.571 356.544C219.105 356.544 219.576 356.439 219.985 356.229C220.395 356.013 220.716 355.723 220.948 355.36C221.181 354.996 221.298 354.584 221.298 354.124V352.735C221.184 352.808 221.028 352.877 220.829 352.939C220.636 352.996 220.417 353.05 220.173 353.101C219.929 353.146 219.684 353.189 219.44 353.229C219.196 353.263 218.974 353.294 218.775 353.323C218.349 353.385 217.977 353.485 217.659 353.621C217.341 353.757 217.093 353.942 216.917 354.175C216.741 354.402 216.653 354.686 216.653 355.027C216.653 355.521 216.832 355.899 217.19 356.161C217.554 356.416 218.014 356.544 218.571 356.544ZM230.87 351.235V358.803H227.24V345.712H230.7V348.021H230.853C231.143 347.26 231.629 346.658 232.311 346.215C232.993 345.766 233.819 345.541 234.791 345.541C235.7 345.541 236.493 345.74 237.169 346.138C237.845 346.536 238.37 347.104 238.745 347.843C239.12 348.575 239.308 349.45 239.308 350.468V358.803H235.677V351.115C235.683 350.314 235.478 349.689 235.064 349.24C234.649 348.786 234.078 348.558 233.351 348.558C232.862 348.558 232.43 348.664 232.055 348.874C231.686 349.084 231.396 349.391 231.186 349.794C230.981 350.192 230.876 350.672 230.87 351.235ZM61.7164 381.803V364.348H73.2732V367.391H65.4068V371.55H72.5062V374.593H65.4068V381.803H61.7164ZM75.2073 381.803V368.712H78.838V381.803H75.2073ZM77.0312 367.024C76.4914 367.024 76.0283 366.845 75.642 366.487C75.2613 366.124 75.0709 365.689 75.0709 365.183C75.0709 364.683 75.2613 364.254 75.642 363.896C76.0283 363.533 76.4914 363.351 77.0312 363.351C77.5709 363.351 78.0312 363.533 78.4118 363.896C78.7982 364.254 78.9914 364.683 78.9914 365.183C78.9914 365.689 78.7982 366.124 78.4118 366.487C78.0312 366.845 77.5709 367.024 77.0312 367.024ZM84.897 374.235V381.803H81.2664V368.712H84.7266V371.021H84.88C85.1698 370.26 85.6556 369.658 86.3374 369.215C87.0192 368.766 87.8459 368.541 88.8175 368.541C89.7266 368.541 90.5192 368.74 91.1953 369.138C91.8715 369.536 92.397 370.104 92.772 370.843C93.147 371.575 93.3345 372.45 93.3345 373.468V381.803H89.7039V374.115C89.7095 373.314 89.505 372.689 89.0902 372.24C88.6755 371.786 88.1044 371.558 87.3772 371.558C86.8885 371.558 86.4567 371.664 86.0817 371.874C85.7124 372.084 85.4226 372.391 85.2124 372.794C85.0078 373.192 84.9027 373.672 84.897 374.235ZM99.449 382.05C98.6138 382.05 97.8695 381.905 97.216 381.615C96.5626 381.32 96.0456 380.885 95.6649 380.311C95.2899 379.732 95.1024 379.01 95.1024 378.146C95.1024 377.419 95.2359 376.808 95.503 376.314C95.77 375.82 96.1337 375.422 96.5939 375.121C97.0541 374.82 97.5768 374.593 98.1621 374.439C98.753 374.286 99.3723 374.178 100.02 374.115C100.781 374.036 101.395 373.962 101.861 373.894C102.327 373.82 102.665 373.712 102.875 373.57C103.085 373.428 103.19 373.218 103.19 372.939V372.888C103.19 372.348 103.02 371.931 102.679 371.635C102.344 371.34 101.867 371.192 101.247 371.192C100.594 371.192 100.074 371.337 99.6876 371.627C99.3013 371.911 99.0456 372.269 98.9206 372.7L95.5626 372.428C95.7331 371.632 96.0683 370.945 96.5683 370.365C97.0683 369.78 97.7132 369.331 98.503 369.019C99.2984 368.7 100.219 368.541 101.264 368.541C101.992 368.541 102.688 368.627 103.352 368.797C104.023 368.968 104.617 369.232 105.134 369.59C105.656 369.948 106.068 370.408 106.369 370.97C106.671 371.527 106.821 372.195 106.821 372.973V381.803H103.378V379.987H103.276C103.065 380.396 102.784 380.757 102.432 381.07C102.08 381.377 101.656 381.618 101.162 381.794C100.668 381.965 100.097 382.05 99.449 382.05ZM100.489 379.544C101.023 379.544 101.494 379.439 101.904 379.229C102.313 379.013 102.634 378.723 102.867 378.36C103.1 377.996 103.216 377.584 103.216 377.124V375.735C103.102 375.808 102.946 375.877 102.747 375.939C102.554 375.996 102.335 376.05 102.091 376.101C101.847 376.146 101.602 376.189 101.358 376.229C101.114 376.263 100.892 376.294 100.693 376.323C100.267 376.385 99.895 376.485 99.5768 376.621C99.2587 376.757 99.0115 376.942 98.8354 377.175C98.6592 377.402 98.5712 377.686 98.5712 378.027C98.5712 378.521 98.7501 378.899 99.1081 379.161C99.4717 379.416 99.932 379.544 100.489 379.544ZM112.789 364.348V381.803H109.158V364.348H112.789ZM115.217 381.803V368.712H118.848V381.803H115.217ZM117.041 367.024C116.501 367.024 116.038 366.845 115.652 366.487C115.271 366.124 115.081 365.689 115.081 365.183C115.081 364.683 115.271 364.254 115.652 363.896C116.038 363.533 116.501 363.351 117.041 363.351C117.581 363.351 118.041 363.533 118.422 363.896C118.808 364.254 119.001 364.683 119.001 365.183C119.001 365.689 118.808 366.124 118.422 366.487C118.041 366.845 117.581 367.024 117.041 367.024ZM132.168 372.445L128.844 372.649C128.787 372.365 128.665 372.11 128.478 371.882C128.29 371.649 128.043 371.465 127.736 371.328C127.435 371.186 127.074 371.115 126.654 371.115C126.091 371.115 125.617 371.235 125.231 371.473C124.844 371.706 124.651 372.019 124.651 372.411C124.651 372.723 124.776 372.987 125.026 373.203C125.276 373.419 125.705 373.593 126.313 373.723L128.682 374.2C129.955 374.462 130.904 374.882 131.529 375.462C132.154 376.041 132.466 376.803 132.466 377.746C132.466 378.604 132.214 379.357 131.708 380.004C131.208 380.652 130.52 381.158 129.645 381.521C128.776 381.879 127.773 382.058 126.637 382.058C124.904 382.058 123.523 381.698 122.495 380.976C121.472 380.249 120.873 379.26 120.697 378.01L124.268 377.823C124.375 378.351 124.637 378.754 125.052 379.033C125.466 379.306 125.998 379.442 126.645 379.442C127.282 379.442 127.793 379.32 128.179 379.075C128.572 378.825 128.77 378.504 128.776 378.112C128.77 377.783 128.631 377.513 128.358 377.303C128.086 377.087 127.665 376.922 127.097 376.808L124.83 376.357C123.552 376.101 122.6 375.658 121.975 375.027C121.356 374.396 121.046 373.593 121.046 372.615C121.046 371.774 121.273 371.05 121.728 370.442C122.188 369.834 122.833 369.365 123.662 369.036C124.498 368.706 125.475 368.541 126.594 368.541C128.248 368.541 129.549 368.891 130.498 369.59C131.452 370.289 132.009 371.24 132.168 372.445ZM145.603 381.803H139.415V364.348H145.654C147.41 364.348 148.921 364.698 150.188 365.396C151.455 366.09 152.43 367.087 153.112 368.388C153.799 369.689 154.143 371.246 154.143 373.058C154.143 374.877 153.799 376.439 153.112 377.746C152.43 379.053 151.45 380.056 150.171 380.754C148.898 381.453 147.376 381.803 145.603 381.803ZM143.106 378.641H145.45C146.54 378.641 147.458 378.448 148.202 378.061C148.952 377.669 149.515 377.064 149.89 376.246C150.271 375.422 150.461 374.36 150.461 373.058C150.461 371.769 150.271 370.715 149.89 369.896C149.515 369.078 148.955 368.476 148.211 368.09C147.467 367.703 146.549 367.51 145.458 367.51H143.106V378.641ZM156.396 381.803V364.348H160.087V378.76H167.57V381.803H156.396ZM184.254 370.459H180.522C180.453 369.976 180.314 369.547 180.104 369.172C179.894 368.791 179.624 368.468 179.294 368.2C178.965 367.933 178.584 367.729 178.152 367.587C177.726 367.445 177.263 367.374 176.763 367.374C175.86 367.374 175.073 367.598 174.402 368.047C173.732 368.49 173.212 369.138 172.843 369.99C172.473 370.837 172.289 371.865 172.289 373.075C172.289 374.32 172.473 375.365 172.843 376.212C173.218 377.058 173.74 377.698 174.411 378.129C175.081 378.561 175.857 378.777 176.737 378.777C177.232 378.777 177.689 378.712 178.11 378.581C178.536 378.45 178.914 378.26 179.243 378.01C179.573 377.754 179.845 377.445 180.061 377.081C180.283 376.718 180.436 376.303 180.522 375.837L184.254 375.854C184.158 376.655 183.916 377.428 183.53 378.172C183.149 378.911 182.635 379.573 181.987 380.158C181.345 380.737 180.578 381.198 179.686 381.539C178.8 381.874 177.797 382.041 176.678 382.041C175.121 382.041 173.729 381.689 172.502 380.985C171.28 380.28 170.314 379.26 169.604 377.925C168.899 376.59 168.547 374.973 168.547 373.075C168.547 371.172 168.905 369.553 169.621 368.218C170.337 366.882 171.308 365.865 172.536 365.166C173.763 364.462 175.144 364.11 176.678 364.11C177.689 364.11 178.627 364.252 179.49 364.536C180.36 364.82 181.129 365.235 181.8 365.78C182.47 366.32 183.016 366.982 183.436 367.766C183.862 368.55 184.135 369.448 184.254 370.459ZM196.78 382.058C195.575 382.058 194.535 381.843 193.66 381.411C192.785 380.979 192.112 380.394 191.64 379.655C191.174 378.911 190.942 378.081 190.942 377.166C190.942 376.485 191.078 375.879 191.351 375.351C191.623 374.823 192.004 374.337 192.493 373.894C192.981 373.445 193.549 372.999 194.197 372.556L197.581 370.331C198.018 370.053 198.339 369.76 198.544 369.453C198.748 369.141 198.851 368.803 198.851 368.439C198.851 368.093 198.711 367.771 198.433 367.476C198.155 367.181 197.76 367.036 197.248 367.041C196.907 367.041 196.612 367.118 196.362 367.271C196.112 367.419 195.916 367.615 195.774 367.86C195.638 368.098 195.569 368.365 195.569 368.661C195.569 369.024 195.672 369.394 195.876 369.769C196.081 370.144 196.353 370.541 196.694 370.962C197.035 371.377 197.407 371.825 197.811 372.308L206.086 381.803H202.302L195.399 374.115C194.944 373.598 194.49 373.058 194.035 372.496C193.586 371.928 193.211 371.325 192.91 370.689C192.609 370.047 192.459 369.351 192.459 368.601C192.459 367.754 192.655 366.993 193.047 366.317C193.444 365.641 194.001 365.107 194.717 364.715C195.433 364.317 196.268 364.118 197.223 364.118C198.155 364.118 198.959 364.308 199.635 364.689C200.317 365.064 200.839 365.564 201.203 366.189C201.572 366.808 201.757 367.49 201.757 368.235C201.757 369.058 201.552 369.806 201.143 370.476C200.74 371.141 200.172 371.737 199.439 372.266L195.876 374.831C195.393 375.183 195.035 375.544 194.802 375.914C194.575 376.277 194.461 376.627 194.461 376.962C194.461 377.377 194.564 377.749 194.768 378.078C194.973 378.408 195.263 378.669 195.638 378.862C196.013 379.05 196.453 379.144 196.959 379.144C197.572 379.144 198.177 379.004 198.774 378.726C199.376 378.442 199.922 378.041 200.41 377.524C200.905 377.002 201.299 376.382 201.595 375.666C201.89 374.95 202.038 374.158 202.038 373.289H205.047C205.047 374.357 204.93 375.32 204.697 376.178C204.464 377.03 204.14 377.774 203.726 378.411C203.311 379.041 202.836 379.558 202.302 379.962C202.132 380.07 201.967 380.172 201.808 380.269C201.649 380.365 201.484 380.468 201.314 380.575C200.666 381.098 199.942 381.476 199.14 381.709C198.345 381.942 197.558 382.058 196.78 382.058ZM218.45 381.803H212.262V364.348H218.501C220.256 364.348 221.768 364.698 223.035 365.396C224.302 366.09 225.276 367.087 225.958 368.388C226.646 369.689 226.989 371.246 226.989 373.058C226.989 374.877 226.646 376.439 225.958 377.746C225.276 379.053 224.296 380.056 223.018 380.754C221.745 381.453 220.222 381.803 218.45 381.803ZM215.952 378.641H218.296C219.387 378.641 220.305 378.448 221.049 378.061C221.799 377.669 222.361 377.064 222.736 376.246C223.117 375.422 223.307 374.36 223.307 373.058C223.307 371.769 223.117 370.715 222.736 369.896C222.361 369.078 221.802 368.476 221.057 368.09C220.313 367.703 219.396 367.51 218.305 367.51H215.952V378.641ZM240.024 364.348H243.715V375.683C243.715 376.956 243.411 378.07 242.803 379.024C242.2 379.979 241.357 380.723 240.271 381.257C239.186 381.786 237.922 382.05 236.479 382.05C235.03 382.05 233.763 381.786 232.678 381.257C231.592 380.723 230.749 379.979 230.146 379.024C229.544 378.07 229.243 376.956 229.243 375.683V364.348H232.933V375.368C232.933 376.033 233.078 376.624 233.368 377.141C233.663 377.658 234.078 378.064 234.612 378.36C235.146 378.655 235.769 378.803 236.479 378.803C237.195 378.803 237.817 378.655 238.345 378.36C238.879 378.064 239.291 377.658 239.581 377.141C239.877 376.624 240.024 376.033 240.024 375.368V364.348ZM261.671 370.459H257.938C257.87 369.976 257.731 369.547 257.521 369.172C257.311 368.791 257.041 368.468 256.711 368.2C256.382 367.933 256.001 367.729 255.569 367.587C255.143 367.445 254.68 367.374 254.18 367.374C253.276 367.374 252.49 367.598 251.819 368.047C251.149 368.49 250.629 369.138 250.259 369.99C249.89 370.837 249.705 371.865 249.705 373.075C249.705 374.32 249.89 375.365 250.259 376.212C250.634 377.058 251.157 377.698 251.828 378.129C252.498 378.561 253.274 378.777 254.154 378.777C254.649 378.777 255.106 378.712 255.526 378.581C255.953 378.45 256.33 378.26 256.66 378.01C256.99 377.754 257.262 377.445 257.478 377.081C257.7 376.718 257.853 376.303 257.938 375.837L261.671 375.854C261.575 376.655 261.333 377.428 260.947 378.172C260.566 378.911 260.052 379.573 259.404 380.158C258.762 380.737 257.995 381.198 257.103 381.539C256.217 381.874 255.214 382.041 254.095 382.041C252.538 382.041 251.146 381.689 249.919 380.985C248.697 380.28 247.731 379.26 247.021 377.925C246.316 376.59 245.964 374.973 245.964 373.075C245.964 371.172 246.322 369.553 247.038 368.218C247.754 366.882 248.725 365.865 249.953 365.166C251.18 364.462 252.561 364.11 254.095 364.11C255.106 364.11 256.044 364.252 256.907 364.536C257.776 364.82 258.546 365.235 259.217 365.78C259.887 366.32 260.433 366.982 260.853 367.766C261.279 368.55 261.552 369.448 261.671 370.459Z" fill="white"/>
</g>
<path d="M190.781 0.894531L184.412 48.7092L183.997 51.8209L183.422 56.1316L183.415 56.1909L183.368 56.5449L180.896 75.1018L179.599 84.8482L175.638 114.584L175.001 119.373C175.001 119.373 174.999 119.38 174.999 119.384C174.836 120.272 174.712 120.802 174.712 120.802H148.1C148.1 120.802 148.047 120.574 147.965 120.166L147.114 113.735L143.297 84.8482L140.804 65.9966L138.519 48.7092L136.271 31.7053L132.218 1.03353L144.079 1.00573L145.98 1.00017C145.98 1.00017 145.986 1.00017 145.988 1.00017L177.33 0.926037C177.33 0.926037 177.334 0.924184 177.336 0.926037L178.364 0.926037L190.781 0.894531Z" fill="#3D866B"/>
<path d="M161.222 18.0364C161.222 8.568 153.548 0.893555 144.079 0.893555V18.0364C144.079 27.5048 151.754 35.1793 161.222 35.1793C170.69 35.1793 178.365 27.5048 178.365 18.0364V0.893555C168.896 0.893555 161.222 8.568 161.222 18.0364Z" fill="#ED786C"/>
<path d="M175.639 114.583C175.479 116.524 175.209 118.238 175.001 119.372C175.001 119.376 174.999 119.379 174.999 119.383C174.836 120.271 174.712 120.801 174.712 120.801H148.101C148.101 120.801 148.047 120.573 147.966 120.165C147.738 119.046 147.289 116.568 147.115 113.734C146.93 110.714 147.057 107.287 148.101 104.674C149.989 99.9459 156.405 94.0525 156.405 94.0525V89.4805H166.409V94.0507C166.409 94.0507 172.824 99.9459 174.712 104.674C175.856 107.535 175.9 111.37 175.639 114.583Z" fill="#072C3F"/>
<path d="M146.484 57.8938C146.927 61.4391 144.484 64.7584 140.804 65.9964L138.519 48.7089L136.271 31.7051C138.993 32.287 141.2 34.6518 141.586 37.7171C141.664 38.3398 141.66 38.9551 141.586 39.5482C145.702 40.7343 148.917 44.2555 149.481 48.7516C149.909 52.1801 148.702 55.4401 146.465 57.753C146.471 57.7993 146.478 57.8475 146.484 57.8938Z" fill="#9CDADF"/>
<path d="M182.462 56.6238C182.762 56.5831 183.066 56.5553 183.368 56.5442L180.896 75.1011C180.672 75.0306 180.449 74.9509 180.232 74.8638L178.422 79.3506L176.993 78.7743L178.848 74.1744C178.602 74.0262 178.363 73.8649 178.131 73.6944L175.108 77.7086L173.878 76.782L176.965 72.6807C176.776 72.4842 176.593 72.2804 176.42 72.0691L172.334 75.266L171.385 74.0521L175.54 70.8014C175.408 70.5753 175.288 70.3455 175.175 70.1083L170.284 72.1877L169.682 70.7699L174.63 68.6665C174.56 68.4237 174.498 68.1772 174.448 67.9307L169.102 68.685L168.887 67.1579L174.267 66.3999C174.258 66.1534 174.258 65.9051 174.269 65.6549L168.868 64.9951L169.053 63.4643L174.456 64.1259C174.506 63.8813 174.565 63.6404 174.634 63.4013L169.595 61.3701L170.171 59.9412L175.179 61.9613C175.288 61.7315 175.405 61.5072 175.531 61.2886L171.237 58.0564L172.163 56.8258L176.409 60.0209C176.574 59.8189 176.748 59.6243 176.93 59.4371L173.679 55.2802L174.893 54.3313L178.088 58.4178C178.309 58.2547 178.533 58.1009 178.767 57.9582L176.758 53.2323L178.175 52.63L180.142 57.254C180.407 57.1428 180.679 57.0445 180.953 56.9593L180.26 52.0499L181.786 51.835L182.462 56.6238Z" fill="#F3B7BD"/>
<path d="M161.5 114.5C160.394 114.5 159.485 113.66 159.376 112.583C158.538 113.267 157.301 113.219 156.52 112.437C155.738 111.656 155.69 110.419 156.374 109.581C155.297 109.472 154.457 108.563 154.457 107.458C154.457 106.352 155.297 105.443 156.374 105.334C155.69 104.496 155.738 103.259 156.52 102.478C157.301 101.696 158.538 101.648 159.376 102.332C159.485 101.255 160.394 100.415 161.5 100.415C162.605 100.415 163.514 101.255 163.623 102.332C164.461 101.648 165.698 101.696 166.479 102.478C167.261 103.259 167.309 104.496 166.625 105.334C167.702 105.443 168.542 106.352 168.542 107.458C168.542 108.563 167.702 109.472 166.625 109.581C167.309 110.419 167.261 111.656 166.479 112.437C165.698 113.219 164.461 113.267 163.623 112.583C163.514 113.66 162.605 114.5 161.5 114.5Z" fill="#9EC2B5"/>
<path d="M163.724 29.8047H158.905V91.8896H163.724V29.8047Z" fill="#FCF9E6"/>
<defs>
<filter id="filter0_dd_5864_354" x="0" y="64.8018" width="323" height="388" filterUnits="userSpaceOnUse" color-interpolation-filters="sRGB">
<feFlood flood-opacity="0" result="BackgroundImageFix"/>
<feColorMatrix in="SourceAlpha" type="matrix" values="0 0 0 0 0 0 0 0 0 0 0 0 0 0 0 0 0 0 127 0" result="hardAlpha"/>
<feMorphology radius="3" operator="erode" in="SourceAlpha" result="effect1_dropShadow_5864_354"/>
<feOffset dy="10"/>
<feGaussianBlur stdDeviation="7.5"/>
<feComposite in2="hardAlpha" operator="out"/>
<feColorMatrix type="matrix" values="0 0 0 0 0.0627451 0 0 0 0 0.0941176 0 0 0 0 0.156863 0 0 0 0.1 0"/>
<feBlend mode="normal" in2="BackgroundImageFix" result="effect1_dropShadow_5864_354"/>
<feColorMatrix in="SourceAlpha" type="matrix" values="0 0 0 0 0 0 0 0 0 0 0 0 0 0 0 0 0 0 127 0" result="hardAlpha"/>
<feMorphology radius="4" operator="erode" in="SourceAlpha" result="effect2_dropShadow_5864_354"/>
<feOffset dy="4"/>
<feGaussianBlur stdDeviation="3"/>
<feComposite in2="hardAlpha" operator="out"/>
<feColorMatrix type="matrix" values="0 0 0 0 0.0627451 0 0 0 0 0.0941176 0 0 0 0 0.156863 0 0 0 0.1 0"/>
<feBlend mode="normal" in2="effect1_dropShadow_5864_354" result="effect2_dropShadow_5864_354"/>
<feBlend mode="normal" in="SourceGraphic" in2="effect2_dropShadow_5864_354" result="shape"/>
</filter>
</defs>
</svg>
