<svg width="151" height="152" viewBox="0 0 151 152" fill="none" xmlns="http://www.w3.org/2000/svg">
<path d="M79.7551 3.17134C76.4066 2.04966 74.3572 2.04966 71.0087 3.17134C62.8398 5.90722 63.1941 23.2205 65.7184 40.3026C59.3275 24.2613 50.9435 9.10946 42.5052 10.8432C39.0462 11.5544 37.2737 12.5826 34.9403 15.2335C29.3294 21.6083 37.9933 36.0787 48.5463 49.4279C35.1735 38.9045 20.6846 30.2718 14.3223 35.8973C11.6769 38.2362 10.6522 40.0107 9.94912 43.4712C8.24548 51.8562 23.1983 60.1508 39.1316 66.4899C22.1631 64.0129 5.06636 63.7184 2.34908 71.8315C1.22739 75.18 1.22739 77.2294 2.34908 80.5779C5.06636 88.691 22.1631 88.3965 39.1316 85.9194C23.1983 92.2586 8.24498 100.553 9.94861 108.938C10.6522 112.399 11.6769 114.173 14.3223 116.512C20.6846 122.137 35.174 113.505 48.5463 102.981C37.9933 116.331 29.3294 130.801 34.9408 137.176C37.2742 139.827 39.0467 140.855 42.5052 141.566C50.944 143.3 59.328 128.148 65.7194 112.106C63.1946 129.188 62.8403 146.502 71.0092 149.238C74.3577 150.36 76.4071 150.36 79.7556 149.238C87.9245 146.502 87.5702 129.188 85.0454 112.105C91.4368 128.147 99.8208 143.3 108.26 141.566C111.719 140.855 113.491 139.827 115.824 137.176C121.435 130.801 112.772 116.331 102.218 102.981C115.591 113.505 130.08 122.137 136.443 116.512C139.088 114.173 140.113 112.399 140.816 108.938C142.52 100.553 127.567 92.2586 111.634 85.9194C128.602 88.3965 145.698 88.691 148.416 80.5779C149.537 77.2294 149.537 75.18 148.416 71.8315C145.698 63.7184 128.602 64.0129 111.634 66.4899C127.567 60.1508 142.52 51.8562 140.816 43.4712C140.113 40.0107 139.088 38.2362 136.443 35.8973C130.08 30.2718 115.591 38.904 102.218 49.4279C112.771 36.0787 121.435 21.6083 115.824 15.2335C113.491 12.5826 111.719 11.5544 108.26 10.8432C99.8208 9.10946 91.4368 24.2618 85.0454 40.3036C87.5702 23.221 87.924 5.90722 79.7551 3.17134Z" fill="#F4ADB3"/>
</svg>
