<svg width="149" height="149" viewBox="0 0 149 149" fill="none" xmlns="http://www.w3.org/2000/svg">
<path d="M78.7551 1.34908C75.4066 0.227391 73.3572 0.227391 70.0087 1.34908C61.8398 4.08495 62.1941 21.3982 64.7184 38.4804C58.3275 22.439 49.9435 7.28719 41.5052 9.02098C38.0462 9.73209 36.2737 10.7603 33.9403 13.4112C28.3294 19.7861 36.9933 34.2564 47.5463 47.6056C34.1735 37.0823 19.6846 28.4495 13.3223 34.075C10.6769 36.4139 9.65218 38.1884 8.94912 41.6489C7.24548 50.034 22.1983 58.3285 38.1316 64.6677C21.1631 62.1906 4.06636 61.8961 1.34908 70.0092C0.227391 73.3577 0.227391 75.4071 1.34908 78.7556C4.06636 86.8687 21.1631 86.5742 38.1316 84.0972C22.1983 90.4363 7.24498 98.7309 8.94861 107.116C9.65218 110.576 10.6769 112.351 13.3223 114.69C19.6846 120.315 34.174 111.683 47.5463 101.159C36.9933 114.509 28.3294 128.979 33.9408 135.354C36.2742 138.005 38.0467 139.033 41.5052 139.744C49.944 141.478 58.328 126.325 64.7194 110.284C62.1946 127.366 61.8403 144.68 70.0092 147.416C73.3577 148.537 75.4071 148.537 78.7556 147.416C86.9245 144.68 86.5702 127.366 84.0454 110.283C90.4368 126.325 98.8208 141.478 107.26 139.744C110.719 139.033 112.491 138.005 114.824 135.354C120.435 128.979 111.772 114.509 101.218 101.159C114.591 111.683 129.08 120.315 135.443 114.69C138.088 112.351 139.113 110.576 139.816 107.116C141.52 98.7309 126.567 90.4363 110.634 84.0972C127.602 86.5742 144.698 86.8687 147.416 78.7556C148.537 75.4071 148.537 73.3577 147.416 70.0092C144.698 61.8961 127.602 62.1906 110.634 64.6677C126.567 58.3285 141.52 50.034 139.816 41.6489C139.113 38.1884 138.088 36.4139 135.443 34.075C129.08 28.4495 114.591 37.0818 101.218 47.6056C111.771 34.2564 120.435 19.7861 114.824 13.4112C112.491 10.7603 110.719 9.73209 107.26 9.02098C98.8208 7.28719 90.4368 22.4395 84.0454 38.4814C86.5702 21.3987 86.924 4.08495 78.7551 1.34908Z" fill="#43A363"/>
</svg>
