<svg width="72" height="72" viewBox="0 0 72 72" fill="none" xmlns="http://www.w3.org/2000/svg">
<path d="M9 62.9992L13.95 51.5992C10.163 46.2234 8.468 39.6503 9.18313 33.1135C9.89827 26.5767 12.9744 20.5256 17.8341 16.0957C22.6939 11.6659 29.0033 9.16182 35.5781 9.05347C42.153 8.94513 48.5415 11.24 53.5446 15.5073C58.5476 19.7746 61.8214 25.7211 62.7515 32.2308C63.6817 38.7405 62.2042 45.3658 58.5963 50.8635C54.9885 56.3612 49.4983 60.3532 43.1562 62.0905C36.814 63.8278 30.0559 63.1908 24.15 60.2992L9 62.9992Z" stroke="white" stroke-width="6" stroke-linecap="round" stroke-linejoin="round"/>
<path d="M27 30C27 30.3978 27.158 30.7794 27.4393 31.0607C27.7206 31.342 28.1022 31.5 28.5 31.5C28.8978 31.5 29.2794 31.342 29.5607 31.0607C29.842 30.7794 30 30.3978 30 30V27C30 26.6022 29.842 26.2206 29.5607 25.9393C29.2794 25.658 28.8978 25.5 28.5 25.5C28.1022 25.5 27.7206 25.658 27.4393 25.9393C27.158 26.2206 27 26.6022 27 27V30ZM27 30C27 33.9782 28.5804 37.7936 31.3934 40.6066C34.2064 43.4196 38.0218 45 42 45M42 45H45C45.3978 45 45.7794 44.842 46.0607 44.5607C46.342 44.2794 46.5 43.8978 46.5 43.5C46.5 43.1022 46.342 42.7206 46.0607 42.4393C45.7794 42.158 45.3978 42 45 42H42C41.6022 42 41.2206 42.158 40.9393 42.4393C40.658 42.7206 40.5 43.1022 40.5 43.5C40.5 43.8978 40.658 44.2794 40.9393 44.5607C41.2206 44.842 41.6022 45 42 45Z" stroke="white" stroke-width="6" stroke-linecap="round" stroke-linejoin="round"/>
</svg>
