<svg width="1280" height="230" viewBox="0 0 1280 230" fill="none" xmlns="http://www.w3.org/2000/svg">
<rect x="-112.167" y="155.545" width="1428.03" height="74.2402" transform="rotate(-6.08993 -112.167 155.545)" fill="#072C3F"/>
<rect x="-30.1758" y="0.876953" width="1337.11" height="74.2402" fill="#EA5E4F"/>
<path d="M393.723 47.3037V19.8787H412.845V25.262H400.352V30.8862H411.868V36.2828H400.352V41.9205H412.845V47.3037H393.723ZM416.997 47.3037V26.735H423.224V30.5113H423.451C423.88 29.2614 424.603 28.275 425.621 27.5518C426.638 26.8287 427.852 26.4672 429.263 26.4672C430.691 26.4672 431.914 26.8332 432.932 27.5652C433.95 28.2973 434.597 29.2793 434.874 30.5113H435.088C435.472 29.2882 436.222 28.3107 437.338 27.5786C438.454 26.8377 439.771 26.4672 441.288 26.4672C443.234 26.4672 444.815 27.0921 446.029 28.3419C447.243 29.5828 447.85 31.288 447.85 33.4573V47.3037H441.302V34.9571C441.302 33.9305 441.038 33.1493 440.511 32.6137C439.985 32.0691 439.302 31.7968 438.463 31.7968C437.561 31.7968 436.851 32.0914 436.333 32.6806C435.825 33.2609 435.57 34.0421 435.57 35.0241V47.3037H429.276V34.8902C429.276 33.9349 429.017 33.1806 428.5 32.6271C427.982 32.0736 427.299 31.7968 426.451 31.7968C425.879 31.7968 425.375 31.9352 424.938 32.2119C424.5 32.4798 424.157 32.8636 423.907 33.3636C423.665 33.8635 423.545 34.4527 423.545 35.1312V47.3037H416.997ZM451.907 55.017V26.735H458.389V30.2568H458.589C458.857 29.6319 459.237 29.0293 459.728 28.449C460.228 27.8688 460.861 27.3956 461.629 27.0296C462.406 26.6546 463.334 26.4672 464.415 26.4672C465.843 26.4672 467.178 26.8421 468.419 27.592C469.668 28.3419 470.677 29.498 471.445 31.0603C472.213 32.6226 472.597 34.6134 472.597 37.0327C472.597 39.3628 472.226 41.3134 471.485 42.8846C470.753 44.4559 469.762 45.6343 468.512 46.4199C467.271 47.2055 465.892 47.5983 464.374 47.5983C463.339 47.5983 462.442 47.4287 461.683 47.0895C460.924 46.7502 460.286 46.3038 459.768 45.7503C459.259 45.1968 458.866 44.6032 458.589 43.9693H458.456V55.017H451.907ZM458.322 37.0193C458.322 38.1263 458.469 39.0905 458.764 39.9118C459.067 40.7331 459.5 41.3715 460.062 41.8268C460.634 42.2731 461.317 42.4963 462.111 42.4963C462.915 42.4963 463.598 42.2731 464.16 41.8268C464.723 41.3715 465.147 40.7331 465.432 39.9118C465.727 39.0905 465.874 38.1263 465.874 37.0193C465.874 35.9124 465.727 34.9527 465.432 34.1403C465.147 33.3279 464.723 32.6985 464.16 32.2521C463.607 31.8057 462.924 31.5826 462.111 31.5826C461.308 31.5826 460.625 31.8013 460.062 32.2387C459.5 32.6762 459.067 33.3011 458.764 34.1135C458.469 34.9259 458.322 35.8945 458.322 37.0193ZM485.629 47.6921C483.469 47.6921 481.612 47.2501 480.059 46.3663C478.514 45.4736 477.323 44.2327 476.483 42.6436C475.653 41.0456 475.238 39.1932 475.238 37.0863C475.238 34.9705 475.653 33.1181 476.483 31.529C477.323 29.931 478.514 28.6901 480.059 27.8063C481.612 26.9135 483.469 26.4672 485.629 26.4672C487.79 26.4672 489.642 26.9135 491.187 27.8063C492.74 28.6901 493.932 29.931 494.762 31.529C495.601 33.1181 496.021 34.9705 496.021 37.0863C496.021 39.1932 495.601 41.0456 494.762 42.6436C493.932 44.2327 492.74 45.4736 491.187 46.3663C489.642 47.2501 487.79 47.6921 485.629 47.6921ZM485.67 42.7507C486.455 42.7507 487.12 42.5097 487.665 42.0276C488.209 41.5455 488.625 40.876 488.91 40.019C489.205 39.1619 489.352 38.171 489.352 37.0461C489.352 35.9034 489.205 34.9036 488.91 34.0465C488.625 33.1895 488.209 32.5199 487.665 32.0379C487.12 31.5558 486.455 31.3147 485.67 31.3147C484.857 31.3147 484.17 31.5558 483.607 32.0379C483.054 32.5199 482.63 33.1895 482.335 34.0465C482.05 34.9036 481.907 35.9034 481.907 37.0461C481.907 38.171 482.05 39.1619 482.335 40.019C482.63 40.876 483.054 41.5455 483.607 42.0276C484.17 42.5097 484.857 42.7507 485.67 42.7507ZM502.777 47.3037L497.42 26.735H503.995L506.767 39.9118H506.941L509.914 26.735H516.329L519.382 39.8181H519.556L522.247 26.735H528.822L523.453 47.3037H516.449L513.235 35.3187H513.008L509.794 47.3037H502.777ZM540.623 47.6921C538.472 47.6921 536.615 47.268 535.053 46.4199C533.499 45.5629 532.303 44.3443 531.464 42.7641C530.634 41.1751 530.218 39.2869 530.218 37.0997C530.218 34.975 530.638 33.1181 531.477 31.529C532.316 29.931 533.499 28.6901 535.026 27.8063C536.552 26.9135 538.351 26.4672 540.422 26.4672C541.887 26.4672 543.226 26.6948 544.44 27.1501C545.654 27.6054 546.703 28.2794 547.587 29.1722C548.471 30.0649 549.158 31.1674 549.649 32.4798C550.14 33.7832 550.385 35.2785 550.385 36.9658V38.5995H532.508V34.7964H544.292C544.284 34.1001 544.118 33.4796 543.797 32.9351C543.476 32.3905 543.034 31.9664 542.471 31.6629C541.918 31.3505 541.279 31.1942 540.556 31.1942C539.824 31.1942 539.168 31.3594 538.588 31.6897C538.008 32.0111 537.548 32.453 537.209 33.0154C536.869 33.5689 536.691 34.1983 536.673 34.9036V38.7736C536.673 39.6128 536.838 40.3493 537.168 40.9831C537.499 41.608 537.967 42.0946 538.574 42.4427C539.182 42.7909 539.905 42.965 540.744 42.965C541.324 42.965 541.851 42.8846 542.324 42.724C542.797 42.5633 543.203 42.3267 543.543 42.0142C543.882 41.7018 544.136 41.3179 544.306 40.8626L550.318 41.0367C550.069 42.3847 549.519 43.5587 548.671 44.5585C547.832 45.5495 546.73 46.3217 545.364 46.8752C543.998 47.4198 542.418 47.6921 540.623 47.6921ZM553.73 47.3037V26.735H560.091V30.4845H560.305C560.68 29.1275 561.291 28.1187 562.139 27.4581C562.988 26.7886 563.974 26.4538 565.099 26.4538C565.402 26.4538 565.715 26.4761 566.036 26.5207C566.358 26.5564 566.657 26.6145 566.933 26.6948V32.386C566.621 32.2789 566.21 32.1941 565.702 32.1316C565.202 32.0691 564.755 32.0379 564.362 32.0379C563.586 32.0379 562.885 32.2119 562.26 32.5601C561.644 32.8994 561.157 33.377 560.8 33.993C560.452 34.6 560.278 35.3142 560.278 36.1355V47.3037H553.73ZM569.602 47.3037V26.735H576.15V47.3037H569.602ZM572.882 24.338C571.963 24.338 571.173 24.0344 570.512 23.4274C569.852 22.8114 569.521 22.0704 569.521 21.2045C569.521 20.3474 569.852 19.6154 570.512 19.0083C571.173 18.3923 571.963 18.0843 572.882 18.0843C573.811 18.0843 574.601 18.3923 575.253 19.0083C575.913 19.6154 576.244 20.3474 576.244 21.2045C576.244 22.0704 575.913 22.8114 575.253 23.4274C574.601 24.0344 573.811 24.338 572.882 24.338ZM586.866 35.5731V47.3037H580.318V26.735H586.545V30.5113H586.772C587.228 29.2525 588.004 28.266 589.102 27.5518C590.201 26.8287 591.508 26.4672 593.026 26.4672C594.472 26.4672 595.727 26.793 596.789 27.4447C597.86 28.0875 598.69 28.9892 599.28 30.1497C599.878 31.3013 600.172 32.6494 600.163 34.1938V47.3037H593.615V35.4794C593.624 34.3367 593.334 33.4439 592.745 32.8012C592.165 32.1584 591.357 31.837 590.321 31.837C589.634 31.837 589.027 31.9888 588.5 32.2923C587.982 32.5869 587.58 33.0109 587.295 33.5644C587.018 34.1179 586.875 34.7875 586.866 35.5731ZM613.806 55.4455C611.851 55.4455 610.177 55.1732 608.784 54.6286C607.391 54.0841 606.298 53.3386 605.503 52.3923C604.709 51.446 604.231 50.3747 604.07 49.1785L610.27 48.8303C610.386 49.2499 610.601 49.6159 610.913 49.9284C611.235 50.2408 611.65 50.4819 612.159 50.6515C612.676 50.8211 613.283 50.9059 613.98 50.9059C615.078 50.9059 615.984 50.6381 616.698 50.1025C617.421 49.5757 617.783 48.6517 617.783 47.3305V43.7149H617.555C617.296 44.3487 616.903 44.9156 616.377 45.4156C615.85 45.9155 615.194 46.3083 614.408 46.594C613.632 46.8797 612.739 47.0225 611.73 47.0225C610.23 47.0225 608.855 46.6743 607.606 45.978C606.365 45.2727 605.369 44.1836 604.619 42.7106C603.878 41.2286 603.508 39.3226 603.508 36.9926C603.508 34.5911 603.892 32.6137 604.66 31.0603C605.427 29.498 606.432 28.3419 607.673 27.592C608.922 26.8421 610.266 26.4672 611.703 26.4672C612.783 26.4672 613.707 26.6546 614.475 27.0296C615.252 27.3956 615.89 27.8688 616.39 28.449C616.89 29.0293 617.27 29.6319 617.528 30.2568H617.716V26.735H624.237V47.3841C624.237 49.1249 623.8 50.5935 622.925 51.7897C622.05 52.986 620.827 53.8921 619.256 54.5081C617.685 55.133 615.868 55.4455 613.806 55.4455ZM614.007 42.2553C614.801 42.2553 615.48 42.0455 616.042 41.6259C616.604 41.2063 617.037 40.6037 617.341 39.8181C617.644 39.0325 617.796 38.0906 617.796 36.9926C617.796 35.8766 617.644 34.9169 617.341 34.1135C617.046 33.3011 616.613 32.6762 616.042 32.2387C615.48 31.8013 614.801 31.5826 614.007 31.5826C613.194 31.5826 612.507 31.8057 611.944 32.2521C611.382 32.6985 610.953 33.3279 610.659 34.1403C610.373 34.9437 610.23 35.8945 610.23 36.9926C610.23 38.0906 610.378 39.0325 610.672 39.8181C610.967 40.6037 611.391 41.2063 611.944 41.6259C612.507 42.0455 613.194 42.2553 614.007 42.2553ZM661.408 29.8149H654.712C654.623 29.1275 654.44 28.5071 654.163 27.9536C653.886 27.4001 653.52 26.9269 653.065 26.5341C652.61 26.1413 652.07 25.8422 651.445 25.6369C650.829 25.4227 650.146 25.3155 649.396 25.3155C648.066 25.3155 646.919 25.6414 645.954 26.2931C644.999 26.9448 644.263 27.8866 643.745 29.1186C643.236 30.3506 642.982 31.8415 642.982 33.5912C642.982 35.4124 643.24 36.939 643.758 38.171C644.285 39.394 645.021 40.318 645.968 40.9429C646.923 41.5589 648.052 41.8669 649.356 41.8669C650.088 41.8669 650.753 41.7732 651.351 41.5857C651.958 41.3982 652.489 41.126 652.944 40.7689C653.409 40.4028 653.788 39.9609 654.083 39.4431C654.386 38.9164 654.596 38.3227 654.712 37.6621L661.408 37.7023C661.292 38.9164 660.939 40.1127 660.35 41.2911C659.769 42.4695 658.97 43.5453 657.953 44.5184C656.935 45.4825 655.694 46.2503 654.23 46.8216C652.775 47.393 651.105 47.6787 649.222 47.6787C646.74 47.6787 644.517 47.1341 642.553 46.0449C640.598 44.9469 639.053 43.3489 637.92 41.2509C636.786 39.153 636.219 36.5998 636.219 33.5912C636.219 30.5738 636.795 28.0161 637.946 25.9181C639.098 23.8202 640.656 22.2267 642.62 21.1375C644.584 20.0484 646.785 19.5038 649.222 19.5038C650.882 19.5038 652.418 19.7359 653.828 20.2001C655.239 20.6554 656.48 21.325 657.551 22.2088C658.622 23.0837 659.493 24.1594 660.162 25.4361C660.832 26.7127 661.247 28.1723 661.408 29.8149ZM674.802 47.6921C672.642 47.6921 670.785 47.2501 669.231 46.3663C667.687 45.4736 666.495 44.2327 665.656 42.6436C664.826 41.0456 664.411 39.1932 664.411 37.0863C664.411 34.9705 664.826 33.1181 665.656 31.529C666.495 29.931 667.687 28.6901 669.231 27.8063C670.785 26.9135 672.642 26.4672 674.802 26.4672C676.963 26.4672 678.815 26.9135 680.359 27.8063C681.913 28.6901 683.105 29.931 683.935 31.529C684.774 33.1181 685.194 34.9705 685.194 37.0863C685.194 39.1932 684.774 41.0456 683.935 42.6436C683.105 44.2327 681.913 45.4736 680.359 46.3663C678.815 47.2501 676.963 47.6921 674.802 47.6921ZM674.842 42.7507C675.628 42.7507 676.293 42.5097 676.838 42.0276C677.382 41.5455 677.797 40.876 678.083 40.019C678.378 39.1619 678.525 38.171 678.525 37.0461C678.525 35.9034 678.378 34.9036 678.083 34.0465C677.797 33.1895 677.382 32.5199 676.838 32.0379C676.293 31.5558 675.628 31.3147 674.842 31.3147C674.03 31.3147 673.342 31.5558 672.78 32.0379C672.227 32.5199 671.802 33.1895 671.508 34.0465C671.222 34.9036 671.079 35.9034 671.079 37.0461C671.079 38.171 671.222 39.1619 671.508 40.019C671.802 40.876 672.227 41.5455 672.78 42.0276C673.342 42.5097 674.03 42.7507 674.842 42.7507ZM688.548 47.3037V26.735H694.775V30.5113H695.003C695.431 29.2614 696.154 28.275 697.172 27.5518C698.19 26.8287 699.404 26.4672 700.814 26.4672C702.243 26.4672 703.466 26.8332 704.483 27.5652C705.501 28.2973 706.148 29.2793 706.425 30.5113H706.639C707.023 29.2882 707.773 28.3107 708.889 27.5786C710.005 26.8377 711.322 26.4672 712.84 26.4672C714.786 26.4672 716.366 27.0921 717.58 28.3419C718.794 29.5828 719.401 31.288 719.401 33.4573V47.3037H712.853V34.9571C712.853 33.9305 712.59 33.1493 712.063 32.6137C711.536 32.0691 710.853 31.7968 710.014 31.7968C709.112 31.7968 708.403 32.0914 707.885 32.6806C707.376 33.2609 707.122 34.0421 707.122 35.0241V47.3037H700.828V34.8902C700.828 33.9349 700.569 33.1806 700.051 32.6271C699.533 32.0736 698.85 31.7968 698.002 31.7968C697.431 31.7968 696.926 31.9352 696.489 32.2119C696.052 32.4798 695.708 32.8636 695.458 33.3636C695.217 33.8635 695.096 34.4527 695.096 35.1312V47.3037H688.548ZM723.459 47.3037V26.735H729.686V30.5113H729.913C730.342 29.2614 731.065 28.275 732.083 27.5518C733.1 26.8287 734.314 26.4672 735.725 26.4672C737.153 26.4672 738.376 26.8332 739.394 27.5652C740.412 28.2973 741.059 29.2793 741.336 30.5113H741.55C741.934 29.2882 742.684 28.3107 743.8 27.5786C744.916 26.8377 746.232 26.4672 747.75 26.4672C749.696 26.4672 751.276 27.0921 752.491 28.3419C753.705 29.5828 754.312 31.288 754.312 33.4573V47.3037H747.764V34.9571C747.764 33.9305 747.5 33.1493 746.973 32.6137C746.447 32.0691 745.764 31.7968 744.925 31.7968C744.023 31.7968 743.313 32.0914 742.795 32.6806C742.287 33.2609 742.032 34.0421 742.032 35.0241V47.3037H735.738V34.8902C735.738 33.9349 735.479 33.1806 734.962 32.6271C734.444 32.0736 733.761 31.7968 732.913 31.7968C732.341 31.7968 731.837 31.9352 731.4 32.2119C730.962 32.4798 730.618 32.8636 730.368 33.3636C730.127 33.8635 730.007 34.4527 730.007 35.1312V47.3037H723.459ZM771.64 38.4254V26.735H778.175V47.3037H771.934V43.4739H771.72C771.265 44.7326 770.488 45.7325 769.39 46.4735C768.301 47.2055 766.984 47.5715 765.44 47.5715C764.038 47.5715 762.806 47.2501 761.744 46.6074C760.681 45.9646 759.856 45.0674 759.266 43.9158C758.677 42.7552 758.378 41.3982 758.369 39.8449V26.735H764.918V38.5593C764.926 39.6752 765.221 40.5546 765.801 41.1974C766.382 41.8401 767.172 42.1615 768.172 42.1615C768.823 42.1615 769.408 42.0187 769.926 41.733C770.452 41.4384 770.868 41.0144 771.171 40.4609C771.484 39.8984 771.64 39.22 771.64 38.4254ZM788.891 35.5731V47.3037H782.343V26.735H788.57V30.5113H788.797C789.252 29.2525 790.029 28.266 791.127 27.5518C792.225 26.8287 793.533 26.4672 795.051 26.4672C796.497 26.4672 797.751 26.793 798.814 27.4447C799.885 28.0875 800.715 28.9892 801.304 30.1497C801.903 31.3013 802.197 32.6494 802.188 34.1938V47.3037H795.64V35.4794C795.649 34.3367 795.359 33.4439 794.77 32.8012C794.189 32.1584 793.381 31.837 792.346 31.837C791.658 31.837 791.051 31.9888 790.525 32.2923C790.007 32.5869 789.605 33.0109 789.319 33.5644C789.043 34.1179 788.9 34.7875 788.891 35.5731ZM806.242 47.3037V26.735H812.791V47.3037H806.242ZM809.523 24.338C808.604 24.338 807.814 24.0344 807.153 23.4274C806.492 22.8114 806.162 22.0704 806.162 21.2045C806.162 20.3474 806.492 19.6154 807.153 19.0083C807.814 18.3923 808.604 18.0843 809.523 18.0843C810.452 18.0843 811.242 18.3923 811.893 19.0083C812.554 19.6154 812.884 20.3474 812.884 21.2045C812.884 22.0704 812.554 22.8114 811.893 23.4274C811.242 24.0344 810.452 24.338 809.523 24.338ZM828.569 26.735V31.5558H815.593V26.735H828.569ZM818.311 21.8071H824.859V40.8358C824.859 41.2375 824.922 41.5634 825.047 41.8134C825.181 42.0544 825.373 42.2285 825.623 42.3356C825.873 42.4338 826.172 42.4829 826.52 42.4829C826.77 42.4829 827.033 42.4606 827.31 42.416C827.596 42.3624 827.81 42.3178 827.953 42.282L828.944 47.0091C828.631 47.0984 828.189 47.21 827.618 47.3439C827.056 47.4778 826.381 47.5626 825.596 47.5983C824.06 47.6697 822.744 47.4912 821.645 47.0627C820.556 46.6252 819.722 45.9467 819.141 45.0272C818.57 44.1077 818.293 42.9516 818.311 41.5589V21.8071ZM831.91 47.3037V26.735H838.458V47.3037H831.91ZM835.191 24.338C834.271 24.338 833.481 24.0344 832.82 23.4274C832.16 22.8114 831.829 22.0704 831.829 21.2045C831.829 20.3474 832.16 19.6154 832.82 19.0083C833.481 18.3923 834.271 18.0843 835.191 18.0843C836.119 18.0843 836.909 18.3923 837.561 19.0083C838.221 19.6154 838.552 20.3474 838.552 21.2045C838.552 22.0704 838.221 22.8114 837.561 23.4274C836.909 24.0344 836.119 24.338 835.191 24.338ZM852.241 47.6921C850.089 47.6921 848.232 47.268 846.67 46.4199C845.117 45.5629 843.921 44.3443 843.081 42.7641C842.251 41.1751 841.836 39.2869 841.836 37.0997C841.836 34.975 842.256 33.1181 843.095 31.529C843.934 29.931 845.117 28.6901 846.643 27.8063C848.17 26.9135 849.969 26.4672 852.04 26.4672C853.504 26.4672 854.843 26.6948 856.057 27.1501C857.271 27.6054 858.32 28.2794 859.204 29.1722C860.088 30.0649 860.775 31.1674 861.266 32.4798C861.757 33.7832 862.003 35.2785 862.003 36.9658V38.5995H844.126V34.7964H855.91C855.901 34.1001 855.736 33.4796 855.415 32.9351C855.093 32.3905 854.651 31.9664 854.089 31.6629C853.535 31.3505 852.897 31.1942 852.174 31.1942C851.442 31.1942 850.786 31.3594 850.205 31.6897C849.625 32.0111 849.165 32.453 848.826 33.0154C848.487 33.5689 848.308 34.1983 848.29 34.9036V38.7736C848.29 39.6128 848.456 40.3493 848.786 40.9831C849.116 41.608 849.585 42.0946 850.192 42.4427C850.799 42.7909 851.522 42.965 852.361 42.965C852.942 42.965 853.468 42.8846 853.942 42.724C854.415 42.5633 854.821 42.3267 855.16 42.0142C855.499 41.7018 855.754 41.3179 855.923 40.8626L861.936 41.0367C861.686 42.3847 861.137 43.5587 860.289 44.5585C859.45 45.5495 858.347 46.3217 856.981 46.8752C855.615 47.4198 854.035 47.6921 852.241 47.6921ZM883.305 33.0154L877.292 33.1761C877.23 32.7476 877.06 32.3682 876.783 32.0379C876.507 31.6986 876.145 31.4353 875.699 31.2478C875.261 31.0514 874.752 30.9532 874.172 30.9532C873.413 30.9532 872.766 31.1049 872.23 31.4085C871.704 31.712 871.445 32.1227 871.454 32.6405C871.445 33.0422 871.605 33.3904 871.936 33.685C872.275 33.9796 872.878 34.2161 873.744 34.3947L877.707 35.1446C879.761 35.5374 881.287 36.1891 882.287 37.0997C883.296 38.0103 883.805 39.2155 883.814 40.7153C883.805 42.1258 883.385 43.3533 882.555 44.3978C881.734 45.4423 880.609 46.2547 879.18 46.835C877.752 47.4064 876.118 47.6921 874.279 47.6921C871.342 47.6921 869.025 47.0895 867.329 45.8843C865.642 44.6701 864.678 43.0453 864.437 41.0099L870.905 40.8492C871.047 41.5991 871.418 42.1705 872.016 42.5633C872.614 42.9561 873.378 43.1525 874.306 43.1525C875.145 43.1525 875.828 42.9962 876.355 42.6838C876.882 42.3713 877.149 41.9562 877.158 41.4384C877.149 40.9742 876.944 40.6037 876.542 40.3269C876.141 40.0413 875.511 39.8181 874.654 39.6574L871.065 38.9744C869.003 38.5995 867.468 37.9076 866.459 36.8988C865.45 35.8811 864.95 34.5866 864.959 33.0154C864.95 31.6406 865.316 30.4666 866.057 29.4936C866.798 28.5115 867.851 27.7616 869.217 27.2438C870.583 26.7261 872.195 26.4672 874.052 26.4672C876.837 26.4672 879.033 27.0519 880.64 28.2214C882.247 29.382 883.135 30.98 883.305 33.0154Z" fill="#FEFEFA"/>
<path d="M283.41 25.9696C283.365 25.6811 283.376 25.3863 283.441 25.1021C283.507 24.8179 283.625 24.5498 283.79 24.3133C283.955 24.0768 284.163 23.8764 284.402 23.7236C284.641 23.5708 284.907 23.4687 285.185 23.4229L285.516 23.3708C288.079 22.9492 290.707 23.6581 292.821 25.3414C294.935 27.0247 296.362 29.5446 296.787 32.3468L296.898 33.0252C297.109 34.4131 297.068 35.8285 296.777 37.1907C296.486 38.553 295.95 39.8353 295.202 40.9644C294.453 42.0936 293.505 43.0474 292.413 43.7715C291.321 44.4957 290.105 44.9758 288.835 45.1846L288.504 45.2368C287.946 45.327 287.376 45.1832 286.919 44.8369C286.462 44.4907 286.156 43.9702 286.067 43.3894L283.41 25.9696Z" fill="#F8BF16"/>
<path d="M268.086 37.0123C268.788 36.4 268.685 36.0347 267.775 35.9164C262.962 35.311 258.342 34.5596 253.916 33.6619C250.487 32.9731 245.132 31.1257 242.915 28.1406C242.706 27.8618 242.559 27.5379 242.485 27.1925C242.411 26.8471 242.412 26.4889 242.488 26.144C242.564 25.799 242.713 25.476 242.924 25.1985C243.135 24.921 243.402 24.696 243.708 24.5398C246.014 23.3499 247.849 23.5587 250.326 23.4856C255.949 23.3186 261.424 23.7535 266.752 24.7903C267.174 24.8668 267.558 24.8146 267.906 24.6337C268.014 24.5741 268.107 24.4873 268.176 24.3811C268.244 24.275 268.286 24.1528 268.298 24.0256C268.31 23.8983 268.291 23.77 268.244 23.652C268.196 23.5341 268.122 23.4303 268.026 23.3499C262.638 18.7784 256.851 14.0886 250.667 9.28051C248.712 7.76711 246.024 4.63594 246.957 2.24581C247.649 0.461037 249.674 0.857648 251.088 1.06639C263.553 2.93466 271.165 10.0842 279.789 19.102C282.236 21.6591 281.444 24.4459 281.835 27.5979C282.363 31.8772 282.898 36.4278 283.439 41.2498C284.192 47.9401 280.952 53.6493 278.245 59.3794C275.778 64.6258 272.191 69.006 267.485 72.5199C265.489 74.0228 262.661 75.7137 260.204 74.91C257.169 73.908 256.009 71.4379 256.724 67.4995C257.038 65.767 258.228 63.5508 260.294 60.851C262.962 57.3789 265.726 54.0042 268.588 50.7269C269.129 50.1146 269.089 49.6901 268.467 49.4535C268.345 49.4133 268.209 49.4245 268.086 49.4848C265.529 50.8208 242.474 62.2705 244.44 51.8228C245.613 45.5604 261.788 39.5799 267.144 37.5759C267.491 37.4437 267.805 37.2559 268.086 37.0123Z" fill="#FBE4E1"/>
<path d="M992.562 25.9696C992.606 25.6811 992.596 25.3863 992.53 25.1021C992.465 24.8179 992.347 24.5498 992.182 24.3133C992.017 24.0768 991.809 23.8764 991.57 23.7236C991.33 23.5708 991.064 23.4687 990.787 23.4229L990.456 23.3708C987.892 22.9492 985.265 23.6581 983.151 25.3414C981.037 27.0247 979.61 29.5446 979.184 32.3468L979.074 33.0252C978.863 34.4131 978.904 35.8285 979.195 37.1907C979.486 38.553 980.021 39.8353 980.77 40.9644C981.519 42.0936 982.466 43.0474 983.559 43.7715C984.651 44.4957 985.867 44.9758 987.137 45.1846L987.468 45.2368C988.026 45.327 988.596 45.1832 989.053 44.8369C989.509 44.4907 989.816 43.9702 989.905 43.3894L992.562 25.9696Z" fill="#F8BF16"/>
<path d="M1007.89 37.0123C1007.18 36.4 1007.29 36.0347 1008.2 35.9164C1013.01 35.311 1017.63 34.5596 1022.06 33.6619C1025.49 32.9731 1030.84 31.1257 1033.06 28.1406C1033.27 27.8618 1033.41 27.5379 1033.49 27.1925C1033.56 26.8471 1033.56 26.4889 1033.48 26.144C1033.41 25.799 1033.26 25.476 1033.05 25.1985C1032.84 24.921 1032.57 24.696 1032.26 24.5398C1029.96 23.3499 1028.12 23.5587 1025.65 23.4856C1020.02 23.3186 1014.55 23.7535 1009.22 24.7903C1008.8 24.8668 1008.41 24.8146 1008.07 24.6337C1007.96 24.5741 1007.86 24.4873 1007.8 24.3811C1007.73 24.275 1007.69 24.1528 1007.67 24.0256C1007.66 23.8983 1007.68 23.77 1007.73 23.652C1007.78 23.5341 1007.85 23.4303 1007.95 23.3499C1013.33 18.7784 1019.12 14.0886 1025.3 9.28051C1027.26 7.76711 1029.95 4.63594 1029.01 2.24581C1028.32 0.461037 1026.3 0.857648 1024.88 1.06639C1012.42 2.93466 1004.81 10.0842 996.182 19.102C993.736 21.6591 994.528 24.4459 994.137 27.5979C993.609 31.8772 993.074 36.4278 992.532 41.2498C991.78 47.9401 995.019 53.6493 997.727 59.3794C1000.19 64.6258 1003.78 69.006 1008.49 72.5199C1010.48 74.0228 1013.31 75.7137 1015.77 74.91C1018.8 73.908 1019.96 71.4379 1019.25 67.4995C1018.93 65.767 1017.74 63.5508 1015.68 60.851C1013.01 57.3789 1010.25 54.0042 1007.38 50.7269C1006.84 50.1146 1006.88 49.6901 1007.5 49.4535C1007.63 49.4133 1007.76 49.4245 1007.89 49.4848C1010.44 50.8208 1033.5 62.2705 1031.53 51.8228C1030.36 45.5604 1014.18 39.5799 1008.83 37.5759C1008.48 37.4437 1008.17 37.2559 1007.89 37.0123Z" fill="#FBE4E1"/>
<rect x="167.404" y="0.875977" width="74.2402" height="74.2402" fill="#072C3F"/>
<path d="M177.059 20.6703C185.011 9.75302 206.367 -1.8446 220.436 3.53491C224.285 5.00636 227.66 8.5347 228.246 12.601C230.115 25.4327 203.563 33.6918 194.628 36.2392C186.311 38.5967 182.065 46.9982 177.692 53.9599C177.508 54.2513 177.263 54.4998 176.975 54.6884C176.686 54.8769 176.361 55.0009 176.02 55.052C175.68 55.1031 175.334 55.0801 175.004 54.9844C174.675 54.8887 174.37 54.7227 174.112 54.4978C172.005 52.6625 170.737 49.9886 170.405 47.2513C169.201 37.2729 171.419 28.4125 177.059 20.6703Z" fill="#9CDADF"/>
<path d="M192.394 55.4788C203.31 52.8049 215.984 50.3208 222.796 40.3213C226.313 35.1949 229.196 28.8819 234.266 25.0846C234.794 24.6838 235.38 24.5783 236.025 24.7682C241.696 26.3978 240.841 34.8627 239.843 39.1979C235.523 58.1528 224.454 69.4866 206.637 73.1995C198.509 74.8925 185.281 73.4052 183.982 63.026C183.427 58.6591 188.925 56.3332 192.394 55.4788Z" fill="#9CDADF"/>
<rect width="74.2402" height="74.2402" transform="matrix(-1 0 0 1 1108.57 0.875977)" fill="#072C3F"/>
<path d="M1099.97 20.5268C1091.95 9.52131 1070.43 -2.17008 1056.24 3.25293C1052.36 4.73628 1048.96 8.29315 1048.37 12.3923C1046.49 25.3278 1073.25 33.6537 1082.26 36.2216C1090.64 38.5982 1094.92 47.0676 1099.33 54.0856C1099.52 54.3794 1099.76 54.6299 1100.06 54.82C1100.35 55.01 1100.67 55.1351 1101.02 55.1866C1101.36 55.2381 1101.71 55.2148 1102.04 55.1184C1102.37 55.022 1102.68 54.8546 1102.94 54.6279C1105.07 52.7777 1106.34 50.0822 1106.68 47.3228C1107.89 37.2637 1105.66 28.3317 1099.97 20.5268Z" fill="#9CDADF"/>
<path d="M1084.51 55.6169C1073.51 52.9213 1060.73 50.4171 1053.86 40.3367C1050.32 35.1689 1047.41 28.8048 1042.3 24.9768C1041.77 24.5728 1041.18 24.4665 1040.53 24.6579C1034.81 26.3007 1035.67 34.834 1036.68 39.2043C1041.03 58.3124 1052.19 69.7379 1070.15 73.4808C1078.35 75.1875 1091.68 73.6882 1092.99 63.225C1093.55 58.8228 1088.01 56.4782 1084.51 55.6169Z" fill="#9CDADF"/>
<rect width="92.3093" height="74.2402" transform="matrix(-1 0 0 1 1200.09 0.876953)" fill="#FBE4E1"/>
<path d="M1150.88 15.0815L1146.11 19.1735C1144.33 20.6936 1144.6 21.4385 1146.93 21.4083C1150.42 21.3479 1154.95 19.1886 1158.05 17.8447C1158.33 17.7251 1158.63 17.6635 1158.92 17.6635C1159.22 17.6635 1159.52 17.7251 1159.79 17.8447C1171.08 22.7371 1180.94 26.1496 1192.33 20.6533C1193.82 19.9285 1194.99 18.9219 1195.82 17.6333C1196 17.3417 1196.12 17.0086 1196.15 16.6627C1196.19 16.3167 1196.14 15.968 1196.01 15.6462C1195.88 15.3245 1195.68 15.0392 1195.42 14.8147C1195.17 14.5901 1194.86 14.433 1194.53 14.3567C1182.95 11.6488 1170.99 10.7982 1158.63 11.8048C1158.06 11.8516 1157.48 11.7499 1156.96 11.5096C1156.44 11.2692 1155.99 10.898 1155.65 10.4308C1153.4 7.35042 1150.79 5.41763 1147.83 4.63244C1145.46 3.99825 1144.94 4.73312 1146.27 6.83702C1147.71 9.07178 1149.29 11.1405 1151.01 13.043C1151.14 13.1833 1151.24 13.3486 1151.3 13.5289C1151.36 13.7092 1151.39 13.9007 1151.38 14.0916C1151.37 14.2824 1151.31 14.4687 1151.23 14.6389C1151.14 14.8092 1151.02 14.9598 1150.88 15.0815Z" fill="#EA5E4F"/>
<path d="M1122.11 62.6923C1118.98 64.5244 1116.38 66.8648 1114.3 69.7137C1113.93 70.217 1113.92 70.7656 1114.26 71.3595C1114.36 71.5396 1114.51 71.6895 1114.68 71.7951C1114.85 71.9008 1115.05 71.9587 1115.25 71.9635C1121.39 72.1548 1125.95 69.8798 1128.93 65.1384C1130.72 62.2846 1134.35 61.3635 1137.41 61.1974C1148.78 60.6085 1160.52 60.7595 1171.13 56.3353C1175.83 54.3723 1180.62 47.6529 1173.5 44.6632C1171.32 43.7572 1168.43 43.3847 1164.82 43.5458C1151.88 44.1095 1140.32 47.9549 1130.13 55.082C1129.78 55.3303 1129.35 55.4544 1128.92 55.4353C1128.49 55.4162 1128.08 55.255 1127.75 54.9763C1123.48 51.3322 1118.83 49.636 1113.81 49.8877C1113.53 49.9029 1113.25 49.9855 1113 50.1287C1112.76 50.272 1112.55 50.4718 1112.39 50.7118C1112.24 50.9519 1112.14 51.2254 1112.11 51.5099C1112.08 51.7944 1112.12 52.082 1112.22 52.3489C1113.92 56.9896 1117.18 60.085 1121.99 61.6353C1122.1 61.6658 1122.2 61.7286 1122.27 61.8155C1122.34 61.9024 1122.39 62.0095 1122.4 62.123C1122.42 62.2366 1122.39 62.3515 1122.34 62.4529C1122.29 62.5543 1122.21 62.6377 1122.11 62.6923Z" fill="#EA5E4F"/>
<rect x="75.8496" y="0.948242" width="92.3093" height="74.2402" fill="#FBE4E1"/>
<path d="M125.062 15.1528L129.829 19.2448C131.611 20.7649 131.339 21.5098 129.012 21.4796C125.522 21.4192 120.992 19.2599 117.889 17.916C117.612 17.7964 117.315 17.7348 117.016 17.7348C116.718 17.7348 116.423 17.7964 116.151 17.916C104.864 22.8083 95.0031 26.2209 83.6123 20.7246C82.1173 19.9998 80.9539 18.9931 80.1223 17.7046C79.9359 17.4129 79.8211 17.0799 79.7876 16.734C79.7541 16.388 79.8028 16.0393 79.9297 15.7175C80.0566 15.3958 80.2578 15.1105 80.5163 14.886C80.7748 14.6614 81.0829 14.5043 81.4143 14.428C92.9883 11.7201 104.953 10.8695 117.309 11.8761C117.882 11.9228 118.456 11.8212 118.978 11.5809C119.501 11.3405 119.954 10.9692 120.294 10.5021C122.542 7.42171 125.146 5.48892 128.106 4.70373C130.482 4.06954 131.002 4.80441 129.666 6.90831C128.23 9.14307 126.651 11.2117 124.928 13.1143C124.8 13.2545 124.702 13.4199 124.639 13.6002C124.576 13.7805 124.55 13.972 124.562 14.1629C124.575 14.3537 124.626 14.54 124.712 14.7102C124.797 14.8805 124.917 15.031 125.062 15.1528Z" fill="#EA5E4F"/>
<path d="M153.829 62.7636C156.958 64.5957 159.562 66.9361 161.641 69.7849C162.007 70.2883 162.022 70.8369 161.685 71.4308C161.58 71.6109 161.434 71.7608 161.26 71.8664C161.086 71.9721 160.89 72.03 160.69 72.0348C154.552 72.2261 149.993 69.951 147.012 65.2097C145.215 62.3559 141.592 61.4348 138.532 61.2687C127.156 60.6798 115.424 60.8308 104.806 56.4066C100.113 54.4436 95.3158 47.7242 102.444 44.7344C104.622 43.8285 107.513 43.456 111.117 43.6171C124.058 44.1808 135.622 48.0262 145.809 55.1533C146.165 55.4016 146.589 55.5257 147.018 55.5066C147.447 55.4875 147.857 55.3263 148.186 55.0476C152.463 51.4035 157.111 49.7073 162.131 49.9589C162.414 49.9741 162.69 50.0568 162.936 50.2C163.182 50.3432 163.391 50.5431 163.546 50.7831C163.701 51.0232 163.797 51.2967 163.827 51.5812C163.858 51.8657 163.821 52.1532 163.72 52.4202C162.017 57.0609 158.76 60.1563 153.948 61.7066C153.84 61.7371 153.743 61.7999 153.67 61.8868C153.597 61.9737 153.551 62.0808 153.538 62.1943C153.525 62.3079 153.546 62.4228 153.598 62.5242C153.65 62.6256 153.73 62.709 153.829 62.7636Z" fill="#EA5E4F"/>
<rect x="298.603" y="0.875977" width="53.8144" height="74.2402" fill="#FCF9E6"/>
<path d="M330.004 40.8308C327.327 43.434 325.865 46.6196 325.617 50.3875C325.392 53.841 325.348 57.7894 325.484 62.2329C325.626 66.9763 324.199 73.5979 318.447 74.6112C311.712 75.7905 303.957 75.5197 303.363 66.9064C302.826 59.0852 302.781 51.1941 303.23 43.2331C303.718 34.5675 303.301 26.4783 303.815 18.0049C304.258 10.6495 306.873 3.1195 314.353 1.17147C321.46 -0.680463 324.456 6.56132 324.093 12.056C323.844 15.7424 322.125 25.6572 326.946 27.3257C330.793 28.6622 334.027 26.1202 335.091 22.5561C336.181 18.8784 333.886 11.5406 338.565 9.91576C341.888 8.7714 345.469 11.1213 346.568 14.1962C348.252 18.9134 346.736 25.9193 345.354 31.0383C344.237 35.1789 341.747 37.5171 337.883 38.0529C335.268 38.4198 331.936 38.9527 330.004 40.8308Z" fill="#3D866B"/>
<rect width="53.8144" height="74.2402" transform="matrix(-1 0 0 1 977.371 0.875977)" fill="#FCF9E6"/>
<path d="M945.97 40.8308C948.646 43.434 950.109 46.6196 950.357 50.3875C950.581 53.841 950.626 57.7894 950.49 62.2329C950.348 66.9763 951.775 73.5979 957.526 74.6112C964.262 75.7905 972.017 75.5197 972.61 66.9064C973.148 59.0852 973.192 51.1941 972.743 43.2331C972.256 34.5675 972.672 26.4783 972.158 18.0049C971.715 10.6495 969.101 3.1195 961.621 1.17147C954.513 -0.680463 951.518 6.56132 951.881 12.056C952.129 15.7424 953.849 25.6572 949.027 27.3257C945.181 28.6622 941.946 26.1202 940.883 22.5561C939.793 18.8784 942.088 11.5406 937.409 9.91576C934.085 8.7714 930.505 11.1213 929.406 14.1962C927.722 18.9134 929.237 25.9193 930.62 31.0383C931.737 35.1789 934.227 37.5171 938.091 38.0529C940.705 38.4198 944.038 38.9527 945.97 40.8308Z" fill="#3D866B"/>
<rect width="80.5032" height="74.3109" transform="matrix(1 9.72135e-10 -0.00107818 0.999999 1200.25 0.584961)" fill="#BDE6EA"/>
<path d="M1200 11.2752C1208.18 11.2751 1215.44 7.28294 1220.01 1.11106C1224.57 7.28281 1231.83 11.2747 1240.01 11.2746C1248.19 11.2745 1255.46 7.28237 1260.02 1.11048C1264.58 7.28224 1271.85 11.2742 1280.03 11.274L1280.03 36.6898C1271.85 36.6899 1264.58 32.698 1260.02 26.5263C1255.46 32.6982 1248.19 36.6903 1240.01 36.6904C1231.83 36.6905 1224.57 32.6986 1220.01 26.5268C1215.44 32.6987 1208.18 36.6908 1200 36.691L1200 11.2752Z" fill="#072C3F"/>
<path d="M1220.01 36.6932C1215.44 42.865 1208.18 46.8572 1200 46.8573L1200 72.2731C1207.29 72.273 1214.12 70.2926 1220.01 66.8325C1225.89 70.2924 1232.73 72.2726 1240.01 72.2725C1247.3 72.2724 1254.14 70.292 1260.02 66.8319C1265.91 70.2918 1272.74 72.272 1280.03 72.2719L1280.03 46.8561C1271.85 46.8563 1264.58 42.8643 1260.02 36.6926C1255.46 42.8645 1248.19 46.8566 1240.01 46.8567C1231.83 46.8568 1224.57 42.8649 1220.01 36.6932Z" fill="#072C3F"/>
<rect width="79.1447" height="74.3109" transform="matrix(-1 0 0.00107818 0.999999 75.8496 0.876953)" fill="#BDE6EA"/>
<path d="M75.8086 14.8837C67.974 14.8835 61.0181 11.1875 56.6485 5.47338C52.2789 11.1874 45.3229 14.8832 37.4884 14.8831C29.6538 14.883 22.6978 11.187 18.3282 5.47282C13.9586 11.1868 7.00269 14.8827 -0.831887 14.8826L-0.83185 38.4133C7.00273 38.4134 13.9586 34.7176 18.3282 29.0036C22.6979 34.7177 29.6538 38.4138 37.4884 38.4139C45.323 38.414 52.2789 34.7181 56.6485 29.0041C61.0181 34.7183 67.9741 38.4143 75.8086 38.4144L75.8086 14.8837Z" fill="#072C3F"/>
<path d="M56.6485 38.4164C61.0181 44.1306 67.9741 47.8266 75.8087 47.8267L75.8087 71.3575C68.8289 71.3574 62.285 69.5239 56.6486 66.3204C51.0122 69.5237 44.4682 71.357 37.4884 71.3569C30.5087 71.3568 23.9647 69.5233 18.3283 66.3198C12.6919 69.5231 6.14799 71.3565 -0.831798 71.3564L-0.831835 47.8256C7.00274 47.8257 13.9587 44.1299 18.3283 38.4159C22.6979 44.13 29.6538 47.826 37.4884 47.8262C45.323 47.8263 52.2789 44.1304 56.6485 38.4164Z" fill="#072C3F"/>
<rect x="-36.0752" y="147.131" width="1428.24" height="74.2402" fill="#ED949C"/>
<path d="M468.688 178.141C468.599 177.159 468.202 176.396 467.496 175.851C466.8 175.298 465.805 175.021 464.51 175.021C463.653 175.021 462.939 175.132 462.368 175.356C461.796 175.579 461.368 175.887 461.082 176.28C460.796 176.663 460.649 177.105 460.64 177.605C460.622 178.016 460.703 178.377 460.881 178.69C461.069 179.002 461.336 179.279 461.685 179.52C462.042 179.752 462.47 179.958 462.97 180.136C463.47 180.315 464.033 180.471 464.657 180.605L467.014 181.141C468.371 181.435 469.568 181.828 470.603 182.319C471.648 182.81 472.522 183.395 473.228 184.073C473.942 184.752 474.482 185.533 474.848 186.417C475.214 187.3 475.402 188.291 475.411 189.389C475.402 191.121 474.964 192.608 474.098 193.849C473.232 195.09 471.987 196.04 470.362 196.701C468.746 197.362 466.796 197.692 464.51 197.692C462.216 197.692 460.216 197.348 458.511 196.661C456.806 195.973 455.48 194.929 454.534 193.527C453.587 192.126 453.101 190.354 453.074 188.211H459.422C459.475 189.095 459.712 189.831 460.131 190.421C460.551 191.01 461.127 191.456 461.859 191.76C462.6 192.063 463.457 192.215 464.43 192.215C465.323 192.215 466.081 192.094 466.706 191.853C467.34 191.612 467.827 191.278 468.166 190.849C468.505 190.421 468.679 189.93 468.688 189.376C468.679 188.858 468.519 188.416 468.206 188.05C467.894 187.675 467.412 187.354 466.76 187.086C466.117 186.809 465.296 186.555 464.296 186.323L461.43 185.653C459.056 185.109 457.185 184.229 455.819 183.015C454.453 181.792 453.775 180.141 453.784 178.061C453.775 176.364 454.23 174.878 455.15 173.601C456.069 172.325 457.341 171.329 458.966 170.615C460.591 169.901 462.443 169.544 464.524 169.544C466.648 169.544 468.492 169.905 470.054 170.629C471.625 171.343 472.844 172.347 473.71 173.642C474.576 174.936 475.018 176.436 475.036 178.141H468.688ZM492.029 188.465V176.775H498.564V197.344H492.323V193.514H492.109C491.654 194.773 490.877 195.773 489.779 196.514C488.69 197.246 487.373 197.612 485.829 197.612C484.427 197.612 483.195 197.29 482.133 196.647C481.07 196.005 480.245 195.107 479.655 193.956C479.066 192.795 478.767 191.438 478.758 189.885V176.775H485.307V188.599C485.315 189.715 485.61 190.595 486.19 191.237C486.771 191.88 487.561 192.202 488.561 192.202C489.212 192.202 489.797 192.059 490.315 191.773C490.842 191.478 491.257 191.054 491.56 190.501C491.873 189.938 492.029 189.26 492.029 188.465ZM520.689 183.055L514.677 183.216C514.614 182.788 514.444 182.408 514.168 182.078C513.891 181.739 513.529 181.475 513.083 181.288C512.646 181.091 512.137 180.993 511.556 180.993C510.798 180.993 510.15 181.145 509.615 181.449C509.088 181.752 508.829 182.163 508.838 182.68C508.829 183.082 508.99 183.43 509.32 183.725C509.659 184.02 510.262 184.256 511.128 184.435L515.092 185.185C517.145 185.577 518.672 186.229 519.671 187.14C520.68 188.05 521.189 189.256 521.198 190.755C521.189 192.166 520.769 193.393 519.939 194.438C519.118 195.482 517.993 196.295 516.565 196.875C515.136 197.446 513.503 197.732 511.664 197.732C508.726 197.732 506.41 197.129 504.714 195.924C503.026 194.71 502.062 193.085 501.821 191.05L508.289 190.889C508.432 191.639 508.802 192.21 509.4 192.603C509.999 192.996 510.762 193.193 511.69 193.193C512.53 193.193 513.212 193.036 513.739 192.724C514.266 192.411 514.534 191.996 514.543 191.478C514.534 191.014 514.328 190.644 513.927 190.367C513.525 190.081 512.896 189.858 512.038 189.697L508.45 189.014C506.387 188.64 504.852 187.948 503.843 186.939C502.834 185.921 502.334 184.627 502.343 183.055C502.334 181.681 502.7 180.507 503.441 179.534C504.182 178.552 505.236 177.802 506.602 177.284C507.968 176.766 509.579 176.507 511.436 176.507C514.221 176.507 516.417 177.092 518.024 178.261C519.631 179.422 520.52 181.02 520.689 183.055ZM536.032 176.775V181.596H523.056V176.775H536.032ZM525.774 171.847H532.323V190.876C532.323 191.278 532.385 191.603 532.51 191.853C532.644 192.094 532.836 192.269 533.086 192.376C533.336 192.474 533.635 192.523 533.983 192.523C534.233 192.523 534.496 192.501 534.773 192.456C535.059 192.402 535.273 192.358 535.416 192.322L536.407 197.049C536.094 197.138 535.653 197.25 535.081 197.384C534.519 197.518 533.845 197.603 533.059 197.638C531.524 197.71 530.207 197.531 529.109 197.103C528.02 196.665 527.185 195.987 526.605 195.067C526.033 194.148 525.757 192.992 525.774 191.599V171.847ZM545.171 197.692C543.859 197.692 542.694 197.473 541.676 197.036C540.668 196.589 539.869 195.92 539.279 195.027C538.699 194.125 538.409 192.996 538.409 191.639C538.409 190.496 538.61 189.532 539.012 188.747C539.413 187.961 539.967 187.323 540.672 186.832C541.377 186.341 542.19 185.97 543.109 185.72C544.029 185.461 545.011 185.287 546.055 185.198C547.225 185.091 548.167 184.979 548.881 184.863C549.595 184.738 550.113 184.564 550.434 184.341C550.764 184.109 550.93 183.783 550.93 183.363V183.296C550.93 182.609 550.693 182.078 550.22 181.703C549.747 181.328 549.108 181.141 548.305 181.141C547.439 181.141 546.743 181.328 546.216 181.703C545.689 182.078 545.354 182.596 545.212 183.256L539.172 183.042C539.351 181.792 539.811 180.676 540.551 179.694C541.301 178.703 542.328 177.927 543.631 177.364C544.944 176.793 546.519 176.507 548.359 176.507C549.671 176.507 550.88 176.663 551.987 176.976C553.094 177.279 554.059 177.726 554.88 178.315C555.701 178.895 556.335 179.609 556.782 180.458C557.237 181.306 557.464 182.274 557.464 183.363V197.344H551.305V194.478H551.144C550.778 195.174 550.309 195.764 549.738 196.246C549.175 196.728 548.51 197.089 547.743 197.33C546.984 197.571 546.127 197.692 545.171 197.692ZM547.193 193.407C547.899 193.407 548.533 193.264 549.095 192.978C549.666 192.693 550.122 192.3 550.461 191.8C550.8 191.291 550.97 190.702 550.97 190.032V188.077C550.782 188.175 550.555 188.265 550.287 188.345C550.028 188.425 549.742 188.501 549.43 188.573C549.117 188.644 548.796 188.706 548.466 188.76C548.135 188.814 547.818 188.863 547.515 188.907C546.899 189.006 546.372 189.157 545.935 189.363C545.506 189.568 545.176 189.836 544.944 190.166C544.721 190.488 544.609 190.871 544.609 191.318C544.609 191.996 544.85 192.514 545.332 192.871C545.823 193.228 546.444 193.407 547.193 193.407ZM561.468 197.344V176.775H568.017V197.344H561.468ZM564.749 174.378C563.83 174.378 563.04 174.074 562.379 173.467C561.718 172.851 561.388 172.11 561.388 171.245C561.388 170.387 561.718 169.655 562.379 169.048C563.04 168.432 563.83 168.124 564.749 168.124C565.678 168.124 566.468 168.432 567.119 169.048C567.78 169.655 568.11 170.387 568.11 171.245C568.11 172.11 567.78 172.851 567.119 173.467C566.468 174.074 565.678 174.378 564.749 174.378ZM578.733 185.613V197.344H572.185V176.775H578.411V180.551H578.639C579.094 179.293 579.871 178.306 580.969 177.592C582.067 176.869 583.375 176.507 584.893 176.507C586.339 176.507 587.593 176.833 588.656 177.485C589.727 178.128 590.557 179.029 591.146 180.19C591.745 181.341 592.039 182.689 592.03 184.234V197.344H585.482V185.519C585.491 184.377 585.201 183.484 584.612 182.841C584.031 182.198 583.223 181.877 582.188 181.877C581.5 181.877 580.893 182.029 580.367 182.332C579.849 182.627 579.447 183.051 579.161 183.604C578.885 184.158 578.742 184.828 578.733 185.613ZM601.883 197.692C600.57 197.692 599.405 197.473 598.388 197.036C597.379 196.589 596.58 195.92 595.991 195.027C595.41 194.125 595.12 192.996 595.12 191.639C595.12 190.496 595.321 189.532 595.723 188.747C596.125 187.961 596.678 187.323 597.383 186.832C598.089 186.341 598.901 185.97 599.82 185.72C600.74 185.461 601.722 185.287 602.767 185.198C603.936 185.091 604.878 184.979 605.592 184.863C606.306 184.738 606.824 184.564 607.145 184.341C607.476 184.109 607.641 183.783 607.641 183.363V183.296C607.641 182.609 607.404 182.078 606.931 181.703C606.458 181.328 605.82 181.141 605.016 181.141C604.15 181.141 603.454 181.328 602.927 181.703C602.4 182.078 602.066 182.596 601.923 183.256L595.883 183.042C596.062 181.792 596.522 180.676 597.263 179.694C598.013 178.703 599.039 177.927 600.343 177.364C601.655 176.793 603.231 176.507 605.07 176.507C606.382 176.507 607.592 176.663 608.699 176.976C609.806 177.279 610.77 177.726 611.591 178.315C612.413 178.895 613.046 179.609 613.493 180.458C613.948 181.306 614.176 182.274 614.176 183.363V197.344H608.016V194.478H607.855C607.489 195.174 607.02 195.764 606.449 196.246C605.887 196.728 605.222 197.089 604.454 197.33C603.695 197.571 602.838 197.692 601.883 197.692ZM603.905 193.407C604.61 193.407 605.244 193.264 605.806 192.978C606.378 192.693 606.833 192.3 607.172 191.8C607.511 191.291 607.681 190.702 607.681 190.032V188.077C607.494 188.175 607.266 188.265 606.998 188.345C606.739 188.425 606.454 188.501 606.141 188.573C605.829 188.644 605.507 188.706 605.177 188.76C604.847 188.814 604.53 188.863 604.226 188.907C603.61 189.006 603.083 189.157 602.646 189.363C602.217 189.568 601.887 189.836 601.655 190.166C601.432 190.488 601.32 190.871 601.32 191.318C601.32 191.996 601.561 192.514 602.043 192.871C602.534 193.228 603.155 193.407 603.905 193.407ZM618.18 197.344V169.919H624.728V180.297H624.862C625.13 179.672 625.509 179.069 626 178.489C626.5 177.909 627.134 177.436 627.902 177.07C628.678 176.695 629.607 176.507 630.687 176.507C632.115 176.507 633.45 176.882 634.691 177.632C635.941 178.382 636.95 179.538 637.717 181.1C638.485 182.663 638.869 184.653 638.869 187.073C638.869 189.403 638.498 191.353 637.757 192.925C637.025 194.496 636.034 195.674 634.785 196.46C633.544 197.246 632.164 197.638 630.647 197.638C629.611 197.638 628.714 197.469 627.955 197.129C627.196 196.79 626.558 196.344 626.04 195.79C625.531 195.237 625.139 194.643 624.862 194.009H624.661V197.344H618.18ZM624.594 187.059C624.594 188.166 624.741 189.131 625.036 189.952C625.339 190.773 625.772 191.411 626.335 191.867C626.906 192.313 627.589 192.536 628.384 192.536C629.187 192.536 629.87 192.313 630.433 191.867C630.995 191.411 631.419 190.773 631.705 189.952C631.999 189.131 632.147 188.166 632.147 187.059C632.147 185.952 631.999 184.993 631.705 184.18C631.419 183.368 630.995 182.739 630.433 182.292C629.879 181.846 629.196 181.623 628.384 181.623C627.58 181.623 626.897 181.841 626.335 182.279C625.772 182.716 625.339 183.341 625.036 184.154C624.741 184.966 624.594 185.935 624.594 187.059ZM648.849 169.919V197.344H642.3V169.919H648.849ZM662.631 197.732C660.48 197.732 658.623 197.308 657.061 196.46C655.507 195.603 654.311 194.384 653.472 192.804C652.642 191.215 652.227 189.327 652.227 187.14C652.227 185.015 652.646 183.158 653.485 181.569C654.324 179.971 655.507 178.73 657.034 177.846C658.561 176.954 660.359 176.507 662.431 176.507C663.895 176.507 665.234 176.735 666.448 177.19C667.662 177.645 668.711 178.319 669.595 179.212C670.479 180.105 671.166 181.207 671.657 182.52C672.148 183.823 672.394 185.319 672.394 187.006V188.64H654.516V184.836H666.301C666.292 184.14 666.126 183.52 665.805 182.975C665.484 182.431 665.042 182.006 664.479 181.703C663.926 181.39 663.288 181.234 662.564 181.234C661.832 181.234 661.176 181.399 660.596 181.73C660.016 182.051 659.556 182.493 659.217 183.055C658.877 183.609 658.699 184.238 658.681 184.944V188.814C658.681 189.653 658.846 190.389 659.177 191.023C659.507 191.648 659.976 192.135 660.583 192.483C661.19 192.831 661.913 193.005 662.752 193.005C663.332 193.005 663.859 192.925 664.332 192.764C664.805 192.603 665.211 192.367 665.551 192.054C665.89 191.742 666.144 191.358 666.314 190.903L672.327 191.077C672.077 192.425 671.528 193.599 670.679 194.599C669.84 195.59 668.738 196.362 667.372 196.915C666.006 197.46 664.426 197.732 662.631 197.732ZM683.84 197.344V169.919H702.56V175.302H690.468V180.926H701.369V186.323H690.468V197.344H683.84ZM717.88 188.465V176.775H724.415V197.344H718.174V193.514H717.96C717.505 194.773 716.728 195.773 715.63 196.514C714.541 197.246 713.224 197.612 711.68 197.612C710.278 197.612 709.046 197.29 707.984 196.647C706.921 196.005 706.096 195.107 705.506 193.956C704.917 192.795 704.618 191.438 704.609 189.885V176.775H711.157V188.599C711.166 189.715 711.461 190.595 712.041 191.237C712.621 191.88 713.412 192.202 714.411 192.202C715.063 192.202 715.648 192.059 716.166 191.773C716.692 191.478 717.108 191.054 717.411 190.501C717.724 189.938 717.88 189.26 717.88 188.465ZM740.193 176.775V181.596H727.217V176.775H740.193ZM729.935 171.847H736.483V190.876C736.483 191.278 736.546 191.603 736.671 191.853C736.805 192.094 736.997 192.269 737.247 192.376C737.497 192.474 737.796 192.523 738.144 192.523C738.394 192.523 738.657 192.501 738.934 192.456C739.22 192.402 739.434 192.358 739.577 192.322L740.568 197.049C740.255 197.138 739.813 197.25 739.242 197.384C738.679 197.518 738.005 197.603 737.22 197.638C735.684 197.71 734.368 197.531 733.269 197.103C732.18 196.665 731.346 195.987 730.765 195.067C730.194 194.148 729.917 192.992 729.935 191.599V171.847ZM756.804 188.465V176.775H763.339V197.344H757.099V193.514H756.885C756.429 194.773 755.653 195.773 754.555 196.514C753.465 197.246 752.149 197.612 750.604 197.612C749.203 197.612 747.971 197.29 746.908 196.647C745.846 196.005 745.02 195.107 744.431 193.956C743.842 192.795 743.543 191.438 743.534 189.885V176.775H750.082V188.599C750.091 189.715 750.385 190.595 750.966 191.237C751.546 191.88 752.336 192.202 753.336 192.202C753.988 192.202 754.572 192.059 755.09 191.773C755.617 191.478 756.032 191.054 756.336 190.501C756.648 189.938 756.804 189.26 756.804 188.465ZM767.507 197.344V176.775H773.868V180.525H774.082C774.457 179.168 775.069 178.159 775.917 177.498C776.765 176.829 777.751 176.494 778.876 176.494C779.18 176.494 779.492 176.516 779.814 176.561C780.135 176.596 780.434 176.655 780.711 176.735V182.426C780.398 182.319 779.988 182.234 779.479 182.172C778.979 182.109 778.532 182.078 778.14 182.078C777.363 182.078 776.662 182.252 776.037 182.6C775.421 182.939 774.935 183.417 774.578 184.033C774.229 184.64 774.055 185.354 774.055 186.176V197.344H767.507ZM791.926 197.732C789.774 197.732 787.917 197.308 786.355 196.46C784.802 195.603 783.605 194.384 782.766 192.804C781.936 191.215 781.521 189.327 781.521 187.14C781.521 185.015 781.941 183.158 782.78 181.569C783.619 179.971 784.802 178.73 786.328 177.846C787.855 176.954 789.654 176.507 791.725 176.507C793.189 176.507 794.528 176.735 795.742 177.19C796.956 177.645 798.005 178.319 798.889 179.212C799.773 180.105 800.46 181.207 800.951 182.52C801.442 183.823 801.688 185.319 801.688 187.006V188.64H783.811V184.836H795.595C795.586 184.14 795.421 183.52 795.099 182.975C794.778 182.431 794.336 182.006 793.774 181.703C793.22 181.39 792.582 181.234 791.859 181.234C791.127 181.234 790.471 181.399 789.89 181.73C789.31 182.051 788.85 182.493 788.511 183.055C788.172 183.609 787.993 184.238 787.975 184.944V188.814C787.975 189.653 788.141 190.389 788.471 191.023C788.801 191.648 789.27 192.135 789.877 192.483C790.484 192.831 791.207 193.005 792.046 193.005C792.627 193.005 793.153 192.925 793.626 192.764C794.1 192.603 794.506 192.367 794.845 192.054C795.184 191.742 795.439 191.358 795.608 190.903L801.621 191.077C801.371 192.425 800.822 193.599 799.974 194.599C799.135 195.59 798.032 196.362 796.666 196.915C795.3 197.46 793.72 197.732 791.926 197.732ZM822.99 183.055L816.977 183.216C816.915 182.788 816.745 182.408 816.468 182.078C816.192 181.739 815.83 181.475 815.384 181.288C814.946 181.091 814.437 180.993 813.857 180.993C813.098 180.993 812.451 181.145 811.915 181.449C811.389 181.752 811.13 182.163 811.139 182.68C811.13 183.082 811.29 183.43 811.621 183.725C811.96 184.02 812.563 184.256 813.429 184.435L817.392 185.185C819.446 185.577 820.972 186.229 821.972 187.14C822.981 188.05 823.49 189.256 823.499 190.755C823.49 192.166 823.07 193.393 822.24 194.438C821.419 195.482 820.294 196.295 818.865 196.875C817.437 197.446 815.803 197.732 813.964 197.732C811.027 197.732 808.71 197.129 807.014 195.924C805.327 194.71 804.363 193.085 804.122 191.05L810.59 190.889C810.732 191.639 811.103 192.21 811.701 192.603C812.299 192.996 813.063 193.193 813.991 193.193C814.83 193.193 815.513 193.036 816.04 192.724C816.567 192.411 816.834 191.996 816.843 191.478C816.834 191.014 816.629 190.644 816.227 190.367C815.826 190.081 815.196 189.858 814.339 189.697L810.75 189.014C808.688 188.64 807.153 187.948 806.144 186.939C805.135 185.921 804.635 184.627 804.644 183.055C804.635 181.681 805.001 180.507 805.742 179.534C806.483 178.552 807.536 177.802 808.902 177.284C810.268 176.766 811.88 176.507 813.737 176.507C816.522 176.507 818.718 177.092 820.325 178.261C821.932 179.422 822.82 181.02 822.99 183.055Z" fill="#FEFEFA"/>
<path d="M624.905 105.286V110.107H611.675V105.286H624.905ZM614.434 125.854V104.241C614.434 102.652 614.733 101.335 615.331 100.291C615.929 99.2375 616.759 98.4518 617.822 97.9341C618.884 97.4073 620.111 97.144 621.504 97.144C622.415 97.144 623.272 97.2154 624.075 97.3582C624.888 97.4921 625.49 97.6127 625.883 97.7198L624.838 102.514C624.597 102.433 624.303 102.367 623.955 102.313C623.615 102.259 623.294 102.233 622.991 102.233C622.223 102.233 621.696 102.402 621.41 102.741C621.125 103.081 620.982 103.545 620.982 104.134V125.854H614.434ZM636.994 126.243C634.834 126.243 632.977 125.801 631.424 124.917C629.879 124.024 628.687 122.783 627.848 121.194C627.018 119.596 626.603 117.744 626.603 115.637C626.603 113.521 627.018 111.669 627.848 110.08C628.687 108.482 629.879 107.241 631.424 106.357C632.977 105.464 634.834 105.018 636.994 105.018C639.155 105.018 641.007 105.464 642.552 106.357C644.105 107.241 645.297 108.482 646.127 110.08C646.966 111.669 647.386 113.521 647.386 115.637C647.386 117.744 646.966 119.596 646.127 121.194C645.297 122.783 644.105 124.024 642.552 124.917C641.007 125.801 639.155 126.243 636.994 126.243ZM637.034 121.302C637.82 121.302 638.485 121.06 639.03 120.578C639.574 120.096 639.989 119.427 640.275 118.57C640.57 117.713 640.717 116.722 640.717 115.597C640.717 114.454 640.57 113.454 640.275 112.597C639.989 111.74 639.574 111.071 639.03 110.589C638.485 110.107 637.82 109.866 637.034 109.866C636.222 109.866 635.535 110.107 634.972 110.589C634.419 111.071 633.995 111.74 633.7 112.597C633.414 113.454 633.272 114.454 633.272 115.597C633.272 116.722 633.414 117.713 633.7 118.57C633.995 119.427 634.419 120.096 634.972 120.578C635.535 121.06 636.222 121.302 637.034 121.302ZM650.74 125.854V105.286H657.101V109.035H657.315C657.69 107.678 658.302 106.67 659.15 106.009C659.998 105.339 660.984 105.005 662.109 105.005C662.413 105.005 662.725 105.027 663.047 105.072C663.368 105.107 663.667 105.165 663.944 105.246V110.937C663.631 110.83 663.221 110.745 662.712 110.682C662.212 110.62 661.766 110.589 661.373 110.589C660.596 110.589 659.895 110.763 659.27 111.111C658.654 111.45 658.168 111.928 657.811 112.544C657.463 113.151 657.288 113.865 657.288 114.686V125.854H650.74Z" fill="#FEFEFA"/>
<rect x="75.875" y="147.131" width="74.2402" height="74.2402" fill="#3D866B"/>
<path d="M75.875 221.371H94.4351L75.875 147.131V221.371Z" fill="#BED6CD"/>
<path d="M112.996 221.371H131.556L112.996 147.131V221.371Z" fill="#BED6CD"/>
<path d="M94.4346 221.371H112.995L94.4346 147.131V221.371Z" fill="#BED6CD"/>
<path d="M131.556 221.371H150.116L131.556 147.131V221.371Z" fill="#BED6CD"/>
<rect width="74.2402" height="74.2402" transform="matrix(-1 0 0 1 1200.08 147.131)" fill="#3D866B"/>
<path d="M1200.08 221.371H1181.52L1200.08 147.131V221.371Z" fill="#BED6CD"/>
<path d="M1162.96 221.371H1144.4L1162.96 147.131V221.371Z" fill="#BED6CD"/>
<path d="M1181.52 221.371H1162.96L1181.52 147.131V221.371Z" fill="#BED6CD"/>
<path d="M1144.4 221.371H1125.84L1144.4 147.131V221.371Z" fill="#BED6CD"/>
<rect x="221.998" y="147.131" width="74.2402" height="74.2402" fill="#072C3F"/>
<path d="M296.238 221.37L221.998 221.37C223.07 212.425 229.771 205.535 237.877 205.535C237.978 205.535 238.078 205.536 238.178 205.538C242.476 200.179 249.042 196.754 256.399 196.754C266.047 196.754 274.332 202.643 277.928 211.057C279.161 210.741 280.458 210.573 281.796 210.573C288.799 210.573 294.67 215.176 296.238 221.37Z" fill="#9CDADF"/>
<path d="M296.238 196.493L221.998 196.493C223.07 187.548 229.771 180.658 237.877 180.658C237.978 180.658 238.078 180.659 238.178 180.661C242.476 175.302 249.042 171.877 256.399 171.877C266.047 171.877 274.332 177.766 277.928 186.18C279.161 185.864 280.458 185.696 281.796 185.696C288.799 185.696 294.67 190.299 296.238 196.493Z" fill="#9CDADF"/>
<path d="M296.238 171.615L221.998 171.615C223.07 162.67 229.771 155.78 237.877 155.78C237.978 155.78 238.078 155.781 238.178 155.783C242.476 150.425 249.042 146.999 256.399 146.999C266.047 146.999 274.332 152.888 277.928 161.302C279.161 160.987 280.458 160.818 281.796 160.818C288.799 160.818 294.67 165.421 296.238 171.615Z" fill="#9CDADF"/>
<rect width="74.2402" height="74.2402" transform="matrix(-1 0 0 1 1053.96 147.13)" fill="#072C3F"/>
<path d="M979.72 221.37L1053.96 221.37C1052.89 212.425 1046.19 205.535 1038.08 205.535C1037.98 205.535 1037.88 205.536 1037.78 205.538C1033.48 200.179 1026.92 196.754 1019.56 196.754C1009.91 196.754 1001.63 202.643 998.03 211.057C996.797 210.741 995.5 210.573 994.162 210.573C987.159 210.573 981.288 215.176 979.72 221.37Z" fill="#9CDADF"/>
<path d="M979.72 196.493L1053.96 196.493C1052.89 187.548 1046.19 180.658 1038.08 180.658C1037.98 180.658 1037.88 180.659 1037.78 180.661C1033.48 175.302 1026.92 171.877 1019.56 171.877C1009.91 171.877 1001.63 177.766 998.03 186.18C996.797 185.864 995.5 185.696 994.162 185.696C987.159 185.696 981.288 190.299 979.72 196.493Z" fill="#9CDADF"/>
<path d="M979.72 171.615L1053.96 171.615C1052.89 162.67 1046.19 155.78 1038.08 155.78C1037.98 155.78 1037.88 155.781 1037.78 155.783C1033.48 150.425 1026.92 146.999 1019.56 146.999C1009.91 146.999 1001.63 152.888 998.03 161.302C996.797 160.987 995.5 160.818 994.162 160.818C987.159 160.818 981.288 165.421 979.72 171.615Z" fill="#9CDADF"/>
<path d="M184.185 195.756C184.136 195.821 184.1 195.896 184.082 195.975C184.063 196.055 184.062 196.138 184.078 196.218C184.094 196.298 184.127 196.373 184.175 196.44C184.223 196.506 184.284 196.562 184.355 196.602C185.829 197.456 187.838 197.114 189.371 196.595C191.757 195.786 194.296 194.661 196.99 193.221C199.981 191.62 202.771 190.257 205.359 189.134C206.98 188.431 210.522 187.368 210.536 190.477C210.559 195.565 206.721 198.228 202.319 199.641C199.83 200.438 197.237 201.015 194.541 201.37C191.001 201.836 187.471 202.232 183.953 202.559C183.123 202.635 182.274 202.755 181.404 202.919C180.134 203.155 178.365 203.39 177.475 204.391C176.404 205.59 178.657 206.705 179.48 206.915C183.55 207.952 187.964 208.029 192.022 208.5C193.71 208.695 195.897 209.015 197.248 209.957C198.966 211.153 197.381 213.209 196.078 213.864C193.655 215.082 190.05 214.883 187.41 214.453C183.103 213.759 179.711 213.266 177.231 212.974C172.979 212.478 170.045 213.951 168.43 217.392C167.873 218.581 167.629 220.004 167.241 221.288C167.233 221.316 167.216 221.339 167.191 221.354C167.166 221.369 167.137 221.374 167.108 221.369L164.586 220.88C164.514 220.865 164.484 220.822 164.493 220.751C164.661 219.608 164.671 218.506 164.523 217.444C163.825 212.393 161.188 207.22 158.54 202.835C156.376 199.246 154.528 196.098 152.996 193.391C152.321 192.195 150.212 188.203 151.988 187.232C155.548 185.275 158.244 191.834 159.094 194.174C159.993 196.644 160.888 199.149 161.779 201.69C162.096 202.598 162.52 203.407 163.049 204.119C163.456 204.661 163.867 204.659 164.283 204.115C165.343 202.735 165.033 200.907 164.586 199.402C163.98 197.369 163.047 195.128 161.786 192.681C160.284 189.762 158.832 186.938 157.428 184.208C156.169 181.761 153.166 175.555 155.253 173.498C158.267 170.529 161.085 177.733 161.749 179.532C162.971 182.828 164.154 186.039 165.298 189.163C165.664 190.157 166.621 192.416 167.729 192.813C167.792 192.837 167.86 192.844 167.927 192.834C167.994 192.825 168.058 192.798 168.113 192.758C169.291 191.89 169.154 190.473 169.139 189.171C169.132 188.486 169.08 187.823 168.984 187.18C168.652 184.998 168.268 182.993 167.832 181.165C166.601 176.012 165.795 172.124 165.413 169.499C165.169 167.829 164.885 165.349 165.749 163.797C166.425 162.586 167.946 162.428 168.777 163.591C169.154 164.113 169.426 164.65 169.594 165.202C170.106 166.877 170.439 168.696 170.595 170.658C170.841 173.783 171.096 176.95 171.359 180.161C171.477 181.596 171.786 182.886 172.286 184.031C172.334 184.142 172.409 184.239 172.504 184.314C172.599 184.389 172.712 184.439 172.831 184.46C172.951 184.48 173.073 184.471 173.188 184.433C173.303 184.395 173.407 184.329 173.49 184.241C174.046 183.647 174.399 182.864 174.546 181.89C174.854 179.896 175.007 177.892 175.004 175.879C174.994 170.748 175.145 166.259 175.455 162.413C175.75 158.727 176.799 151.778 181.541 151.101C184.991 150.608 182.775 158.212 182.354 159.606C181.26 163.227 180.12 166.953 178.934 170.787C178.428 172.428 177.102 177.019 178.132 178.384C180.141 181.037 184.344 171.732 184.872 170.588C186.95 166.075 188.928 161.847 190.804 157.903C191.96 155.471 196.547 146.263 200.011 147.197C201.316 147.548 201.829 148.465 201.551 149.949C201.278 151.389 200.729 152.886 199.904 154.441C196.572 160.729 192.359 166.486 188.281 172.439C186.671 174.79 184.946 177.365 184.053 179.988C183.991 180.172 184.005 180.373 184.09 180.546C184.176 180.72 184.327 180.853 184.51 180.915C185.364 181.206 187.085 180.124 187.764 179.657C190.182 177.989 192.663 176.071 195.206 173.903C199.443 170.295 203.082 167.287 206.123 164.878C207.652 163.668 215.212 157.631 217.103 159.838C219.286 162.384 214.038 166.931 212.257 168.381C206.245 173.274 199.59 177.464 193.045 181.647C190.305 183.396 187.884 185.119 185.781 186.816C185.377 187.142 185.019 187.556 184.706 188.056C184.677 188.103 184.658 188.155 184.65 188.21C184.643 188.264 184.647 188.32 184.663 188.373C184.679 188.426 184.707 188.475 184.743 188.517C184.78 188.558 184.825 188.592 184.876 188.615C186.324 189.27 188.976 188.06 190.383 187.368C198.729 183.251 206.16 177.545 214.455 173.274C215.526 172.722 220.32 170.496 220.021 173.45C219.762 175.967 217.904 178.252 215.81 179.896C213.09 182.032 209.859 183.963 206.119 185.687C201.589 187.774 196.933 189.741 192.152 191.588C189.635 192.559 187.342 193.619 185.271 194.767C184.883 194.984 184.455 195.399 184.185 195.756Z" fill="#FCF9E6"/>
<path d="M1091.77 195.756C1091.82 195.821 1091.86 195.896 1091.88 195.975C1091.89 196.055 1091.9 196.138 1091.88 196.218C1091.86 196.298 1091.83 196.373 1091.78 196.44C1091.74 196.506 1091.67 196.562 1091.6 196.602C1090.13 197.456 1088.12 197.114 1086.59 196.595C1084.2 195.786 1081.66 194.661 1078.97 193.221C1075.98 191.62 1073.19 190.257 1070.6 189.134C1068.98 188.431 1065.44 187.368 1065.42 190.477C1065.4 195.565 1069.24 198.228 1073.64 199.641C1076.13 200.438 1078.72 201.015 1081.42 201.37C1084.96 201.836 1088.49 202.232 1092.01 202.559C1092.83 202.635 1093.68 202.755 1094.55 202.919C1095.82 203.155 1097.59 203.39 1098.48 204.391C1099.55 205.59 1097.3 206.705 1096.48 206.915C1092.41 207.952 1087.99 208.029 1083.94 208.5C1082.25 208.695 1080.06 209.015 1078.71 209.957C1076.99 211.153 1078.58 213.209 1079.88 213.864C1082.3 215.082 1085.91 214.883 1088.55 214.453C1092.85 213.759 1096.25 213.266 1098.73 212.974C1102.98 212.478 1105.91 213.951 1107.53 217.392C1108.09 218.581 1108.33 220.004 1108.72 221.288C1108.72 221.316 1108.74 221.339 1108.77 221.354C1108.79 221.369 1108.82 221.374 1108.85 221.369L1111.37 220.88C1111.44 220.865 1111.47 220.822 1111.46 220.751C1111.3 219.608 1111.29 218.506 1111.44 217.444C1112.13 212.393 1114.77 207.22 1117.42 202.835C1119.58 199.246 1121.43 196.098 1122.96 193.391C1123.64 192.195 1125.75 188.203 1123.97 187.232C1120.41 185.275 1117.71 191.834 1116.86 194.174C1115.97 196.644 1115.07 199.149 1114.18 201.69C1113.86 202.598 1113.44 203.407 1112.91 204.119C1112.5 204.661 1112.09 204.659 1111.68 204.115C1110.62 202.735 1110.93 200.907 1111.37 199.402C1111.98 197.369 1112.91 195.128 1114.17 192.681C1115.67 189.762 1117.13 186.938 1118.53 184.208C1119.79 181.761 1122.79 175.555 1120.71 173.498C1117.69 170.529 1114.87 177.733 1114.21 179.532C1112.99 182.828 1111.8 186.039 1110.66 189.163C1110.29 190.157 1109.34 192.416 1108.23 192.813C1108.17 192.837 1108.1 192.844 1108.03 192.834C1107.96 192.825 1107.9 192.798 1107.85 192.758C1106.67 191.89 1106.8 190.473 1106.82 189.171C1106.83 188.486 1106.88 187.823 1106.97 187.18C1107.31 184.998 1107.69 182.993 1108.13 181.165C1109.36 176.012 1110.16 172.124 1110.55 169.499C1110.79 167.829 1111.07 165.349 1110.21 163.797C1109.53 162.586 1108.01 162.428 1107.18 163.591C1106.8 164.113 1106.53 164.65 1106.36 165.202C1105.85 166.877 1105.52 168.696 1105.36 170.658C1105.12 173.783 1104.86 176.95 1104.6 180.161C1104.48 181.596 1104.17 182.886 1103.67 184.031C1103.62 184.142 1103.55 184.239 1103.45 184.314C1103.36 184.389 1103.25 184.439 1103.13 184.46C1103.01 184.48 1102.88 184.471 1102.77 184.433C1102.65 184.395 1102.55 184.329 1102.47 184.241C1101.91 183.647 1101.56 182.864 1101.41 181.89C1101.1 179.896 1100.95 177.892 1100.95 175.879C1100.96 170.748 1100.81 166.259 1100.5 162.413C1100.21 158.727 1099.16 151.778 1094.42 151.101C1090.97 150.608 1093.18 158.212 1093.6 159.606C1094.7 163.227 1095.84 166.953 1097.02 170.787C1097.53 172.428 1098.86 177.019 1097.83 178.384C1095.82 181.037 1091.61 171.732 1091.09 170.588C1089.01 166.075 1087.03 161.847 1085.15 157.903C1084 155.471 1079.41 146.263 1075.95 147.197C1074.64 147.548 1074.13 148.465 1074.41 149.949C1074.68 151.389 1075.23 152.886 1076.05 154.441C1079.39 160.729 1083.6 166.486 1087.68 172.439C1089.29 174.79 1091.01 177.365 1091.91 179.988C1091.97 180.172 1091.95 180.373 1091.87 180.546C1091.78 180.72 1091.63 180.853 1091.45 180.915C1090.59 181.206 1088.87 180.124 1088.19 179.657C1085.78 177.989 1083.3 176.071 1080.75 173.903C1076.51 170.295 1072.88 167.287 1069.83 164.878C1068.31 163.668 1060.75 157.631 1058.86 159.838C1056.67 162.384 1061.92 166.931 1063.7 168.381C1069.71 173.274 1076.37 177.464 1082.91 181.647C1085.65 183.396 1088.07 185.119 1090.18 186.816C1090.58 187.142 1090.94 187.556 1091.25 188.056C1091.28 188.103 1091.3 188.155 1091.31 188.21C1091.32 188.264 1091.31 188.32 1091.29 188.373C1091.28 188.426 1091.25 188.475 1091.21 188.517C1091.18 188.558 1091.13 188.592 1091.08 188.615C1089.63 189.27 1086.98 188.06 1085.58 187.368C1077.23 183.251 1069.8 177.545 1061.5 173.274C1060.43 172.722 1055.64 170.496 1055.94 173.45C1056.2 175.967 1058.05 178.252 1060.15 179.896C1062.87 182.032 1066.1 183.963 1069.84 185.687C1074.37 187.774 1079.02 189.741 1083.81 191.588C1086.32 192.559 1088.62 193.619 1090.69 194.767C1091.07 194.984 1091.5 195.399 1091.77 195.756Z" fill="#FCF9E6"/>
<rect x="296.238" y="147.131" width="74.2402" height="74.2402" fill="#FBE4E1"/>
<path d="M366.159 184.449V151.846L356.61 161.395C350.71 155.495 342.559 151.846 333.556 151.846C324.553 151.846 316.402 155.495 310.502 161.395L322.029 172.922C324.979 169.972 329.054 168.147 333.556 168.147C338.057 168.147 342.133 169.972 345.083 172.922L333.556 184.449H300.953V217.051L310.502 207.502C316.402 213.402 324.553 217.051 333.556 217.051C342.559 217.051 350.71 213.402 356.61 207.502L345.083 195.975C342.133 198.925 338.057 200.75 333.556 200.75C329.054 200.75 324.979 198.925 322.029 195.975L333.556 184.449H366.159Z" fill="#EA5E4F"/>
<rect width="74.2402" height="74.2402" transform="matrix(-1 0 0 1 979.72 147.131)" fill="#FBE4E1"/>
<path d="M909.799 184.449V151.846L919.348 161.395C925.248 155.495 933.399 151.846 942.402 151.846C951.405 151.846 959.556 155.495 965.456 161.395L953.929 172.922C950.979 169.972 946.904 168.147 942.402 168.147C937.901 168.147 933.825 169.972 930.875 172.922L942.402 184.449H975.005V217.051L965.456 207.502C959.556 213.402 951.405 217.051 942.402 217.051C933.399 217.051 925.248 213.402 919.348 207.502L930.875 195.975C933.825 198.925 937.901 200.75 942.402 200.75C946.904 200.75 950.979 198.925 953.929 195.975L942.402 184.449H909.799Z" fill="#EA5E4F"/>
<rect width="82.26" height="74.1037" transform="matrix(1 2.22734e-09 -0.00107817 0.999999 1200.16 147.267)" fill="#EA5E4F"/>
<path d="M1247.19 149.003L1233.87 149.002L1233.87 155.519C1233.86 159.118 1236.85 162.036 1240.52 162.036C1244.2 162.036 1247.19 159.119 1247.19 155.52L1247.19 149.003Z" fill="#FCF9E6"/>
<path d="M1240.52 205.482C1236.84 205.482 1233.86 208.4 1233.86 211.999L1233.86 218.516L1247.18 218.517L1247.18 212C1247.18 208.401 1244.2 205.483 1240.52 205.482Z" fill="#FCF9E6"/>
<path d="M1260.93 154.576L1270.35 163.792L1265.64 168.4C1263.04 170.945 1258.82 170.945 1256.22 168.4C1253.62 165.855 1253.62 161.728 1256.22 159.183L1260.93 154.576Z" fill="#FCF9E6"/>
<path d="M1224.82 199.119C1222.22 196.573 1218.01 196.573 1215.41 199.118L1210.7 203.726L1220.11 212.943L1224.82 208.335C1227.42 205.79 1227.43 201.664 1224.82 199.119Z" fill="#FCF9E6"/>
<path d="M1276.04 190.279L1269.38 190.278C1265.71 190.278 1262.72 187.36 1262.72 183.761C1262.72 180.162 1265.71 177.244 1269.38 177.244L1276.04 177.245L1276.04 190.279Z" fill="#FCF9E6"/>
<path d="M1218.32 183.758C1218.32 180.159 1215.34 177.241 1211.66 177.24L1205 177.24L1205 190.274L1211.66 190.274C1215.34 190.275 1218.32 187.357 1218.32 183.758Z" fill="#FCF9E6"/>
<path d="M1260.93 212.946L1256.22 208.337C1253.62 205.792 1253.62 201.666 1256.22 199.121C1258.82 196.576 1263.04 196.576 1265.64 199.121L1270.35 203.73L1260.93 212.946Z" fill="#FCF9E6"/>
<path d="M1224.83 168.398C1227.43 165.853 1227.43 161.727 1224.83 159.181L1220.12 154.573L1210.7 163.789L1215.41 168.397C1218.01 170.942 1222.23 170.943 1224.83 168.398Z" fill="#FCF9E6"/>
<path d="M1240.52 201.138C1250.33 201.138 1258.28 193.358 1258.28 183.76C1258.28 174.163 1250.33 166.381 1240.52 166.381C1230.72 166.38 1222.76 174.16 1222.76 183.758C1222.76 193.356 1230.71 201.137 1240.52 201.138Z" fill="#FCF9E6"/>
<rect width="82.999" height="74.1037" transform="matrix(1 2.22734e-09 -0.00107817 0.999999 -7.18164 147.267)" fill="#EA5E4F"/>
<path d="M44.1858 149.003L30.8655 149.002L30.8651 155.519C30.8649 159.118 33.8465 162.036 37.5248 162.036C41.2031 162.036 44.1852 159.119 44.1854 155.52L44.1858 149.003Z" fill="#FCF9E6"/>
<path d="M37.522 205.482C33.8436 205.482 30.8616 208.4 30.8614 211.999L30.8609 218.516L44.1812 218.517L44.1817 212C44.1819 208.401 41.2003 205.483 37.522 205.482Z" fill="#FCF9E6"/>
<path d="M57.9329 154.576L67.3512 163.792L62.6414 168.4C60.0403 170.945 55.8233 170.945 53.2225 168.4C50.6217 165.855 50.622 161.728 53.2231 159.183L57.9329 154.576Z" fill="#FCF9E6"/>
<path d="M21.8243 199.119C19.2235 196.573 15.0065 196.573 12.4054 199.118L7.69563 203.726L17.1139 212.943L21.8236 208.335C24.4248 205.79 24.425 201.664 21.8243 199.119Z" fill="#FCF9E6"/>
<path d="M73.0438 190.279L66.3836 190.278C62.7053 190.278 59.7237 187.36 59.7239 183.761C59.7241 180.162 62.7062 177.244 66.3845 177.244L73.0446 177.245L73.0438 190.279Z" fill="#FCF9E6"/>
<path d="M15.3229 183.758C15.3231 180.159 12.3415 177.241 8.66316 177.24L2.00301 177.24L2.00215 190.274L8.6623 190.274C12.3406 190.275 15.3226 187.357 15.3229 183.758Z" fill="#FCF9E6"/>
<path d="M57.9291 212.946L53.22 208.337C50.6192 205.792 50.6194 201.666 53.2206 199.121C55.8217 196.576 60.0387 196.576 62.6394 199.121L67.3486 203.73L57.9291 212.946Z" fill="#FCF9E6"/>
<path d="M21.8264 168.398C24.4275 165.853 24.4278 161.727 21.827 159.181L17.1178 154.573L7.69836 163.789L12.4075 168.397C15.0083 170.942 19.2252 170.943 21.8264 168.398Z" fill="#FCF9E6"/>
<path d="M37.5222 201.138C47.331 201.138 55.2832 193.358 55.2838 183.76C55.2844 174.163 47.3333 166.381 37.5245 166.381C27.7157 166.38 19.7636 174.16 19.763 183.758C19.7623 193.356 27.7134 201.137 37.5222 201.138Z" fill="#FCF9E6"/>
</svg>
